M48
; DRILL file {KiCad 7.0.10} date Wednesday, February 28, 2024 at 06:11:57 PM
; FORMAT={-:-/ absolute / inch / decimal}
; #@! TF.CreationDate,2024-02-28T18:11:57-05:00
; #@! TF.GenerationSoftware,Kicad,Pcbnew,7.0.10
; #@! TF.FileFunction,Plated,1,2,PTH
FMAT,2
INCH
; #@! TA.AperFunction,Plated,PTH,ViaDrill
T1C0.0150
; #@! TA.AperFunction,Plated,PTH,ViaDrill
T2C0.0197
; #@! TA.AperFunction,Plated,PTH,ComponentDrill
T3C0.0276
; #@! TA.AperFunction,Plated,PTH,ComponentDrill
T4C0.0394
; #@! TA.AperFunction,Plated,PTH,ComponentDrill
T5C0.0402
%
G90
G05
T1
X5.8998Y-2.4752
X5.8998Y-2.5244
X5.949Y-2.4752
X5.949Y-2.5244
X5.9982Y-2.4752
X5.9982Y-2.5244
X6.0474Y-2.4752
X6.0474Y-2.5244
X6.115Y-3.52
X6.155Y-3.26
X6.2148Y-3.8531
X6.2443Y-3.9909
X6.275Y-3.91
X6.2935Y-3.9417
X6.295Y-3.21
X6.305Y-3.35
X6.3427Y-3.9909
X6.3427Y-4.0402
X6.3722Y-4.3256
X6.4018Y-3.9909
X6.4018Y-4.0402
X6.415Y-3.53
X6.415Y-3.57
X6.415Y-3.61
X6.415Y-3.65
X6.415Y-3.69
X6.425Y-3.26
X6.4313Y-4.3256
X6.465Y-3.53
X6.475Y-2.87
X6.475Y-2.91
X6.475Y-2.95
X6.475Y-2.99
X6.475Y-3.03
X6.475Y-3.07
X6.475Y-3.11
X6.475Y-3.15
X6.475Y-3.19
X6.475Y-3.22
X6.4904Y-4.3256
X6.515Y-3.53
X6.525Y-3.27
X6.5494Y-4.3256
X6.565Y-3.53
X6.5691Y-4.05
X6.5691Y-4.0992
X6.575Y-3.27
X6.6085Y-4.3256
X6.615Y-3.53
X6.625Y-3.27
X6.6478Y-4.05
X6.6478Y-4.0992
X6.6573Y-4.1777
X6.665Y-3.27
X6.665Y-3.31
X6.665Y-3.49
X6.665Y-3.53
X6.6675Y-4.3256
X6.6774Y-2.6524
X6.7069Y-2.6524
X6.7364Y-2.6524
X6.75Y-4.0
X6.825Y-4.0
X6.8742Y-2.8689
X6.8742Y-2.928
X6.8742Y-3.4791
X6.9037Y-3.0854
X6.9037Y-3.1248
X6.9136Y-3.4594
X6.9136Y-3.5874
X6.9333Y-3.4299
X6.9431Y-2.8689
X6.9431Y-2.928
X6.953Y-3.0854
X6.953Y-3.1248
X6.953Y-3.4004
X6.9726Y-3.3709
X6.9923Y-2.613
X6.9923Y-3.548
X6.9952Y-1.99
X7.012Y-3.5283
X7.0317Y-3.5087
X7.0364Y-4.251
X7.0507Y-3.115
X7.0711Y-3.0855
X7.0711Y-3.2612
X7.0947Y-3.0572
X7.1006Y-2.7803
X7.1229Y-3.029
X7.1337Y-3.1985
X7.136Y-2.876
X7.14Y-2.5146
X7.1596Y-2.2291
X7.1596Y-2.2783
X7.175Y-2.71
X7.1892Y-2.5146
X7.2103Y-3.122
X7.2187Y-2.2291
X7.2187Y-2.2783
X7.235Y-4.35
X7.2384Y-2.8492
X7.2482Y-2.5146
X7.2482Y-2.9378
X7.2482Y-3.361
X7.2581Y-2.9772
X7.266Y-3.0663
X7.2679Y-2.8984
X7.3073Y-2.9673
X7.3077Y-3.47
X7.3171Y-3.2921
X7.3467Y-2.9378
X7.35Y-3.65
X7.35Y-3.725
X7.3565Y-2.8886
X7.3843Y-3.4213
X7.433Y-2.9772
X7.4451Y-2.7409
X7.4451Y-2.8098
X7.4503Y-3.5228
X7.4503Y-3.5542
X7.4503Y-3.5857
X7.4539Y-3.3517
X7.456Y-3.0158
X7.5026Y-3.3029
X7.5041Y-2.8984
X7.5096Y-3.2681
X7.514Y-3.4791
X7.5337Y-2.928
X7.5632Y-2.239
X7.5632Y-2.2882
X7.5632Y-2.3472
X7.5632Y-3.4988
X7.5829Y-3.4299
X7.5927Y-3.3807
X7.6026Y-3.1203
X7.6026Y-3.174
X7.605Y-2.77
X7.6321Y-2.239
X7.6321Y-2.2882
X7.6321Y-2.3472
X7.6419Y-3.1346
X7.6518Y-3.2724
X7.6911Y-4.3551
X7.6911Y-4.4043
X7.7404Y-3.3709
X7.7404Y-4.3551
X7.7404Y-4.4043
X7.7896Y-4.3551
X7.7896Y-4.4043
X7.7994Y-3.3709
X7.805Y-3.995
X7.815Y-3.31
X7.8388Y-4.3551
X7.8388Y-4.4043
X7.888Y-4.3551
X7.888Y-4.4043
X7.8978Y-4.2469
X7.9175Y-4.2075
X7.9569Y-4.0795
X7.9667Y-4.2075
X7.9963Y-4.0303
X8.0Y-3.925
X8.0159Y-4.1484
X8.0159Y-4.2075
X8.025Y-3.95
X8.05Y-3.975
X8.075Y-3.4102
X8.075Y-3.4496
X8.075Y-3.489
X8.15Y-2.7331
X8.175Y-2.7081
X8.1833Y-4.0205
X8.1833Y-4.0598
X8.1833Y-4.1484
X8.2Y-2.6831
X8.2325Y-4.0205
X8.2522Y-3.5185
X8.2522Y-3.5677
X8.2522Y-3.6169
X8.275Y-2.75
X8.275Y-2.9
X8.3Y-2.725
X8.3Y-2.875
X8.3014Y-3.5185
X8.3014Y-3.5677
X8.3014Y-3.6169
X8.325Y-2.7
X8.325Y-2.85
X8.3506Y-3.5185
X8.3506Y-3.5677
X8.3506Y-3.6169
X8.3998Y-3.5185
X8.3998Y-3.5677
X8.3998Y-3.6169
X8.4195Y-2.4063
X8.4195Y-2.4457
X8.425Y-3.75
X8.425Y-4.0
X8.449Y-3.5185
X8.449Y-3.5677
X8.449Y-3.6169
X8.4589Y-2.4063
X8.4589Y-2.4457
X8.4982Y-2.4063
X8.4982Y-2.4457
X8.4982Y-3.5185
X8.4982Y-3.5677
X8.4982Y-3.6169
X8.5474Y-3.5185
X8.5474Y-3.5677
X8.5474Y-3.6169
X8.577Y-2.6524
X8.577Y-2.7016
X8.5967Y-3.5185
X8.5967Y-3.5677
X8.5967Y-3.6169
X8.6163Y-2.6524
X8.6163Y-2.7016
X8.6557Y-2.6524
X8.6557Y-2.7016
X8.6951Y-2.6524
X8.6951Y-2.7016
X8.7344Y-2.6524
X8.7344Y-2.7016
T2
X7.825Y-4.125
T3
X6.0267Y-3.8848
X6.0267Y-3.9478
X6.074Y-3.8533
X6.074Y-3.9163
X6.074Y-3.9793
T4
X7.4Y-3.975
X7.4707Y-3.9043
X7.5414Y-3.8336
X7.6121Y-3.7629
X7.6828Y-3.6922
T5
X6.395Y-2.01
X6.495Y-2.01
X6.595Y-2.01
X7.135Y-1.99
X7.235Y-1.99
X7.335Y-1.99
X7.895Y-2.01
X7.995Y-2.01
X8.095Y-2.01
X8.6Y-3.8
X8.6Y-3.9
X8.6Y-4.0
T3
G00X5.8988Y-3.7726
M15
G01X5.8515Y-3.7726
M16
G05
G00X5.8988Y-4.06
M15
G01X5.8515Y-4.06
M16
G05
M30
