%TF.GenerationSoftware,KiCad,Pcbnew,7.0.2*%
%TF.CreationDate,2024-02-28T17:22:57-05:00*%
%TF.ProjectId,TrumpetMelody,5472756d-7065-4744-9d65-6c6f64792e6b,rev?*%
%TF.SameCoordinates,Original*%
%TF.FileFunction,Drillmap*%
%TF.FilePolarity,Positive*%
%FSLAX45Y45*%
G04 Gerber Fmt 4.5, Leading zero omitted, Abs format (unit mm)*
G04 Created by KiCad (PCBNEW 7.0.2) date 2024-02-28 17:22:57*
%MOMM*%
%LPD*%
G01*
G04 APERTURE LIST*
%ADD10C,0.200000*%
%ADD11C,0.350000*%
G04 APERTURE END LIST*
D10*
X14732000Y-4572000D02*
X22352000Y-4572000D01*
X22352000Y-11430000D01*
X14732000Y-11430000D01*
X14732000Y-4572000D01*
D11*
X15065000Y-4905000D02*
X15415000Y-5255000D01*
X15415000Y-4905000D02*
X15065000Y-5255000D01*
X15065000Y-10747000D02*
X15415000Y-11097000D01*
X15415000Y-10747000D02*
X15065000Y-11097000D01*
X21669000Y-4905000D02*
X22019000Y-5255000D01*
X22019000Y-4905000D02*
X21669000Y-5255000D01*
X21669000Y-10747000D02*
X22019000Y-11097000D01*
X22019000Y-10747000D02*
X21669000Y-11097000D01*
D10*
X14969619Y-11752524D02*
X14969619Y-11552524D01*
X14969619Y-11552524D02*
X15017238Y-11552524D01*
X15017238Y-11552524D02*
X15045809Y-11562048D01*
X15045809Y-11562048D02*
X15064857Y-11581095D01*
X15064857Y-11581095D02*
X15074381Y-11600143D01*
X15074381Y-11600143D02*
X15083905Y-11638238D01*
X15083905Y-11638238D02*
X15083905Y-11666809D01*
X15083905Y-11666809D02*
X15074381Y-11704905D01*
X15074381Y-11704905D02*
X15064857Y-11723952D01*
X15064857Y-11723952D02*
X15045809Y-11743000D01*
X15045809Y-11743000D02*
X15017238Y-11752524D01*
X15017238Y-11752524D02*
X14969619Y-11752524D01*
X15169619Y-11752524D02*
X15169619Y-11619190D01*
X15169619Y-11657286D02*
X15179143Y-11638238D01*
X15179143Y-11638238D02*
X15188667Y-11628714D01*
X15188667Y-11628714D02*
X15207714Y-11619190D01*
X15207714Y-11619190D02*
X15226762Y-11619190D01*
X15293428Y-11752524D02*
X15293428Y-11619190D01*
X15293428Y-11552524D02*
X15283905Y-11562048D01*
X15283905Y-11562048D02*
X15293428Y-11571571D01*
X15293428Y-11571571D02*
X15302952Y-11562048D01*
X15302952Y-11562048D02*
X15293428Y-11552524D01*
X15293428Y-11552524D02*
X15293428Y-11571571D01*
X15417238Y-11752524D02*
X15398190Y-11743000D01*
X15398190Y-11743000D02*
X15388667Y-11723952D01*
X15388667Y-11723952D02*
X15388667Y-11552524D01*
X15522000Y-11752524D02*
X15502952Y-11743000D01*
X15502952Y-11743000D02*
X15493428Y-11723952D01*
X15493428Y-11723952D02*
X15493428Y-11552524D01*
X15750571Y-11752524D02*
X15750571Y-11552524D01*
X15750571Y-11552524D02*
X15817238Y-11695381D01*
X15817238Y-11695381D02*
X15883905Y-11552524D01*
X15883905Y-11552524D02*
X15883905Y-11752524D01*
X16064857Y-11752524D02*
X16064857Y-11647762D01*
X16064857Y-11647762D02*
X16055333Y-11628714D01*
X16055333Y-11628714D02*
X16036286Y-11619190D01*
X16036286Y-11619190D02*
X15998190Y-11619190D01*
X15998190Y-11619190D02*
X15979143Y-11628714D01*
X16064857Y-11743000D02*
X16045809Y-11752524D01*
X16045809Y-11752524D02*
X15998190Y-11752524D01*
X15998190Y-11752524D02*
X15979143Y-11743000D01*
X15979143Y-11743000D02*
X15969619Y-11723952D01*
X15969619Y-11723952D02*
X15969619Y-11704905D01*
X15969619Y-11704905D02*
X15979143Y-11685857D01*
X15979143Y-11685857D02*
X15998190Y-11676333D01*
X15998190Y-11676333D02*
X16045809Y-11676333D01*
X16045809Y-11676333D02*
X16064857Y-11666809D01*
X16160095Y-11619190D02*
X16160095Y-11819190D01*
X16160095Y-11628714D02*
X16179143Y-11619190D01*
X16179143Y-11619190D02*
X16217238Y-11619190D01*
X16217238Y-11619190D02*
X16236286Y-11628714D01*
X16236286Y-11628714D02*
X16245809Y-11638238D01*
X16245809Y-11638238D02*
X16255333Y-11657286D01*
X16255333Y-11657286D02*
X16255333Y-11714428D01*
X16255333Y-11714428D02*
X16245809Y-11733476D01*
X16245809Y-11733476D02*
X16236286Y-11743000D01*
X16236286Y-11743000D02*
X16217238Y-11752524D01*
X16217238Y-11752524D02*
X16179143Y-11752524D01*
X16179143Y-11752524D02*
X16160095Y-11743000D01*
X16341048Y-11733476D02*
X16350571Y-11743000D01*
X16350571Y-11743000D02*
X16341048Y-11752524D01*
X16341048Y-11752524D02*
X16331524Y-11743000D01*
X16331524Y-11743000D02*
X16341048Y-11733476D01*
X16341048Y-11733476D02*
X16341048Y-11752524D01*
X16341048Y-11628714D02*
X16350571Y-11638238D01*
X16350571Y-11638238D02*
X16341048Y-11647762D01*
X16341048Y-11647762D02*
X16331524Y-11638238D01*
X16331524Y-11638238D02*
X16341048Y-11628714D01*
X16341048Y-11628714D02*
X16341048Y-11647762D01*
X14522000Y-11980000D02*
X14722000Y-12180000D01*
X14722000Y-11980000D02*
X14522000Y-12180000D01*
X14950571Y-11972524D02*
X15074381Y-11972524D01*
X15074381Y-11972524D02*
X15007714Y-12048714D01*
X15007714Y-12048714D02*
X15036286Y-12048714D01*
X15036286Y-12048714D02*
X15055333Y-12058238D01*
X15055333Y-12058238D02*
X15064857Y-12067762D01*
X15064857Y-12067762D02*
X15074381Y-12086809D01*
X15074381Y-12086809D02*
X15074381Y-12134428D01*
X15074381Y-12134428D02*
X15064857Y-12153476D01*
X15064857Y-12153476D02*
X15055333Y-12163000D01*
X15055333Y-12163000D02*
X15036286Y-12172524D01*
X15036286Y-12172524D02*
X14979143Y-12172524D01*
X14979143Y-12172524D02*
X14960095Y-12163000D01*
X14960095Y-12163000D02*
X14950571Y-12153476D01*
X15160095Y-12153476D02*
X15169619Y-12163000D01*
X15169619Y-12163000D02*
X15160095Y-12172524D01*
X15160095Y-12172524D02*
X15150571Y-12163000D01*
X15150571Y-12163000D02*
X15160095Y-12153476D01*
X15160095Y-12153476D02*
X15160095Y-12172524D01*
X15350571Y-11972524D02*
X15255333Y-11972524D01*
X15255333Y-11972524D02*
X15245809Y-12067762D01*
X15245809Y-12067762D02*
X15255333Y-12058238D01*
X15255333Y-12058238D02*
X15274381Y-12048714D01*
X15274381Y-12048714D02*
X15322000Y-12048714D01*
X15322000Y-12048714D02*
X15341048Y-12058238D01*
X15341048Y-12058238D02*
X15350571Y-12067762D01*
X15350571Y-12067762D02*
X15360095Y-12086809D01*
X15360095Y-12086809D02*
X15360095Y-12134428D01*
X15360095Y-12134428D02*
X15350571Y-12153476D01*
X15350571Y-12153476D02*
X15341048Y-12163000D01*
X15341048Y-12163000D02*
X15322000Y-12172524D01*
X15322000Y-12172524D02*
X15274381Y-12172524D01*
X15274381Y-12172524D02*
X15255333Y-12163000D01*
X15255333Y-12163000D02*
X15245809Y-12153476D01*
X15483905Y-11972524D02*
X15502952Y-11972524D01*
X15502952Y-11972524D02*
X15522000Y-11982048D01*
X15522000Y-11982048D02*
X15531524Y-11991571D01*
X15531524Y-11991571D02*
X15541048Y-12010619D01*
X15541048Y-12010619D02*
X15550571Y-12048714D01*
X15550571Y-12048714D02*
X15550571Y-12096333D01*
X15550571Y-12096333D02*
X15541048Y-12134428D01*
X15541048Y-12134428D02*
X15531524Y-12153476D01*
X15531524Y-12153476D02*
X15522000Y-12163000D01*
X15522000Y-12163000D02*
X15502952Y-12172524D01*
X15502952Y-12172524D02*
X15483905Y-12172524D01*
X15483905Y-12172524D02*
X15464857Y-12163000D01*
X15464857Y-12163000D02*
X15455333Y-12153476D01*
X15455333Y-12153476D02*
X15445809Y-12134428D01*
X15445809Y-12134428D02*
X15436286Y-12096333D01*
X15436286Y-12096333D02*
X15436286Y-12048714D01*
X15436286Y-12048714D02*
X15445809Y-12010619D01*
X15445809Y-12010619D02*
X15455333Y-11991571D01*
X15455333Y-11991571D02*
X15464857Y-11982048D01*
X15464857Y-11982048D02*
X15483905Y-11972524D01*
X15674381Y-11972524D02*
X15693429Y-11972524D01*
X15693429Y-11972524D02*
X15712476Y-11982048D01*
X15712476Y-11982048D02*
X15722000Y-11991571D01*
X15722000Y-11991571D02*
X15731524Y-12010619D01*
X15731524Y-12010619D02*
X15741048Y-12048714D01*
X15741048Y-12048714D02*
X15741048Y-12096333D01*
X15741048Y-12096333D02*
X15731524Y-12134428D01*
X15731524Y-12134428D02*
X15722000Y-12153476D01*
X15722000Y-12153476D02*
X15712476Y-12163000D01*
X15712476Y-12163000D02*
X15693429Y-12172524D01*
X15693429Y-12172524D02*
X15674381Y-12172524D01*
X15674381Y-12172524D02*
X15655333Y-12163000D01*
X15655333Y-12163000D02*
X15645809Y-12153476D01*
X15645809Y-12153476D02*
X15636286Y-12134428D01*
X15636286Y-12134428D02*
X15626762Y-12096333D01*
X15626762Y-12096333D02*
X15626762Y-12048714D01*
X15626762Y-12048714D02*
X15636286Y-12010619D01*
X15636286Y-12010619D02*
X15645809Y-11991571D01*
X15645809Y-11991571D02*
X15655333Y-11982048D01*
X15655333Y-11982048D02*
X15674381Y-11972524D01*
X15826762Y-12172524D02*
X15826762Y-12039190D01*
X15826762Y-12058238D02*
X15836286Y-12048714D01*
X15836286Y-12048714D02*
X15855333Y-12039190D01*
X15855333Y-12039190D02*
X15883905Y-12039190D01*
X15883905Y-12039190D02*
X15902952Y-12048714D01*
X15902952Y-12048714D02*
X15912476Y-12067762D01*
X15912476Y-12067762D02*
X15912476Y-12172524D01*
X15912476Y-12067762D02*
X15922000Y-12048714D01*
X15922000Y-12048714D02*
X15941048Y-12039190D01*
X15941048Y-12039190D02*
X15969619Y-12039190D01*
X15969619Y-12039190D02*
X15988667Y-12048714D01*
X15988667Y-12048714D02*
X15998190Y-12067762D01*
X15998190Y-12067762D02*
X15998190Y-12172524D01*
X16093429Y-12172524D02*
X16093429Y-12039190D01*
X16093429Y-12058238D02*
X16102952Y-12048714D01*
X16102952Y-12048714D02*
X16122000Y-12039190D01*
X16122000Y-12039190D02*
X16150571Y-12039190D01*
X16150571Y-12039190D02*
X16169619Y-12048714D01*
X16169619Y-12048714D02*
X16179143Y-12067762D01*
X16179143Y-12067762D02*
X16179143Y-12172524D01*
X16179143Y-12067762D02*
X16188667Y-12048714D01*
X16188667Y-12048714D02*
X16207714Y-12039190D01*
X16207714Y-12039190D02*
X16236286Y-12039190D01*
X16236286Y-12039190D02*
X16255333Y-12048714D01*
X16255333Y-12048714D02*
X16264857Y-12067762D01*
X16264857Y-12067762D02*
X16264857Y-12172524D01*
X16655333Y-11963000D02*
X16483905Y-12220143D01*
X16912476Y-11972524D02*
X16931524Y-11972524D01*
X16931524Y-11972524D02*
X16950572Y-11982048D01*
X16950572Y-11982048D02*
X16960095Y-11991571D01*
X16960095Y-11991571D02*
X16969619Y-12010619D01*
X16969619Y-12010619D02*
X16979143Y-12048714D01*
X16979143Y-12048714D02*
X16979143Y-12096333D01*
X16979143Y-12096333D02*
X16969619Y-12134428D01*
X16969619Y-12134428D02*
X16960095Y-12153476D01*
X16960095Y-12153476D02*
X16950572Y-12163000D01*
X16950572Y-12163000D02*
X16931524Y-12172524D01*
X16931524Y-12172524D02*
X16912476Y-12172524D01*
X16912476Y-12172524D02*
X16893429Y-12163000D01*
X16893429Y-12163000D02*
X16883905Y-12153476D01*
X16883905Y-12153476D02*
X16874381Y-12134428D01*
X16874381Y-12134428D02*
X16864857Y-12096333D01*
X16864857Y-12096333D02*
X16864857Y-12048714D01*
X16864857Y-12048714D02*
X16874381Y-12010619D01*
X16874381Y-12010619D02*
X16883905Y-11991571D01*
X16883905Y-11991571D02*
X16893429Y-11982048D01*
X16893429Y-11982048D02*
X16912476Y-11972524D01*
X17064857Y-12153476D02*
X17074381Y-12163000D01*
X17074381Y-12163000D02*
X17064857Y-12172524D01*
X17064857Y-12172524D02*
X17055334Y-12163000D01*
X17055334Y-12163000D02*
X17064857Y-12153476D01*
X17064857Y-12153476D02*
X17064857Y-12172524D01*
X17264857Y-12172524D02*
X17150572Y-12172524D01*
X17207714Y-12172524D02*
X17207714Y-11972524D01*
X17207714Y-11972524D02*
X17188667Y-12001095D01*
X17188667Y-12001095D02*
X17169619Y-12020143D01*
X17169619Y-12020143D02*
X17150572Y-12029667D01*
X17331524Y-11972524D02*
X17455334Y-11972524D01*
X17455334Y-11972524D02*
X17388667Y-12048714D01*
X17388667Y-12048714D02*
X17417238Y-12048714D01*
X17417238Y-12048714D02*
X17436286Y-12058238D01*
X17436286Y-12058238D02*
X17445810Y-12067762D01*
X17445810Y-12067762D02*
X17455334Y-12086809D01*
X17455334Y-12086809D02*
X17455334Y-12134428D01*
X17455334Y-12134428D02*
X17445810Y-12153476D01*
X17445810Y-12153476D02*
X17436286Y-12163000D01*
X17436286Y-12163000D02*
X17417238Y-12172524D01*
X17417238Y-12172524D02*
X17360095Y-12172524D01*
X17360095Y-12172524D02*
X17341048Y-12163000D01*
X17341048Y-12163000D02*
X17331524Y-12153476D01*
X17522000Y-11972524D02*
X17655334Y-11972524D01*
X17655334Y-11972524D02*
X17569619Y-12172524D01*
X17760095Y-12058238D02*
X17741048Y-12048714D01*
X17741048Y-12048714D02*
X17731524Y-12039190D01*
X17731524Y-12039190D02*
X17722000Y-12020143D01*
X17722000Y-12020143D02*
X17722000Y-12010619D01*
X17722000Y-12010619D02*
X17731524Y-11991571D01*
X17731524Y-11991571D02*
X17741048Y-11982048D01*
X17741048Y-11982048D02*
X17760095Y-11972524D01*
X17760095Y-11972524D02*
X17798191Y-11972524D01*
X17798191Y-11972524D02*
X17817238Y-11982048D01*
X17817238Y-11982048D02*
X17826762Y-11991571D01*
X17826762Y-11991571D02*
X17836286Y-12010619D01*
X17836286Y-12010619D02*
X17836286Y-12020143D01*
X17836286Y-12020143D02*
X17826762Y-12039190D01*
X17826762Y-12039190D02*
X17817238Y-12048714D01*
X17817238Y-12048714D02*
X17798191Y-12058238D01*
X17798191Y-12058238D02*
X17760095Y-12058238D01*
X17760095Y-12058238D02*
X17741048Y-12067762D01*
X17741048Y-12067762D02*
X17731524Y-12077286D01*
X17731524Y-12077286D02*
X17722000Y-12096333D01*
X17722000Y-12096333D02*
X17722000Y-12134428D01*
X17722000Y-12134428D02*
X17731524Y-12153476D01*
X17731524Y-12153476D02*
X17741048Y-12163000D01*
X17741048Y-12163000D02*
X17760095Y-12172524D01*
X17760095Y-12172524D02*
X17798191Y-12172524D01*
X17798191Y-12172524D02*
X17817238Y-12163000D01*
X17817238Y-12163000D02*
X17826762Y-12153476D01*
X17826762Y-12153476D02*
X17836286Y-12134428D01*
X17836286Y-12134428D02*
X17836286Y-12096333D01*
X17836286Y-12096333D02*
X17826762Y-12077286D01*
X17826762Y-12077286D02*
X17817238Y-12067762D01*
X17817238Y-12067762D02*
X17798191Y-12058238D01*
X17912476Y-11972524D02*
X17912476Y-12010619D01*
X17988667Y-11972524D02*
X17988667Y-12010619D01*
X18283905Y-12248714D02*
X18274381Y-12239190D01*
X18274381Y-12239190D02*
X18255334Y-12210619D01*
X18255334Y-12210619D02*
X18245810Y-12191571D01*
X18245810Y-12191571D02*
X18236286Y-12163000D01*
X18236286Y-12163000D02*
X18226762Y-12115381D01*
X18226762Y-12115381D02*
X18226762Y-12077286D01*
X18226762Y-12077286D02*
X18236286Y-12029667D01*
X18236286Y-12029667D02*
X18245810Y-12001095D01*
X18245810Y-12001095D02*
X18255334Y-11982048D01*
X18255334Y-11982048D02*
X18274381Y-11953476D01*
X18274381Y-11953476D02*
X18283905Y-11943952D01*
X18445810Y-12039190D02*
X18445810Y-12172524D01*
X18398191Y-11963000D02*
X18350572Y-12105857D01*
X18350572Y-12105857D02*
X18474381Y-12105857D01*
X18702953Y-12172524D02*
X18702953Y-11972524D01*
X18788667Y-12172524D02*
X18788667Y-12067762D01*
X18788667Y-12067762D02*
X18779143Y-12048714D01*
X18779143Y-12048714D02*
X18760096Y-12039190D01*
X18760096Y-12039190D02*
X18731524Y-12039190D01*
X18731524Y-12039190D02*
X18712477Y-12048714D01*
X18712477Y-12048714D02*
X18702953Y-12058238D01*
X18912477Y-12172524D02*
X18893429Y-12163000D01*
X18893429Y-12163000D02*
X18883905Y-12153476D01*
X18883905Y-12153476D02*
X18874381Y-12134428D01*
X18874381Y-12134428D02*
X18874381Y-12077286D01*
X18874381Y-12077286D02*
X18883905Y-12058238D01*
X18883905Y-12058238D02*
X18893429Y-12048714D01*
X18893429Y-12048714D02*
X18912477Y-12039190D01*
X18912477Y-12039190D02*
X18941048Y-12039190D01*
X18941048Y-12039190D02*
X18960096Y-12048714D01*
X18960096Y-12048714D02*
X18969619Y-12058238D01*
X18969619Y-12058238D02*
X18979143Y-12077286D01*
X18979143Y-12077286D02*
X18979143Y-12134428D01*
X18979143Y-12134428D02*
X18969619Y-12153476D01*
X18969619Y-12153476D02*
X18960096Y-12163000D01*
X18960096Y-12163000D02*
X18941048Y-12172524D01*
X18941048Y-12172524D02*
X18912477Y-12172524D01*
X19093429Y-12172524D02*
X19074381Y-12163000D01*
X19074381Y-12163000D02*
X19064858Y-12143952D01*
X19064858Y-12143952D02*
X19064858Y-11972524D01*
X19245810Y-12163000D02*
X19226762Y-12172524D01*
X19226762Y-12172524D02*
X19188667Y-12172524D01*
X19188667Y-12172524D02*
X19169619Y-12163000D01*
X19169619Y-12163000D02*
X19160096Y-12143952D01*
X19160096Y-12143952D02*
X19160096Y-12067762D01*
X19160096Y-12067762D02*
X19169619Y-12048714D01*
X19169619Y-12048714D02*
X19188667Y-12039190D01*
X19188667Y-12039190D02*
X19226762Y-12039190D01*
X19226762Y-12039190D02*
X19245810Y-12048714D01*
X19245810Y-12048714D02*
X19255334Y-12067762D01*
X19255334Y-12067762D02*
X19255334Y-12086809D01*
X19255334Y-12086809D02*
X19160096Y-12105857D01*
X19331524Y-12163000D02*
X19350572Y-12172524D01*
X19350572Y-12172524D02*
X19388667Y-12172524D01*
X19388667Y-12172524D02*
X19407715Y-12163000D01*
X19407715Y-12163000D02*
X19417239Y-12143952D01*
X19417239Y-12143952D02*
X19417239Y-12134428D01*
X19417239Y-12134428D02*
X19407715Y-12115381D01*
X19407715Y-12115381D02*
X19388667Y-12105857D01*
X19388667Y-12105857D02*
X19360096Y-12105857D01*
X19360096Y-12105857D02*
X19341048Y-12096333D01*
X19341048Y-12096333D02*
X19331524Y-12077286D01*
X19331524Y-12077286D02*
X19331524Y-12067762D01*
X19331524Y-12067762D02*
X19341048Y-12048714D01*
X19341048Y-12048714D02*
X19360096Y-12039190D01*
X19360096Y-12039190D02*
X19388667Y-12039190D01*
X19388667Y-12039190D02*
X19407715Y-12048714D01*
X19483905Y-12248714D02*
X19493429Y-12239190D01*
X19493429Y-12239190D02*
X19512477Y-12210619D01*
X19512477Y-12210619D02*
X19522000Y-12191571D01*
X19522000Y-12191571D02*
X19531524Y-12163000D01*
X19531524Y-12163000D02*
X19541048Y-12115381D01*
X19541048Y-12115381D02*
X19541048Y-12077286D01*
X19541048Y-12077286D02*
X19531524Y-12029667D01*
X19531524Y-12029667D02*
X19522000Y-12001095D01*
X19522000Y-12001095D02*
X19512477Y-11982048D01*
X19512477Y-11982048D02*
X19493429Y-11953476D01*
X19493429Y-11953476D02*
X19483905Y-11943952D01*
X19845810Y-12248714D02*
X19836286Y-12239190D01*
X19836286Y-12239190D02*
X19817239Y-12210619D01*
X19817239Y-12210619D02*
X19807715Y-12191571D01*
X19807715Y-12191571D02*
X19798191Y-12163000D01*
X19798191Y-12163000D02*
X19788667Y-12115381D01*
X19788667Y-12115381D02*
X19788667Y-12077286D01*
X19788667Y-12077286D02*
X19798191Y-12029667D01*
X19798191Y-12029667D02*
X19807715Y-12001095D01*
X19807715Y-12001095D02*
X19817239Y-11982048D01*
X19817239Y-11982048D02*
X19836286Y-11953476D01*
X19836286Y-11953476D02*
X19845810Y-11943952D01*
X19922000Y-12039190D02*
X19922000Y-12172524D01*
X19922000Y-12058238D02*
X19931524Y-12048714D01*
X19931524Y-12048714D02*
X19950572Y-12039190D01*
X19950572Y-12039190D02*
X19979143Y-12039190D01*
X19979143Y-12039190D02*
X19998191Y-12048714D01*
X19998191Y-12048714D02*
X20007715Y-12067762D01*
X20007715Y-12067762D02*
X20007715Y-12172524D01*
X20131524Y-12172524D02*
X20112477Y-12163000D01*
X20112477Y-12163000D02*
X20102953Y-12153476D01*
X20102953Y-12153476D02*
X20093429Y-12134428D01*
X20093429Y-12134428D02*
X20093429Y-12077286D01*
X20093429Y-12077286D02*
X20102953Y-12058238D01*
X20102953Y-12058238D02*
X20112477Y-12048714D01*
X20112477Y-12048714D02*
X20131524Y-12039190D01*
X20131524Y-12039190D02*
X20160096Y-12039190D01*
X20160096Y-12039190D02*
X20179143Y-12048714D01*
X20179143Y-12048714D02*
X20188667Y-12058238D01*
X20188667Y-12058238D02*
X20198191Y-12077286D01*
X20198191Y-12077286D02*
X20198191Y-12134428D01*
X20198191Y-12134428D02*
X20188667Y-12153476D01*
X20188667Y-12153476D02*
X20179143Y-12163000D01*
X20179143Y-12163000D02*
X20160096Y-12172524D01*
X20160096Y-12172524D02*
X20131524Y-12172524D01*
X20255334Y-12039190D02*
X20331524Y-12039190D01*
X20283905Y-11972524D02*
X20283905Y-12143952D01*
X20283905Y-12143952D02*
X20293429Y-12163000D01*
X20293429Y-12163000D02*
X20312477Y-12172524D01*
X20312477Y-12172524D02*
X20331524Y-12172524D01*
X20550572Y-12039190D02*
X20550572Y-12239190D01*
X20550572Y-12048714D02*
X20569620Y-12039190D01*
X20569620Y-12039190D02*
X20607715Y-12039190D01*
X20607715Y-12039190D02*
X20626762Y-12048714D01*
X20626762Y-12048714D02*
X20636286Y-12058238D01*
X20636286Y-12058238D02*
X20645810Y-12077286D01*
X20645810Y-12077286D02*
X20645810Y-12134428D01*
X20645810Y-12134428D02*
X20636286Y-12153476D01*
X20636286Y-12153476D02*
X20626762Y-12163000D01*
X20626762Y-12163000D02*
X20607715Y-12172524D01*
X20607715Y-12172524D02*
X20569620Y-12172524D01*
X20569620Y-12172524D02*
X20550572Y-12163000D01*
X20760096Y-12172524D02*
X20741048Y-12163000D01*
X20741048Y-12163000D02*
X20731524Y-12143952D01*
X20731524Y-12143952D02*
X20731524Y-11972524D01*
X20922001Y-12172524D02*
X20922001Y-12067762D01*
X20922001Y-12067762D02*
X20912477Y-12048714D01*
X20912477Y-12048714D02*
X20893429Y-12039190D01*
X20893429Y-12039190D02*
X20855334Y-12039190D01*
X20855334Y-12039190D02*
X20836286Y-12048714D01*
X20922001Y-12163000D02*
X20902953Y-12172524D01*
X20902953Y-12172524D02*
X20855334Y-12172524D01*
X20855334Y-12172524D02*
X20836286Y-12163000D01*
X20836286Y-12163000D02*
X20826762Y-12143952D01*
X20826762Y-12143952D02*
X20826762Y-12124905D01*
X20826762Y-12124905D02*
X20836286Y-12105857D01*
X20836286Y-12105857D02*
X20855334Y-12096333D01*
X20855334Y-12096333D02*
X20902953Y-12096333D01*
X20902953Y-12096333D02*
X20922001Y-12086809D01*
X20988667Y-12039190D02*
X21064858Y-12039190D01*
X21017239Y-11972524D02*
X21017239Y-12143952D01*
X21017239Y-12143952D02*
X21026762Y-12163000D01*
X21026762Y-12163000D02*
X21045810Y-12172524D01*
X21045810Y-12172524D02*
X21064858Y-12172524D01*
X21207715Y-12163000D02*
X21188667Y-12172524D01*
X21188667Y-12172524D02*
X21150572Y-12172524D01*
X21150572Y-12172524D02*
X21131524Y-12163000D01*
X21131524Y-12163000D02*
X21122001Y-12143952D01*
X21122001Y-12143952D02*
X21122001Y-12067762D01*
X21122001Y-12067762D02*
X21131524Y-12048714D01*
X21131524Y-12048714D02*
X21150572Y-12039190D01*
X21150572Y-12039190D02*
X21188667Y-12039190D01*
X21188667Y-12039190D02*
X21207715Y-12048714D01*
X21207715Y-12048714D02*
X21217239Y-12067762D01*
X21217239Y-12067762D02*
X21217239Y-12086809D01*
X21217239Y-12086809D02*
X21122001Y-12105857D01*
X21388667Y-12172524D02*
X21388667Y-11972524D01*
X21388667Y-12163000D02*
X21369620Y-12172524D01*
X21369620Y-12172524D02*
X21331524Y-12172524D01*
X21331524Y-12172524D02*
X21312477Y-12163000D01*
X21312477Y-12163000D02*
X21302953Y-12153476D01*
X21302953Y-12153476D02*
X21293429Y-12134428D01*
X21293429Y-12134428D02*
X21293429Y-12077286D01*
X21293429Y-12077286D02*
X21302953Y-12058238D01*
X21302953Y-12058238D02*
X21312477Y-12048714D01*
X21312477Y-12048714D02*
X21331524Y-12039190D01*
X21331524Y-12039190D02*
X21369620Y-12039190D01*
X21369620Y-12039190D02*
X21388667Y-12048714D01*
X21464858Y-12248714D02*
X21474382Y-12239190D01*
X21474382Y-12239190D02*
X21493429Y-12210619D01*
X21493429Y-12210619D02*
X21502953Y-12191571D01*
X21502953Y-12191571D02*
X21512477Y-12163000D01*
X21512477Y-12163000D02*
X21522001Y-12115381D01*
X21522001Y-12115381D02*
X21522001Y-12077286D01*
X21522001Y-12077286D02*
X21512477Y-12029667D01*
X21512477Y-12029667D02*
X21502953Y-12001095D01*
X21502953Y-12001095D02*
X21493429Y-11982048D01*
X21493429Y-11982048D02*
X21474382Y-11953476D01*
X21474382Y-11953476D02*
X21464858Y-11943952D01*
M02*
