%TF.GenerationSoftware,KiCad,Pcbnew,7.0.10*%
%TF.CreationDate,2024-03-08T11:24:00-05:00*%
%TF.ProjectId,TrumpetMelody,5472756d-7065-4744-9d65-6c6f64792e6b,rev?*%
%TF.SameCoordinates,Original*%
%TF.FileFunction,Legend,Bot*%
%TF.FilePolarity,Positive*%
%FSLAX46Y46*%
G04 Gerber Fmt 4.6, Leading zero omitted, Abs format (unit mm)*
G04 Created by KiCad (PCBNEW 7.0.10) date 2024-03-08 11:24:00*
%MOMM*%
%LPD*%
G01*
G04 APERTURE LIST*
%ADD10C,0.152400*%
%ADD11C,0.120000*%
G04 APERTURE END LIST*
D10*
X183731181Y-86510479D02*
X183799064Y-86511018D01*
X183799064Y-86511018D02*
X183934289Y-86444213D01*
X183934289Y-86444213D02*
X184001633Y-86376869D01*
X184001633Y-86376869D02*
X184068438Y-86241644D01*
X184068438Y-86241644D02*
X184067360Y-86105879D01*
X184067360Y-86105879D02*
X184032611Y-86003786D01*
X184032611Y-86003786D02*
X183929441Y-85833273D01*
X183929441Y-85833273D02*
X183826809Y-85730641D01*
X183826809Y-85730641D02*
X183656296Y-85627471D01*
X183656296Y-85627471D02*
X183554203Y-85592722D01*
X183554203Y-85592722D02*
X183418438Y-85591644D01*
X183418438Y-85591644D02*
X183283212Y-85658449D01*
X183283212Y-85658449D02*
X183215869Y-85725792D01*
X183215869Y-85725792D02*
X183149064Y-85861018D01*
X183149064Y-85861018D02*
X183149603Y-85928900D01*
X182714564Y-86706044D02*
X183193511Y-87184991D01*
X182609239Y-86264002D02*
X183290755Y-86608800D01*
X183290755Y-86608800D02*
X182853022Y-87046533D01*
X186323065Y-80777298D02*
X186390948Y-80777837D01*
X186390948Y-80777837D02*
X186526173Y-80711032D01*
X186526173Y-80711032D02*
X186593517Y-80643688D01*
X186593517Y-80643688D02*
X186660322Y-80508463D01*
X186660322Y-80508463D02*
X186659244Y-80372698D01*
X186659244Y-80372698D02*
X186624495Y-80270605D01*
X186624495Y-80270605D02*
X186521325Y-80100092D01*
X186521325Y-80100092D02*
X186418693Y-79997460D01*
X186418693Y-79997460D02*
X186248180Y-79894290D01*
X186248180Y-79894290D02*
X186146087Y-79859541D01*
X186146087Y-79859541D02*
X186010322Y-79858463D01*
X186010322Y-79858463D02*
X185875096Y-79925268D01*
X185875096Y-79925268D02*
X185807753Y-79992611D01*
X185807753Y-79992611D02*
X185740948Y-80127837D01*
X185740948Y-80127837D02*
X185741487Y-80195719D01*
X185718051Y-81519154D02*
X186122112Y-81115093D01*
X185920082Y-81317123D02*
X185201661Y-80598703D01*
X185201661Y-80598703D02*
X185371636Y-80633991D01*
X185371636Y-80633991D02*
X185507401Y-80635068D01*
X185507401Y-80635068D02*
X185608955Y-80601935D01*
X187964520Y-73746180D02*
X187963981Y-73814063D01*
X187963981Y-73814063D02*
X188030786Y-73949288D01*
X188030786Y-73949288D02*
X188098130Y-74016632D01*
X188098130Y-74016632D02*
X188233355Y-74083437D01*
X188233355Y-74083437D02*
X188369120Y-74082359D01*
X188369120Y-74082359D02*
X188471213Y-74047610D01*
X188471213Y-74047610D02*
X188641726Y-73944440D01*
X188641726Y-73944440D02*
X188744358Y-73841808D01*
X188744358Y-73841808D02*
X188847528Y-73671295D01*
X188847528Y-73671295D02*
X188882277Y-73569202D01*
X188882277Y-73569202D02*
X188883355Y-73433437D01*
X188883355Y-73433437D02*
X188816550Y-73298211D01*
X188816550Y-73298211D02*
X188749207Y-73230868D01*
X188749207Y-73230868D02*
X188613981Y-73164063D01*
X188613981Y-73164063D02*
X188546099Y-73164602D01*
X187974756Y-72456418D02*
X188311474Y-72793135D01*
X188311474Y-72793135D02*
X188003041Y-73168912D01*
X188003041Y-73168912D02*
X188003579Y-73101030D01*
X188003579Y-73101030D02*
X187970446Y-72999476D01*
X187970446Y-72999476D02*
X187802088Y-72831117D01*
X187802088Y-72831117D02*
X187700534Y-72797984D01*
X187700534Y-72797984D02*
X187632651Y-72798523D01*
X187632651Y-72798523D02*
X187530559Y-72833272D01*
X187530559Y-72833272D02*
X187359506Y-73004324D01*
X187359506Y-73004324D02*
X187324757Y-73106417D01*
X187324757Y-73106417D02*
X187324218Y-73174299D01*
X187324218Y-73174299D02*
X187357351Y-73275853D01*
X187357351Y-73275853D02*
X187525710Y-73444212D01*
X187525710Y-73444212D02*
X187627264Y-73477345D01*
X187627264Y-73477345D02*
X187695146Y-73476806D01*
X187783241Y-82343540D02*
X187851124Y-82344079D01*
X187851124Y-82344079D02*
X187986349Y-82277274D01*
X187986349Y-82277274D02*
X188053693Y-82209930D01*
X188053693Y-82209930D02*
X188120498Y-82074705D01*
X188120498Y-82074705D02*
X188119420Y-81938940D01*
X188119420Y-81938940D02*
X188084671Y-81836847D01*
X188084671Y-81836847D02*
X187981501Y-81666334D01*
X187981501Y-81666334D02*
X187878869Y-81563702D01*
X187878869Y-81563702D02*
X187708356Y-81460532D01*
X187708356Y-81460532D02*
X187606263Y-81425783D01*
X187606263Y-81425783D02*
X187470498Y-81424705D01*
X187470498Y-81424705D02*
X187335272Y-81491510D01*
X187335272Y-81491510D02*
X187267929Y-81558853D01*
X187267929Y-81558853D02*
X187201124Y-81694079D01*
X187201124Y-81694079D02*
X187201663Y-81761961D01*
X186897540Y-81929243D02*
X186459807Y-82366975D01*
X186459807Y-82366975D02*
X186969193Y-82404957D01*
X186969193Y-82404957D02*
X186868178Y-82505972D01*
X186868178Y-82505972D02*
X186835045Y-82607526D01*
X186835045Y-82607526D02*
X186835584Y-82675409D01*
X186835584Y-82675409D02*
X186870333Y-82777501D01*
X186870333Y-82777501D02*
X187041385Y-82948554D01*
X187041385Y-82948554D02*
X187143478Y-82983303D01*
X187143478Y-82983303D02*
X187211360Y-82983842D01*
X187211360Y-82983842D02*
X187312914Y-82950709D01*
X187312914Y-82950709D02*
X187514945Y-82748678D01*
X187514945Y-82748678D02*
X187548078Y-82647124D01*
X187548078Y-82647124D02*
X187547539Y-82579242D01*
X183141085Y-83959278D02*
X183208968Y-83959817D01*
X183208968Y-83959817D02*
X183344193Y-83893012D01*
X183344193Y-83893012D02*
X183411537Y-83825668D01*
X183411537Y-83825668D02*
X183478342Y-83690443D01*
X183478342Y-83690443D02*
X183477264Y-83554678D01*
X183477264Y-83554678D02*
X183442515Y-83452585D01*
X183442515Y-83452585D02*
X183339345Y-83282072D01*
X183339345Y-83282072D02*
X183236713Y-83179440D01*
X183236713Y-83179440D02*
X183066200Y-83076270D01*
X183066200Y-83076270D02*
X182964107Y-83041521D01*
X182964107Y-83041521D02*
X182828342Y-83040443D01*
X182828342Y-83040443D02*
X182693116Y-83107248D01*
X182693116Y-83107248D02*
X182625773Y-83174591D01*
X182625773Y-83174591D02*
X182558968Y-83309817D01*
X182558968Y-83309817D02*
X182559507Y-83377699D01*
X182290133Y-83647073D02*
X182222251Y-83646535D01*
X182222251Y-83646535D02*
X182120697Y-83679668D01*
X182120697Y-83679668D02*
X181952338Y-83848026D01*
X181952338Y-83848026D02*
X181919205Y-83949580D01*
X181919205Y-83949580D02*
X181919744Y-84017463D01*
X181919744Y-84017463D02*
X181954493Y-84119555D01*
X181954493Y-84119555D02*
X182022914Y-84187976D01*
X182022914Y-84187976D02*
X182159217Y-84256936D01*
X182159217Y-84256936D02*
X182973804Y-84263401D01*
X182973804Y-84263401D02*
X182536071Y-84701134D01*
D11*
%TO.C,C4*%
X186170510Y-86854937D02*
X185801043Y-87224404D01*
X185131063Y-85815490D02*
X184761596Y-86184957D01*
%TO.C,C1*%
X184054489Y-79113890D02*
X184423956Y-78744423D01*
X185093936Y-80153337D02*
X185463403Y-79783870D01*
%TO.C,C5*%
X190520981Y-74678559D02*
X190890448Y-75048026D01*
X189481534Y-75718006D02*
X189851001Y-76087473D01*
%TO.C,C3*%
X189299457Y-83725990D02*
X188929990Y-84095457D01*
X188260010Y-82686543D02*
X187890543Y-83056010D01*
%TO.C,C2*%
X180872509Y-82295870D02*
X181241976Y-81926403D01*
X181911956Y-83335317D02*
X182281423Y-82965850D01*
%TD*%
M02*
