%TF.GenerationSoftware,KiCad,Pcbnew,7.0.10*%
%TF.CreationDate,2024-03-08T11:24:00-05:00*%
%TF.ProjectId,TrumpetMelody,5472756d-7065-4744-9d65-6c6f64792e6b,rev?*%
%TF.SameCoordinates,Original*%
%TF.FileFunction,Copper,L1,Top*%
%TF.FilePolarity,Positive*%
%FSLAX46Y46*%
G04 Gerber Fmt 4.6, Leading zero omitted, Abs format (unit mm)*
G04 Created by KiCad (PCBNEW 7.0.10) date 2024-03-08 11:24:00*
%MOMM*%
%LPD*%
G01*
G04 APERTURE LIST*
G04 Aperture macros list*
%AMRoundRect*
0 Rectangle with rounded corners*
0 $1 Rounding radius*
0 $2 $3 $4 $5 $6 $7 $8 $9 X,Y pos of 4 corners*
0 Add a 4 corners polygon primitive as box body*
4,1,4,$2,$3,$4,$5,$6,$7,$8,$9,$2,$3,0*
0 Add four circle primitives for the rounded corners*
1,1,$1+$1,$2,$3*
1,1,$1+$1,$4,$5*
1,1,$1+$1,$6,$7*
1,1,$1+$1,$8,$9*
0 Add four rect primitives between the rounded corners*
20,1,$1+$1,$2,$3,$4,$5,0*
20,1,$1+$1,$4,$5,$6,$7,0*
20,1,$1+$1,$6,$7,$8,$9,0*
20,1,$1+$1,$8,$9,$2,$3,0*%
%AMHorizOval*
0 Thick line with rounded ends*
0 $1 width*
0 $2 $3 position (X,Y) of the first rounded end (center of the circle)*
0 $4 $5 position (X,Y) of the second rounded end (center of the circle)*
0 Add line between two ends*
20,1,$1,$2,$3,$4,$5,0*
0 Add two circle primitives to create the rounded ends*
1,1,$1,$2,$3*
1,1,$1,$4,$5*%
%AMRotRect*
0 Rectangle, with rotation*
0 The origin of the aperture is its center*
0 $1 length*
0 $2 width*
0 $3 Rotation angle, in degrees counterclockwise*
0 Add horizontal line*
21,1,$1,$2,0,0,$3*%
G04 Aperture macros list end*
%TA.AperFunction,SMDPad,CuDef*%
%ADD10R,1.285000X1.470000*%
%TD*%
%TA.AperFunction,ComponentPad*%
%ADD11R,1.370000X1.370000*%
%TD*%
%TA.AperFunction,ComponentPad*%
%ADD12C,1.370000*%
%TD*%
%TA.AperFunction,SMDPad,CuDef*%
%ADD13RoundRect,0.250000X-0.450000X0.350000X-0.450000X-0.350000X0.450000X-0.350000X0.450000X0.350000X0*%
%TD*%
%TA.AperFunction,SMDPad,CuDef*%
%ADD14RoundRect,0.250000X-0.350000X-0.450000X0.350000X-0.450000X0.350000X0.450000X-0.350000X0.450000X0*%
%TD*%
%TA.AperFunction,SMDPad,CuDef*%
%ADD15RoundRect,0.250000X-0.070711X0.565685X-0.565685X0.070711X0.070711X-0.565685X0.565685X-0.070711X0*%
%TD*%
%TA.AperFunction,SMDPad,CuDef*%
%ADD16RoundRect,0.250000X0.070711X-0.565685X0.565685X-0.070711X-0.070711X0.565685X-0.565685X0.070711X0*%
%TD*%
%TA.AperFunction,SMDPad,CuDef*%
%ADD17RoundRect,0.250000X-0.097227X0.574524X-0.574524X0.097227X0.097227X-0.574524X0.574524X-0.097227X0*%
%TD*%
%TA.AperFunction,SMDPad,CuDef*%
%ADD18RoundRect,0.250000X0.337500X0.475000X-0.337500X0.475000X-0.337500X-0.475000X0.337500X-0.475000X0*%
%TD*%
%TA.AperFunction,SMDPad,CuDef*%
%ADD19RoundRect,0.243750X-0.494975X-0.150260X-0.150260X-0.494975X0.494975X0.150260X0.150260X0.494975X0*%
%TD*%
%TA.AperFunction,SMDPad,CuDef*%
%ADD20RoundRect,0.250000X0.350000X0.450000X-0.350000X0.450000X-0.350000X-0.450000X0.350000X-0.450000X0*%
%TD*%
%TA.AperFunction,SMDPad,CuDef*%
%ADD21RoundRect,0.243750X0.456250X-0.243750X0.456250X0.243750X-0.456250X0.243750X-0.456250X-0.243750X0*%
%TD*%
%TA.AperFunction,SMDPad,CuDef*%
%ADD22RoundRect,0.250000X-0.565685X-0.070711X-0.070711X-0.565685X0.565685X0.070711X0.070711X0.565685X0*%
%TD*%
%TA.AperFunction,ComponentPad*%
%ADD23C,1.208000*%
%TD*%
%TA.AperFunction,ComponentPad*%
%ADD24O,2.416000X1.208000*%
%TD*%
%TA.AperFunction,SMDPad,CuDef*%
%ADD25RoundRect,0.250000X-0.475000X0.337500X-0.475000X-0.337500X0.475000X-0.337500X0.475000X0.337500X0*%
%TD*%
%TA.AperFunction,SMDPad,CuDef*%
%ADD26RoundRect,0.250000X0.450000X-0.350000X0.450000X0.350000X-0.450000X0.350000X-0.450000X-0.350000X0*%
%TD*%
%TA.AperFunction,SMDPad,CuDef*%
%ADD27RoundRect,0.250000X0.450000X-0.325000X0.450000X0.325000X-0.450000X0.325000X-0.450000X-0.325000X0*%
%TD*%
%TA.AperFunction,SMDPad,CuDef*%
%ADD28R,0.254000X1.498600*%
%TD*%
%TA.AperFunction,SMDPad,CuDef*%
%ADD29R,1.498600X0.254000*%
%TD*%
%TA.AperFunction,SMDPad,CuDef*%
%ADD30R,1.244600X1.244600*%
%TD*%
%TA.AperFunction,SMDPad,CuDef*%
%ADD31RoundRect,0.250000X-0.450000X0.325000X-0.450000X-0.325000X0.450000X-0.325000X0.450000X0.325000X0*%
%TD*%
%TA.AperFunction,SMDPad,CuDef*%
%ADD32R,0.650000X1.560000*%
%TD*%
%TA.AperFunction,SMDPad,CuDef*%
%ADD33R,3.500000X3.000000*%
%TD*%
%TA.AperFunction,SMDPad,CuDef*%
%ADD34RoundRect,0.243750X-0.243750X-0.456250X0.243750X-0.456250X0.243750X0.456250X-0.243750X0.456250X0*%
%TD*%
%TA.AperFunction,SMDPad,CuDef*%
%ADD35R,1.000000X2.250000*%
%TD*%
%TA.AperFunction,SMDPad,CuDef*%
%ADD36RoundRect,0.250000X-0.325000X-0.450000X0.325000X-0.450000X0.325000X0.450000X-0.325000X0.450000X0*%
%TD*%
%TA.AperFunction,SMDPad,CuDef*%
%ADD37C,3.000000*%
%TD*%
%TA.AperFunction,SMDPad,CuDef*%
%ADD38RoundRect,0.250000X-0.337500X-0.475000X0.337500X-0.475000X0.337500X0.475000X-0.337500X0.475000X0*%
%TD*%
%TA.AperFunction,SMDPad,CuDef*%
%ADD39RotRect,1.285000X1.470000X315.000000*%
%TD*%
%TA.AperFunction,ComponentPad*%
%ADD40RotRect,1.700000X1.700000X135.000000*%
%TD*%
%TA.AperFunction,ComponentPad*%
%ADD41HorizOval,1.700000X0.000000X0.000000X0.000000X0.000000X0*%
%TD*%
%TA.AperFunction,SMDPad,CuDef*%
%ADD42RoundRect,0.250000X-0.412500X-0.650000X0.412500X-0.650000X0.412500X0.650000X-0.412500X0.650000X0*%
%TD*%
%TA.AperFunction,SMDPad,CuDef*%
%ADD43RoundRect,0.075000X0.441942X0.548008X-0.548008X-0.441942X-0.441942X-0.548008X0.548008X0.441942X0*%
%TD*%
%TA.AperFunction,SMDPad,CuDef*%
%ADD44RoundRect,0.075000X-0.441942X0.548008X-0.548008X0.441942X0.441942X-0.548008X0.548008X-0.441942X0*%
%TD*%
%TA.AperFunction,SMDPad,CuDef*%
%ADD45RoundRect,0.243750X0.243750X0.456250X-0.243750X0.456250X-0.243750X-0.456250X0.243750X-0.456250X0*%
%TD*%
%TA.AperFunction,SMDPad,CuDef*%
%ADD46R,0.700000X0.450000*%
%TD*%
%TA.AperFunction,SMDPad,CuDef*%
%ADD47RoundRect,0.088500X-0.516500X-0.206500X0.516500X-0.206500X0.516500X0.206500X-0.516500X0.206500X0*%
%TD*%
%TA.AperFunction,SMDPad,CuDef*%
%ADD48RoundRect,0.250000X0.097227X-0.574524X0.574524X-0.097227X-0.097227X0.574524X-0.574524X0.097227X0*%
%TD*%
%TA.AperFunction,SMDPad,CuDef*%
%ADD49RoundRect,0.250000X0.625000X-0.400000X0.625000X0.400000X-0.625000X0.400000X-0.625000X-0.400000X0*%
%TD*%
%TA.AperFunction,ViaPad*%
%ADD50C,0.660400*%
%TD*%
%TA.AperFunction,ViaPad*%
%ADD51C,1.016000*%
%TD*%
%TA.AperFunction,ViaPad*%
%ADD52C,1.800000*%
%TD*%
%TA.AperFunction,Conductor*%
%ADD53C,0.610000*%
%TD*%
%TA.AperFunction,Conductor*%
%ADD54C,0.200000*%
%TD*%
%TA.AperFunction,Conductor*%
%ADD55C,0.300000*%
%TD*%
%TA.AperFunction,Conductor*%
%ADD56C,0.254000*%
%TD*%
%TA.AperFunction,Conductor*%
%ADD57C,0.500000*%
%TD*%
%TA.AperFunction,Conductor*%
%ADD58C,0.800000*%
%TD*%
G04 APERTURE END LIST*
D10*
%TO.P,FB5,1*%
%TO.N,GND*%
X203878000Y-112014000D03*
%TO.P,FB5,2*%
%TO.N,Net-(C12-Pad2)*%
X205824000Y-112014000D03*
%TD*%
D11*
%TO.P,J3,1,1*%
%TO.N,BUTTON_0*%
X205613000Y-51054000D03*
D12*
%TO.P,J3,2,2*%
%TO.N,BUTTON_1*%
X203073000Y-51054000D03*
%TO.P,J3,3,3*%
%TO.N,BUTTON_2*%
X200533000Y-51054000D03*
%TD*%
D13*
%TO.P,R15,1*%
%TO.N,GPIO_LED1*%
X218097000Y-71866000D03*
%TO.P,R15,2*%
%TO.N,Net-(D12-A)*%
X218097000Y-73866000D03*
%TD*%
D14*
%TO.P,R4,1*%
%TO.N,Net-(D1-A2)*%
X174133000Y-55626000D03*
%TO.P,R4,2*%
%TO.N,Net-(R4-Pad2)*%
X176133000Y-55626000D03*
%TD*%
D15*
%TO.P,R23,1*%
%TO.N,SWO*%
X184294214Y-95105786D03*
%TO.P,R23,2*%
%TO.N,Net-(J2-Pin_3)*%
X182880000Y-96520000D03*
%TD*%
D16*
%TO.P,R3,1*%
%TO.N,ADC1_IN0*%
X172901893Y-59381107D03*
%TO.P,R3,2*%
%TO.N,Net-(D1-A2)*%
X174316107Y-57966893D03*
%TD*%
%TO.P,R11,1*%
%TO.N,+5V*%
X193040000Y-102870000D03*
%TO.P,R11,2*%
%TO.N,Net-(U3-SD_MODE)*%
X194454214Y-101455786D03*
%TD*%
D14*
%TO.P,R20,1*%
%TO.N,Net-(D9-A)*%
X186318041Y-61770219D03*
%TO.P,R20,2*%
%TO.N,GPIO_BUTTON_2*%
X188318041Y-61770219D03*
%TD*%
D17*
%TO.P,C17,1*%
%TO.N,GPIO_BUTTON_0*%
X215836078Y-55937745D03*
%TO.P,C17,2*%
%TO.N,GND*%
X214368832Y-57404991D03*
%TD*%
D18*
%TO.P,C19,1*%
%TO.N,GPIO_BUTTON_2*%
X188342060Y-58301493D03*
%TO.P,C19,2*%
%TO.N,GND*%
X186267060Y-58301493D03*
%TD*%
D19*
%TO.P,D1,1,A1*%
%TO.N,GNDA*%
X170914087Y-53185087D03*
%TO.P,D1,2,A2*%
%TO.N,Net-(D1-A2)*%
X172239913Y-54510913D03*
%TD*%
D10*
%TO.P,FB2,1*%
%TO.N,Net-(U3-OUTN)*%
X210144000Y-96520000D03*
%TO.P,FB2,2*%
%TO.N,Net-(C12-Pad1)*%
X212090000Y-96520000D03*
%TD*%
D20*
%TO.P,R9,1*%
%TO.N,GND*%
X208904403Y-62394663D03*
%TO.P,R9,2*%
%TO.N,GPIO_BUTTON_1*%
X206904403Y-62394663D03*
%TD*%
D21*
%TO.P,D2,1,A1*%
%TO.N,GND*%
X211963000Y-55547500D03*
%TO.P,D2,2,A2*%
%TO.N,GPIO_BUTTON_0*%
X211963000Y-53672500D03*
%TD*%
D11*
%TO.P,J4,1,1*%
%TO.N,+3.3V*%
X167513000Y-51054000D03*
D12*
%TO.P,J4,2,2*%
X164973000Y-51054000D03*
%TO.P,J4,3,3*%
X162433000Y-51054000D03*
%TD*%
D22*
%TO.P,R26,1*%
%TO.N,GND*%
X199245786Y-98280786D03*
%TO.P,R26,2*%
%TO.N,Net-(U3-GAIN_SLOT)*%
X200660000Y-99695000D03*
%TD*%
D23*
%TO.P,J1,1,VBUS*%
%TO.N,+5V*%
X154286352Y-97874978D03*
%TO.P,J1,2,D-*%
%TO.N,USB_DM*%
X153086352Y-98674978D03*
%TO.P,J1,3,D+*%
%TO.N,USB_DP*%
X154286352Y-99474978D03*
%TO.P,J1,4,ID*%
%TO.N,USB_ID_Connector*%
X153086352Y-100274978D03*
%TO.P,J1,5,GND*%
%TO.N,GND*%
X154286352Y-101074978D03*
D24*
%TO.P,J1,SH1*%
%TO.N,N/C*%
X149236352Y-103124978D03*
%TO.P,J1,SH2*%
X149236352Y-95824978D03*
%TD*%
D25*
%TO.P,C13,1*%
%TO.N,+5V*%
X191770000Y-107145000D03*
%TO.P,C13,2*%
%TO.N,GND*%
X191770000Y-109220000D03*
%TD*%
D14*
%TO.P,R21,1*%
%TO.N,TMS*%
X176381296Y-102761319D03*
%TO.P,R21,2*%
%TO.N,Net-(J2-Pin_1)*%
X178381296Y-102761319D03*
%TD*%
D26*
%TO.P,R18,1*%
%TO.N,Net-(D8-A)*%
X220328375Y-59632634D03*
%TO.P,R18,2*%
%TO.N,GPIO_BUTTON_0*%
X220328375Y-57632634D03*
%TD*%
D10*
%TO.P,FB3,1*%
%TO.N,Net-(C14-Pad1)*%
X212131000Y-100330000D03*
%TO.P,FB3,2*%
%TO.N,Net-(U3-OUTP)*%
X210185000Y-100330000D03*
%TD*%
D15*
%TO.P,R2,1*%
%TO.N,GND*%
X195269214Y-86955786D03*
%TO.P,R2,2*%
%TO.N,BOOT0*%
X193855000Y-88370000D03*
%TD*%
D27*
%TO.P,D13,1,K*%
%TO.N,GND*%
X221784857Y-79599857D03*
%TO.P,D13,2,A*%
%TO.N,Net-(D13-A)*%
X221784857Y-77549857D03*
%TD*%
D28*
%TO.P,U3,1,DIN*%
%TO.N,I2S_SD*%
X199505001Y-102984300D03*
%TO.P,U3,2,GAIN_SLOT*%
%TO.N,Net-(U3-GAIN_SLOT)*%
X199005000Y-102984300D03*
%TO.P,U3,3,GND*%
%TO.N,GND*%
X198505000Y-102984300D03*
%TO.P,U3,4,SD_MODE*%
%TO.N,Net-(U3-SD_MODE)*%
X198004999Y-102984300D03*
D29*
%TO.P,U3,5*%
%TO.N,N/C*%
X196964300Y-104024999D03*
%TO.P,U3,6*%
X196964300Y-104525000D03*
%TO.P,U3,7,VDD*%
%TO.N,+5V*%
X196964300Y-105025000D03*
%TO.P,U3,8,VDD__1*%
X196964300Y-105525001D03*
D28*
%TO.P,U3,9,OUTP*%
%TO.N,Net-(U3-OUTP)*%
X198004999Y-106565700D03*
%TO.P,U3,10,OUTN*%
%TO.N,Net-(U3-OUTN)*%
X198505000Y-106565700D03*
%TO.P,U3,11,GND__1*%
%TO.N,GND*%
X199005000Y-106565700D03*
%TO.P,U3,12*%
%TO.N,N/C*%
X199505001Y-106565700D03*
D29*
%TO.P,U3,13*%
X200545700Y-105525001D03*
%TO.P,U3,14,LRCLK*%
%TO.N,I2S_WS*%
X200545700Y-105025000D03*
%TO.P,U3,15,GND__2*%
%TO.N,GND*%
X200545700Y-104525000D03*
%TO.P,U3,16,BCLK*%
%TO.N,I2S_CK*%
X200545700Y-104024999D03*
D30*
%TO.P,U3,17,EP*%
%TO.N,GND*%
X198755000Y-104775000D03*
%TD*%
D31*
%TO.P,D10,1,K*%
%TO.N,GND*%
X150495000Y-66530000D03*
%TO.P,D10,2,A*%
%TO.N,Net-(D10-A)*%
X150495000Y-68580000D03*
%TD*%
D32*
%TO.P,U2,1,EN*%
%TO.N,+5V*%
X159065000Y-85010000D03*
%TO.P,U2,2,GND*%
%TO.N,GND*%
X158115000Y-85010000D03*
%TO.P,U2,3,SW*%
%TO.N,Net-(U2-SW)*%
X157165000Y-85010000D03*
%TO.P,U2,4,VIN*%
%TO.N,+5V*%
X157165000Y-87710000D03*
%TO.P,U2,5,FB*%
%TO.N,Net-(U2-FB)*%
X159065000Y-87710000D03*
%TD*%
D33*
%TO.P,LQH1,1,1*%
%TO.N,Net-(U2-SW)*%
X152781000Y-86280000D03*
%TO.P,LQH1,2,2*%
%TO.N,+3.3V*%
X152781000Y-81280000D03*
%TD*%
D34*
%TO.P,D3,1,A1*%
%TO.N,GND*%
X186133500Y-55372000D03*
%TO.P,D3,2,A2*%
%TO.N,GPIO_BUTTON_2*%
X188008500Y-55372000D03*
%TD*%
D25*
%TO.P,C12,1*%
%TO.N,Net-(C12-Pad1)*%
X212831667Y-107578444D03*
%TO.P,C12,2*%
%TO.N,Net-(C12-Pad2)*%
X212831667Y-109653444D03*
%TD*%
%TO.P,C10,1*%
%TO.N,+5V*%
X186690000Y-107145000D03*
%TO.P,C10,2*%
%TO.N,GND*%
X186690000Y-109220000D03*
%TD*%
D14*
%TO.P,R6,1*%
%TO.N,GND*%
X186272737Y-65143476D03*
%TO.P,R6,2*%
%TO.N,GPIO_BUTTON_2*%
X188272737Y-65143476D03*
%TD*%
D11*
%TO.P,RV1,1,1*%
%TO.N,+3.3VA*%
X186255606Y-50919442D03*
D12*
%TO.P,RV1,2,2*%
%TO.N,Net-(R4-Pad2)*%
X183715606Y-50919442D03*
%TO.P,RV1,3,3*%
%TO.N,GNDA*%
X181175606Y-50919442D03*
%TD*%
D35*
%TO.P,SW1,1,1*%
%TO.N,GND*%
X205105000Y-77470000D03*
X205105000Y-83470000D03*
%TO.P,SW1,2,2*%
%TO.N,NRST*%
X201105000Y-77470000D03*
X201105000Y-83470000D03*
%TD*%
D14*
%TO.P,R22,1*%
%TO.N,TCK*%
X180340000Y-100965000D03*
%TO.P,R22,2*%
%TO.N,Net-(J2-Pin_2)*%
X182340000Y-100965000D03*
%TD*%
D26*
%TO.P,R17,1*%
%TO.N,+3.3V*%
X150495000Y-73025000D03*
%TO.P,R17,2*%
%TO.N,Net-(D10-A)*%
X150495000Y-71025000D03*
%TD*%
D14*
%TO.P,R8,1*%
%TO.N,GND*%
X213965738Y-64805458D03*
%TO.P,R8,2*%
%TO.N,GPIO_BUTTON_0*%
X215965738Y-64805458D03*
%TD*%
D36*
%TO.P,D7,1,K*%
%TO.N,GND*%
X195952000Y-59877781D03*
%TO.P,D7,2,A*%
%TO.N,Net-(D7-A)*%
X198002000Y-59877781D03*
%TD*%
D27*
%TO.P,D12,1,K*%
%TO.N,GND*%
X218097000Y-79581000D03*
%TO.P,D12,2,A*%
%TO.N,Net-(D12-A)*%
X218097000Y-77531000D03*
%TD*%
D37*
%TO.P,GND TP,1*%
%TO.N,GND*%
X220855000Y-90620000D03*
%TD*%
D38*
%TO.P,C6,1*%
%TO.N,NRST*%
X200677011Y-73914000D03*
%TO.P,C6,2*%
%TO.N,GND*%
X202752011Y-73914000D03*
%TD*%
%TO.P,C9,1*%
%TO.N,+3.3V*%
X194394000Y-81534000D03*
%TO.P,C9,2*%
%TO.N,GND*%
X196469000Y-81534000D03*
%TD*%
D14*
%TO.P,R19,1*%
%TO.N,Net-(D7-A)*%
X201233946Y-59823090D03*
%TO.P,R19,2*%
%TO.N,GPIO_BUTTON_1*%
X203233946Y-59823090D03*
%TD*%
D17*
%TO.P,C11,1*%
%TO.N,ADC1_IN0*%
X175431846Y-62058154D03*
%TO.P,C11,2*%
%TO.N,GNDA*%
X173964600Y-63525400D03*
%TD*%
D38*
%TO.P,C18,1*%
%TO.N,GPIO_BUTTON_1*%
X206874152Y-58783961D03*
%TO.P,C18,2*%
%TO.N,GND*%
X208949152Y-58783961D03*
%TD*%
D26*
%TO.P,R1,1*%
%TO.N,+3.3V*%
X198322970Y-77747943D03*
%TO.P,R1,2*%
%TO.N,NRST*%
X198322970Y-75747943D03*
%TD*%
D39*
%TO.P,FB4,1*%
%TO.N,GND*%
X190368570Y-70480570D03*
%TO.P,FB4,2*%
%TO.N,GNDA*%
X191744600Y-71856600D03*
%TD*%
D26*
%TO.P,R7,1*%
%TO.N,GPIO_BUTTON_2*%
X196035339Y-54695220D03*
%TO.P,R7,2*%
%TO.N,BUTTON_2*%
X196035339Y-52695220D03*
%TD*%
D22*
%TO.P,R25,1*%
%TO.N,NJTRST*%
X196929515Y-90899070D03*
%TO.P,R25,2*%
%TO.N,Net-(J2-Pin_5)*%
X198343729Y-92313284D03*
%TD*%
D27*
%TO.P,D11,1,K*%
%TO.N,GND*%
X214468000Y-79581000D03*
%TO.P,D11,2,A*%
%TO.N,Net-(D11-A)*%
X214468000Y-77531000D03*
%TD*%
D36*
%TO.P,D9,1,K*%
%TO.N,GND*%
X181467602Y-61802042D03*
%TO.P,D9,2,A*%
%TO.N,Net-(D9-A)*%
X183517602Y-61802042D03*
%TD*%
D38*
%TO.P,GRM21,1*%
%TO.N,+3.3V*%
X156569500Y-80264000D03*
%TO.P,GRM21,2*%
%TO.N,GND*%
X158644500Y-80264000D03*
%TD*%
D25*
%TO.P,C14,1*%
%TO.N,Net-(C14-Pad1)*%
X209042338Y-107578444D03*
%TO.P,C14,2*%
%TO.N,Net-(C12-Pad2)*%
X209042338Y-109653444D03*
%TD*%
D40*
%TO.P,J2,1,Pin_1*%
%TO.N,Net-(J2-Pin_1)*%
X187960000Y-100965000D03*
D41*
%TO.P,J2,2,Pin_2*%
%TO.N,Net-(J2-Pin_2)*%
X189756051Y-99168949D03*
%TO.P,J2,3,Pin_3*%
%TO.N,Net-(J2-Pin_3)*%
X191552102Y-97372898D03*
%TO.P,J2,4,Pin_4*%
%TO.N,Net-(J2-Pin_4)*%
X193348154Y-95576846D03*
%TO.P,J2,5,Pin_5*%
%TO.N,Net-(J2-Pin_5)*%
X195144205Y-93780795D03*
%TD*%
D42*
%TO.P,GRM31,1*%
%TO.N,+5V*%
X156298500Y-91440000D03*
%TO.P,GRM31,2*%
%TO.N,GND*%
X159423500Y-91440000D03*
%TD*%
D10*
%TO.P,FB1,1*%
%TO.N,+3.3V*%
X175605000Y-70620000D03*
%TO.P,FB1,2*%
%TO.N,+3.3VA*%
X177551000Y-70620000D03*
%TD*%
D16*
%TO.P,R24,1*%
%TO.N,JTDI*%
X188450786Y-95394214D03*
%TO.P,R24,2*%
%TO.N,Net-(J2-Pin_4)*%
X189865000Y-93980000D03*
%TD*%
D43*
%TO.P,U1,1,VBAT*%
%TO.N,+3.3V*%
X191750464Y-82003302D03*
%TO.P,U1,2,PC13*%
%TO.N,PC13*%
X191396911Y-81649749D03*
%TO.P,U1,3,PC14*%
%TO.N,OSC32_IN*%
X191043358Y-81296196D03*
%TO.P,U1,4,PC15*%
%TO.N,OSC32_OUT*%
X190689804Y-80942642D03*
%TO.P,U1,5,PH0*%
%TO.N,OSC_IN*%
X190336251Y-80589089D03*
%TO.P,U1,6,PH1*%
%TO.N,OSC_OUT*%
X189982697Y-80235535D03*
%TO.P,U1,7,NRST*%
%TO.N,NRST*%
X189629144Y-79881982D03*
%TO.P,U1,8,PC0*%
%TO.N,GPIO_LED0*%
X189275591Y-79528429D03*
%TO.P,U1,9,PC1*%
%TO.N,GPIO_LED1*%
X188922037Y-79174875D03*
%TO.P,U1,10,PC2*%
%TO.N,GPIO_LED2*%
X188568484Y-78821322D03*
%TO.P,U1,11,PC3*%
%TO.N,I2S_SD*%
X188214931Y-78467769D03*
%TO.P,U1,12,VSSA*%
%TO.N,GNDA*%
X187861377Y-78114215D03*
%TO.P,U1,13,VDDA*%
%TO.N,+3.3VA*%
X187507824Y-77760662D03*
%TO.P,U1,14,PA0*%
%TO.N,ADC1_IN0*%
X187154270Y-77407108D03*
%TO.P,U1,15,PA1*%
%TO.N,PA1*%
X186800717Y-77053555D03*
%TO.P,U1,16,PA2*%
%TO.N,PA2*%
X186447164Y-76700002D03*
D44*
%TO.P,U1,17,PA3*%
%TO.N,PA3*%
X183724802Y-76700002D03*
%TO.P,U1,18,VSS*%
%TO.N,GND*%
X183371249Y-77053555D03*
%TO.P,U1,19,VDD*%
%TO.N,+3.3V*%
X183017696Y-77407108D03*
%TO.P,U1,20,PA4*%
%TO.N,PA4*%
X182664142Y-77760662D03*
%TO.P,U1,21,PA5*%
%TO.N,PA5*%
X182310589Y-78114215D03*
%TO.P,U1,22,PA6*%
%TO.N,PA6*%
X181957035Y-78467769D03*
%TO.P,U1,23,PA7*%
%TO.N,PA7*%
X181603482Y-78821322D03*
%TO.P,U1,24,PC4*%
%TO.N,PC4*%
X181249929Y-79174875D03*
%TO.P,U1,25,PC5*%
%TO.N,PC5*%
X180896375Y-79528429D03*
%TO.P,U1,26,PB0*%
%TO.N,PB0*%
X180542822Y-79881982D03*
%TO.P,U1,27,PB1*%
%TO.N,PB1*%
X180189269Y-80235535D03*
%TO.P,U1,28,PB2*%
%TO.N,PB2*%
X179835715Y-80589089D03*
%TO.P,U1,29,PB10*%
%TO.N,I2S_CK*%
X179482162Y-80942642D03*
%TO.P,U1,30,VCAP1*%
%TO.N,Net-(U1-VCAP1)*%
X179128608Y-81296196D03*
%TO.P,U1,31,VSS*%
%TO.N,GND*%
X178775055Y-81649749D03*
%TO.P,U1,32,VDD*%
%TO.N,+3.3V*%
X178421502Y-82003302D03*
D43*
%TO.P,U1,33,PB12*%
%TO.N,I2S_WS*%
X178421502Y-84725664D03*
%TO.P,U1,34,PB13*%
%TO.N,PB13*%
X178775055Y-85079217D03*
%TO.P,U1,35,PB14*%
%TO.N,PB14*%
X179128608Y-85432770D03*
%TO.P,U1,36,PB15*%
%TO.N,PB15*%
X179482162Y-85786324D03*
%TO.P,U1,37,PC6*%
%TO.N,PC6*%
X179835715Y-86139877D03*
%TO.P,U1,38,PC7*%
%TO.N,PC7*%
X180189269Y-86493431D03*
%TO.P,U1,39,PC8*%
%TO.N,PC8*%
X180542822Y-86846984D03*
%TO.P,U1,40,PC9*%
%TO.N,PC9*%
X180896375Y-87200537D03*
%TO.P,U1,41,PA8*%
%TO.N,PA8*%
X181249929Y-87554091D03*
%TO.P,U1,42,PA9*%
%TO.N,USB_VSENSE*%
X181603482Y-87907644D03*
%TO.P,U1,43,PA10*%
%TO.N,USB_ID*%
X181957035Y-88261197D03*
%TO.P,U1,44,PA11*%
%TO.N,USB_DM*%
X182310589Y-88614751D03*
%TO.P,U1,45,PA12*%
%TO.N,USB_DP*%
X182664142Y-88968304D03*
%TO.P,U1,46,PA13*%
%TO.N,TMS*%
X183017696Y-89321858D03*
%TO.P,U1,47,VSS*%
%TO.N,GND*%
X183371249Y-89675411D03*
%TO.P,U1,48,VDD*%
%TO.N,+3.3V*%
X183724802Y-90028964D03*
D44*
%TO.P,U1,49,PA14*%
%TO.N,TCK*%
X186447164Y-90028964D03*
%TO.P,U1,50,PA15*%
%TO.N,JTDI*%
X186800717Y-89675411D03*
%TO.P,U1,51,PC10*%
%TO.N,GPIO_BUTTON_0*%
X187154270Y-89321858D03*
%TO.P,U1,52,PC11*%
%TO.N,GPIO_BUTTON_1*%
X187507824Y-88968304D03*
%TO.P,U1,53,PC12*%
%TO.N,GPIO_BUTTON_2*%
X187861377Y-88614751D03*
%TO.P,U1,54,PD2*%
%TO.N,PD2*%
X188214931Y-88261197D03*
%TO.P,U1,55,PB3*%
%TO.N,SWO*%
X188568484Y-87907644D03*
%TO.P,U1,56,PB4*%
%TO.N,NJTRST*%
X188922037Y-87554091D03*
%TO.P,U1,57,PB5*%
%TO.N,PB5*%
X189275591Y-87200537D03*
%TO.P,U1,58,PB6*%
%TO.N,PB6*%
X189629144Y-86846984D03*
%TO.P,U1,59,PB7*%
%TO.N,PB7*%
X189982697Y-86493431D03*
%TO.P,U1,60,BOOT0*%
%TO.N,BOOT0*%
X190336251Y-86139877D03*
%TO.P,U1,61,PB8*%
%TO.N,PB8*%
X190689804Y-85786324D03*
%TO.P,U1,62,PB9*%
%TO.N,PB9*%
X191043358Y-85432770D03*
%TO.P,U1,63,VSS*%
%TO.N,GND*%
X191396911Y-85079217D03*
%TO.P,U1,64,VDD*%
%TO.N,+3.3V*%
X191750464Y-84725664D03*
%TD*%
D13*
%TO.P,R14,1*%
%TO.N,GPIO_LED0*%
X214468000Y-71866000D03*
%TO.P,R14,2*%
%TO.N,Net-(D11-A)*%
X214468000Y-73866000D03*
%TD*%
D45*
%TO.P,D4,1,A1*%
%TO.N,GND*%
X208582500Y-55880000D03*
%TO.P,D4,2,A2*%
%TO.N,GPIO_BUTTON_1*%
X206707500Y-55880000D03*
%TD*%
D13*
%TO.P,R16,1*%
%TO.N,GPIO_LED2*%
X221731500Y-71894894D03*
%TO.P,R16,2*%
%TO.N,Net-(D13-A)*%
X221731500Y-73894894D03*
%TD*%
D20*
%TO.P,R5,1*%
%TO.N,GPIO_BUTTON_0*%
X211662118Y-50938708D03*
%TO.P,R5,2*%
%TO.N,BUTTON_0*%
X209662118Y-50938708D03*
%TD*%
D46*
%TO.P,U4,1,V+*%
%TO.N,+3.3V*%
X194453000Y-77328000D03*
%TO.P,U4,2,CLOCK*%
%TO.N,OSC_IN*%
X194453000Y-78628000D03*
%TO.P,U4,3,GND*%
%TO.N,GND*%
X196453000Y-77978000D03*
%TD*%
D13*
%TO.P,ERJ1,1*%
%TO.N,+3.3V*%
X163195000Y-84598000D03*
%TO.P,ERJ1,2*%
%TO.N,Net-(U2-FB)*%
X163195000Y-86598000D03*
%TD*%
D47*
%TO.P,U5,1,I/O1*%
%TO.N,USB_DM*%
X164495000Y-106050000D03*
%TO.P,U5,2,GND*%
%TO.N,GND*%
X164495000Y-107000000D03*
%TO.P,U5,3,I/O2*%
X164495000Y-107950000D03*
%TO.P,U5,4,I/O3*%
X167005000Y-107950000D03*
%TO.P,U5,5,I/O4*%
%TO.N,USB_DP*%
X167005000Y-106050000D03*
%TD*%
D20*
%TO.P,R10,1*%
%TO.N,GPIO_BUTTON_1*%
X203168000Y-55905400D03*
%TO.P,R10,2*%
%TO.N,BUTTON_1*%
X201168000Y-55905400D03*
%TD*%
D11*
%TO.P,LS1,1,1*%
%TO.N,Net-(C12-Pad1)*%
X218440000Y-96520000D03*
D12*
%TO.P,LS1,2,2*%
%TO.N,Net-(C14-Pad1)*%
X218440000Y-99060000D03*
%TO.P,LS1,3*%
%TO.N,N/C*%
X218440000Y-101600000D03*
%TD*%
D48*
%TO.P,C16,1*%
%TO.N,Net-(U1-VCAP1)*%
X179075954Y-75889246D03*
%TO.P,C16,2*%
%TO.N,GND*%
X180543200Y-74422000D03*
%TD*%
D49*
%TO.P,RC1206,1*%
%TO.N,Net-(U2-FB)*%
X167005000Y-87910000D03*
%TO.P,RC1206,2*%
%TO.N,GND*%
X167005000Y-84810000D03*
%TD*%
D27*
%TO.P,D8,1,K*%
%TO.N,GND*%
X220334656Y-64309273D03*
%TO.P,D8,2,A*%
%TO.N,Net-(D8-A)*%
X220334656Y-62259273D03*
%TD*%
D50*
%TO.N,+3.3V*%
X194355000Y-83120000D03*
X187560857Y-86900017D03*
X191363602Y-83644765D03*
X156312277Y-82552468D03*
X190742837Y-83010930D03*
X178605000Y-89120000D03*
X179299113Y-83183996D03*
X177014409Y-90117100D03*
X177912955Y-89813840D03*
X183141439Y-79298619D03*
X163195000Y-82804000D03*
X198501000Y-84074000D03*
%TO.N,GND*%
X215855000Y-90620000D03*
X210855000Y-90620000D03*
X161855000Y-109870000D03*
X195355000Y-110620000D03*
X195355000Y-111870000D03*
X163355000Y-109870000D03*
X192105000Y-58120000D03*
X159893000Y-81534000D03*
X164465000Y-72898000D03*
X164465000Y-73914000D03*
X214605000Y-90620000D03*
X164211000Y-89662000D03*
X164465602Y-80898116D03*
X169291000Y-83058000D03*
X196605000Y-85620000D03*
X161105000Y-101370000D03*
X218855000Y-67370000D03*
X151105000Y-62870000D03*
X193855000Y-58120000D03*
X176605000Y-79370000D03*
X214605000Y-89370000D03*
X151105000Y-64120000D03*
X181855000Y-56620000D03*
X213355000Y-90620000D03*
X207855000Y-105370000D03*
X215855000Y-61120000D03*
X212105000Y-89370000D03*
X156845000Y-104140000D03*
X165481000Y-89662000D03*
X192105000Y-59620000D03*
X209105000Y-102120000D03*
X162605000Y-102620000D03*
X181855000Y-57870000D03*
X197855000Y-111870000D03*
X189105000Y-69620000D03*
X164465000Y-75946000D03*
X169291000Y-84074000D03*
X175355000Y-78370000D03*
X217855000Y-68620000D03*
X185855000Y-83620000D03*
X221855000Y-68620000D03*
X215855000Y-91870000D03*
X169291000Y-89662000D03*
X159331698Y-101931826D03*
X217855000Y-67370000D03*
X200355000Y-110620000D03*
X181355000Y-63870000D03*
X166355000Y-109870000D03*
X200355000Y-111870000D03*
X162941000Y-93726000D03*
X200605000Y-107870000D03*
X168021000Y-89662000D03*
X221855000Y-67370000D03*
X181254400Y-73050400D03*
X162941000Y-89662000D03*
X218355000Y-91870000D03*
X184105000Y-63870000D03*
X217105000Y-89370000D03*
X218855000Y-68620000D03*
X158505735Y-101077370D03*
X207855000Y-102120000D03*
X169355000Y-109870000D03*
X212105000Y-90620000D03*
D51*
X198755000Y-104775000D03*
D50*
X209605000Y-90620000D03*
X153605000Y-64120000D03*
X174605000Y-74370000D03*
X182605000Y-63870000D03*
X219855000Y-68620000D03*
X214605000Y-91870000D03*
X196605000Y-111870000D03*
X183769000Y-110490000D03*
X149855000Y-62870000D03*
X217105000Y-90620000D03*
X218355000Y-89370000D03*
X214855000Y-62120000D03*
X207855000Y-103120000D03*
X164465000Y-77978000D03*
X158115000Y-104775000D03*
X174605000Y-72870000D03*
X178725744Y-107974565D03*
X169291000Y-88646000D03*
X209605000Y-91870000D03*
X193855000Y-56870000D03*
X196605000Y-110620000D03*
X189328624Y-85132250D03*
X213355000Y-89370000D03*
X202355000Y-106870000D03*
X162941000Y-90678000D03*
X181196896Y-81243163D03*
X176355000Y-74370000D03*
X167855000Y-109870000D03*
X157287307Y-101063365D03*
X164465000Y-81788000D03*
X185616313Y-88137454D03*
X215855000Y-62120000D03*
X153605000Y-62870000D03*
X215855000Y-89370000D03*
X176605000Y-78370000D03*
X164465000Y-80010000D03*
X189105000Y-71370000D03*
X164855000Y-109870000D03*
X192105000Y-56870000D03*
X184105000Y-85370000D03*
X213855000Y-61120000D03*
X176355000Y-72870000D03*
X162605000Y-101370000D03*
X166751000Y-89662000D03*
X218355000Y-90620000D03*
X162941000Y-92710000D03*
X183355000Y-57870000D03*
X197855000Y-110620000D03*
X214855000Y-61120000D03*
X213355000Y-91870000D03*
X220855000Y-68620000D03*
X152355000Y-64120000D03*
X183355000Y-56620000D03*
X165735000Y-83058000D03*
X203105000Y-102370000D03*
D52*
X220853000Y-90678000D03*
D50*
X203605000Y-105370000D03*
X199105000Y-111870000D03*
X219855000Y-67370000D03*
X193855000Y-59620000D03*
X168275000Y-83058000D03*
X162941000Y-91694000D03*
X217105000Y-91870000D03*
X203605000Y-106870000D03*
X164465000Y-74930000D03*
X175355000Y-79370000D03*
X164465000Y-76962000D03*
X220855000Y-67370000D03*
X167005000Y-83058000D03*
X149855000Y-64120000D03*
X184555653Y-77884406D03*
X161105000Y-102620000D03*
X202105000Y-103620000D03*
X164465000Y-78994000D03*
X199105000Y-110620000D03*
X198105000Y-85620000D03*
X152355000Y-62870000D03*
X213855000Y-62120000D03*
X201105000Y-106870000D03*
X210855000Y-91870000D03*
X198245857Y-101474143D03*
X212105000Y-91870000D03*
%TO.N,+3.3VA*%
X177605000Y-66370000D03*
X183855000Y-72370000D03*
X188796004Y-75761647D03*
X180355000Y-70620000D03*
X190605000Y-73620000D03*
%TO.N,GNDA*%
X193167000Y-70358000D03*
X170545712Y-67375745D03*
X189434147Y-76419941D03*
X191355000Y-74370000D03*
X169049353Y-67383846D03*
X172054488Y-67362739D03*
%TO.N,+5V*%
X160239385Y-85031364D03*
X155321000Y-89408000D03*
X157855000Y-97870000D03*
%TO.N,ADC1_IN0*%
X182245000Y-68834000D03*
X186855000Y-73370000D03*
%TO.N,Net-(C12-Pad1)*%
X213995000Y-101600000D03*
X213995000Y-95250000D03*
%TO.N,GPIO_BUTTON_0*%
X211857768Y-72392265D03*
X188653585Y-91321414D03*
X211840060Y-68134940D03*
X205105000Y-88620000D03*
%TO.N,GPIO_BUTTON_1*%
X189225811Y-90570706D03*
X211053703Y-73088010D03*
X205105000Y-87620000D03*
X211060276Y-68992484D03*
%TO.N,GPIO_BUTTON_2*%
X210199926Y-69606315D03*
X189235476Y-89623544D03*
X210185000Y-73660000D03*
X205105000Y-86620000D03*
%TO.N,USB_DP*%
X167005000Y-106045000D03*
%TO.N,USB_DM*%
X164465000Y-106045000D03*
%TO.N,USB_ID_Connector*%
X155967968Y-103224672D03*
%TO.N,JTDI*%
X186690000Y-94615000D03*
X186690000Y-92710000D03*
%TO.N,PC13*%
X193105000Y-80620000D03*
%TO.N,OSC32_IN*%
X194242606Y-79838747D03*
%TO.N,I2S_SD*%
X202991350Y-99560115D03*
X206869544Y-69443200D03*
%TO.N,PA1*%
X186605000Y-74620000D03*
%TO.N,PA2*%
X185605000Y-75370000D03*
%TO.N,PA3*%
X184355000Y-75620000D03*
%TO.N,PA4*%
X184105000Y-74620000D03*
%TO.N,PA5*%
X184605000Y-73620000D03*
%TO.N,PA6*%
X180921403Y-76936403D03*
%TO.N,PA7*%
X180205684Y-77652122D03*
%TO.N,PC5*%
X179605000Y-78370492D03*
%TO.N,PB1*%
X179086900Y-79120000D03*
%TO.N,I2S_CK*%
X203901637Y-100392930D03*
X207645000Y-68786000D03*
%TO.N,I2S_WS*%
X204705402Y-101090172D03*
X208484094Y-67986358D03*
%TO.N,PB13*%
X177105000Y-85620000D03*
%TO.N,PB14*%
X176605000Y-86370000D03*
%TO.N,PB15*%
X176105000Y-87120000D03*
%TO.N,PC6*%
X175605000Y-87870000D03*
%TO.N,PC7*%
X174605000Y-88370000D03*
%TO.N,PA8*%
X175605000Y-91120000D03*
%TO.N,USB_VSENSE*%
X159385000Y-99314000D03*
%TO.N,USB_ID*%
X159855000Y-100120000D03*
%TO.N,PB6*%
X190855000Y-88370000D03*
%TO.N,PB7*%
X192105000Y-88870000D03*
%TO.N,PB8*%
X192605000Y-87120000D03*
%TO.N,PB9*%
X192855000Y-85870000D03*
%TO.N,OSC32_OUT*%
X193105000Y-79254500D03*
%TD*%
D53*
%TO.N,+3.3V*%
X156300000Y-57187000D02*
X156300000Y-67945000D01*
D54*
X191355596Y-84330796D02*
X191355596Y-83652771D01*
X183017696Y-77407109D02*
X183588621Y-77978034D01*
D53*
X178605000Y-89120000D02*
X178355000Y-89370000D01*
D54*
X191355596Y-83652771D02*
X191363602Y-83644765D01*
D53*
X172847000Y-70620000D02*
X172847000Y-88862000D01*
X170061000Y-70620000D02*
X175605000Y-70620000D01*
X174105000Y-90120000D02*
X177605000Y-90120000D01*
X163195000Y-84598000D02*
X163195000Y-82804000D01*
X160401000Y-53086000D02*
X162433000Y-53086000D01*
X198322970Y-77747943D02*
X198501000Y-77925973D01*
X160401000Y-53086000D02*
X156300000Y-57187000D01*
X150495000Y-73025000D02*
X153755345Y-73025000D01*
D54*
X178421502Y-82094902D02*
X178421502Y-82003302D01*
D55*
X194355000Y-83120000D02*
X194355000Y-81573000D01*
D54*
X184785463Y-90028965D02*
X187560857Y-87253571D01*
D55*
X194355000Y-81573000D02*
X194394000Y-81534000D01*
D53*
X160401000Y-53086000D02*
X162433000Y-51054000D01*
X177605000Y-90120000D02*
X178105000Y-89620000D01*
X155030000Y-67945000D02*
X156300000Y-67945000D01*
D55*
X195308000Y-80620000D02*
X194394000Y-81534000D01*
D53*
X153755345Y-69219655D02*
X155030000Y-67945000D01*
D54*
X187560857Y-87253571D02*
X187560857Y-86900017D01*
D53*
X153755345Y-73025000D02*
X153755345Y-76708000D01*
D55*
X194453000Y-77328000D02*
X194803000Y-77328000D01*
D53*
X162941000Y-53086000D02*
X162433000Y-53086000D01*
D55*
X195308000Y-77833000D02*
X195308000Y-80620000D01*
D54*
X179299113Y-83183996D02*
X179299113Y-82972513D01*
X183588621Y-77978034D02*
X183588621Y-78851438D01*
D53*
X162433000Y-53086000D02*
X165481000Y-53086000D01*
D55*
X194803000Y-77328000D02*
X195308000Y-77833000D01*
D53*
X167386000Y-67945000D02*
X170061000Y-70620000D01*
D54*
X183588621Y-78851438D02*
X183141439Y-79298619D01*
D53*
X165481000Y-53086000D02*
X167513000Y-51054000D01*
X198501000Y-77925973D02*
X198501000Y-84074000D01*
X178105000Y-89620000D02*
X178605000Y-89120000D01*
D54*
X191750464Y-82003303D02*
X190742837Y-83010930D01*
D53*
X153755345Y-73025000D02*
X153755345Y-69219655D01*
D54*
X179299113Y-82972513D02*
X178421502Y-82094902D01*
D53*
X156300000Y-67945000D02*
X167386000Y-67945000D01*
X164973000Y-51054000D02*
X162941000Y-53086000D01*
D54*
X183724802Y-90028965D02*
X184785463Y-90028965D01*
D53*
X172847000Y-88862000D02*
X174105000Y-90120000D01*
D54*
%TO.N,GND*%
X179345980Y-82220675D02*
X180219384Y-82220675D01*
D56*
X202105000Y-103620000D02*
X202105000Y-103995999D01*
D54*
X184378876Y-88667784D02*
X185085983Y-88667784D01*
D56*
X200605000Y-107870000D02*
X199279001Y-107870000D01*
D54*
X180219384Y-82220675D02*
X180489789Y-81950270D01*
X189966060Y-84494814D02*
X189328624Y-85132250D01*
D56*
X199279001Y-107870000D02*
X199005000Y-107595999D01*
D57*
X190368570Y-70480570D02*
X189508000Y-69620000D01*
D56*
X198505000Y-101733286D02*
X198245857Y-101474143D01*
X184105000Y-85370000D02*
X185855000Y-83620000D01*
D57*
X189479140Y-71370000D02*
X189105000Y-71370000D01*
X190368570Y-70480570D02*
X189479140Y-71370000D01*
D58*
X158505735Y-101105863D02*
X159331698Y-101931826D01*
D56*
X181254400Y-73710800D02*
X180543200Y-74422000D01*
D54*
X183371249Y-77053555D02*
X184202100Y-77884406D01*
D56*
X161855000Y-108020000D02*
X162875000Y-107000000D01*
X205105000Y-77470000D02*
X205105000Y-76266989D01*
X196469000Y-77994000D02*
X196453000Y-77978000D01*
D54*
X178775055Y-81649749D02*
X179345980Y-82220675D01*
D56*
X161855000Y-109870000D02*
X161855000Y-108020000D01*
X202105000Y-103995999D02*
X201575999Y-104525000D01*
D54*
X183371249Y-89675411D02*
X184378876Y-88667784D01*
D56*
X198505000Y-103340000D02*
X198505000Y-101733286D01*
X162875000Y-107000000D02*
X164495000Y-107000000D01*
D57*
X158503343Y-101074978D02*
X158505735Y-101077370D01*
D54*
X191396911Y-85079217D02*
X190812508Y-84494814D01*
D56*
X196469000Y-81534000D02*
X196469000Y-77994000D01*
X205105000Y-77470000D02*
X205105000Y-83470000D01*
D54*
X184202100Y-77884406D02*
X184555653Y-77884406D01*
D56*
X201575999Y-104525000D02*
X200190000Y-104525000D01*
X164470435Y-107974565D02*
X164495000Y-107950000D01*
X199005000Y-107595999D02*
X199005000Y-106210000D01*
D58*
X154286352Y-101074978D02*
X158503343Y-101074978D01*
D54*
X180489789Y-81950270D02*
X181196896Y-81243163D01*
X190812508Y-84494814D02*
X189966060Y-84494814D01*
D56*
X205105000Y-76266989D02*
X202752011Y-73914000D01*
D57*
X189508000Y-69620000D02*
X189105000Y-69620000D01*
D54*
X185085983Y-88667784D02*
X185616313Y-88137454D01*
D57*
X158505735Y-101077370D02*
X158505735Y-101105863D01*
D56*
X181254400Y-73050400D02*
X181254400Y-73710800D01*
%TO.N,+3.3VA*%
X177551000Y-70620000D02*
X178355000Y-70620000D01*
X190605000Y-73620000D02*
X189855000Y-72870000D01*
X188559000Y-76709486D02*
X187507824Y-77760662D01*
X185605000Y-70620000D02*
X183855000Y-72370000D01*
X177551000Y-70620000D02*
X177605000Y-70566000D01*
X189855000Y-72870000D02*
X189052693Y-72870000D01*
X186802693Y-70620000D02*
X185605000Y-70620000D01*
X188796004Y-75761647D02*
X188559000Y-75998651D01*
X177605000Y-70566000D02*
X177605000Y-66370000D01*
X189052693Y-72870000D02*
X186802693Y-70620000D01*
X178355000Y-70620000D02*
X180355000Y-70620000D01*
X188559000Y-75998651D02*
X188559000Y-76709486D01*
D57*
%TO.N,GNDA*%
X193167000Y-70434200D02*
X191744600Y-71856600D01*
D56*
X170914087Y-53185087D02*
X173179732Y-50919442D01*
X191355000Y-72246200D02*
X191744600Y-71856600D01*
X189434147Y-76541445D02*
X189434147Y-76419941D01*
X193167000Y-70358000D02*
X193167000Y-70434200D01*
X187861377Y-78114215D02*
X189434147Y-76541445D01*
X173179732Y-50919442D02*
X181175606Y-50919442D01*
X191355000Y-74370000D02*
X191355000Y-72246200D01*
%TO.N,NRST*%
X190811123Y-79038000D02*
X190473126Y-79038000D01*
X190473126Y-79038000D02*
X189629144Y-79881982D01*
X200677011Y-73914000D02*
X201105000Y-74341989D01*
X195553156Y-73914000D02*
X192908614Y-76558542D01*
X192908614Y-76558542D02*
X192908615Y-76940507D01*
X198501000Y-73914000D02*
X198105000Y-73914000D01*
X198105000Y-73914000D02*
X195553156Y-73914000D01*
X198322970Y-75747943D02*
X198322970Y-74131970D01*
X201105000Y-74341989D02*
X201105000Y-77470000D01*
X198322970Y-74131970D02*
X198105000Y-73914000D01*
X200677011Y-73914000D02*
X198501000Y-73914000D01*
X192908615Y-76940507D02*
X190811123Y-79038000D01*
X201105000Y-77470000D02*
X201105000Y-83470000D01*
D53*
%TO.N,+5V*%
X192065000Y-105410000D02*
X193105000Y-104370000D01*
X154278422Y-97872954D02*
X153280224Y-96874756D01*
X191770000Y-105705000D02*
X191770000Y-107145000D01*
X151752599Y-96874756D02*
X150105000Y-98522355D01*
X153280224Y-96874756D02*
X151752599Y-96874756D01*
X159065000Y-85010000D02*
X160218021Y-85010000D01*
X186605000Y-105410000D02*
X186690000Y-105495000D01*
X178331146Y-111863854D02*
X184785000Y-105410000D01*
X192065000Y-105410000D02*
X191770000Y-105705000D01*
X150105000Y-98522355D02*
X150105000Y-100782195D01*
X155605000Y-95620000D02*
X157855000Y-97870000D01*
X193105000Y-102935000D02*
X193040000Y-102870000D01*
X193105000Y-104370000D02*
X193105000Y-102935000D01*
D54*
X192450000Y-105025000D02*
X197320000Y-105025000D01*
D53*
X150105000Y-100782195D02*
X161186659Y-111863854D01*
D54*
X197320000Y-105525000D02*
X192180000Y-105525000D01*
D53*
X154278422Y-95620000D02*
X155605000Y-95620000D01*
X160218021Y-85010000D02*
X160239385Y-85031364D01*
X161186659Y-111863854D02*
X178331146Y-111863854D01*
X154278422Y-97872954D02*
X154278422Y-95620000D01*
X184785000Y-105410000D02*
X186605000Y-105410000D01*
X186605000Y-105410000D02*
X192065000Y-105410000D01*
X186690000Y-105495000D02*
X186690000Y-107145000D01*
D54*
X192180000Y-105525000D02*
X192065000Y-105410000D01*
D53*
X154278422Y-95620000D02*
X154278422Y-92456000D01*
D56*
%TO.N,ADC1_IN0*%
X182245000Y-68834000D02*
X175590200Y-62179200D01*
X172901893Y-59381107D02*
X175431846Y-61911060D01*
X186855000Y-73370000D02*
X188105000Y-74620000D01*
X188105000Y-76456378D02*
X187154270Y-77407108D01*
X188105000Y-74620000D02*
X188105000Y-76456378D01*
X175590200Y-62179200D02*
X175488600Y-62179200D01*
X175431846Y-61911060D02*
X175431846Y-62058154D01*
%TO.N,Net-(C12-Pad1)*%
X218440000Y-96520000D02*
X212090000Y-96520000D01*
X212831667Y-102763333D02*
X212831667Y-107578444D01*
X213360000Y-95250000D02*
X212090000Y-96520000D01*
X213995000Y-101600000D02*
X212831667Y-102763333D01*
X213995000Y-95250000D02*
X213360000Y-95250000D01*
%TO.N,Net-(C14-Pad1)*%
X215900000Y-99060000D02*
X214630000Y-100330000D01*
X214630000Y-100330000D02*
X212131000Y-100330000D01*
X212131000Y-101559000D02*
X209042338Y-104647662D01*
X212131000Y-100330000D02*
X212131000Y-101559000D01*
X218440000Y-99060000D02*
X215900000Y-99060000D01*
X209042338Y-104647662D02*
X209042338Y-107578444D01*
%TO.N,Net-(U1-VCAP1)*%
X179075954Y-76067046D02*
X177673000Y-77470000D01*
X177673000Y-77470000D02*
X177673000Y-79840588D01*
X179075954Y-75889246D02*
X179075954Y-76067046D01*
X177673000Y-79840588D02*
X179128608Y-81296196D01*
%TO.N,GPIO_BUTTON_0*%
X211857768Y-72392265D02*
X211857768Y-87367232D01*
X188568611Y-91236440D02*
X188568611Y-90736199D01*
X212105000Y-67870000D02*
X215105000Y-67870000D01*
X211662118Y-50938708D02*
X211662118Y-53371618D01*
X211857768Y-87367232D02*
X210605000Y-88620000D01*
X217605000Y-57706667D02*
X215836078Y-55937745D01*
X210605000Y-88620000D02*
X205105000Y-88620000D01*
X188568611Y-90736199D02*
X187154270Y-89321858D01*
X188653585Y-91321414D02*
X188568611Y-91236440D01*
X217540458Y-64805458D02*
X215965738Y-64805458D01*
X215105000Y-67870000D02*
X217605000Y-65370000D01*
X211662118Y-53371618D02*
X211963000Y-53672500D01*
X217605000Y-65370000D02*
X217605000Y-57706667D01*
X217605000Y-64870000D02*
X217540458Y-64805458D01*
X220328375Y-57632634D02*
X217679033Y-57632634D01*
X213570833Y-53672500D02*
X215836078Y-55937745D01*
X211840060Y-68134940D02*
X212105000Y-67870000D01*
X217679033Y-57632634D02*
X217605000Y-57706667D01*
X211963000Y-53672500D02*
X213570833Y-53672500D01*
%TO.N,GPIO_BUTTON_1*%
X204273075Y-58783961D02*
X203233946Y-59823090D01*
X203168000Y-55905400D02*
X206682100Y-55905400D01*
X189225811Y-90570706D02*
X189110226Y-90570706D01*
X210105000Y-87620000D02*
X205105000Y-87620000D01*
X210105000Y-66460948D02*
X210105000Y-67890948D01*
X211053703Y-86671297D02*
X210105000Y-87620000D01*
X206904403Y-62394663D02*
X206904403Y-58814212D01*
X211053703Y-73088010D02*
X211053703Y-86671297D01*
X210105000Y-67890948D02*
X211060276Y-68846224D01*
X189110226Y-90570706D02*
X187507824Y-88968304D01*
X206904403Y-63260351D02*
X210105000Y-66460948D01*
X206904403Y-62394663D02*
X206904403Y-63260351D01*
X206707500Y-55880000D02*
X206707500Y-58617309D01*
X206682100Y-55905400D02*
X206707500Y-55880000D01*
X206874152Y-58783961D02*
X204273075Y-58783961D01*
X211060276Y-68846224D02*
X211060276Y-68992484D01*
%TO.N,GPIO_BUTTON_2*%
X210199926Y-68627926D02*
X209651000Y-68079000D01*
X189235476Y-89623544D02*
X188870170Y-89623544D01*
X210199926Y-69606315D02*
X210199926Y-68627926D01*
X208077156Y-65201800D02*
X188315600Y-65201800D01*
X188318041Y-65098172D02*
X188272737Y-65143476D01*
X188342060Y-58301493D02*
X188342060Y-61746200D01*
X210185000Y-86040000D02*
X210185000Y-73660000D01*
X188342060Y-61746200D02*
X188318041Y-61770219D01*
X188870170Y-89623544D02*
X187861377Y-88614751D01*
X209651000Y-68079000D02*
X209651000Y-66775644D01*
X188342060Y-58301493D02*
X189221507Y-58301493D01*
X188685280Y-54695220D02*
X188008500Y-55372000D01*
X196035339Y-54695220D02*
X190119000Y-54695220D01*
X209605000Y-86620000D02*
X210185000Y-86040000D01*
X190119000Y-54695220D02*
X188685280Y-54695220D01*
X190119000Y-57404000D02*
X190119000Y-54695220D01*
X189221507Y-58301493D02*
X190119000Y-57404000D01*
X188318041Y-61770219D02*
X188318041Y-65098172D01*
X209651000Y-66775644D02*
X208077156Y-65201800D01*
X205105000Y-86620000D02*
X209605000Y-86620000D01*
%TO.N,Net-(D1-A2)*%
X174133000Y-57783786D02*
X174316107Y-57966893D01*
X173355000Y-55626000D02*
X172239913Y-54510913D01*
X174133000Y-55626000D02*
X173355000Y-55626000D01*
X174133000Y-55626000D02*
X174133000Y-57783786D01*
%TO.N,USB_DP*%
X167005000Y-106045000D02*
X172720000Y-100330000D01*
X172720000Y-98912447D02*
X182664142Y-88968305D01*
X172720000Y-100330000D02*
X172720000Y-98912447D01*
%TO.N,USB_DM*%
X164460000Y-106050000D02*
X164465000Y-106045000D01*
X164470000Y-106050000D02*
X164495000Y-106050000D01*
X164465000Y-106045000D02*
X164470000Y-106050000D01*
X164465000Y-106045000D02*
X164880340Y-106045000D01*
X164880340Y-106045000D02*
X182310589Y-88614751D01*
%TO.N,Net-(D7-A)*%
X198421140Y-59877781D02*
X201179255Y-59877781D01*
X201179255Y-59877781D02*
X201233946Y-59823090D01*
%TO.N,Net-(D8-A)*%
X220328375Y-59632634D02*
X220328375Y-62252992D01*
X220328375Y-62252992D02*
X220334656Y-62259273D01*
%TO.N,Net-(D9-A)*%
X186318041Y-61770219D02*
X183549425Y-61770219D01*
X183549425Y-61770219D02*
X183517602Y-61802042D01*
D54*
%TO.N,Net-(D10-A)*%
X150495000Y-71025000D02*
X150495000Y-68580000D01*
D56*
%TO.N,Net-(D11-A)*%
X214468000Y-73866000D02*
X214468000Y-77531000D01*
%TO.N,Net-(D12-A)*%
X218097000Y-73866000D02*
X218097000Y-77531000D01*
%TO.N,Net-(D13-A)*%
X221731500Y-73894894D02*
X221731500Y-77496500D01*
%TO.N,Net-(U2-FB)*%
X159065000Y-87710000D02*
X162083000Y-87710000D01*
X165693000Y-86598000D02*
X167005000Y-87910000D01*
X162083000Y-87710000D02*
X163195000Y-86598000D01*
X163195000Y-86598000D02*
X165693000Y-86598000D01*
%TO.N,Net-(U3-OUTN)*%
X198505000Y-108335000D02*
X198505000Y-106210000D01*
X198755000Y-108585000D02*
X198505000Y-108335000D01*
X205140000Y-108585000D02*
X198755000Y-108585000D01*
X205855000Y-107870000D02*
X205140000Y-108585000D01*
X205855000Y-100809000D02*
X205855000Y-107870000D01*
X210144000Y-96520000D02*
X205855000Y-100809000D01*
%TO.N,Net-(U3-OUTP)*%
X198005000Y-108477052D02*
X198005000Y-106210000D01*
X205686000Y-109039000D02*
X198566947Y-109039000D01*
X206605000Y-100701052D02*
X206605000Y-108120000D01*
X206605000Y-108120000D02*
X205686000Y-109039000D01*
X206976052Y-100330000D02*
X206605000Y-100701052D01*
X210185000Y-100330000D02*
X206976052Y-100330000D01*
X198566947Y-109039000D02*
X198005000Y-108477052D01*
%TO.N,USB_ID_Connector*%
X154459672Y-103224672D02*
X155967968Y-103224672D01*
X153086352Y-101851352D02*
X154459672Y-103224672D01*
X153086352Y-100274978D02*
X153086352Y-101851352D01*
%TO.N,Net-(J2-Pin_1)*%
X178489977Y-102870000D02*
X186055000Y-102870000D01*
X186055000Y-102870000D02*
X187960000Y-100965000D01*
X178381296Y-102761319D02*
X178489977Y-102870000D01*
%TO.N,Net-(J2-Pin_2)*%
X184785000Y-100965000D02*
X187325000Y-98425000D01*
X189012102Y-98425000D02*
X189756051Y-99168949D01*
X182340000Y-100965000D02*
X184785000Y-100965000D01*
X187325000Y-98425000D02*
X189012102Y-98425000D01*
%TO.N,Net-(J2-Pin_3)*%
X182880000Y-96520000D02*
X183732898Y-97372898D01*
X183732898Y-97372898D02*
X191552102Y-97372898D01*
%TO.N,Net-(J2-Pin_4)*%
X191751308Y-93980000D02*
X193348154Y-95576846D01*
X189865000Y-93980000D02*
X191751308Y-93980000D01*
%TO.N,Net-(J2-Pin_5)*%
X198343729Y-92313284D02*
X197880986Y-92313284D01*
X196413475Y-93780795D02*
X195144205Y-93780795D01*
X197880986Y-92313284D02*
X196413475Y-93780795D01*
%TO.N,BUTTON_0*%
X205613000Y-51054000D02*
X209546826Y-51054000D01*
X209546826Y-51054000D02*
X209662118Y-50938708D01*
%TO.N,BUTTON_1*%
X201168000Y-55905400D02*
X201168000Y-52959000D01*
X201168000Y-52959000D02*
X203073000Y-51054000D01*
%TO.N,BUTTON_2*%
X196035339Y-52695220D02*
X198891780Y-52695220D01*
X198891780Y-52695220D02*
X200533000Y-51054000D01*
%TO.N,BOOT0*%
X190336251Y-86139877D02*
X192566374Y-88370000D01*
X192566374Y-88370000D02*
X193855000Y-88370000D01*
%TO.N,Net-(R4-Pad2)*%
X183715606Y-50919442D02*
X183715606Y-52259394D01*
X176889000Y-54870000D02*
X176133000Y-55626000D01*
X183105000Y-52870000D02*
X180105000Y-52870000D01*
X180105000Y-52870000D02*
X178105000Y-54870000D01*
X178105000Y-54870000D02*
X176889000Y-54870000D01*
X183715606Y-52259394D02*
X183105000Y-52870000D01*
%TO.N,Net-(U3-SD_MODE)*%
X194454214Y-101455786D02*
X196690786Y-101455786D01*
X196690786Y-101455786D02*
X198005000Y-102770000D01*
%TO.N,GPIO_LED0*%
X192454614Y-76752455D02*
X192454614Y-76370490D01*
X197432104Y-71393000D02*
X213995000Y-71393000D01*
X192454614Y-76370490D02*
X197432104Y-71393000D01*
X213995000Y-71393000D02*
X214468000Y-71866000D01*
X190623070Y-78584000D02*
X192454614Y-76752455D01*
X189275591Y-79528429D02*
X190220020Y-78584000D01*
X190220020Y-78584000D02*
X190623070Y-78584000D01*
%TO.N,GPIO_LED1*%
X192000614Y-76564403D02*
X190435017Y-78130000D01*
X217170000Y-70939000D02*
X197244052Y-70939000D01*
X190435017Y-78130000D02*
X189966912Y-78130000D01*
X189966912Y-78130000D02*
X188922037Y-79174875D01*
X192000614Y-76182438D02*
X192000614Y-76564403D01*
X197244052Y-70939000D02*
X192000614Y-76182438D01*
X218097000Y-71866000D02*
X217170000Y-70939000D01*
%TO.N,GPIO_LED2*%
X217454052Y-70485000D02*
X197056000Y-70485000D01*
X197056000Y-70485000D02*
X191546614Y-75994386D01*
X191546614Y-75994386D02*
X191546614Y-76376351D01*
X220321606Y-70485000D02*
X217454052Y-70485000D01*
X189713806Y-77676000D02*
X188568484Y-78821322D01*
X221731500Y-71894894D02*
X220321606Y-70485000D01*
X190246965Y-77676000D02*
X189713806Y-77676000D01*
X191546614Y-76376351D02*
X190246965Y-77676000D01*
%TO.N,TMS*%
X183017696Y-89321858D02*
X182419772Y-89919782D01*
X182419772Y-91900228D02*
X176381296Y-97938704D01*
X182419772Y-89919782D02*
X182419772Y-91900228D01*
X176381296Y-97938704D02*
X176381296Y-102761319D01*
%TO.N,TCK*%
X178435000Y-97155000D02*
X178435000Y-99060000D01*
X186447164Y-90028964D02*
X185561036Y-90028964D01*
X185561036Y-90028964D02*
X178435000Y-97155000D01*
X178435000Y-99060000D02*
X180340000Y-100965000D01*
%TO.N,SWO*%
X188568484Y-87907644D02*
X190105000Y-89444160D01*
X190105000Y-89444160D02*
X190105000Y-91535000D01*
X190105000Y-91535000D02*
X187748644Y-93891356D01*
X187748644Y-93891356D02*
X185508644Y-93891356D01*
X185508644Y-93891356D02*
X184294214Y-95105786D01*
%TO.N,JTDI*%
X187398641Y-92001359D02*
X186690000Y-92710000D01*
X187398641Y-90273335D02*
X187398641Y-92001359D01*
X186800717Y-89675411D02*
X187398641Y-90273335D01*
X188450786Y-95394214D02*
X187671572Y-94615000D01*
X187671572Y-94615000D02*
X186690000Y-94615000D01*
%TO.N,NJTRST*%
X195149494Y-90899070D02*
X192703564Y-93345000D01*
X196929515Y-90899070D02*
X195149494Y-90899070D01*
X191770000Y-93345000D02*
X191105000Y-92680000D01*
X192703564Y-93345000D02*
X191770000Y-93345000D01*
X191105000Y-89027200D02*
X190395146Y-89027200D01*
X191105000Y-92680000D02*
X191105000Y-89027200D01*
X190395146Y-89027200D02*
X188922037Y-87554091D01*
%TO.N,Net-(U3-GAIN_SLOT)*%
X199005000Y-101350000D02*
X199005000Y-103340000D01*
X200660000Y-99695000D02*
X199005000Y-101350000D01*
%TO.N,PC13*%
X192426660Y-80620000D02*
X191396911Y-81649749D01*
X193105000Y-80620000D02*
X192426660Y-80620000D01*
%TO.N,OSC32_IN*%
X192427854Y-79911700D02*
X191043358Y-81296196D01*
X194242606Y-79838747D02*
X194169653Y-79911700D01*
X194169653Y-79911700D02*
X192427854Y-79911700D01*
%TO.N,OSC_IN*%
X192328040Y-78597300D02*
X190336251Y-80589089D01*
X194453000Y-78628000D02*
X194422300Y-78597300D01*
X194422300Y-78597300D02*
X192328040Y-78597300D01*
%TO.N,I2S_SD*%
X197477948Y-69421000D02*
X191092614Y-75806334D01*
X191092614Y-75806334D02*
X191092614Y-76188299D01*
X206847344Y-69421000D02*
X197477948Y-69421000D01*
X199505000Y-102720000D02*
X202664885Y-99560115D01*
X190058913Y-77222000D02*
X189460700Y-77222000D01*
X206869544Y-69443200D02*
X206847344Y-69421000D01*
X202664885Y-99560115D02*
X202991350Y-99560115D01*
X189460700Y-77222000D02*
X188214931Y-78467769D01*
X191092614Y-76188299D02*
X190058913Y-77222000D01*
%TO.N,PA1*%
X186605000Y-74620000D02*
X187397172Y-75412172D01*
X187397172Y-75412172D02*
X187397172Y-76457100D01*
X187397172Y-76457100D02*
X186800717Y-77053555D01*
%TO.N,PA2*%
X186447164Y-76212164D02*
X185605000Y-75370000D01*
X186447164Y-76700002D02*
X186447164Y-76212164D01*
%TO.N,PA3*%
X183724802Y-76700002D02*
X183724802Y-76250198D01*
X183724802Y-76250198D02*
X184355000Y-75620000D01*
%TO.N,PA4*%
X184105000Y-74620000D02*
X182067688Y-76657312D01*
X182067688Y-76657312D02*
X182067688Y-77164208D01*
X182067688Y-77164208D02*
X182664142Y-77760662D01*
%TO.N,PA5*%
X184105000Y-73620000D02*
X184605000Y-73620000D01*
X182310589Y-78114215D02*
X181613688Y-77417314D01*
X181613688Y-77417314D02*
X181613688Y-76111312D01*
X181613688Y-76111312D02*
X184105000Y-73620000D01*
%TO.N,PA6*%
X180921403Y-76936403D02*
X180921403Y-77432137D01*
X180921403Y-77432137D02*
X181957035Y-78467769D01*
%TO.N,PA7*%
X180205684Y-77652122D02*
X180434282Y-77652122D01*
X180434282Y-77652122D02*
X181603482Y-78821322D01*
%TO.N,PC5*%
X179738438Y-78370492D02*
X180896375Y-79528429D01*
X179605000Y-78370492D02*
X179738438Y-78370492D01*
%TO.N,PB1*%
X179086900Y-79120000D02*
X179086900Y-79133166D01*
X179086900Y-79133166D02*
X180189269Y-80235535D01*
%TO.N,I2S_CK*%
X179933462Y-76994922D02*
X178127000Y-78801384D01*
X180692597Y-76279203D02*
X180649181Y-76279203D01*
X178127000Y-78801384D02*
X178127000Y-79587480D01*
X182473600Y-74498200D02*
X180692597Y-76279203D01*
X179976878Y-76994922D02*
X179933462Y-76994922D01*
X180264203Y-76707597D02*
X179976878Y-76994922D01*
X203822070Y-100392930D02*
X203901637Y-100392930D01*
X178127000Y-79587480D02*
X179482162Y-80942642D01*
X207645000Y-68786000D02*
X184655200Y-68786000D01*
X182473600Y-70967600D02*
X182473600Y-74498200D01*
X184655200Y-68786000D02*
X182473600Y-70967600D01*
X180649181Y-76279203D02*
X180264203Y-76664181D01*
X180264203Y-76664181D02*
X180264203Y-76707597D01*
X200190000Y-104025000D02*
X203822070Y-100392930D01*
%TO.N,I2S_WS*%
X174371000Y-80675162D02*
X178421502Y-84725664D01*
X204705402Y-102251310D02*
X204705402Y-101090172D01*
X201931712Y-105025000D02*
X204705402Y-102251310D01*
X174371000Y-78206600D02*
X174371000Y-80675162D01*
X208484094Y-67986358D02*
X184591242Y-67986358D01*
X200190000Y-105025000D02*
X201931712Y-105025000D01*
X184591242Y-67986358D02*
X174371000Y-78206600D01*
%TO.N,PB13*%
X177160672Y-85675672D02*
X178178600Y-85675672D01*
X178178600Y-85675672D02*
X178775055Y-85079217D01*
X177105000Y-85620000D02*
X177160672Y-85675672D01*
%TO.N,PB14*%
X178191378Y-86370000D02*
X179128608Y-85432770D01*
X176605000Y-86370000D02*
X178191378Y-86370000D01*
%TO.N,PB15*%
X179482162Y-85786324D02*
X178148486Y-87120000D01*
X178148486Y-87120000D02*
X176105000Y-87120000D01*
%TO.N,PC6*%
X179835715Y-86139877D02*
X178105592Y-87870000D01*
X178105592Y-87870000D02*
X175605000Y-87870000D01*
%TO.N,PC7*%
X175907422Y-88497000D02*
X175877222Y-88527200D01*
X175332778Y-88527200D02*
X175302578Y-88497000D01*
X174732000Y-88497000D02*
X174605000Y-88370000D01*
X175877222Y-88527200D02*
X175332778Y-88527200D01*
X178185700Y-88497000D02*
X175907422Y-88497000D01*
X175302578Y-88497000D02*
X174732000Y-88497000D01*
X180189269Y-86493431D02*
X178185700Y-88497000D01*
%TO.N,PA8*%
X181249929Y-87554091D02*
X177684020Y-91120000D01*
X177684020Y-91120000D02*
X175605000Y-91120000D01*
%TO.N,USB_VSENSE*%
X171975126Y-97536000D02*
X181603482Y-87907644D01*
X159385000Y-99314000D02*
X161163000Y-97536000D01*
X161163000Y-97536000D02*
X171975126Y-97536000D01*
%TO.N,USB_ID*%
X159855000Y-100120000D02*
X161677000Y-98298000D01*
X171920234Y-98298000D02*
X181957035Y-88261198D01*
X161677000Y-98298000D02*
X171920234Y-98298000D01*
%TO.N,PB6*%
X189629144Y-86846984D02*
X190855000Y-88072840D01*
X190855000Y-88072840D02*
X190855000Y-88370000D01*
%TO.N,PB7*%
X192105000Y-88615734D02*
X189982697Y-86493431D01*
X192105000Y-88870000D02*
X192105000Y-88615734D01*
%TO.N,PB8*%
X191386705Y-86483225D02*
X190689804Y-85786324D01*
X192605000Y-87120000D02*
X191968225Y-86483225D01*
X191968225Y-86483225D02*
X191386705Y-86483225D01*
%TO.N,PB9*%
X192695775Y-86029225D02*
X191639813Y-86029225D01*
X191639813Y-86029225D02*
X191043358Y-85432770D01*
X192855000Y-85870000D02*
X192695775Y-86029225D01*
%TO.N,OSC32_OUT*%
X193105000Y-79254500D02*
X192377946Y-79254500D01*
X192377946Y-79254500D02*
X190689804Y-80942642D01*
%TD*%
%TA.AperFunction,Conductor*%
%TO.N,GND*%
G36*
X219077695Y-63889685D02*
G01*
X219123450Y-63942489D01*
X219134656Y-63994000D01*
X219134656Y-64059273D01*
X221534655Y-64059273D01*
X221534655Y-63994000D01*
X221554340Y-63926961D01*
X221607144Y-63881206D01*
X221658655Y-63870000D01*
X222895500Y-63870000D01*
X222962539Y-63889685D01*
X223008294Y-63942489D01*
X223019500Y-63994000D01*
X223019500Y-69746000D01*
X222999815Y-69813039D01*
X222947011Y-69858794D01*
X222895500Y-69870000D01*
X220465230Y-69870000D01*
X220434393Y-69866104D01*
X220400885Y-69857500D01*
X220400878Y-69857500D01*
X220380748Y-69857500D01*
X220361349Y-69855973D01*
X220341474Y-69852825D01*
X220341473Y-69852825D01*
X220297836Y-69856950D01*
X220286167Y-69857500D01*
X216229000Y-69857500D01*
X216161961Y-69837815D01*
X216116206Y-69785011D01*
X216105000Y-69733500D01*
X216105000Y-67808780D01*
X216124685Y-67741741D01*
X216141319Y-67721099D01*
X216619918Y-67242500D01*
X217990043Y-65872374D01*
X218002325Y-65862537D01*
X218002144Y-65862318D01*
X218008157Y-65857342D01*
X218008162Y-65857340D01*
X218054384Y-65808116D01*
X218057033Y-65805384D01*
X218076623Y-65785796D01*
X218079096Y-65782606D01*
X218086682Y-65773722D01*
X218116693Y-65741767D01*
X218126389Y-65724128D01*
X218137073Y-65707861D01*
X218149408Y-65691962D01*
X218166819Y-65651725D01*
X218171942Y-65641265D01*
X218193072Y-65602834D01*
X218198078Y-65583334D01*
X218204376Y-65564936D01*
X218212374Y-65546458D01*
X218219232Y-65503151D01*
X218221596Y-65491736D01*
X218232500Y-65449272D01*
X218232500Y-65429141D01*
X218234027Y-65409741D01*
X218237175Y-65389867D01*
X218233050Y-65346230D01*
X218232500Y-65334561D01*
X218232500Y-64952964D01*
X218234228Y-64937314D01*
X218233946Y-64937288D01*
X218234680Y-64929525D01*
X218232561Y-64862095D01*
X218232500Y-64858200D01*
X218232500Y-64559273D01*
X219134657Y-64559273D01*
X219134657Y-64684259D01*
X219145150Y-64786970D01*
X219200297Y-64953392D01*
X219200299Y-64953397D01*
X219292340Y-65102618D01*
X219416310Y-65226588D01*
X219565531Y-65318629D01*
X219565536Y-65318631D01*
X219731958Y-65373778D01*
X219731965Y-65373779D01*
X219834675Y-65384272D01*
X220084655Y-65384272D01*
X220084656Y-65384271D01*
X220084656Y-64559273D01*
X220584656Y-64559273D01*
X220584656Y-65384272D01*
X220834628Y-65384272D01*
X220834642Y-65384271D01*
X220937353Y-65373778D01*
X221103775Y-65318631D01*
X221103780Y-65318629D01*
X221253001Y-65226588D01*
X221376971Y-65102618D01*
X221469012Y-64953397D01*
X221469014Y-64953392D01*
X221524161Y-64786970D01*
X221524162Y-64786963D01*
X221534655Y-64684259D01*
X221534656Y-64684246D01*
X221534656Y-64559273D01*
X220584656Y-64559273D01*
X220084656Y-64559273D01*
X219134657Y-64559273D01*
X218232500Y-64559273D01*
X218232500Y-63994000D01*
X218252185Y-63926961D01*
X218304989Y-63881206D01*
X218356500Y-63870000D01*
X219010656Y-63870000D01*
X219077695Y-63889685D01*
G37*
%TD.AperFunction*%
%TD*%
%TA.AperFunction,Conductor*%
%TO.N,GND*%
G36*
X185460880Y-108477685D02*
G01*
X185506635Y-108530489D01*
X185516579Y-108599647D01*
X185511547Y-108621004D01*
X185475494Y-108729802D01*
X185475493Y-108729809D01*
X185465000Y-108832513D01*
X185465000Y-108970000D01*
X187914999Y-108970000D01*
X187914999Y-108832528D01*
X187914998Y-108832513D01*
X187904505Y-108729802D01*
X187868453Y-108621004D01*
X187866051Y-108551176D01*
X187901783Y-108491134D01*
X187964303Y-108459941D01*
X187986159Y-108458000D01*
X190473841Y-108458000D01*
X190540880Y-108477685D01*
X190586635Y-108530489D01*
X190596579Y-108599647D01*
X190591547Y-108621004D01*
X190555494Y-108729802D01*
X190555493Y-108729809D01*
X190545000Y-108832513D01*
X190545000Y-108970000D01*
X192994999Y-108970000D01*
X192994999Y-108832528D01*
X192994998Y-108832513D01*
X192984505Y-108729802D01*
X192948453Y-108621004D01*
X192946051Y-108551176D01*
X192981783Y-108491134D01*
X193044303Y-108459941D01*
X193066159Y-108458000D01*
X194920739Y-108458000D01*
X194865749Y-112776000D01*
X184605000Y-112776000D01*
X184605000Y-109470000D01*
X185465001Y-109470000D01*
X185465001Y-109607486D01*
X185475494Y-109710197D01*
X185530641Y-109876619D01*
X185530643Y-109876624D01*
X185622684Y-110025845D01*
X185746654Y-110149815D01*
X185895875Y-110241856D01*
X185895880Y-110241858D01*
X186062302Y-110297005D01*
X186062309Y-110297006D01*
X186165019Y-110307499D01*
X186439999Y-110307499D01*
X186440000Y-110307498D01*
X186440000Y-109470000D01*
X186940000Y-109470000D01*
X186940000Y-110307499D01*
X187214972Y-110307499D01*
X187214986Y-110307498D01*
X187317697Y-110297005D01*
X187484119Y-110241858D01*
X187484124Y-110241856D01*
X187633345Y-110149815D01*
X187757315Y-110025845D01*
X187849356Y-109876624D01*
X187849358Y-109876619D01*
X187904505Y-109710197D01*
X187904506Y-109710190D01*
X187914999Y-109607486D01*
X187915000Y-109607473D01*
X187915000Y-109470000D01*
X190545001Y-109470000D01*
X190545001Y-109607486D01*
X190555494Y-109710197D01*
X190610641Y-109876619D01*
X190610643Y-109876624D01*
X190702684Y-110025845D01*
X190826654Y-110149815D01*
X190975875Y-110241856D01*
X190975880Y-110241858D01*
X191142302Y-110297005D01*
X191142309Y-110297006D01*
X191245019Y-110307499D01*
X191519999Y-110307499D01*
X191520000Y-110307498D01*
X191520000Y-109470000D01*
X192020000Y-109470000D01*
X192020000Y-110307499D01*
X192294972Y-110307499D01*
X192294986Y-110307498D01*
X192397697Y-110297005D01*
X192564119Y-110241858D01*
X192564124Y-110241856D01*
X192713345Y-110149815D01*
X192837315Y-110025845D01*
X192929356Y-109876624D01*
X192929358Y-109876619D01*
X192984505Y-109710197D01*
X192984506Y-109710190D01*
X192994999Y-109607486D01*
X192995000Y-109607473D01*
X192995000Y-109470000D01*
X192020000Y-109470000D01*
X191520000Y-109470000D01*
X190545001Y-109470000D01*
X187915000Y-109470000D01*
X186940000Y-109470000D01*
X186440000Y-109470000D01*
X185465001Y-109470000D01*
X184605000Y-109470000D01*
X184605000Y-108458000D01*
X185393841Y-108458000D01*
X185460880Y-108477685D01*
G37*
%TD.AperFunction*%
%TD*%
%TA.AperFunction,Conductor*%
%TO.N,GND*%
G36*
X185065540Y-54953107D02*
G01*
X185121399Y-54995078D01*
X185145700Y-55060585D01*
X185146000Y-55069212D01*
X185146000Y-55122000D01*
X186259500Y-55122000D01*
X186326539Y-55141685D01*
X186372294Y-55194489D01*
X186383500Y-55246000D01*
X186383500Y-56572000D01*
X186426803Y-56572000D01*
X186429965Y-56571839D01*
X186430009Y-56572715D01*
X186495087Y-56584809D01*
X186545973Y-56632688D01*
X186563000Y-56695400D01*
X186563000Y-56979191D01*
X186543315Y-57046230D01*
X186526681Y-57066872D01*
X186517060Y-57076493D01*
X186517060Y-59526492D01*
X186526681Y-59536113D01*
X186560166Y-59597436D01*
X186563000Y-59623794D01*
X186563000Y-60445719D01*
X186543315Y-60512758D01*
X186490511Y-60558513D01*
X186439000Y-60569719D01*
X185918039Y-60569719D01*
X185918021Y-60569720D01*
X185815244Y-60580219D01*
X185815241Y-60580220D01*
X185648709Y-60635404D01*
X185648704Y-60635406D01*
X185499383Y-60727508D01*
X185375330Y-60851561D01*
X185283228Y-61000882D01*
X185283226Y-61000887D01*
X185264393Y-61057723D01*
X185224620Y-61115168D01*
X185160104Y-61141991D01*
X185146687Y-61142719D01*
X184653411Y-61142719D01*
X184586372Y-61123034D01*
X184540617Y-61070230D01*
X184535705Y-61057724D01*
X184535705Y-61057723D01*
X184527416Y-61032708D01*
X184435314Y-60883386D01*
X184311258Y-60759330D01*
X184161936Y-60667228D01*
X183995399Y-60612043D01*
X183995397Y-60612042D01*
X183892612Y-60601542D01*
X183142600Y-60601542D01*
X183142582Y-60601543D01*
X183039805Y-60612042D01*
X183039802Y-60612043D01*
X182873270Y-60667227D01*
X182873265Y-60667229D01*
X182723944Y-60759331D01*
X182599890Y-60883385D01*
X182599885Y-60883391D01*
X182597843Y-60886703D01*
X182595849Y-60888495D01*
X182595409Y-60889053D01*
X182595313Y-60888977D01*
X182545893Y-60933425D01*
X182476930Y-60944644D01*
X182412849Y-60916797D01*
X182386770Y-60886698D01*
X182384921Y-60883701D01*
X182384918Y-60883697D01*
X182260947Y-60759726D01*
X182111726Y-60667685D01*
X182111721Y-60667683D01*
X181945299Y-60612536D01*
X181945292Y-60612535D01*
X181842588Y-60602042D01*
X181717602Y-60602042D01*
X181717602Y-63002041D01*
X181842574Y-63002041D01*
X181842588Y-63002040D01*
X181945299Y-62991547D01*
X182111721Y-62936400D01*
X182111726Y-62936398D01*
X182260947Y-62844357D01*
X182384920Y-62720384D01*
X182386767Y-62717390D01*
X182388571Y-62715766D01*
X182389400Y-62714719D01*
X182389578Y-62714860D01*
X182438712Y-62670663D01*
X182507675Y-62659438D01*
X182571758Y-62687278D01*
X182597845Y-62717383D01*
X182599890Y-62720698D01*
X182723946Y-62844754D01*
X182873268Y-62936856D01*
X183039805Y-62992041D01*
X183142593Y-63002542D01*
X183892610Y-63002541D01*
X183892618Y-63002540D01*
X183892621Y-63002540D01*
X183948904Y-62996790D01*
X183995399Y-62992041D01*
X184161936Y-62936856D01*
X184311258Y-62844754D01*
X184435314Y-62720698D01*
X184527416Y-62571376D01*
X184556795Y-62482713D01*
X184596568Y-62425270D01*
X184661084Y-62398447D01*
X184674501Y-62397719D01*
X185146687Y-62397719D01*
X185213726Y-62417404D01*
X185259481Y-62470208D01*
X185264393Y-62482715D01*
X185283226Y-62539550D01*
X185283228Y-62539555D01*
X185302854Y-62571373D01*
X185375329Y-62688875D01*
X185499385Y-62812931D01*
X185648707Y-62905033D01*
X185815244Y-62960218D01*
X185918032Y-62970719D01*
X186439001Y-62970718D01*
X186506039Y-62990402D01*
X186551794Y-63043206D01*
X186563000Y-63094718D01*
X186563000Y-63120000D01*
X180721000Y-63120000D01*
X180721000Y-63074161D01*
X180740685Y-63007122D01*
X180793489Y-62961367D01*
X180862647Y-62951423D01*
X180884004Y-62956455D01*
X180989904Y-62991547D01*
X180989911Y-62991548D01*
X181092621Y-63002041D01*
X181217601Y-63002041D01*
X181217602Y-63002040D01*
X181217602Y-60602042D01*
X181092629Y-60602042D01*
X181092614Y-60602043D01*
X180989904Y-60612536D01*
X180884004Y-60647628D01*
X180814175Y-60650030D01*
X180754134Y-60614298D01*
X180722941Y-60551777D01*
X180721000Y-60529922D01*
X180721000Y-58551493D01*
X185179561Y-58551493D01*
X185179561Y-58826479D01*
X185190054Y-58929190D01*
X185245201Y-59095612D01*
X185245203Y-59095617D01*
X185337244Y-59244838D01*
X185461214Y-59368808D01*
X185610435Y-59460849D01*
X185610440Y-59460851D01*
X185776862Y-59515998D01*
X185776869Y-59515999D01*
X185879579Y-59526492D01*
X186017059Y-59526492D01*
X186017060Y-59526491D01*
X186017060Y-58551493D01*
X185179561Y-58551493D01*
X180721000Y-58551493D01*
X180721000Y-58051493D01*
X185179560Y-58051493D01*
X186017060Y-58051493D01*
X186017060Y-57076493D01*
X185879587Y-57076493D01*
X185879572Y-57076494D01*
X185776862Y-57086987D01*
X185610440Y-57142134D01*
X185610435Y-57142136D01*
X185461214Y-57234177D01*
X185337244Y-57358147D01*
X185245203Y-57507368D01*
X185245201Y-57507373D01*
X185190054Y-57673795D01*
X185190053Y-57673802D01*
X185179560Y-57776506D01*
X185179560Y-58051493D01*
X180721000Y-58051493D01*
X180721000Y-55970107D01*
X180740685Y-55903068D01*
X180793489Y-55857313D01*
X180818854Y-55848894D01*
X181870850Y-55622000D01*
X185146000Y-55622000D01*
X185146000Y-55877815D01*
X185156407Y-55979673D01*
X185211094Y-56144709D01*
X185211096Y-56144714D01*
X185302370Y-56292691D01*
X185425308Y-56415629D01*
X185573285Y-56506903D01*
X185573290Y-56506905D01*
X185738326Y-56561592D01*
X185840184Y-56571999D01*
X185840197Y-56572000D01*
X185883500Y-56572000D01*
X185883500Y-55622000D01*
X185146000Y-55622000D01*
X181870850Y-55622000D01*
X184995862Y-54947999D01*
X185065540Y-54953107D01*
G37*
%TD.AperFunction*%
%TD*%
%TA.AperFunction,Conductor*%
%TO.N,Net-(C12-Pad2)*%
G36*
X214548039Y-106389685D02*
G01*
X214593794Y-106442489D01*
X214605000Y-106494000D01*
X214605000Y-108019774D01*
X214598543Y-108059266D01*
X214574012Y-108132277D01*
X214484921Y-108522610D01*
X214435137Y-108919882D01*
X214425155Y-109320108D01*
X214425155Y-109320119D01*
X214455075Y-109719369D01*
X214455077Y-109719383D01*
X214524600Y-110113667D01*
X214533032Y-110143634D01*
X214600365Y-110382951D01*
X214605000Y-110416532D01*
X214605000Y-113675500D01*
X214585315Y-113742539D01*
X214532511Y-113788294D01*
X214481000Y-113799500D01*
X205458371Y-113799500D01*
X205391332Y-113779815D01*
X205345577Y-113727011D01*
X205335633Y-113657853D01*
X205339392Y-113640571D01*
X205340023Y-113638421D01*
X205340024Y-113638416D01*
X205360500Y-113496000D01*
X205360500Y-113373000D01*
X205380185Y-113305961D01*
X205432989Y-113260206D01*
X205484500Y-113249000D01*
X205574000Y-113249000D01*
X205574000Y-112264000D01*
X206074000Y-112264000D01*
X206074000Y-113249000D01*
X206514328Y-113249000D01*
X206514344Y-113248999D01*
X206573872Y-113242598D01*
X206573879Y-113242596D01*
X206708586Y-113192354D01*
X206708593Y-113192350D01*
X206823687Y-113106190D01*
X206823690Y-113106187D01*
X206909850Y-112991093D01*
X206909854Y-112991086D01*
X206960096Y-112856379D01*
X206960098Y-112856372D01*
X206966499Y-112796844D01*
X206966500Y-112796827D01*
X206966500Y-112264000D01*
X206074000Y-112264000D01*
X205574000Y-112264000D01*
X205574000Y-110779000D01*
X206074000Y-110779000D01*
X206074000Y-111764000D01*
X206966500Y-111764000D01*
X206966500Y-111231172D01*
X206966499Y-111231155D01*
X206960098Y-111171627D01*
X206960096Y-111171620D01*
X206909854Y-111036913D01*
X206909850Y-111036906D01*
X206823690Y-110921812D01*
X206823687Y-110921809D01*
X206708593Y-110835649D01*
X206708586Y-110835645D01*
X206573879Y-110785403D01*
X206573872Y-110785401D01*
X206514344Y-110779000D01*
X206074000Y-110779000D01*
X205574000Y-110779000D01*
X205484500Y-110779000D01*
X205417461Y-110759315D01*
X205371706Y-110706511D01*
X205360500Y-110655000D01*
X205360500Y-109903444D01*
X207817339Y-109903444D01*
X207817339Y-110040930D01*
X207827832Y-110143641D01*
X207882979Y-110310063D01*
X207882981Y-110310068D01*
X207975022Y-110459289D01*
X208098992Y-110583259D01*
X208248213Y-110675300D01*
X208248218Y-110675302D01*
X208414640Y-110730449D01*
X208414647Y-110730450D01*
X208517357Y-110740943D01*
X208792337Y-110740943D01*
X208792338Y-110740942D01*
X208792338Y-109903444D01*
X209292338Y-109903444D01*
X209292338Y-110740943D01*
X209567310Y-110740943D01*
X209567324Y-110740942D01*
X209670035Y-110730449D01*
X209836457Y-110675302D01*
X209836462Y-110675300D01*
X209985683Y-110583259D01*
X210109653Y-110459289D01*
X210201694Y-110310068D01*
X210201696Y-110310063D01*
X210256843Y-110143641D01*
X210256844Y-110143634D01*
X210267337Y-110040930D01*
X210267338Y-110040917D01*
X210267338Y-109903444D01*
X211606668Y-109903444D01*
X211606668Y-110040930D01*
X211617161Y-110143641D01*
X211672308Y-110310063D01*
X211672310Y-110310068D01*
X211764351Y-110459289D01*
X211888321Y-110583259D01*
X212037542Y-110675300D01*
X212037547Y-110675302D01*
X212203969Y-110730449D01*
X212203976Y-110730450D01*
X212306686Y-110740943D01*
X212581666Y-110740943D01*
X212581667Y-110740942D01*
X212581667Y-109903444D01*
X213081667Y-109903444D01*
X213081667Y-110740943D01*
X213356639Y-110740943D01*
X213356653Y-110740942D01*
X213459364Y-110730449D01*
X213625786Y-110675302D01*
X213625791Y-110675300D01*
X213775012Y-110583259D01*
X213898982Y-110459289D01*
X213991023Y-110310068D01*
X213991025Y-110310063D01*
X214046172Y-110143641D01*
X214046173Y-110143634D01*
X214056666Y-110040930D01*
X214056667Y-110040917D01*
X214056667Y-109903444D01*
X213081667Y-109903444D01*
X212581667Y-109903444D01*
X211606668Y-109903444D01*
X210267338Y-109903444D01*
X209292338Y-109903444D01*
X208792338Y-109903444D01*
X207817339Y-109903444D01*
X205360500Y-109903444D01*
X205360500Y-109790500D01*
X205380185Y-109723461D01*
X205432989Y-109677706D01*
X205484500Y-109666500D01*
X205603033Y-109666500D01*
X205618681Y-109668227D01*
X205618708Y-109667946D01*
X205626475Y-109668680D01*
X205626476Y-109668679D01*
X205626477Y-109668680D01*
X205693919Y-109666561D01*
X205697813Y-109666500D01*
X205725472Y-109666500D01*
X205725476Y-109666500D01*
X205729474Y-109665994D01*
X205741114Y-109665077D01*
X205784943Y-109663701D01*
X205804272Y-109658084D01*
X205823328Y-109654137D01*
X205843293Y-109651616D01*
X205884055Y-109635476D01*
X205895092Y-109631698D01*
X205937191Y-109619468D01*
X205954515Y-109609221D01*
X205971983Y-109600663D01*
X205990703Y-109593253D01*
X206026177Y-109567478D01*
X206035915Y-109561081D01*
X206073656Y-109538763D01*
X206087897Y-109524520D01*
X206102678Y-109511897D01*
X206118967Y-109500063D01*
X206146904Y-109466290D01*
X206154756Y-109457661D01*
X206990043Y-108622374D01*
X207002325Y-108612537D01*
X207002144Y-108612318D01*
X207008157Y-108607342D01*
X207008162Y-108607340D01*
X207054384Y-108558116D01*
X207057033Y-108555384D01*
X207076623Y-108535796D01*
X207079096Y-108532606D01*
X207086682Y-108523722D01*
X207116693Y-108491767D01*
X207126389Y-108474128D01*
X207137073Y-108457861D01*
X207149408Y-108441962D01*
X207166817Y-108401728D01*
X207171955Y-108391243D01*
X207172886Y-108389551D01*
X207193072Y-108352834D01*
X207198078Y-108333334D01*
X207204382Y-108314924D01*
X207212370Y-108296465D01*
X207212373Y-108296459D01*
X207216567Y-108269977D01*
X207219230Y-108253166D01*
X207221596Y-108241737D01*
X207232500Y-108199272D01*
X207232500Y-108179135D01*
X207234027Y-108159735D01*
X207237174Y-108139867D01*
X207233050Y-108096238D01*
X207232500Y-108084569D01*
X207232500Y-107249500D01*
X207252185Y-107182461D01*
X207304989Y-107136706D01*
X207356500Y-107125500D01*
X207692838Y-107125500D01*
X207759877Y-107145185D01*
X207805632Y-107197989D01*
X207816838Y-107249500D01*
X207816838Y-107965945D01*
X207816839Y-107965963D01*
X207827338Y-108068740D01*
X207827339Y-108068743D01*
X207882523Y-108235275D01*
X207882525Y-108235280D01*
X207893557Y-108253166D01*
X207974626Y-108384600D01*
X208098682Y-108508656D01*
X208101966Y-108510681D01*
X208101991Y-108510697D01*
X208103783Y-108512690D01*
X208104349Y-108513137D01*
X208104272Y-108513233D01*
X208148717Y-108562643D01*
X208159941Y-108631605D01*
X208132099Y-108695688D01*
X208102003Y-108721770D01*
X208098998Y-108723623D01*
X208098993Y-108723627D01*
X207975022Y-108847598D01*
X207882981Y-108996819D01*
X207882979Y-108996824D01*
X207827832Y-109163246D01*
X207827831Y-109163253D01*
X207817338Y-109265957D01*
X207817338Y-109403444D01*
X210267337Y-109403444D01*
X210267337Y-109265972D01*
X210267336Y-109265957D01*
X210256843Y-109163246D01*
X210201696Y-108996824D01*
X210201694Y-108996819D01*
X210109653Y-108847598D01*
X209985682Y-108723627D01*
X209985679Y-108723625D01*
X209982677Y-108721773D01*
X209981051Y-108719965D01*
X209980015Y-108719146D01*
X209980155Y-108718968D01*
X209935955Y-108669824D01*
X209924735Y-108600861D01*
X209952581Y-108536780D01*
X209982682Y-108510698D01*
X209985994Y-108508656D01*
X210110050Y-108384600D01*
X210202152Y-108235278D01*
X210257337Y-108068741D01*
X210267838Y-107965953D01*
X210267837Y-107249499D01*
X210287521Y-107182461D01*
X210340325Y-107136706D01*
X210391837Y-107125500D01*
X211482167Y-107125500D01*
X211549206Y-107145185D01*
X211594961Y-107197989D01*
X211606167Y-107249500D01*
X211606167Y-107965945D01*
X211606168Y-107965963D01*
X211616667Y-108068740D01*
X211616668Y-108068743D01*
X211671852Y-108235275D01*
X211671854Y-108235280D01*
X211682886Y-108253166D01*
X211763955Y-108384600D01*
X211888011Y-108508656D01*
X211891295Y-108510681D01*
X211891320Y-108510697D01*
X211893112Y-108512690D01*
X211893678Y-108513137D01*
X211893601Y-108513233D01*
X211938046Y-108562643D01*
X211949270Y-108631605D01*
X211921428Y-108695688D01*
X211891332Y-108721770D01*
X211888327Y-108723623D01*
X211888322Y-108723627D01*
X211764351Y-108847598D01*
X211672310Y-108996819D01*
X211672308Y-108996824D01*
X211617161Y-109163246D01*
X211617160Y-109163253D01*
X211606667Y-109265957D01*
X211606667Y-109403444D01*
X214056666Y-109403444D01*
X214056666Y-109265972D01*
X214056665Y-109265957D01*
X214046172Y-109163246D01*
X213991025Y-108996824D01*
X213991023Y-108996819D01*
X213898982Y-108847598D01*
X213775011Y-108723627D01*
X213775008Y-108723625D01*
X213772006Y-108721773D01*
X213770380Y-108719965D01*
X213769344Y-108719146D01*
X213769484Y-108718968D01*
X213725284Y-108669824D01*
X213714064Y-108600861D01*
X213741910Y-108536780D01*
X213772011Y-108510698D01*
X213775323Y-108508656D01*
X213899379Y-108384600D01*
X213991481Y-108235278D01*
X214046666Y-108068741D01*
X214057167Y-107965953D01*
X214057166Y-107190936D01*
X214052492Y-107145185D01*
X214046666Y-107088147D01*
X214046665Y-107088144D01*
X214031071Y-107041084D01*
X213991481Y-106921610D01*
X213899379Y-106772288D01*
X213775323Y-106648232D01*
X213696377Y-106599538D01*
X213649654Y-106547591D01*
X213638431Y-106478628D01*
X213666275Y-106414546D01*
X213724343Y-106375690D01*
X213761475Y-106370000D01*
X214481000Y-106370000D01*
X214548039Y-106389685D01*
G37*
%TD.AperFunction*%
%TD*%
%TA.AperFunction,Conductor*%
%TO.N,GND*%
G36*
X210706639Y-55137685D02*
G01*
X210752394Y-55190489D01*
X210762361Y-55250994D01*
X210763161Y-55251035D01*
X210763000Y-55254197D01*
X210763000Y-55297500D01*
X213163000Y-55297500D01*
X213163000Y-55254197D01*
X213162839Y-55251035D01*
X213163715Y-55250990D01*
X213175809Y-55185913D01*
X213223688Y-55135027D01*
X213286400Y-55118000D01*
X214077552Y-55118000D01*
X214144591Y-55137685D01*
X214165233Y-55154319D01*
X214510525Y-55499611D01*
X214544010Y-55560934D01*
X214543501Y-55615889D01*
X214511054Y-55752789D01*
X214511053Y-55752800D01*
X214511053Y-55928235D01*
X214511054Y-55928244D01*
X214511951Y-55932030D01*
X214511809Y-55934705D01*
X214511892Y-55935414D01*
X214511770Y-55935428D01*
X214508254Y-56001802D01*
X214467423Y-56058499D01*
X214402421Y-56084121D01*
X214362697Y-56081279D01*
X214359267Y-56080466D01*
X214183945Y-56080466D01*
X214013340Y-56120900D01*
X213856664Y-56199585D01*
X213776626Y-56264786D01*
X213776608Y-56264802D01*
X213228646Y-56812766D01*
X213228627Y-56812787D01*
X213163431Y-56892818D01*
X213163422Y-56892831D01*
X213084741Y-57049499D01*
X213044307Y-57220103D01*
X213044307Y-57395424D01*
X213084741Y-57566028D01*
X213163422Y-57722695D01*
X213163427Y-57722702D01*
X213228629Y-57802744D01*
X213228643Y-57802759D01*
X213423076Y-57997192D01*
X214281150Y-57139118D01*
X214342473Y-57105633D01*
X214412164Y-57110617D01*
X214456512Y-57139118D01*
X215411812Y-58094419D01*
X215411813Y-58094419D01*
X215509022Y-57997210D01*
X215509031Y-57997200D01*
X215574232Y-57917163D01*
X215574241Y-57917150D01*
X215652922Y-57760482D01*
X215693357Y-57589878D01*
X215693357Y-57414558D01*
X215692545Y-57411133D01*
X215692673Y-57408704D01*
X215692519Y-57407383D01*
X215692744Y-57407356D01*
X215696235Y-57341361D01*
X215737060Y-57284660D01*
X215802060Y-57259032D01*
X215841799Y-57261872D01*
X215845584Y-57262770D01*
X215845587Y-57262770D01*
X216021023Y-57262770D01*
X216021026Y-57262770D01*
X216021029Y-57262769D01*
X216021031Y-57262769D01*
X216051052Y-57255653D01*
X216157934Y-57230321D01*
X216227704Y-57234013D01*
X216274211Y-57263297D01*
X216498681Y-57487767D01*
X216532166Y-57549090D01*
X216535000Y-57575448D01*
X216535000Y-63484935D01*
X216515315Y-63551974D01*
X216462511Y-63597729D01*
X216398399Y-63608293D01*
X216365750Y-63604958D01*
X215565736Y-63604958D01*
X215565718Y-63604959D01*
X215462941Y-63615458D01*
X215462938Y-63615459D01*
X215296406Y-63670643D01*
X215296401Y-63670645D01*
X215147083Y-63762745D01*
X215053065Y-63856763D01*
X214991741Y-63890247D01*
X214922050Y-63885263D01*
X214877703Y-63856762D01*
X214784083Y-63763142D01*
X214634862Y-63671101D01*
X214634857Y-63671099D01*
X214468435Y-63615952D01*
X214468428Y-63615951D01*
X214365724Y-63605458D01*
X214215738Y-63605458D01*
X214215738Y-64931458D01*
X214196053Y-64998497D01*
X214143249Y-65044252D01*
X214091738Y-65055458D01*
X212865739Y-65055458D01*
X212865739Y-65305444D01*
X212876232Y-65408155D01*
X212931379Y-65574577D01*
X212931384Y-65574586D01*
X212945149Y-65596904D01*
X212963589Y-65664297D01*
X212942666Y-65730960D01*
X212889023Y-65775729D01*
X212839610Y-65786000D01*
X210368833Y-65786000D01*
X210301794Y-65766315D01*
X210281152Y-65749681D01*
X209086929Y-64555458D01*
X212865738Y-64555458D01*
X213715738Y-64555458D01*
X213715738Y-63605458D01*
X213565765Y-63605458D01*
X213565750Y-63605459D01*
X213463040Y-63615952D01*
X213296618Y-63671099D01*
X213296613Y-63671101D01*
X213147392Y-63763142D01*
X213023422Y-63887112D01*
X212931381Y-64036333D01*
X212931379Y-64036338D01*
X212876232Y-64202760D01*
X212876231Y-64202767D01*
X212865738Y-64305471D01*
X212865738Y-64555458D01*
X209086929Y-64555458D01*
X208329552Y-63798081D01*
X208296067Y-63736758D01*
X208301051Y-63667066D01*
X208342923Y-63611133D01*
X208408387Y-63586716D01*
X208429837Y-63587042D01*
X208504424Y-63594662D01*
X208654402Y-63594662D01*
X208654403Y-63594661D01*
X208654403Y-62644663D01*
X209154403Y-62644663D01*
X209154403Y-63594662D01*
X209304375Y-63594662D01*
X209304389Y-63594661D01*
X209407100Y-63584168D01*
X209573522Y-63529021D01*
X209573527Y-63529019D01*
X209722748Y-63436978D01*
X209846718Y-63313008D01*
X209938759Y-63163787D01*
X209938761Y-63163782D01*
X209993908Y-62997360D01*
X209993909Y-62997353D01*
X210004402Y-62894649D01*
X210004403Y-62894636D01*
X210004403Y-62644663D01*
X209154403Y-62644663D01*
X208654403Y-62644663D01*
X208654403Y-61194663D01*
X209154403Y-61194663D01*
X209154403Y-62144663D01*
X210004402Y-62144663D01*
X210004402Y-61894691D01*
X210004401Y-61894676D01*
X209993908Y-61791965D01*
X209938761Y-61625543D01*
X209938759Y-61625538D01*
X209846718Y-61476317D01*
X209722748Y-61352347D01*
X209573527Y-61260306D01*
X209573522Y-61260304D01*
X209407100Y-61205157D01*
X209407093Y-61205156D01*
X209304389Y-61194663D01*
X209154403Y-61194663D01*
X208654403Y-61194663D01*
X208504430Y-61194663D01*
X208504415Y-61194664D01*
X208401705Y-61205157D01*
X208235283Y-61260304D01*
X208235278Y-61260306D01*
X208088097Y-61351089D01*
X208020704Y-61369529D01*
X207954041Y-61348606D01*
X207909271Y-61294964D01*
X207899000Y-61245550D01*
X207899000Y-59906332D01*
X207918685Y-59839293D01*
X207971489Y-59793538D01*
X208040647Y-59783594D01*
X208104203Y-59812619D01*
X208110681Y-59818651D01*
X208143306Y-59851276D01*
X208292527Y-59943317D01*
X208292532Y-59943319D01*
X208458954Y-59998466D01*
X208458961Y-59998467D01*
X208561671Y-60008960D01*
X208699151Y-60008960D01*
X208699152Y-60008959D01*
X208699152Y-59033961D01*
X209199152Y-59033961D01*
X209199152Y-60008960D01*
X209336624Y-60008960D01*
X209336638Y-60008959D01*
X209439349Y-59998466D01*
X209605771Y-59943319D01*
X209605776Y-59943317D01*
X209754997Y-59851276D01*
X209878967Y-59727306D01*
X209971008Y-59578085D01*
X209971010Y-59578080D01*
X210026157Y-59411658D01*
X210026158Y-59411651D01*
X210036651Y-59308947D01*
X210036652Y-59308934D01*
X210036652Y-59033961D01*
X209199152Y-59033961D01*
X208699152Y-59033961D01*
X208699152Y-57558961D01*
X209199152Y-57558961D01*
X209199152Y-58533961D01*
X210036651Y-58533961D01*
X210036651Y-58350745D01*
X213776631Y-58350745D01*
X213971062Y-58545176D01*
X213971083Y-58545195D01*
X214051114Y-58610391D01*
X214051127Y-58610400D01*
X214207794Y-58689081D01*
X214378399Y-58729516D01*
X214553719Y-58729516D01*
X214724323Y-58689081D01*
X214880999Y-58610396D01*
X214961043Y-58545190D01*
X214961049Y-58545185D01*
X215058260Y-58447972D01*
X215058260Y-58447971D01*
X214368833Y-57758544D01*
X214368832Y-57758544D01*
X213776631Y-58350745D01*
X210036651Y-58350745D01*
X210036651Y-58258989D01*
X210036650Y-58258974D01*
X210026157Y-58156263D01*
X209971010Y-57989841D01*
X209971008Y-57989836D01*
X209878967Y-57840615D01*
X209754997Y-57716645D01*
X209605776Y-57624604D01*
X209605771Y-57624602D01*
X209439349Y-57569455D01*
X209439342Y-57569454D01*
X209336638Y-57558961D01*
X209199152Y-57558961D01*
X208699152Y-57558961D01*
X208561679Y-57558961D01*
X208561664Y-57558962D01*
X208458954Y-57569455D01*
X208292532Y-57624602D01*
X208292527Y-57624604D01*
X208143306Y-57716645D01*
X208110681Y-57749271D01*
X208049358Y-57782756D01*
X207979666Y-57777772D01*
X207923733Y-57735900D01*
X207899316Y-57670436D01*
X207899000Y-57661590D01*
X207899000Y-57145771D01*
X207918685Y-57078732D01*
X207971489Y-57032977D01*
X208040647Y-57023033D01*
X208062004Y-57028065D01*
X208187326Y-57069592D01*
X208289184Y-57079999D01*
X208289197Y-57080000D01*
X208332500Y-57080000D01*
X208332500Y-56130000D01*
X208832500Y-56130000D01*
X208832500Y-57080000D01*
X208875803Y-57080000D01*
X208875815Y-57079999D01*
X208977673Y-57069592D01*
X209142709Y-57014905D01*
X209142714Y-57014903D01*
X209290691Y-56923629D01*
X209413629Y-56800691D01*
X209504903Y-56652714D01*
X209504905Y-56652709D01*
X209559592Y-56487673D01*
X209569999Y-56385815D01*
X209570000Y-56385802D01*
X209570000Y-56130000D01*
X208832500Y-56130000D01*
X208332500Y-56130000D01*
X208332500Y-55797500D01*
X210763000Y-55797500D01*
X210763000Y-55840815D01*
X210773407Y-55942673D01*
X210828094Y-56107709D01*
X210828096Y-56107714D01*
X210919370Y-56255691D01*
X211042308Y-56378629D01*
X211190285Y-56469903D01*
X211190290Y-56469905D01*
X211355326Y-56524592D01*
X211457184Y-56534999D01*
X211457197Y-56535000D01*
X211713000Y-56535000D01*
X211713000Y-55797500D01*
X212213000Y-55797500D01*
X212213000Y-56535000D01*
X212468803Y-56535000D01*
X212468815Y-56534999D01*
X212570673Y-56524592D01*
X212735709Y-56469905D01*
X212735714Y-56469903D01*
X212883691Y-56378629D01*
X213006629Y-56255691D01*
X213097903Y-56107714D01*
X213097905Y-56107709D01*
X213152592Y-55942673D01*
X213162999Y-55840815D01*
X213163000Y-55840802D01*
X213163000Y-55797500D01*
X212213000Y-55797500D01*
X211713000Y-55797500D01*
X210763000Y-55797500D01*
X208332500Y-55797500D01*
X208332500Y-55754000D01*
X208352185Y-55686961D01*
X208404989Y-55641206D01*
X208456500Y-55630000D01*
X209570000Y-55630000D01*
X209570000Y-55374197D01*
X209569999Y-55374184D01*
X209559592Y-55272324D01*
X209558657Y-55267952D01*
X209563875Y-55198278D01*
X209605933Y-55142485D01*
X209671479Y-55118287D01*
X209679911Y-55118000D01*
X210639600Y-55118000D01*
X210706639Y-55137685D01*
G37*
%TD.AperFunction*%
%TD*%
%TA.AperFunction,Conductor*%
%TO.N,Net-(U2-SW)*%
G36*
X156347719Y-83839685D02*
G01*
X156393474Y-83892489D01*
X156403418Y-83961647D01*
X156396862Y-83987333D01*
X156346403Y-84122620D01*
X156346401Y-84122627D01*
X156340000Y-84182155D01*
X156340000Y-84760000D01*
X157165500Y-84760000D01*
X157232539Y-84779685D01*
X157278294Y-84832489D01*
X157289500Y-84884000D01*
X157289501Y-85136000D01*
X157269817Y-85203039D01*
X157217013Y-85248794D01*
X157165501Y-85260000D01*
X156340000Y-85260000D01*
X156323372Y-85276627D01*
X156320315Y-85287039D01*
X156267511Y-85332794D01*
X156216000Y-85344000D01*
X156083000Y-85344000D01*
X156083000Y-88268000D01*
X156063315Y-88335039D01*
X156010511Y-88380794D01*
X155959000Y-88392000D01*
X154920362Y-88392000D01*
X154853323Y-88372315D01*
X154807568Y-88319511D01*
X154797624Y-88250353D01*
X154826649Y-88186797D01*
X154846051Y-88168734D01*
X154888187Y-88137190D01*
X154888190Y-88137187D01*
X154974350Y-88022093D01*
X154974354Y-88022086D01*
X155024596Y-87887379D01*
X155024598Y-87887372D01*
X155030999Y-87827844D01*
X155031000Y-87827827D01*
X155031000Y-86530000D01*
X150531000Y-86530000D01*
X150531000Y-87827844D01*
X150537401Y-87887372D01*
X150537403Y-87887379D01*
X150587645Y-88022086D01*
X150587649Y-88022093D01*
X150673809Y-88137187D01*
X150673812Y-88137190D01*
X150715949Y-88168734D01*
X150757820Y-88224667D01*
X150762804Y-88294359D01*
X150729319Y-88355682D01*
X150667995Y-88389166D01*
X150641638Y-88392000D01*
X149349000Y-88392000D01*
X149281961Y-88372315D01*
X149236206Y-88319511D01*
X149225000Y-88268000D01*
X149225000Y-86030000D01*
X150531000Y-86030000D01*
X152531000Y-86030000D01*
X152531000Y-84280000D01*
X153031000Y-84280000D01*
X153031000Y-86030000D01*
X155031000Y-86030000D01*
X155031000Y-84732172D01*
X155030999Y-84732155D01*
X155024598Y-84672627D01*
X155024596Y-84672620D01*
X154974354Y-84537913D01*
X154974350Y-84537906D01*
X154888190Y-84422812D01*
X154888187Y-84422809D01*
X154773093Y-84336649D01*
X154773086Y-84336645D01*
X154638379Y-84286403D01*
X154638372Y-84286401D01*
X154578844Y-84280000D01*
X153031000Y-84280000D01*
X152531000Y-84280000D01*
X150983155Y-84280000D01*
X150923627Y-84286401D01*
X150923620Y-84286403D01*
X150788913Y-84336645D01*
X150788906Y-84336649D01*
X150673812Y-84422809D01*
X150673809Y-84422812D01*
X150587649Y-84537906D01*
X150587645Y-84537913D01*
X150537403Y-84672620D01*
X150537401Y-84672627D01*
X150531000Y-84732155D01*
X150531000Y-86030000D01*
X149225000Y-86030000D01*
X149225000Y-83944000D01*
X149244685Y-83876961D01*
X149297489Y-83831206D01*
X149349000Y-83820000D01*
X156280680Y-83820000D01*
X156347719Y-83839685D01*
G37*
%TD.AperFunction*%
%TD*%
%TA.AperFunction,Conductor*%
%TO.N,+3.3V*%
G36*
X156788039Y-76219685D02*
G01*
X156833794Y-76272489D01*
X156845000Y-76324000D01*
X156845000Y-78962138D01*
X156825315Y-79029177D01*
X156819500Y-79036393D01*
X156819500Y-81497993D01*
X156842166Y-81539503D01*
X156845000Y-81565861D01*
X156845000Y-82934000D01*
X156825315Y-83001039D01*
X156772511Y-83046794D01*
X156721000Y-83058000D01*
X155139553Y-83058000D01*
X155072514Y-83038315D01*
X155026759Y-82985511D01*
X155016815Y-82916353D01*
X155023370Y-82890669D01*
X155024596Y-82887379D01*
X155024598Y-82887372D01*
X155030999Y-82827844D01*
X155031000Y-82827827D01*
X155031000Y-81530000D01*
X150531000Y-81530000D01*
X150531000Y-82827844D01*
X150537401Y-82887372D01*
X150537403Y-82887379D01*
X150538630Y-82890669D01*
X150538825Y-82893398D01*
X150539187Y-82894930D01*
X150538938Y-82894988D01*
X150543613Y-82960361D01*
X150510126Y-83021683D01*
X150448802Y-83055167D01*
X150422447Y-83058000D01*
X149349000Y-83058000D01*
X149281961Y-83038315D01*
X149236206Y-82985511D01*
X149225000Y-82934000D01*
X149225000Y-81030000D01*
X150531000Y-81030000D01*
X152531000Y-81030000D01*
X152531000Y-79280000D01*
X153031000Y-79280000D01*
X153031000Y-81030000D01*
X155031000Y-81030000D01*
X155031000Y-80514000D01*
X155482001Y-80514000D01*
X155482001Y-80788986D01*
X155492494Y-80891697D01*
X155547641Y-81058119D01*
X155547643Y-81058124D01*
X155639684Y-81207345D01*
X155763654Y-81331315D01*
X155912875Y-81423356D01*
X155912880Y-81423358D01*
X156079302Y-81478505D01*
X156079309Y-81478506D01*
X156182019Y-81488999D01*
X156319499Y-81488999D01*
X156319500Y-81488998D01*
X156319500Y-80514000D01*
X155482001Y-80514000D01*
X155031000Y-80514000D01*
X155031000Y-80014000D01*
X155482000Y-80014000D01*
X156319500Y-80014000D01*
X156319500Y-79039000D01*
X156182027Y-79039000D01*
X156182012Y-79039001D01*
X156079302Y-79049494D01*
X155912880Y-79104641D01*
X155912875Y-79104643D01*
X155763654Y-79196684D01*
X155639684Y-79320654D01*
X155547643Y-79469875D01*
X155547641Y-79469880D01*
X155492494Y-79636302D01*
X155492493Y-79636309D01*
X155482000Y-79739013D01*
X155482000Y-80014000D01*
X155031000Y-80014000D01*
X155031000Y-79732172D01*
X155030999Y-79732155D01*
X155024598Y-79672627D01*
X155024596Y-79672620D01*
X154974354Y-79537913D01*
X154974350Y-79537906D01*
X154888190Y-79422812D01*
X154888187Y-79422809D01*
X154773093Y-79336649D01*
X154773086Y-79336645D01*
X154638379Y-79286403D01*
X154638372Y-79286401D01*
X154578844Y-79280000D01*
X153031000Y-79280000D01*
X152531000Y-79280000D01*
X150983155Y-79280000D01*
X150923627Y-79286401D01*
X150923620Y-79286403D01*
X150788913Y-79336645D01*
X150788906Y-79336649D01*
X150673812Y-79422809D01*
X150673809Y-79422812D01*
X150587649Y-79537906D01*
X150587645Y-79537913D01*
X150537403Y-79672620D01*
X150537401Y-79672627D01*
X150531000Y-79732155D01*
X150531000Y-81030000D01*
X149225000Y-81030000D01*
X149225000Y-76324000D01*
X149244685Y-76256961D01*
X149297489Y-76211206D01*
X149349000Y-76200000D01*
X156721000Y-76200000D01*
X156788039Y-76219685D01*
G37*
%TD.AperFunction*%
%TD*%
%TA.AperFunction,Conductor*%
%TO.N,GND*%
G36*
X209548039Y-72389685D02*
G01*
X209593794Y-72442489D01*
X209605000Y-72494000D01*
X209605000Y-73015094D01*
X209585315Y-73082133D01*
X209573150Y-73098066D01*
X209509247Y-73169038D01*
X209421937Y-73320262D01*
X209421933Y-73320271D01*
X209377160Y-73458072D01*
X209367977Y-73486336D01*
X209349724Y-73660000D01*
X209367977Y-73833664D01*
X209367978Y-73833667D01*
X209421933Y-73999728D01*
X209421937Y-73999737D01*
X209509248Y-74150963D01*
X209525651Y-74169180D01*
X209555880Y-74232170D01*
X209557500Y-74252151D01*
X209557500Y-85728719D01*
X209537815Y-85795758D01*
X209521181Y-85816400D01*
X209381400Y-85956181D01*
X209320077Y-85989666D01*
X209293719Y-85992500D01*
X205694882Y-85992500D01*
X205627843Y-85972815D01*
X205621997Y-85968818D01*
X205522642Y-85896632D01*
X205522637Y-85896629D01*
X205363119Y-85825606D01*
X205363113Y-85825604D01*
X205222693Y-85795758D01*
X205192310Y-85789300D01*
X205017690Y-85789300D01*
X204987749Y-85795663D01*
X204846886Y-85825604D01*
X204846880Y-85825606D01*
X204687362Y-85896629D01*
X204687357Y-85896632D01*
X204546092Y-85999267D01*
X204546090Y-85999269D01*
X204429247Y-86129038D01*
X204341937Y-86280262D01*
X204341933Y-86280271D01*
X204287978Y-86446332D01*
X204287977Y-86446336D01*
X204269724Y-86620000D01*
X204287977Y-86793664D01*
X204287978Y-86793667D01*
X204341933Y-86959728D01*
X204341937Y-86959737D01*
X204398669Y-87058000D01*
X204415142Y-87125901D01*
X204398669Y-87182000D01*
X204341937Y-87280262D01*
X204341933Y-87280271D01*
X204297635Y-87416610D01*
X204287977Y-87446336D01*
X204269724Y-87620000D01*
X204287977Y-87793664D01*
X204287978Y-87793667D01*
X204341933Y-87959728D01*
X204341937Y-87959737D01*
X204398669Y-88058000D01*
X204415142Y-88125901D01*
X204398669Y-88182000D01*
X204341937Y-88280262D01*
X204341933Y-88280271D01*
X204295939Y-88421830D01*
X204287977Y-88446336D01*
X204269724Y-88620000D01*
X204287977Y-88793664D01*
X204287978Y-88793667D01*
X204341933Y-88959728D01*
X204341937Y-88959737D01*
X204429248Y-89110963D01*
X204509838Y-89200468D01*
X204546090Y-89240730D01*
X204546092Y-89240732D01*
X204687357Y-89343367D01*
X204687358Y-89343367D01*
X204687362Y-89343370D01*
X204747174Y-89370000D01*
X196156362Y-89370000D01*
X196089323Y-89350315D01*
X196068681Y-89333681D01*
X195218153Y-88483153D01*
X195184668Y-88421830D01*
X195189652Y-88352138D01*
X195231524Y-88296205D01*
X195296988Y-88271788D01*
X195305834Y-88271472D01*
X195427585Y-88271472D01*
X195598186Y-88231038D01*
X195754863Y-88152352D01*
X195834900Y-88087153D01*
X195834905Y-88087149D01*
X195940965Y-87981089D01*
X195269214Y-87309339D01*
X194915661Y-86955786D01*
X195622767Y-86955786D01*
X196294518Y-87627537D01*
X196400561Y-87521493D01*
X196400580Y-87521472D01*
X196465776Y-87441441D01*
X196465780Y-87441435D01*
X196544466Y-87284758D01*
X196584900Y-87114157D01*
X196584900Y-86938836D01*
X196544466Y-86768235D01*
X196465780Y-86611557D01*
X196400581Y-86531520D01*
X196400568Y-86531505D01*
X196223807Y-86354745D01*
X196223806Y-86354745D01*
X195622767Y-86955785D01*
X195622767Y-86955786D01*
X194915661Y-86955786D01*
X194243909Y-86284034D01*
X194137856Y-86390088D01*
X194072651Y-86470130D01*
X194072647Y-86470136D01*
X193993961Y-86626813D01*
X193953528Y-86797414D01*
X193953528Y-86919166D01*
X193933843Y-86986205D01*
X193881039Y-87031960D01*
X193811881Y-87041904D01*
X193748325Y-87012879D01*
X193741847Y-87006847D01*
X193407285Y-86672285D01*
X193373800Y-86610962D01*
X193378784Y-86541270D01*
X193409762Y-86495742D01*
X193409561Y-86495561D01*
X193410894Y-86494080D01*
X193412011Y-86492439D01*
X193413899Y-86490737D01*
X193413909Y-86490731D01*
X193530752Y-86360963D01*
X193618063Y-86209737D01*
X193672023Y-86043664D01*
X193683919Y-85930481D01*
X194597462Y-85930481D01*
X195269212Y-86602232D01*
X195269213Y-86602232D01*
X195870254Y-86001192D01*
X195693500Y-85824438D01*
X195693479Y-85824419D01*
X195613448Y-85759223D01*
X195613442Y-85759219D01*
X195456764Y-85680533D01*
X195286163Y-85640100D01*
X195110843Y-85640100D01*
X194940241Y-85680533D01*
X194783563Y-85759219D01*
X194703520Y-85824424D01*
X194703511Y-85824431D01*
X194597462Y-85930481D01*
X193683919Y-85930481D01*
X193690276Y-85870000D01*
X193672023Y-85696336D01*
X193618063Y-85530263D01*
X193530752Y-85379037D01*
X193413909Y-85249269D01*
X193413907Y-85249267D01*
X193272642Y-85146632D01*
X193272637Y-85146629D01*
X193113119Y-85075606D01*
X193113113Y-85075604D01*
X192953219Y-85041618D01*
X192891737Y-85008425D01*
X192857961Y-84947262D01*
X192855000Y-84920328D01*
X192855000Y-81743442D01*
X192858130Y-81719659D01*
X192858098Y-81719655D01*
X192868611Y-81639795D01*
X192878937Y-81561360D01*
X192878936Y-81561357D01*
X192879433Y-81557588D01*
X192907699Y-81493691D01*
X192966023Y-81455219D01*
X193011191Y-81450854D01*
X193011191Y-81450700D01*
X193012793Y-81450700D01*
X193015349Y-81450453D01*
X193017684Y-81450698D01*
X193017690Y-81450700D01*
X193017696Y-81450700D01*
X193182000Y-81450700D01*
X193249039Y-81470385D01*
X193294794Y-81523189D01*
X193306000Y-81574700D01*
X193306000Y-82059001D01*
X193306001Y-82059019D01*
X193316500Y-82161796D01*
X193316501Y-82161799D01*
X193371685Y-82328331D01*
X193371687Y-82328336D01*
X193396451Y-82368485D01*
X193463596Y-82477345D01*
X193463789Y-82477657D01*
X193588512Y-82602380D01*
X193621997Y-82663703D01*
X193617013Y-82733395D01*
X193608219Y-82752059D01*
X193591939Y-82780257D01*
X193591937Y-82780260D01*
X193537977Y-82946334D01*
X193519724Y-83120000D01*
X193537977Y-83293664D01*
X193537978Y-83293667D01*
X193591933Y-83459728D01*
X193591937Y-83459737D01*
X193679248Y-83610963D01*
X193777425Y-83720000D01*
X193796090Y-83740730D01*
X193796092Y-83740732D01*
X193937357Y-83843367D01*
X193937362Y-83843370D01*
X194096880Y-83914393D01*
X194096886Y-83914395D01*
X194267690Y-83950700D01*
X194267691Y-83950700D01*
X194442309Y-83950700D01*
X194442310Y-83950700D01*
X194613114Y-83914395D01*
X194613116Y-83914393D01*
X194613119Y-83914393D01*
X194724346Y-83864871D01*
X194772638Y-83843370D01*
X194913909Y-83740731D01*
X195030752Y-83610963D01*
X195118063Y-83459737D01*
X195172023Y-83293664D01*
X195190276Y-83120000D01*
X195172023Y-82946336D01*
X195118063Y-82780263D01*
X195117486Y-82778966D01*
X195117376Y-82778147D01*
X195116055Y-82774081D01*
X195116798Y-82773839D01*
X195108197Y-82709717D01*
X195137821Y-82646439D01*
X195165664Y-82622986D01*
X195200156Y-82601712D01*
X195324212Y-82477656D01*
X195326252Y-82474347D01*
X195328245Y-82472555D01*
X195328693Y-82471989D01*
X195328789Y-82472065D01*
X195378194Y-82427623D01*
X195447156Y-82416395D01*
X195511240Y-82444234D01*
X195537329Y-82474339D01*
X195539181Y-82477341D01*
X195539183Y-82477344D01*
X195663154Y-82601315D01*
X195812375Y-82693356D01*
X195812380Y-82693358D01*
X195978802Y-82748505D01*
X195978809Y-82748506D01*
X196081519Y-82758999D01*
X196218999Y-82758999D01*
X196219000Y-82758998D01*
X196219000Y-81408000D01*
X196238685Y-81340961D01*
X196291489Y-81295206D01*
X196343000Y-81284000D01*
X196595000Y-81284000D01*
X196662039Y-81303685D01*
X196707794Y-81356489D01*
X196719000Y-81408000D01*
X196719000Y-82758999D01*
X196856472Y-82758999D01*
X196856486Y-82758998D01*
X196959197Y-82748505D01*
X197125619Y-82693358D01*
X197125624Y-82693356D01*
X197274845Y-82601315D01*
X197398815Y-82477345D01*
X197465961Y-82368485D01*
X197517909Y-82321761D01*
X197586872Y-82310538D01*
X197650954Y-82338382D01*
X197689810Y-82396450D01*
X197695500Y-82433582D01*
X197695500Y-83845232D01*
X197689432Y-83883548D01*
X197683977Y-83900334D01*
X197682499Y-83914395D01*
X197665724Y-84074000D01*
X197683977Y-84247664D01*
X197683978Y-84247667D01*
X197737933Y-84413728D01*
X197737937Y-84413737D01*
X197825248Y-84564963D01*
X197895397Y-84642872D01*
X197942090Y-84694730D01*
X197942092Y-84694732D01*
X198083357Y-84797367D01*
X198083362Y-84797370D01*
X198242880Y-84868393D01*
X198242886Y-84868395D01*
X198413690Y-84904700D01*
X198413691Y-84904700D01*
X198588309Y-84904700D01*
X198588310Y-84904700D01*
X198759114Y-84868395D01*
X198759116Y-84868393D01*
X198759119Y-84868393D01*
X198812852Y-84844469D01*
X198918638Y-84797370D01*
X199059909Y-84694731D01*
X199176752Y-84564963D01*
X199264063Y-84413737D01*
X199318023Y-84247664D01*
X199336276Y-84074000D01*
X199318023Y-83900336D01*
X199312567Y-83883545D01*
X199306500Y-83845232D01*
X199306500Y-78677143D01*
X199326185Y-78610104D01*
X199342819Y-78589462D01*
X199365682Y-78566599D01*
X199457784Y-78417277D01*
X199512969Y-78250740D01*
X199523470Y-78147952D01*
X199523469Y-77347935D01*
X199512969Y-77245146D01*
X199457784Y-77078609D01*
X199365682Y-76929287D01*
X199272019Y-76835624D01*
X199238534Y-76774301D01*
X199243518Y-76704609D01*
X199272019Y-76660262D01*
X199312281Y-76620000D01*
X199365682Y-76566599D01*
X199457784Y-76417277D01*
X199512969Y-76250740D01*
X199523470Y-76147952D01*
X199523469Y-75347935D01*
X199512969Y-75245146D01*
X199457784Y-75078609D01*
X199365682Y-74929287D01*
X199241626Y-74805231D01*
X199186190Y-74771038D01*
X199139467Y-74719091D01*
X199128244Y-74650128D01*
X199156088Y-74586046D01*
X199214156Y-74547190D01*
X199251288Y-74541500D01*
X199509873Y-74541500D01*
X199576912Y-74561185D01*
X199622667Y-74613989D01*
X199627575Y-74626488D01*
X199640712Y-74666129D01*
X199654696Y-74708331D01*
X199654698Y-74708336D01*
X199661332Y-74719091D01*
X199746799Y-74857656D01*
X199870855Y-74981712D01*
X200020177Y-75073814D01*
X200186714Y-75128999D01*
X200289502Y-75139500D01*
X200353500Y-75139499D01*
X200420538Y-75159183D01*
X200466294Y-75211986D01*
X200477500Y-75263499D01*
X200477500Y-75772279D01*
X200457815Y-75839318D01*
X200405011Y-75885073D01*
X200396836Y-75888460D01*
X200362665Y-75901205D01*
X200247455Y-75987452D01*
X200247452Y-75987455D01*
X200161206Y-76102664D01*
X200161202Y-76102671D01*
X200110908Y-76237517D01*
X200104501Y-76297116D01*
X200104501Y-76297123D01*
X200104500Y-76297135D01*
X200104500Y-78642870D01*
X200104501Y-78642876D01*
X200110908Y-78702483D01*
X200161202Y-78837328D01*
X200161206Y-78837335D01*
X200247452Y-78952544D01*
X200247455Y-78952547D01*
X200362664Y-79038793D01*
X200362669Y-79038796D01*
X200396832Y-79051538D01*
X200452766Y-79093408D01*
X200477184Y-79158871D01*
X200477500Y-79167720D01*
X200477500Y-81772279D01*
X200457815Y-81839318D01*
X200405011Y-81885073D01*
X200396836Y-81888460D01*
X200362665Y-81901205D01*
X200247455Y-81987452D01*
X200247452Y-81987455D01*
X200161206Y-82102664D01*
X200161202Y-82102671D01*
X200110908Y-82237517D01*
X200106576Y-82277816D01*
X200104501Y-82297123D01*
X200104500Y-82297135D01*
X200104500Y-84642870D01*
X200104501Y-84642876D01*
X200110908Y-84702483D01*
X200161202Y-84837328D01*
X200161206Y-84837335D01*
X200247452Y-84952544D01*
X200247455Y-84952547D01*
X200362664Y-85038793D01*
X200362671Y-85038797D01*
X200497517Y-85089091D01*
X200497516Y-85089091D01*
X200504444Y-85089835D01*
X200557127Y-85095500D01*
X201652872Y-85095499D01*
X201712483Y-85089091D01*
X201847331Y-85038796D01*
X201962546Y-84952546D01*
X202048796Y-84837331D01*
X202099091Y-84702483D01*
X202105500Y-84642873D01*
X202105499Y-83720000D01*
X204105000Y-83720000D01*
X204105000Y-84642844D01*
X204111401Y-84702372D01*
X204111403Y-84702379D01*
X204161645Y-84837086D01*
X204161649Y-84837093D01*
X204247809Y-84952187D01*
X204247812Y-84952190D01*
X204362906Y-85038350D01*
X204362913Y-85038354D01*
X204497620Y-85088596D01*
X204497627Y-85088598D01*
X204557155Y-85094999D01*
X204557172Y-85095000D01*
X204855000Y-85095000D01*
X204855000Y-83720000D01*
X205355000Y-83720000D01*
X205355000Y-85095000D01*
X205652828Y-85095000D01*
X205652844Y-85094999D01*
X205712372Y-85088598D01*
X205712379Y-85088596D01*
X205847086Y-85038354D01*
X205847093Y-85038350D01*
X205962187Y-84952190D01*
X205962190Y-84952187D01*
X206048350Y-84837093D01*
X206048354Y-84837086D01*
X206098596Y-84702379D01*
X206098598Y-84702372D01*
X206104999Y-84642844D01*
X206105000Y-84642827D01*
X206105000Y-83720000D01*
X205355000Y-83720000D01*
X204855000Y-83720000D01*
X204105000Y-83720000D01*
X202105499Y-83720000D01*
X202105499Y-83220000D01*
X204105000Y-83220000D01*
X204855000Y-83220000D01*
X204855000Y-81845000D01*
X205355000Y-81845000D01*
X205355000Y-83220000D01*
X206105000Y-83220000D01*
X206105000Y-82297172D01*
X206104999Y-82297155D01*
X206098598Y-82237627D01*
X206098596Y-82237620D01*
X206048354Y-82102913D01*
X206048350Y-82102906D01*
X205962190Y-81987812D01*
X205962187Y-81987809D01*
X205847093Y-81901649D01*
X205847086Y-81901645D01*
X205712379Y-81851403D01*
X205712372Y-81851401D01*
X205652844Y-81845000D01*
X205355000Y-81845000D01*
X204855000Y-81845000D01*
X204557155Y-81845000D01*
X204497627Y-81851401D01*
X204497620Y-81851403D01*
X204362913Y-81901645D01*
X204362906Y-81901649D01*
X204247812Y-81987809D01*
X204247809Y-81987812D01*
X204161649Y-82102906D01*
X204161645Y-82102913D01*
X204111403Y-82237620D01*
X204111401Y-82237627D01*
X204105000Y-82297155D01*
X204105000Y-83220000D01*
X202105499Y-83220000D01*
X202105499Y-82297128D01*
X202099091Y-82237517D01*
X202070849Y-82161797D01*
X202048797Y-82102671D01*
X202048793Y-82102664D01*
X201962547Y-81987455D01*
X201962544Y-81987452D01*
X201847334Y-81901205D01*
X201813164Y-81888460D01*
X201757231Y-81846587D01*
X201732816Y-81781122D01*
X201732500Y-81772279D01*
X201732500Y-79167720D01*
X201752185Y-79100681D01*
X201804989Y-79054926D01*
X201813155Y-79051542D01*
X201847331Y-79038796D01*
X201962546Y-78952546D01*
X202048796Y-78837331D01*
X202099091Y-78702483D01*
X202105500Y-78642873D01*
X202105499Y-77720000D01*
X204105000Y-77720000D01*
X204105000Y-78642844D01*
X204111401Y-78702372D01*
X204111403Y-78702379D01*
X204161645Y-78837086D01*
X204161649Y-78837093D01*
X204247809Y-78952187D01*
X204247812Y-78952190D01*
X204362906Y-79038350D01*
X204362913Y-79038354D01*
X204497620Y-79088596D01*
X204497627Y-79088598D01*
X204557155Y-79094999D01*
X204557172Y-79095000D01*
X204855000Y-79095000D01*
X204855000Y-77720000D01*
X205355000Y-77720000D01*
X205355000Y-79095000D01*
X205652828Y-79095000D01*
X205652844Y-79094999D01*
X205712372Y-79088598D01*
X205712379Y-79088596D01*
X205847086Y-79038354D01*
X205847093Y-79038350D01*
X205962187Y-78952190D01*
X205962190Y-78952187D01*
X206048350Y-78837093D01*
X206048354Y-78837086D01*
X206098596Y-78702379D01*
X206098598Y-78702372D01*
X206104999Y-78642844D01*
X206105000Y-78642827D01*
X206105000Y-77720000D01*
X205355000Y-77720000D01*
X204855000Y-77720000D01*
X204105000Y-77720000D01*
X202105499Y-77720000D01*
X202105499Y-77220000D01*
X204105000Y-77220000D01*
X204855000Y-77220000D01*
X204855000Y-75845000D01*
X205355000Y-75845000D01*
X205355000Y-77220000D01*
X206105000Y-77220000D01*
X206105000Y-76297172D01*
X206104999Y-76297155D01*
X206098598Y-76237627D01*
X206098596Y-76237620D01*
X206048354Y-76102913D01*
X206048350Y-76102906D01*
X205962190Y-75987812D01*
X205962187Y-75987809D01*
X205847093Y-75901649D01*
X205847086Y-75901645D01*
X205712379Y-75851403D01*
X205712372Y-75851401D01*
X205652844Y-75845000D01*
X205355000Y-75845000D01*
X204855000Y-75845000D01*
X204557155Y-75845000D01*
X204497627Y-75851401D01*
X204497620Y-75851403D01*
X204362913Y-75901645D01*
X204362906Y-75901649D01*
X204247812Y-75987809D01*
X204247809Y-75987812D01*
X204161649Y-76102906D01*
X204161645Y-76102913D01*
X204111403Y-76237620D01*
X204111401Y-76237627D01*
X204105000Y-76297155D01*
X204105000Y-77220000D01*
X202105499Y-77220000D01*
X202105499Y-76297128D01*
X202099091Y-76237517D01*
X202065685Y-76147952D01*
X202048797Y-76102671D01*
X202048793Y-76102664D01*
X201962547Y-75987455D01*
X201962544Y-75987452D01*
X201847334Y-75901205D01*
X201813164Y-75888460D01*
X201757231Y-75846587D01*
X201732816Y-75781122D01*
X201732500Y-75772279D01*
X201732500Y-75067012D01*
X201752185Y-74999973D01*
X201804989Y-74954218D01*
X201874147Y-74944274D01*
X201937703Y-74973299D01*
X201944181Y-74979331D01*
X201946165Y-74981315D01*
X202095386Y-75073356D01*
X202095391Y-75073358D01*
X202261813Y-75128505D01*
X202261820Y-75128506D01*
X202364530Y-75138999D01*
X202502010Y-75138999D01*
X202502011Y-75138998D01*
X202502011Y-74164000D01*
X203002011Y-74164000D01*
X203002011Y-75138999D01*
X203139483Y-75138999D01*
X203139497Y-75138998D01*
X203242208Y-75128505D01*
X203408630Y-75073358D01*
X203408635Y-75073356D01*
X203557856Y-74981315D01*
X203681826Y-74857345D01*
X203773867Y-74708124D01*
X203773869Y-74708119D01*
X203829016Y-74541697D01*
X203829017Y-74541690D01*
X203839510Y-74438986D01*
X203839511Y-74438973D01*
X203839511Y-74164000D01*
X203002011Y-74164000D01*
X202502011Y-74164000D01*
X202502011Y-72689000D01*
X203002011Y-72689000D01*
X203002011Y-73664000D01*
X203839510Y-73664000D01*
X203839510Y-73389028D01*
X203839509Y-73389013D01*
X203829016Y-73286302D01*
X203773869Y-73119880D01*
X203773867Y-73119875D01*
X203681826Y-72970654D01*
X203557856Y-72846684D01*
X203408635Y-72754643D01*
X203408630Y-72754641D01*
X203242208Y-72699494D01*
X203242201Y-72699493D01*
X203139497Y-72689000D01*
X203002011Y-72689000D01*
X202502011Y-72689000D01*
X202364538Y-72689000D01*
X202364523Y-72689001D01*
X202261813Y-72699494D01*
X202095391Y-72754641D01*
X202095386Y-72754643D01*
X201946165Y-72846684D01*
X201822194Y-72970655D01*
X201822190Y-72970660D01*
X201820337Y-72973665D01*
X201818529Y-72975290D01*
X201817713Y-72976323D01*
X201817536Y-72976183D01*
X201768385Y-73020385D01*
X201699422Y-73031601D01*
X201635342Y-73003752D01*
X201609264Y-72973653D01*
X201609248Y-72973628D01*
X201607223Y-72970344D01*
X201483167Y-72846288D01*
X201333845Y-72754186D01*
X201167308Y-72699001D01*
X201167306Y-72699000D01*
X201064521Y-72688500D01*
X200289509Y-72688500D01*
X200289491Y-72688501D01*
X200186714Y-72699000D01*
X200186711Y-72699001D01*
X200020179Y-72754185D01*
X200020174Y-72754187D01*
X199870853Y-72846289D01*
X199746800Y-72970342D01*
X199654698Y-73119663D01*
X199654696Y-73119668D01*
X199627579Y-73201504D01*
X199587806Y-73258949D01*
X199523291Y-73285772D01*
X199509873Y-73286500D01*
X198164142Y-73286500D01*
X198144743Y-73284973D01*
X198124868Y-73281825D01*
X198124867Y-73281825D01*
X198081230Y-73285950D01*
X198069561Y-73286500D01*
X196794394Y-73286500D01*
X196727355Y-73266815D01*
X196681600Y-73214011D01*
X196671656Y-73144853D01*
X196700681Y-73081297D01*
X196703139Y-73078545D01*
X197318159Y-72410045D01*
X197378035Y-72374036D01*
X197409414Y-72370000D01*
X209481000Y-72370000D01*
X209548039Y-72389685D01*
G37*
%TD.AperFunction*%
%TA.AperFunction,Conductor*%
G36*
X215855000Y-89370000D02*
G01*
X205462826Y-89370000D01*
X205522638Y-89343370D01*
X205603472Y-89284641D01*
X205621997Y-89271182D01*
X205687803Y-89247702D01*
X205694882Y-89247500D01*
X210522033Y-89247500D01*
X210537681Y-89249227D01*
X210537708Y-89248946D01*
X210545475Y-89249680D01*
X210545476Y-89249679D01*
X210545477Y-89249680D01*
X210612919Y-89247561D01*
X210616813Y-89247500D01*
X210644472Y-89247500D01*
X210644476Y-89247500D01*
X210648474Y-89246994D01*
X210660114Y-89246077D01*
X210703943Y-89244701D01*
X210723272Y-89239084D01*
X210742328Y-89235137D01*
X210762293Y-89232616D01*
X210803055Y-89216476D01*
X210814092Y-89212698D01*
X210856191Y-89200468D01*
X210873515Y-89190221D01*
X210890983Y-89181663D01*
X210909703Y-89174253D01*
X210945177Y-89148478D01*
X210954915Y-89142081D01*
X210992656Y-89119763D01*
X211006897Y-89105520D01*
X211021678Y-89092897D01*
X211037967Y-89081063D01*
X211065904Y-89047290D01*
X211073756Y-89038661D01*
X212242811Y-87869606D01*
X212255094Y-87859768D01*
X212254913Y-87859550D01*
X212260925Y-87854575D01*
X212260924Y-87854575D01*
X212260930Y-87854572D01*
X212307158Y-87805344D01*
X212309807Y-87802611D01*
X212329391Y-87783028D01*
X212331862Y-87779840D01*
X212339452Y-87770952D01*
X212369461Y-87738999D01*
X212379157Y-87721360D01*
X212389841Y-87705093D01*
X212402176Y-87689194D01*
X212419585Y-87648960D01*
X212424723Y-87638475D01*
X212445837Y-87600072D01*
X212445837Y-87600070D01*
X212445840Y-87600066D01*
X212450846Y-87580566D01*
X212457150Y-87562156D01*
X212465138Y-87543697D01*
X212465141Y-87543691D01*
X212469335Y-87517209D01*
X212471998Y-87500398D01*
X212474364Y-87488969D01*
X212485268Y-87446504D01*
X212485268Y-87426367D01*
X212486795Y-87406967D01*
X212487521Y-87402382D01*
X212489942Y-87387099D01*
X212485818Y-87343470D01*
X212485268Y-87331801D01*
X212485268Y-81244000D01*
X212504953Y-81176961D01*
X212557757Y-81131206D01*
X212609268Y-81120000D01*
X215855000Y-81120000D01*
X215855000Y-89370000D01*
G37*
%TD.AperFunction*%
%TD*%
%TA.AperFunction,Conductor*%
%TO.N,GND*%
G36*
X167605000Y-75120000D02*
G01*
X167605000Y-82620000D01*
X171069000Y-82620000D01*
X171069000Y-85090000D01*
X171069000Y-90170000D01*
X171069000Y-94870000D01*
X157861000Y-94870000D01*
X157861000Y-91690000D01*
X158261001Y-91690000D01*
X158261001Y-92139986D01*
X158271494Y-92242697D01*
X158326641Y-92409119D01*
X158326643Y-92409124D01*
X158418684Y-92558345D01*
X158542654Y-92682315D01*
X158691875Y-92774356D01*
X158691880Y-92774358D01*
X158858302Y-92829505D01*
X158858309Y-92829506D01*
X158961019Y-92839999D01*
X159173499Y-92839999D01*
X159173500Y-92839998D01*
X159173500Y-91690000D01*
X159673500Y-91690000D01*
X159673500Y-92839999D01*
X159885972Y-92839999D01*
X159885986Y-92839998D01*
X159988697Y-92829505D01*
X160155119Y-92774358D01*
X160155124Y-92774356D01*
X160304345Y-92682315D01*
X160428315Y-92558345D01*
X160520356Y-92409124D01*
X160520358Y-92409119D01*
X160575505Y-92242697D01*
X160575506Y-92242690D01*
X160585999Y-92139986D01*
X160586000Y-92139973D01*
X160586000Y-91690000D01*
X159673500Y-91690000D01*
X159173500Y-91690000D01*
X158261001Y-91690000D01*
X157861000Y-91690000D01*
X157861000Y-91190000D01*
X158261000Y-91190000D01*
X159173500Y-91190000D01*
X159173500Y-90040000D01*
X159673500Y-90040000D01*
X159673500Y-91190000D01*
X160585999Y-91190000D01*
X160585999Y-90740028D01*
X160585998Y-90740013D01*
X160575505Y-90637302D01*
X160520358Y-90470880D01*
X160520356Y-90470875D01*
X160428315Y-90321654D01*
X160304345Y-90197684D01*
X160155124Y-90105643D01*
X160155119Y-90105641D01*
X159988697Y-90050494D01*
X159988690Y-90050493D01*
X159885986Y-90040000D01*
X159673500Y-90040000D01*
X159173500Y-90040000D01*
X158961029Y-90040000D01*
X158961012Y-90040001D01*
X158858302Y-90050494D01*
X158691880Y-90105641D01*
X158691875Y-90105643D01*
X158542654Y-90197684D01*
X158418684Y-90321654D01*
X158326643Y-90470875D01*
X158326641Y-90470880D01*
X158271494Y-90637302D01*
X158271493Y-90637309D01*
X158261000Y-90740013D01*
X158261000Y-91190000D01*
X157861000Y-91190000D01*
X157861000Y-88870843D01*
X157880685Y-88803804D01*
X157885710Y-88796565D01*
X157933796Y-88732331D01*
X157984091Y-88597483D01*
X157990500Y-88537873D01*
X157990500Y-88537870D01*
X158239500Y-88537870D01*
X158239501Y-88537876D01*
X158245908Y-88597483D01*
X158296202Y-88732327D01*
X158296203Y-88732328D01*
X158296204Y-88732331D01*
X158344267Y-88796535D01*
X158368684Y-88861995D01*
X158369000Y-88870843D01*
X158369000Y-89154000D01*
X168529000Y-89154000D01*
X168529000Y-85344000D01*
X168504000Y-85344000D01*
X168436961Y-85324315D01*
X168391206Y-85271511D01*
X168380000Y-85220000D01*
X168380000Y-85060000D01*
X165630001Y-85060000D01*
X165630001Y-85220000D01*
X165610316Y-85287039D01*
X165557512Y-85332794D01*
X165506001Y-85344000D01*
X165351000Y-85344000D01*
X165283961Y-85324315D01*
X165238206Y-85271511D01*
X165227000Y-85220000D01*
X165227000Y-84560000D01*
X165630000Y-84560000D01*
X166755000Y-84560000D01*
X166755000Y-83660000D01*
X167255000Y-83660000D01*
X167255000Y-84560000D01*
X168379999Y-84560000D01*
X168379999Y-84360028D01*
X168379998Y-84360013D01*
X168369505Y-84257302D01*
X168314358Y-84090880D01*
X168314356Y-84090875D01*
X168222315Y-83941654D01*
X168098345Y-83817684D01*
X167949124Y-83725643D01*
X167949119Y-83725641D01*
X167782697Y-83670494D01*
X167782690Y-83670493D01*
X167679986Y-83660000D01*
X167255000Y-83660000D01*
X166755000Y-83660000D01*
X166330028Y-83660000D01*
X166330012Y-83660001D01*
X166227302Y-83670494D01*
X166060880Y-83725641D01*
X166060875Y-83725643D01*
X165911654Y-83817684D01*
X165787684Y-83941654D01*
X165695643Y-84090875D01*
X165695641Y-84090880D01*
X165640494Y-84257302D01*
X165640493Y-84257309D01*
X165630000Y-84360013D01*
X165630000Y-84560000D01*
X165227000Y-84560000D01*
X165227000Y-82296000D01*
X163910620Y-82296000D01*
X163843581Y-82276315D01*
X163818470Y-82254972D01*
X163780436Y-82212731D01*
X163753909Y-82183269D01*
X163753907Y-82183267D01*
X163612642Y-82080632D01*
X163612637Y-82080629D01*
X163453119Y-82009606D01*
X163453113Y-82009604D01*
X163318614Y-81981016D01*
X163282310Y-81973300D01*
X163107690Y-81973300D01*
X163077749Y-81979663D01*
X162936886Y-82009604D01*
X162936880Y-82009606D01*
X162777362Y-82080629D01*
X162777357Y-82080632D01*
X162636092Y-82183267D01*
X162636090Y-82183269D01*
X162571530Y-82254972D01*
X162512044Y-82291621D01*
X162479380Y-82296000D01*
X158369000Y-82296000D01*
X158369000Y-83674638D01*
X158365000Y-83688260D01*
X158365000Y-83854497D01*
X158345315Y-83921536D01*
X158340267Y-83928808D01*
X158296204Y-83987668D01*
X158296202Y-83987671D01*
X158245908Y-84122517D01*
X158239501Y-84182116D01*
X158239501Y-84182123D01*
X158239500Y-84182135D01*
X158239500Y-85837870D01*
X158239501Y-85837876D01*
X158245908Y-85897483D01*
X158296202Y-86032328D01*
X158296204Y-86032331D01*
X158340266Y-86091191D01*
X158364684Y-86156653D01*
X158365000Y-86165501D01*
X158365000Y-86316868D01*
X158366166Y-86319004D01*
X158369000Y-86345362D01*
X158369000Y-86549154D01*
X158349315Y-86616193D01*
X158344267Y-86623465D01*
X158296204Y-86687668D01*
X158296202Y-86687671D01*
X158245908Y-86822517D01*
X158239501Y-86882116D01*
X158239501Y-86882123D01*
X158239500Y-86882135D01*
X158239500Y-88537870D01*
X157990500Y-88537870D01*
X157990499Y-86882128D01*
X157984091Y-86822517D01*
X157960587Y-86759500D01*
X157933797Y-86687671D01*
X157933795Y-86687668D01*
X157885733Y-86623465D01*
X157861316Y-86558001D01*
X157861000Y-86549154D01*
X157861000Y-86345362D01*
X157865000Y-86331739D01*
X157865000Y-86165501D01*
X157884685Y-86098462D01*
X157889722Y-86091205D01*
X157933796Y-86032331D01*
X157984091Y-85897483D01*
X157990500Y-85837873D01*
X157990499Y-84182128D01*
X157984091Y-84122517D01*
X157972291Y-84090880D01*
X157933797Y-83987671D01*
X157933795Y-83987668D01*
X157889733Y-83928808D01*
X157865316Y-83863343D01*
X157865000Y-83854497D01*
X157865000Y-83703131D01*
X157863834Y-83700996D01*
X157861000Y-83674638D01*
X157861000Y-81553034D01*
X157880685Y-81485995D01*
X157933489Y-81440240D01*
X158002647Y-81430296D01*
X158024004Y-81435328D01*
X158154302Y-81478505D01*
X158154309Y-81478506D01*
X158257019Y-81488999D01*
X158394499Y-81488999D01*
X158394500Y-81488998D01*
X158394500Y-80514000D01*
X158894500Y-80514000D01*
X158894500Y-81488999D01*
X159031972Y-81488999D01*
X159031986Y-81488998D01*
X159134697Y-81478505D01*
X159301119Y-81423358D01*
X159301124Y-81423356D01*
X159450345Y-81331315D01*
X159574315Y-81207345D01*
X159666356Y-81058124D01*
X159666358Y-81058119D01*
X159721505Y-80891697D01*
X159721506Y-80891690D01*
X159731999Y-80788986D01*
X159732000Y-80788973D01*
X159732000Y-80514000D01*
X158894500Y-80514000D01*
X158394500Y-80514000D01*
X158394500Y-79039000D01*
X158894500Y-79039000D01*
X158894500Y-80014000D01*
X159731999Y-80014000D01*
X159731999Y-79739028D01*
X159731998Y-79739013D01*
X159721505Y-79636302D01*
X159666358Y-79469880D01*
X159666356Y-79469875D01*
X159574315Y-79320654D01*
X159450345Y-79196684D01*
X159301124Y-79104643D01*
X159301119Y-79104641D01*
X159134697Y-79049494D01*
X159134690Y-79049493D01*
X159031986Y-79039000D01*
X158894500Y-79039000D01*
X158394500Y-79039000D01*
X158257027Y-79039000D01*
X158257012Y-79039001D01*
X158154302Y-79049494D01*
X158024004Y-79092671D01*
X157954176Y-79095073D01*
X157894134Y-79059341D01*
X157862941Y-78996821D01*
X157861000Y-78974965D01*
X157861000Y-72514000D01*
X157880685Y-72446961D01*
X157933489Y-72401206D01*
X157985000Y-72390000D01*
X171039515Y-72390000D01*
X171039516Y-72390000D01*
X167605000Y-75120000D01*
G37*
%TD.AperFunction*%
%TD*%
%TA.AperFunction,Conductor*%
%TO.N,GNDA*%
G36*
X176854039Y-49263685D02*
G01*
X176899794Y-49316489D01*
X176911000Y-49368000D01*
X176911000Y-53470000D01*
X176891315Y-53537039D01*
X176838511Y-53582794D01*
X176787000Y-53594000D01*
X173072125Y-53594000D01*
X173005086Y-53574315D01*
X172984444Y-53557681D01*
X172881366Y-53454603D01*
X172801930Y-53389893D01*
X172646455Y-53311811D01*
X172477164Y-53271688D01*
X172303183Y-53271688D01*
X172301824Y-53272009D01*
X172300861Y-53271958D01*
X172296010Y-53272526D01*
X172295913Y-53271696D01*
X172232053Y-53268313D01*
X172175356Y-53227482D01*
X172149733Y-53162480D01*
X172152132Y-53128950D01*
X172151974Y-53128932D01*
X172152387Y-53125394D01*
X172152577Y-53122747D01*
X172152812Y-53121755D01*
X172152812Y-52947892D01*
X172112716Y-52778717D01*
X172034688Y-52623351D01*
X172034684Y-52623345D01*
X171970026Y-52543972D01*
X171970012Y-52543956D01*
X171939391Y-52513335D01*
X171939390Y-52513335D01*
X170914087Y-53538640D01*
X170242335Y-54210390D01*
X170242335Y-54210391D01*
X170272956Y-54241012D01*
X170272972Y-54241026D01*
X170352345Y-54305684D01*
X170352351Y-54305688D01*
X170507714Y-54383714D01*
X170635913Y-54414098D01*
X170696606Y-54448712D01*
X170728950Y-54510645D01*
X170722677Y-54580232D01*
X170701465Y-54615454D01*
X168528999Y-57150000D01*
X173864164Y-61984993D01*
X173900621Y-62044597D01*
X173899066Y-62114449D01*
X173859993Y-62172372D01*
X173795807Y-62199975D01*
X173780896Y-62200875D01*
X173779713Y-62200875D01*
X173609108Y-62241309D01*
X173452432Y-62319994D01*
X173372394Y-62385195D01*
X173372386Y-62385202D01*
X173275171Y-62482417D01*
X173964600Y-63171847D01*
X175007580Y-64214828D01*
X175007581Y-64214828D01*
X175104790Y-64117619D01*
X175104799Y-64117609D01*
X175170000Y-64037572D01*
X175170009Y-64037559D01*
X175248690Y-63880891D01*
X175289125Y-63710287D01*
X175289125Y-63556082D01*
X175308810Y-63489043D01*
X175361614Y-63443288D01*
X175430772Y-63433344D01*
X175494328Y-63462369D01*
X175496393Y-63464200D01*
X176551700Y-64420572D01*
X176588157Y-64480176D01*
X176586602Y-64550028D01*
X176548188Y-64607401D01*
X170460977Y-69720657D01*
X170396983Y-69748704D01*
X170327986Y-69737701D01*
X170293540Y-69713391D01*
X168461196Y-67881047D01*
X168458414Y-67878175D01*
X166497000Y-65786000D01*
X166496999Y-65786000D01*
X158239000Y-65786000D01*
X158171961Y-65766315D01*
X158126206Y-65713511D01*
X158115000Y-65662000D01*
X158115000Y-64471154D01*
X173372399Y-64471154D01*
X173566830Y-64665585D01*
X173566851Y-64665604D01*
X173646882Y-64730800D01*
X173646895Y-64730809D01*
X173803562Y-64809490D01*
X173974167Y-64849925D01*
X174149487Y-64849925D01*
X174320091Y-64809490D01*
X174476767Y-64730805D01*
X174556811Y-64665599D01*
X174556817Y-64665594D01*
X174654028Y-64568381D01*
X174654028Y-64568380D01*
X173964601Y-63878953D01*
X173964600Y-63878953D01*
X173372399Y-64471154D01*
X158115000Y-64471154D01*
X158115000Y-63515833D01*
X172640075Y-63515833D01*
X172680509Y-63686437D01*
X172759190Y-63843104D01*
X172759195Y-63843111D01*
X172824397Y-63923153D01*
X172824411Y-63923168D01*
X173018844Y-64117601D01*
X173611047Y-63525400D01*
X172921618Y-62835971D01*
X172824405Y-62933185D01*
X172824395Y-62933196D01*
X172759199Y-63013227D01*
X172759190Y-63013240D01*
X172680509Y-63169908D01*
X172640075Y-63340512D01*
X172640075Y-63515833D01*
X158115000Y-63515833D01*
X158115000Y-56562511D01*
X158134685Y-56495472D01*
X158151319Y-56474830D01*
X160233830Y-54392319D01*
X160295153Y-54358834D01*
X160321511Y-54356000D01*
X169632362Y-54356000D01*
X169799000Y-54356000D01*
X169799000Y-53946619D01*
X169804482Y-53933386D01*
X169848322Y-53878982D01*
X169875775Y-53869844D01*
X170914087Y-52831534D01*
X171585838Y-52159782D01*
X171555207Y-52129151D01*
X171555201Y-52129147D01*
X171475828Y-52064489D01*
X171475822Y-52064485D01*
X171320456Y-51986457D01*
X171151281Y-51946362D01*
X170977418Y-51946362D01*
X170808233Y-51986459D01*
X170652873Y-52064485D01*
X170652866Y-52064489D01*
X170573487Y-52129151D01*
X170573472Y-52129165D01*
X170010681Y-52691957D01*
X169949358Y-52725442D01*
X169879666Y-52720458D01*
X169823733Y-52678586D01*
X169799316Y-52613122D01*
X169799000Y-52604276D01*
X169799000Y-49368000D01*
X169818685Y-49300961D01*
X169871489Y-49255206D01*
X169923000Y-49244000D01*
X176787000Y-49244000D01*
X176854039Y-49263685D01*
G37*
%TD.AperFunction*%
%TD*%
%TA.AperFunction,Conductor*%
%TO.N,GND*%
G36*
X196912039Y-56153685D02*
G01*
X196957794Y-56206489D01*
X196969000Y-56258000D01*
X196969000Y-58759758D01*
X196949315Y-58826797D01*
X196896511Y-58872552D01*
X196827353Y-58882496D01*
X196763797Y-58853471D01*
X196757319Y-58847439D01*
X196745345Y-58835465D01*
X196596124Y-58743424D01*
X196596119Y-58743422D01*
X196429697Y-58688275D01*
X196429690Y-58688274D01*
X196326986Y-58677781D01*
X196202000Y-58677781D01*
X196202000Y-61077780D01*
X196326972Y-61077780D01*
X196326986Y-61077779D01*
X196429697Y-61067286D01*
X196596119Y-61012139D01*
X196596124Y-61012137D01*
X196745345Y-60920096D01*
X196757319Y-60908123D01*
X196818642Y-60874638D01*
X196888334Y-60879622D01*
X196944267Y-60921494D01*
X196968684Y-60986958D01*
X196969000Y-60995804D01*
X196969000Y-64138000D01*
X196949315Y-64205039D01*
X196896511Y-64250794D01*
X196845000Y-64262000D01*
X192355000Y-64262000D01*
X192355000Y-63120000D01*
X191389000Y-63120000D01*
X191389000Y-60127781D01*
X194877001Y-60127781D01*
X194877001Y-60377767D01*
X194887494Y-60480478D01*
X194942641Y-60646900D01*
X194942643Y-60646905D01*
X195034684Y-60796126D01*
X195158654Y-60920096D01*
X195307875Y-61012137D01*
X195307880Y-61012139D01*
X195474302Y-61067286D01*
X195474309Y-61067287D01*
X195577019Y-61077780D01*
X195701999Y-61077780D01*
X195702000Y-61077779D01*
X195702000Y-60127781D01*
X194877001Y-60127781D01*
X191389000Y-60127781D01*
X191389000Y-59627781D01*
X194877000Y-59627781D01*
X195702000Y-59627781D01*
X195702000Y-58677781D01*
X195577027Y-58677781D01*
X195577012Y-58677782D01*
X195474302Y-58688275D01*
X195307880Y-58743422D01*
X195307875Y-58743424D01*
X195158654Y-58835465D01*
X195034684Y-58959435D01*
X194942643Y-59108656D01*
X194942641Y-59108661D01*
X194887494Y-59275083D01*
X194887493Y-59275090D01*
X194877000Y-59377794D01*
X194877000Y-59627781D01*
X191389000Y-59627781D01*
X191389000Y-56258000D01*
X191408685Y-56190961D01*
X191461489Y-56145206D01*
X191513000Y-56134000D01*
X196845000Y-56134000D01*
X196912039Y-56153685D01*
G37*
%TD.AperFunction*%
%TD*%
%TA.AperFunction,Conductor*%
%TO.N,+5V*%
G36*
X157415000Y-88592065D02*
G01*
X157403795Y-88643576D01*
X157395662Y-88661383D01*
X157375976Y-88728425D01*
X157362325Y-88823371D01*
X157357800Y-88854850D01*
X157355500Y-88870844D01*
X157355500Y-90084162D01*
X157335815Y-90151201D01*
X157283011Y-90196956D01*
X157213853Y-90206900D01*
X157166403Y-90189701D01*
X157030124Y-90105643D01*
X157030119Y-90105641D01*
X156863697Y-90050494D01*
X156863690Y-90050493D01*
X156760986Y-90040000D01*
X156548500Y-90040000D01*
X156548500Y-91566000D01*
X156528815Y-91633039D01*
X156476011Y-91678794D01*
X156424500Y-91690000D01*
X155136001Y-91690000D01*
X155136001Y-92139986D01*
X155146494Y-92242697D01*
X155201641Y-92409119D01*
X155201646Y-92409130D01*
X155270589Y-92520903D01*
X155289030Y-92588295D01*
X155268108Y-92654959D01*
X155214466Y-92699729D01*
X155165051Y-92710000D01*
X151889000Y-92710000D01*
X151821961Y-92690315D01*
X151776206Y-92637511D01*
X151765000Y-92586000D01*
X151765000Y-91190000D01*
X155136000Y-91190000D01*
X156048500Y-91190000D01*
X156048500Y-90040000D01*
X155836029Y-90040000D01*
X155836012Y-90040001D01*
X155733302Y-90050494D01*
X155566880Y-90105641D01*
X155566875Y-90105643D01*
X155417654Y-90197684D01*
X155293684Y-90321654D01*
X155201643Y-90470875D01*
X155201641Y-90470880D01*
X155146494Y-90637302D01*
X155146493Y-90637309D01*
X155136000Y-90740013D01*
X155136000Y-91190000D01*
X151765000Y-91190000D01*
X151765000Y-89024000D01*
X151784685Y-88956961D01*
X151837489Y-88911206D01*
X151889000Y-88900000D01*
X156336999Y-88900000D01*
X156337000Y-88900000D01*
X156337000Y-88899999D01*
X156353647Y-88883352D01*
X156414970Y-88849866D01*
X156484661Y-88854850D01*
X156515640Y-88871765D01*
X156597911Y-88933352D01*
X156597913Y-88933354D01*
X156732620Y-88983596D01*
X156732627Y-88983598D01*
X156792155Y-88989999D01*
X156792172Y-88990000D01*
X156915000Y-88990000D01*
X156915000Y-87630000D01*
X157415000Y-87630000D01*
X157415000Y-88592065D01*
G37*
%TD.AperFunction*%
%TD*%
%TA.AperFunction,Conductor*%
%TO.N,GND*%
G36*
X184524334Y-106912329D02*
G01*
X184580267Y-106954201D01*
X184604684Y-107019665D01*
X184605000Y-107028511D01*
X184605000Y-112776000D01*
X184592529Y-112788470D01*
X184585315Y-112813039D01*
X184532511Y-112858794D01*
X184481000Y-112870000D01*
X178639836Y-112870000D01*
X178572797Y-112850315D01*
X178527042Y-112797511D01*
X178517098Y-112728353D01*
X178546123Y-112664797D01*
X178593043Y-112632923D01*
X178592592Y-112631986D01*
X178598869Y-112628963D01*
X178633610Y-112612231D01*
X178646435Y-112606919D01*
X178682851Y-112594177D01*
X178715506Y-112573657D01*
X178727657Y-112566941D01*
X178762410Y-112550206D01*
X178792564Y-112526158D01*
X178803879Y-112518128D01*
X178836545Y-112497604D01*
X178964896Y-112369253D01*
X184393319Y-106940830D01*
X184454642Y-106907345D01*
X184524334Y-106912329D01*
G37*
%TD.AperFunction*%
%TA.AperFunction,Conductor*%
G36*
X173521384Y-94889685D02*
G01*
X173567139Y-94942489D01*
X173577083Y-95011647D01*
X173548058Y-95075203D01*
X173542026Y-95081681D01*
X171751526Y-96872181D01*
X171690203Y-96905666D01*
X171663845Y-96908500D01*
X161245967Y-96908500D01*
X161230318Y-96906772D01*
X161230292Y-96907054D01*
X161222524Y-96906319D01*
X161155082Y-96908439D01*
X161151188Y-96908500D01*
X161123523Y-96908500D01*
X161119514Y-96909006D01*
X161107884Y-96909921D01*
X161064060Y-96911298D01*
X161064054Y-96911299D01*
X161044719Y-96916916D01*
X161025680Y-96920859D01*
X161005715Y-96923382D01*
X161005701Y-96923385D01*
X160964950Y-96939519D01*
X160953906Y-96943300D01*
X160911809Y-96955531D01*
X160911806Y-96955533D01*
X160894480Y-96965779D01*
X160877010Y-96974337D01*
X160858298Y-96981745D01*
X160822826Y-97007516D01*
X160813066Y-97013927D01*
X160775346Y-97036234D01*
X160761106Y-97050474D01*
X160746320Y-97063102D01*
X160730033Y-97074936D01*
X160702090Y-97108712D01*
X160694229Y-97117350D01*
X159362510Y-98449070D01*
X159301187Y-98482555D01*
X159300610Y-98482679D01*
X159126886Y-98519604D01*
X159126880Y-98519606D01*
X158967362Y-98590629D01*
X158967357Y-98590632D01*
X158826092Y-98693267D01*
X158826090Y-98693269D01*
X158709247Y-98823038D01*
X158621937Y-98974262D01*
X158621933Y-98974271D01*
X158569002Y-99137181D01*
X158567977Y-99140336D01*
X158549724Y-99314000D01*
X158567977Y-99487664D01*
X158567978Y-99487667D01*
X158621933Y-99653728D01*
X158621937Y-99653737D01*
X158709248Y-99804963D01*
X158826091Y-99934731D01*
X158883850Y-99976695D01*
X158969985Y-100039276D01*
X159012651Y-100094606D01*
X159020421Y-100126632D01*
X159037977Y-100293664D01*
X159037978Y-100293667D01*
X159091933Y-100459728D01*
X159091937Y-100459737D01*
X159179248Y-100610963D01*
X159261004Y-100701763D01*
X159296090Y-100740730D01*
X159296092Y-100740732D01*
X159437357Y-100843367D01*
X159437362Y-100843370D01*
X159596880Y-100914393D01*
X159596886Y-100914395D01*
X159767690Y-100950700D01*
X159767691Y-100950700D01*
X159942309Y-100950700D01*
X159942310Y-100950700D01*
X160113114Y-100914395D01*
X160113116Y-100914393D01*
X160113119Y-100914393D01*
X160188347Y-100880899D01*
X160272638Y-100843370D01*
X160413909Y-100740731D01*
X160530752Y-100610963D01*
X160618063Y-100459737D01*
X160672023Y-100293664D01*
X160679561Y-100221935D01*
X160706144Y-100157322D01*
X160715192Y-100147225D01*
X161900600Y-98961819D01*
X161961923Y-98928334D01*
X161988281Y-98925500D01*
X170813059Y-98925500D01*
X170880098Y-98945185D01*
X170925853Y-98997989D01*
X170935797Y-99067147D01*
X170906772Y-99130703D01*
X170900740Y-99137181D01*
X164823667Y-105214252D01*
X164762344Y-105247737D01*
X164710206Y-105247861D01*
X164552310Y-105214300D01*
X164377690Y-105214300D01*
X164220379Y-105247737D01*
X164201306Y-105251791D01*
X164175527Y-105254500D01*
X163939897Y-105254500D01*
X163824747Y-105269659D01*
X163824736Y-105269662D01*
X163681463Y-105329007D01*
X163681457Y-105329010D01*
X163558421Y-105423420D01*
X163558420Y-105423421D01*
X163464010Y-105546457D01*
X163464007Y-105546463D01*
X163404662Y-105689736D01*
X163404661Y-105689740D01*
X163389500Y-105804891D01*
X163389500Y-106295102D01*
X163404659Y-106410252D01*
X163404660Y-106410258D01*
X163404661Y-106410260D01*
X163406963Y-106415817D01*
X163432803Y-106478202D01*
X163440271Y-106547671D01*
X163432803Y-106573103D01*
X163405148Y-106639871D01*
X163390648Y-106750000D01*
X163612012Y-106750000D01*
X163673728Y-106768122D01*
X163674419Y-106766926D01*
X163681457Y-106770988D01*
X163681459Y-106770990D01*
X163824740Y-106830339D01*
X163939899Y-106845500D01*
X164222574Y-106845499D01*
X164248355Y-106848209D01*
X164377690Y-106875700D01*
X164552308Y-106875700D01*
X164552310Y-106875700D01*
X164681645Y-106848208D01*
X164707426Y-106845499D01*
X165050102Y-106845499D01*
X165165252Y-106830340D01*
X165165251Y-106830340D01*
X165165260Y-106830339D01*
X165308541Y-106770990D01*
X165308545Y-106770986D01*
X165315581Y-106766926D01*
X165317302Y-106769907D01*
X165367640Y-106750433D01*
X165377988Y-106750000D01*
X165599349Y-106750000D01*
X165599349Y-106749999D01*
X165584851Y-106639869D01*
X165557197Y-106573104D01*
X165549728Y-106503634D01*
X165557196Y-106478202D01*
X165585339Y-106410260D01*
X165600500Y-106295101D01*
X165600499Y-106263620D01*
X165620182Y-106196583D01*
X165636813Y-106175944D01*
X165687821Y-106124936D01*
X165749142Y-106091453D01*
X165818834Y-106096437D01*
X165874767Y-106138309D01*
X165899184Y-106203773D01*
X165899500Y-106212618D01*
X165899500Y-106295101D01*
X165914659Y-106410252D01*
X165914662Y-106410263D01*
X165974007Y-106553536D01*
X165974010Y-106553542D01*
X166068420Y-106676578D01*
X166068421Y-106676579D01*
X166191457Y-106770989D01*
X166191463Y-106770992D01*
X166263099Y-106800664D01*
X166334740Y-106830339D01*
X166449899Y-106845500D01*
X166762574Y-106845499D01*
X166788355Y-106848209D01*
X166917690Y-106875700D01*
X167092308Y-106875700D01*
X167092310Y-106875700D01*
X167221645Y-106848208D01*
X167247426Y-106845499D01*
X167560102Y-106845499D01*
X167675252Y-106830340D01*
X167675251Y-106830340D01*
X167675260Y-106830339D01*
X167818541Y-106770990D01*
X167941579Y-106676579D01*
X168035990Y-106553541D01*
X168095339Y-106410260D01*
X168110500Y-106295101D01*
X168110499Y-105878279D01*
X168130183Y-105811241D01*
X168146813Y-105790604D01*
X173105043Y-100832374D01*
X173117325Y-100822537D01*
X173117144Y-100822318D01*
X173123157Y-100817342D01*
X173123162Y-100817340D01*
X173169383Y-100768117D01*
X173172032Y-100765385D01*
X173191624Y-100745795D01*
X173194101Y-100742600D01*
X173201679Y-100733727D01*
X173231693Y-100701767D01*
X173241388Y-100684130D01*
X173252072Y-100667863D01*
X173264408Y-100651962D01*
X173281811Y-100611742D01*
X173286951Y-100601251D01*
X173308071Y-100562835D01*
X173308072Y-100562834D01*
X173313078Y-100543334D01*
X173319376Y-100524936D01*
X173327374Y-100506458D01*
X173334232Y-100463151D01*
X173336596Y-100451736D01*
X173347500Y-100409272D01*
X173347500Y-100389141D01*
X173349027Y-100369741D01*
X173352175Y-100349867D01*
X173348050Y-100306230D01*
X173347500Y-100294561D01*
X173347500Y-99223728D01*
X173367185Y-99156689D01*
X173383819Y-99136047D01*
X173893319Y-98626547D01*
X173954642Y-98593062D01*
X174024334Y-98598046D01*
X174080267Y-98639918D01*
X174104684Y-98705382D01*
X174105000Y-98714228D01*
X174105000Y-104120000D01*
X184481000Y-104120000D01*
X184548039Y-104139685D01*
X184593794Y-104192489D01*
X184605000Y-104244000D01*
X184605000Y-104526213D01*
X184585315Y-104593252D01*
X184532511Y-104639007D01*
X184521953Y-104643255D01*
X184517280Y-104644889D01*
X184482532Y-104661622D01*
X184469694Y-104666939D01*
X184433295Y-104679676D01*
X184400645Y-104700192D01*
X184388476Y-104706917D01*
X184353740Y-104723644D01*
X184353731Y-104723649D01*
X184323580Y-104747694D01*
X184312244Y-104755738D01*
X184279601Y-104776249D01*
X178033816Y-111022035D01*
X177972493Y-111055520D01*
X177946135Y-111058354D01*
X161571670Y-111058354D01*
X161504631Y-111038669D01*
X161483989Y-111022035D01*
X158661954Y-108200000D01*
X163390650Y-108200000D01*
X163405148Y-108310126D01*
X163405149Y-108310131D01*
X163464444Y-108453286D01*
X163558777Y-108576222D01*
X163681713Y-108670555D01*
X163824867Y-108729850D01*
X163824871Y-108729851D01*
X163939928Y-108744999D01*
X164244999Y-108744999D01*
X164245000Y-108744998D01*
X164245000Y-108200000D01*
X164745000Y-108200000D01*
X164745000Y-108744999D01*
X165050071Y-108744999D01*
X165165126Y-108729852D01*
X165165131Y-108729850D01*
X165308286Y-108670555D01*
X165431222Y-108576222D01*
X165525555Y-108453286D01*
X165584850Y-108310132D01*
X165584851Y-108310128D01*
X165599351Y-108200000D01*
X165900650Y-108200000D01*
X165915148Y-108310126D01*
X165915149Y-108310131D01*
X165974444Y-108453286D01*
X166068777Y-108576222D01*
X166191713Y-108670555D01*
X166334867Y-108729850D01*
X166334871Y-108729851D01*
X166449928Y-108744999D01*
X166754999Y-108744999D01*
X166755000Y-108744998D01*
X166755000Y-108200000D01*
X167255000Y-108200000D01*
X167255000Y-108744999D01*
X167560071Y-108744999D01*
X167675126Y-108729852D01*
X167675131Y-108729850D01*
X167818286Y-108670555D01*
X167941222Y-108576222D01*
X168035555Y-108453286D01*
X168094850Y-108310132D01*
X168094851Y-108310128D01*
X168109351Y-108200000D01*
X167255000Y-108200000D01*
X166755000Y-108200000D01*
X165900650Y-108200000D01*
X165599351Y-108200000D01*
X164745000Y-108200000D01*
X164245000Y-108200000D01*
X163390650Y-108200000D01*
X158661954Y-108200000D01*
X158161954Y-107700000D01*
X163390648Y-107700000D01*
X164245000Y-107700000D01*
X164245000Y-107250000D01*
X164745000Y-107250000D01*
X164745000Y-107700000D01*
X165599349Y-107700000D01*
X165900648Y-107700000D01*
X166755000Y-107700000D01*
X166755000Y-107155000D01*
X167255000Y-107155000D01*
X167255000Y-107700000D01*
X168109349Y-107700000D01*
X168109349Y-107699999D01*
X168094851Y-107589873D01*
X168094850Y-107589868D01*
X168035555Y-107446713D01*
X167941222Y-107323777D01*
X167818286Y-107229444D01*
X167675132Y-107170149D01*
X167675128Y-107170148D01*
X167560078Y-107155000D01*
X167255000Y-107155000D01*
X166755000Y-107155000D01*
X166449929Y-107155000D01*
X166334873Y-107170147D01*
X166334868Y-107170149D01*
X166191713Y-107229444D01*
X166068777Y-107323777D01*
X165974444Y-107446713D01*
X165915149Y-107589867D01*
X165915148Y-107589871D01*
X165900648Y-107700000D01*
X165599349Y-107700000D01*
X165599349Y-107699999D01*
X165584851Y-107589871D01*
X165556926Y-107522453D01*
X165549457Y-107452984D01*
X165556926Y-107427547D01*
X165584851Y-107360129D01*
X165584851Y-107360128D01*
X165599351Y-107250000D01*
X164745000Y-107250000D01*
X164245000Y-107250000D01*
X163390650Y-107250000D01*
X163405148Y-107360129D01*
X163405149Y-107360135D01*
X163433073Y-107427548D01*
X163440542Y-107497017D01*
X163433074Y-107522451D01*
X163405147Y-107589872D01*
X163390648Y-107700000D01*
X158161954Y-107700000D01*
X156391319Y-105929365D01*
X156357834Y-105868042D01*
X156355000Y-105841684D01*
X156355000Y-104033459D01*
X156374685Y-103966420D01*
X156406113Y-103933142D01*
X156526877Y-103845403D01*
X156643720Y-103715635D01*
X156731031Y-103564409D01*
X156784991Y-103398336D01*
X156803244Y-103224672D01*
X156784991Y-103051008D01*
X156731031Y-102884935D01*
X156643720Y-102733709D01*
X156526877Y-102603941D01*
X156526875Y-102603939D01*
X156406115Y-102516202D01*
X156363449Y-102460872D01*
X156355000Y-102415884D01*
X156355000Y-97808511D01*
X156374685Y-97741472D01*
X156427489Y-97695717D01*
X156496647Y-97685773D01*
X156560203Y-97714798D01*
X156566681Y-97720830D01*
X157130045Y-98284194D01*
X157149750Y-98309874D01*
X157179244Y-98360958D01*
X157179246Y-98360961D01*
X157296090Y-98490730D01*
X157296092Y-98490732D01*
X157437357Y-98593367D01*
X157437362Y-98593370D01*
X157596880Y-98664393D01*
X157596886Y-98664395D01*
X157767690Y-98700700D01*
X157767691Y-98700700D01*
X157942309Y-98700700D01*
X157942310Y-98700700D01*
X158113114Y-98664395D01*
X158113116Y-98664393D01*
X158113119Y-98664393D01*
X158168090Y-98639918D01*
X158272638Y-98593370D01*
X158413909Y-98490731D01*
X158530752Y-98360963D01*
X158618063Y-98209737D01*
X158672023Y-98043664D01*
X158690276Y-97870000D01*
X158672023Y-97696336D01*
X158629979Y-97566937D01*
X158618066Y-97530271D01*
X158618064Y-97530267D01*
X158618063Y-97530263D01*
X158530752Y-97379037D01*
X158413909Y-97249269D01*
X158273731Y-97147424D01*
X158258936Y-97134787D01*
X156391319Y-95267170D01*
X156357834Y-95205847D01*
X156355000Y-95179489D01*
X156355000Y-94994000D01*
X156374685Y-94926961D01*
X156427489Y-94881206D01*
X156479000Y-94870000D01*
X157861000Y-94870000D01*
X171069000Y-94870000D01*
X173454345Y-94870000D01*
X173521384Y-94889685D01*
G37*
%TD.AperFunction*%
%TD*%
%TA.AperFunction,Conductor*%
%TO.N,GND*%
G36*
X196073268Y-106133318D02*
G01*
X196107517Y-106146092D01*
X196107516Y-106146092D01*
X196114444Y-106146836D01*
X196167127Y-106152501D01*
X197253499Y-106152500D01*
X197320538Y-106172185D01*
X197366293Y-106224988D01*
X197377499Y-106276500D01*
X197377500Y-106648232D01*
X197377500Y-108394084D01*
X197375772Y-108409733D01*
X197376054Y-108409760D01*
X197375319Y-108417527D01*
X197377439Y-108484969D01*
X197377500Y-108488863D01*
X197377500Y-108516528D01*
X197378006Y-108520537D01*
X197378921Y-108532168D01*
X197380298Y-108575992D01*
X197380299Y-108575996D01*
X197385916Y-108595332D01*
X197389859Y-108614372D01*
X197392382Y-108634336D01*
X197392386Y-108634351D01*
X197408519Y-108675101D01*
X197412302Y-108686150D01*
X197424530Y-108728239D01*
X197424533Y-108728245D01*
X197434778Y-108745569D01*
X197443338Y-108763042D01*
X197450746Y-108781754D01*
X197476507Y-108817210D01*
X197482920Y-108826974D01*
X197505233Y-108864702D01*
X197505236Y-108864707D01*
X197505241Y-108864712D01*
X197519469Y-108878940D01*
X197532109Y-108893739D01*
X197543935Y-108910017D01*
X197543936Y-108910018D01*
X197543937Y-108910019D01*
X197577704Y-108937953D01*
X197586345Y-108945816D01*
X198064568Y-109424039D01*
X198074414Y-109436328D01*
X198074632Y-109436148D01*
X198079605Y-109442160D01*
X198079606Y-109442161D01*
X198079607Y-109442162D01*
X198120147Y-109480232D01*
X198128794Y-109488352D01*
X198131590Y-109491062D01*
X198151154Y-109510626D01*
X198154332Y-109513090D01*
X198163228Y-109520687D01*
X198195182Y-109550695D01*
X198195184Y-109550696D01*
X198212815Y-109560388D01*
X198229084Y-109571074D01*
X198244984Y-109583407D01*
X198244985Y-109583408D01*
X198285209Y-109600815D01*
X198295701Y-109605955D01*
X198334108Y-109627070D01*
X198334111Y-109627071D01*
X198334113Y-109627072D01*
X198353606Y-109632076D01*
X198372014Y-109638379D01*
X198390488Y-109646374D01*
X198433791Y-109653231D01*
X198445218Y-109655598D01*
X198487675Y-109666500D01*
X198507805Y-109666500D01*
X198527202Y-109668026D01*
X198547080Y-109671175D01*
X198586875Y-109667413D01*
X198590717Y-109667050D01*
X198602386Y-109666500D01*
X204731000Y-109666500D01*
X204798039Y-109686185D01*
X204843794Y-109738989D01*
X204855000Y-109790500D01*
X204855000Y-110691520D01*
X204835315Y-110758559D01*
X204782511Y-110804314D01*
X204713353Y-110814258D01*
X204687668Y-110807702D01*
X204627882Y-110785403D01*
X204627872Y-110785401D01*
X204568344Y-110779000D01*
X204128000Y-110779000D01*
X204128000Y-113249000D01*
X204568328Y-113249000D01*
X204568344Y-113248999D01*
X204627872Y-113242598D01*
X204627876Y-113242597D01*
X204687666Y-113220297D01*
X204757358Y-113215313D01*
X204818681Y-113248797D01*
X204852166Y-113310120D01*
X204855000Y-113336479D01*
X204855000Y-113496000D01*
X204835315Y-113563039D01*
X204782511Y-113608794D01*
X204731000Y-113620000D01*
X194980589Y-113620000D01*
X194913550Y-113600315D01*
X194867795Y-113547511D01*
X194856599Y-113494421D01*
X194858947Y-113310120D01*
X194865749Y-112776000D01*
X194872269Y-112264000D01*
X202735500Y-112264000D01*
X202735500Y-112796844D01*
X202741901Y-112856372D01*
X202741903Y-112856379D01*
X202792145Y-112991086D01*
X202792149Y-112991093D01*
X202878309Y-113106187D01*
X202878312Y-113106190D01*
X202993406Y-113192350D01*
X202993413Y-113192354D01*
X203128120Y-113242596D01*
X203128127Y-113242598D01*
X203187655Y-113248999D01*
X203187672Y-113249000D01*
X203628000Y-113249000D01*
X203628000Y-112264000D01*
X202735500Y-112264000D01*
X194872269Y-112264000D01*
X194878637Y-111764000D01*
X202735500Y-111764000D01*
X203628000Y-111764000D01*
X203628000Y-110779000D01*
X203187655Y-110779000D01*
X203128127Y-110785401D01*
X203128120Y-110785403D01*
X202993413Y-110835645D01*
X202993406Y-110835649D01*
X202878312Y-110921809D01*
X202878309Y-110921812D01*
X202792149Y-111036906D01*
X202792145Y-111036913D01*
X202741903Y-111171620D01*
X202741901Y-111171627D01*
X202735500Y-111231155D01*
X202735500Y-111764000D01*
X194878637Y-111764000D01*
X194945000Y-106553000D01*
X194815658Y-106307251D01*
X194801855Y-106238760D01*
X194827272Y-106173678D01*
X194883840Y-106132668D01*
X194925389Y-106125500D01*
X196029935Y-106125500D01*
X196073268Y-106133318D01*
G37*
%TD.AperFunction*%
%TA.AperFunction,Conductor*%
G36*
X205146834Y-102799810D02*
G01*
X205202767Y-102841682D01*
X205227184Y-102907146D01*
X205227500Y-102915992D01*
X205227500Y-106496000D01*
X205207815Y-106563039D01*
X205155011Y-106608794D01*
X205103500Y-106620000D01*
X204855000Y-106620000D01*
X204855000Y-107833500D01*
X204835315Y-107900539D01*
X204782511Y-107946294D01*
X204731000Y-107957500D01*
X199981455Y-107957500D01*
X199914416Y-107937815D01*
X199868661Y-107885011D01*
X199858717Y-107815853D01*
X199887742Y-107752297D01*
X199907143Y-107734234D01*
X199924302Y-107721387D01*
X199989547Y-107672546D01*
X200075797Y-107557331D01*
X200126092Y-107422483D01*
X200132501Y-107362873D01*
X200132500Y-106276499D01*
X200152185Y-106209461D01*
X200204988Y-106163706D01*
X200256500Y-106152500D01*
X201342871Y-106152500D01*
X201342872Y-106152500D01*
X201402483Y-106146092D01*
X201537331Y-106095797D01*
X201652546Y-106009547D01*
X201738796Y-105894332D01*
X201789091Y-105759484D01*
X201789091Y-105759482D01*
X201790874Y-105751939D01*
X201793431Y-105752543D01*
X201815290Y-105699721D01*
X201872669Y-105659853D01*
X201907972Y-105653555D01*
X201935920Y-105652677D01*
X201939633Y-105652561D01*
X201943525Y-105652500D01*
X201971184Y-105652500D01*
X201971188Y-105652500D01*
X201975186Y-105651994D01*
X201986826Y-105651077D01*
X202030655Y-105649701D01*
X202049984Y-105644084D01*
X202069040Y-105640137D01*
X202089005Y-105637616D01*
X202129767Y-105621476D01*
X202140804Y-105617698D01*
X202182903Y-105605468D01*
X202200227Y-105595221D01*
X202217695Y-105586663D01*
X202236415Y-105579253D01*
X202271889Y-105553478D01*
X202281627Y-105547081D01*
X202319368Y-105524763D01*
X202333609Y-105510520D01*
X202348390Y-105497897D01*
X202364679Y-105486063D01*
X202392616Y-105452290D01*
X202400468Y-105443661D01*
X205015819Y-102828311D01*
X205077142Y-102794826D01*
X205146834Y-102799810D01*
G37*
%TD.AperFunction*%
%TA.AperFunction,Conductor*%
G36*
X208985040Y-100977185D02*
G01*
X209030795Y-101029989D01*
X209042001Y-101081500D01*
X209042001Y-101112876D01*
X209048408Y-101172483D01*
X209098702Y-101307328D01*
X209098706Y-101307335D01*
X209184952Y-101422544D01*
X209184955Y-101422547D01*
X209300164Y-101508793D01*
X209300171Y-101508797D01*
X209435017Y-101559091D01*
X209435016Y-101559091D01*
X209438821Y-101559500D01*
X209494627Y-101565500D01*
X210875372Y-101565499D01*
X210931174Y-101559500D01*
X210999932Y-101571906D01*
X211051069Y-101619517D01*
X211068348Y-101687216D01*
X211046283Y-101753510D01*
X211032108Y-101770471D01*
X208657291Y-104145288D01*
X208645007Y-104155131D01*
X208645187Y-104155349D01*
X208639175Y-104160322D01*
X208592984Y-104209509D01*
X208590279Y-104212300D01*
X208570717Y-104231862D01*
X208570713Y-104231867D01*
X208568233Y-104235065D01*
X208560655Y-104243936D01*
X208530646Y-104275892D01*
X208530643Y-104275896D01*
X208520944Y-104293539D01*
X208510266Y-104309795D01*
X208497932Y-104325696D01*
X208497927Y-104325704D01*
X208480523Y-104365924D01*
X208475384Y-104376414D01*
X208454265Y-104414829D01*
X208449258Y-104434330D01*
X208442959Y-104452726D01*
X208436231Y-104468274D01*
X208434963Y-104471206D01*
X208434962Y-104471208D01*
X208428107Y-104514493D01*
X208425739Y-104525929D01*
X208414838Y-104568385D01*
X208414838Y-104588520D01*
X208413311Y-104607919D01*
X208410163Y-104627793D01*
X208414288Y-104671429D01*
X208414838Y-104683099D01*
X208414838Y-106411305D01*
X208395153Y-106478344D01*
X208342349Y-106524099D01*
X208329843Y-106529011D01*
X208248004Y-106556130D01*
X208247997Y-106556133D01*
X208174383Y-106601539D01*
X208109287Y-106620000D01*
X207356500Y-106620000D01*
X207289461Y-106600315D01*
X207243706Y-106547511D01*
X207232500Y-106496000D01*
X207232500Y-101081500D01*
X207252185Y-101014461D01*
X207304989Y-100968706D01*
X207356500Y-100957500D01*
X208918001Y-100957500D01*
X208985040Y-100977185D01*
G37*
%TD.AperFunction*%
%TA.AperFunction,Conductor*%
G36*
X203864099Y-101340833D02*
G01*
X203920032Y-101382705D01*
X203938697Y-101418699D01*
X203942338Y-101429906D01*
X203942339Y-101429909D01*
X204028340Y-101578867D01*
X204029650Y-101581135D01*
X204046053Y-101599352D01*
X204076282Y-101662342D01*
X204077902Y-101682323D01*
X204077902Y-101940028D01*
X204058217Y-102007067D01*
X204041583Y-102027709D01*
X202007180Y-104062110D01*
X201945857Y-104095595D01*
X201876165Y-104090611D01*
X201820232Y-104048739D01*
X201795815Y-103983275D01*
X201795499Y-103974429D01*
X201795499Y-103850128D01*
X201795498Y-103850122D01*
X201789091Y-103790515D01*
X201738797Y-103655670D01*
X201738795Y-103655667D01*
X201738792Y-103655663D01*
X201678157Y-103574665D01*
X201653740Y-103509203D01*
X201668591Y-103440929D01*
X201689739Y-103412678D01*
X203733086Y-101369332D01*
X203794407Y-101335849D01*
X203864099Y-101340833D01*
G37*
%TD.AperFunction*%
%TA.AperFunction,Conductor*%
G36*
X219770961Y-88933191D02*
G01*
X219770953Y-88933196D01*
X219628437Y-89039882D01*
X219628436Y-89039883D01*
X220855000Y-90266446D01*
X220855001Y-90266446D01*
X222081562Y-89039883D01*
X222081561Y-89039882D01*
X221939046Y-88933196D01*
X221939038Y-88933191D01*
X221878253Y-88900000D01*
X222885000Y-88900000D01*
X222885000Y-89678643D01*
X222865315Y-89745682D01*
X222812511Y-89791437D01*
X222743353Y-89801381D01*
X222679797Y-89772356D01*
X222652168Y-89738070D01*
X222541808Y-89535961D01*
X222541807Y-89535960D01*
X222435115Y-89393436D01*
X221208553Y-90619999D01*
X221208553Y-90620000D01*
X222435115Y-91846562D01*
X222435116Y-91846561D01*
X222541803Y-91704047D01*
X222652168Y-91501929D01*
X222701573Y-91452524D01*
X222769846Y-91437672D01*
X222835310Y-91462089D01*
X222877182Y-91518022D01*
X222885000Y-91561356D01*
X222885000Y-94364000D01*
X222865315Y-94431039D01*
X222812511Y-94476794D01*
X222761000Y-94488000D01*
X214352232Y-94488000D01*
X214301797Y-94477280D01*
X214253115Y-94455605D01*
X214253113Y-94455604D01*
X214118614Y-94427016D01*
X214082310Y-94419300D01*
X213907690Y-94419300D01*
X213877749Y-94425663D01*
X213736886Y-94455604D01*
X213736884Y-94455605D01*
X213688203Y-94477280D01*
X213637768Y-94488000D01*
X212987000Y-94488000D01*
X212988863Y-94679622D01*
X212969831Y-94746850D01*
X212937760Y-94781142D01*
X212927033Y-94788936D01*
X212899090Y-94822712D01*
X212891229Y-94831350D01*
X212474398Y-95248181D01*
X212413075Y-95281666D01*
X212386717Y-95284500D01*
X211399629Y-95284500D01*
X211399623Y-95284501D01*
X211340016Y-95290908D01*
X211205171Y-95341202D01*
X211205168Y-95341204D01*
X211191311Y-95351578D01*
X211125846Y-95375995D01*
X211057573Y-95361143D01*
X211042689Y-95351578D01*
X211028831Y-95341204D01*
X211028828Y-95341202D01*
X210893982Y-95290908D01*
X210893983Y-95290908D01*
X210834383Y-95284501D01*
X210834381Y-95284500D01*
X210834373Y-95284500D01*
X210834364Y-95284500D01*
X209453629Y-95284500D01*
X209453623Y-95284501D01*
X209394016Y-95290908D01*
X209259171Y-95341202D01*
X209259164Y-95341206D01*
X209143955Y-95427452D01*
X209143952Y-95427455D01*
X209057706Y-95542664D01*
X209057702Y-95542671D01*
X209007408Y-95677517D01*
X209001001Y-95737116D01*
X209001000Y-95737135D01*
X209001000Y-96724218D01*
X208981315Y-96791257D01*
X208964681Y-96811899D01*
X205469953Y-100306626D01*
X205457669Y-100316469D01*
X205457849Y-100316687D01*
X205451837Y-100321660D01*
X205405646Y-100370847D01*
X205402941Y-100373638D01*
X205383379Y-100393200D01*
X205383375Y-100393205D01*
X205380895Y-100396403D01*
X205373317Y-100405275D01*
X205368126Y-100410803D01*
X205307886Y-100446198D01*
X205238072Y-100443406D01*
X205204848Y-100426238D01*
X205123044Y-100366804D01*
X205123039Y-100366801D01*
X204963521Y-100295778D01*
X204963515Y-100295776D01*
X204797226Y-100260431D01*
X204735744Y-100227239D01*
X204705076Y-100177458D01*
X204664703Y-100053201D01*
X204664701Y-100053197D01*
X204664700Y-100053193D01*
X204577389Y-99901967D01*
X204460546Y-99772199D01*
X204460544Y-99772197D01*
X204319279Y-99669562D01*
X204319274Y-99669559D01*
X204159756Y-99598536D01*
X204159750Y-99598534D01*
X204025251Y-99569946D01*
X203988947Y-99562230D01*
X203988946Y-99562230D01*
X203938498Y-99562230D01*
X203871459Y-99542545D01*
X203825704Y-99489741D01*
X203815178Y-99451195D01*
X203808373Y-99386451D01*
X203773385Y-99278768D01*
X203754416Y-99220386D01*
X203754414Y-99220382D01*
X203754413Y-99220378D01*
X203667102Y-99069152D01*
X203550259Y-98939384D01*
X203550257Y-98939382D01*
X203408992Y-98836747D01*
X203408987Y-98836744D01*
X203249469Y-98765721D01*
X203249463Y-98765719D01*
X203114964Y-98737131D01*
X203078660Y-98729415D01*
X202904040Y-98729415D01*
X202874099Y-98735778D01*
X202733236Y-98765719D01*
X202733230Y-98765721D01*
X202573712Y-98836744D01*
X202573707Y-98836747D01*
X202432443Y-98939381D01*
X202398770Y-98976778D01*
X202366369Y-99002460D01*
X202360185Y-99005860D01*
X202324711Y-99031632D01*
X202314951Y-99038042D01*
X202277231Y-99060349D01*
X202262991Y-99074589D01*
X202248205Y-99087217D01*
X202231918Y-99099051D01*
X202203975Y-99132827D01*
X202196114Y-99141465D01*
X202069184Y-99268395D01*
X202007861Y-99301880D01*
X201938169Y-99296896D01*
X201882236Y-99255024D01*
X201870696Y-99236370D01*
X201856988Y-99209075D01*
X201856986Y-99209073D01*
X201856985Y-99209070D01*
X201856983Y-99209068D01*
X201791740Y-99128978D01*
X201791739Y-99128977D01*
X201791731Y-99128967D01*
X201226033Y-98563271D01*
X201145925Y-98498012D01*
X201028733Y-98439157D01*
X200989141Y-98419273D01*
X200818439Y-98378815D01*
X200818434Y-98378814D01*
X200818432Y-98378814D01*
X200685472Y-98378814D01*
X200618433Y-98359129D01*
X200572678Y-98306325D01*
X200561472Y-98254814D01*
X200561472Y-98122414D01*
X200521038Y-97951813D01*
X200442352Y-97795136D01*
X200377153Y-97715099D01*
X200377139Y-97715083D01*
X200271090Y-97609034D01*
X200271089Y-97609034D01*
X199245786Y-98634339D01*
X198574034Y-99306089D01*
X198680088Y-99412142D01*
X198680099Y-99412152D01*
X198760130Y-99477348D01*
X198760136Y-99477352D01*
X198916813Y-99556038D01*
X199087415Y-99596472D01*
X199219814Y-99596472D01*
X199286853Y-99616157D01*
X199332608Y-99668961D01*
X199343814Y-99720472D01*
X199343814Y-99853428D01*
X199343815Y-99853439D01*
X199379649Y-100004628D01*
X199375956Y-100074400D01*
X199346673Y-100120906D01*
X198619953Y-100847626D01*
X198607669Y-100857469D01*
X198607849Y-100857687D01*
X198601837Y-100862660D01*
X198555646Y-100911847D01*
X198552941Y-100914638D01*
X198533379Y-100934200D01*
X198533375Y-100934205D01*
X198530895Y-100937403D01*
X198523317Y-100946274D01*
X198493308Y-100978230D01*
X198493305Y-100978234D01*
X198483606Y-100995877D01*
X198472928Y-101012133D01*
X198460594Y-101028034D01*
X198460589Y-101028042D01*
X198443185Y-101068262D01*
X198438046Y-101078752D01*
X198416927Y-101117167D01*
X198411920Y-101136668D01*
X198405621Y-101155064D01*
X198399196Y-101169913D01*
X198397625Y-101173544D01*
X198397624Y-101173546D01*
X198390769Y-101216831D01*
X198388401Y-101228267D01*
X198377500Y-101270723D01*
X198377500Y-101290858D01*
X198375973Y-101310255D01*
X198372825Y-101330133D01*
X198373837Y-101340833D01*
X198376950Y-101373767D01*
X198377500Y-101385437D01*
X198377500Y-101617701D01*
X198357815Y-101684740D01*
X198305011Y-101730495D01*
X198240246Y-101740991D01*
X198229361Y-101739820D01*
X198179872Y-101734500D01*
X198179866Y-101734500D01*
X197908281Y-101734500D01*
X197841242Y-101714815D01*
X197820600Y-101698181D01*
X197193162Y-101070743D01*
X197183317Y-101058454D01*
X197183099Y-101058635D01*
X197178126Y-101052624D01*
X197151945Y-101028038D01*
X197128937Y-101006432D01*
X197126140Y-101003721D01*
X197106583Y-100984163D01*
X197103393Y-100981689D01*
X197094502Y-100974096D01*
X197062554Y-100944094D01*
X197062549Y-100944090D01*
X197044908Y-100934392D01*
X197028643Y-100923708D01*
X197016950Y-100914638D01*
X197012748Y-100911378D01*
X196972521Y-100893970D01*
X196962033Y-100888831D01*
X196923624Y-100867715D01*
X196923614Y-100867712D01*
X196904120Y-100862706D01*
X196885719Y-100856406D01*
X196867245Y-100848412D01*
X196867238Y-100848410D01*
X196823959Y-100841556D01*
X196812519Y-100839187D01*
X196770065Y-100828286D01*
X196770058Y-100828286D01*
X196749928Y-100828286D01*
X196730529Y-100826759D01*
X196710654Y-100823611D01*
X196710653Y-100823611D01*
X196667016Y-100827736D01*
X196655347Y-100828286D01*
X195434417Y-100828286D01*
X195367378Y-100808601D01*
X195346736Y-100791967D01*
X194878828Y-100324060D01*
X194878822Y-100324055D01*
X194798718Y-100258798D01*
X194797323Y-100258097D01*
X194641934Y-100180059D01*
X194471231Y-100139601D01*
X194471226Y-100139600D01*
X194471224Y-100139600D01*
X194295782Y-100139600D01*
X194295780Y-100139600D01*
X194295774Y-100139601D01*
X194125070Y-100180060D01*
X193964858Y-100260521D01*
X193896115Y-100273017D01*
X193831529Y-100246364D01*
X193791605Y-100189024D01*
X193785255Y-100146292D01*
X193832385Y-98439157D01*
X197930100Y-98439157D01*
X197970533Y-98609758D01*
X198049219Y-98766435D01*
X198114418Y-98846472D01*
X198114422Y-98846477D01*
X198220481Y-98952536D01*
X198892233Y-98280786D01*
X198291192Y-97679745D01*
X198114429Y-97856509D01*
X198114419Y-97856520D01*
X198049223Y-97936551D01*
X198049219Y-97936557D01*
X197970533Y-98093235D01*
X197930100Y-98263836D01*
X197930100Y-98439157D01*
X193832385Y-98439157D01*
X193853637Y-97669346D01*
X193875164Y-97602878D01*
X193889904Y-97585095D01*
X194148808Y-97326191D01*
X198644745Y-97326191D01*
X199245786Y-97927232D01*
X199917537Y-97255481D01*
X199811483Y-97149429D01*
X199811472Y-97149419D01*
X199731441Y-97084223D01*
X199731435Y-97084219D01*
X199574758Y-97005533D01*
X199404157Y-96965100D01*
X199228837Y-96965100D01*
X199058235Y-97005533D01*
X198901557Y-97084219D01*
X198821515Y-97149422D01*
X198821499Y-97149436D01*
X198644745Y-97326190D01*
X198644745Y-97326191D01*
X194148808Y-97326191D01*
X197855000Y-93620000D01*
X197855000Y-93619999D01*
X197865666Y-93609333D01*
X197926989Y-93575848D01*
X197996681Y-93580832D01*
X198008996Y-93586203D01*
X198014583Y-93589008D01*
X198014584Y-93589009D01*
X198100335Y-93609333D01*
X198185297Y-93629470D01*
X198185300Y-93629470D01*
X198360736Y-93629470D01*
X198360739Y-93629470D01*
X198453137Y-93607570D01*
X198531449Y-93589010D01*
X198531450Y-93589009D01*
X198531452Y-93589009D01*
X198688233Y-93510272D01*
X198768340Y-93445015D01*
X199475458Y-92737895D01*
X199540717Y-92657788D01*
X199619454Y-92501007D01*
X199659915Y-92330294D01*
X199659915Y-92200115D01*
X219628436Y-92200115D01*
X219770960Y-92306807D01*
X219770961Y-92306808D01*
X220022042Y-92443908D01*
X220022041Y-92443908D01*
X220290104Y-92543890D01*
X220569637Y-92604699D01*
X220854999Y-92625109D01*
X220855001Y-92625109D01*
X221140362Y-92604699D01*
X221419895Y-92543890D01*
X221687958Y-92443908D01*
X221939047Y-92306803D01*
X222081561Y-92200116D01*
X222081562Y-92200115D01*
X220855001Y-90973553D01*
X220855000Y-90973553D01*
X219628436Y-92200115D01*
X199659915Y-92200115D01*
X199659915Y-92154852D01*
X199645980Y-92096058D01*
X199619455Y-91984142D01*
X199619454Y-91984140D01*
X199540717Y-91827359D01*
X199540713Y-91827354D01*
X199540712Y-91827352D01*
X199475469Y-91747262D01*
X199475468Y-91747261D01*
X199475460Y-91747251D01*
X198909762Y-91181555D01*
X198829654Y-91116296D01*
X198750912Y-91076751D01*
X198672870Y-91037557D01*
X198502168Y-90997099D01*
X198502163Y-90997098D01*
X198502161Y-90997098D01*
X198369701Y-90997098D01*
X198302662Y-90977413D01*
X198256907Y-90924609D01*
X198245701Y-90873098D01*
X198245701Y-90740641D01*
X198245701Y-90740638D01*
X198239025Y-90712473D01*
X198217109Y-90620001D01*
X218849891Y-90620001D01*
X218870300Y-90905362D01*
X218931109Y-91184895D01*
X219031091Y-91452958D01*
X219168191Y-91704038D01*
X219168196Y-91704046D01*
X219274882Y-91846561D01*
X219274883Y-91846562D01*
X220501446Y-90620000D01*
X220501446Y-90619999D01*
X219274883Y-89393436D01*
X219274882Y-89393437D01*
X219168196Y-89535953D01*
X219168191Y-89535961D01*
X219031091Y-89787041D01*
X218931109Y-90055104D01*
X218870300Y-90334637D01*
X218849891Y-90619998D01*
X218849891Y-90620001D01*
X198217109Y-90620001D01*
X198205241Y-90569928D01*
X198205240Y-90569926D01*
X198126503Y-90413145D01*
X198126499Y-90413140D01*
X198126498Y-90413138D01*
X198061255Y-90333048D01*
X198061254Y-90333047D01*
X198061246Y-90333037D01*
X197994655Y-90266446D01*
X197891319Y-90163110D01*
X197857834Y-90101787D01*
X197855000Y-90075429D01*
X197855000Y-89370000D01*
X204747173Y-89370000D01*
X204846880Y-89414393D01*
X204846886Y-89414395D01*
X205017690Y-89450700D01*
X205017691Y-89450700D01*
X205192309Y-89450700D01*
X205192310Y-89450700D01*
X205363114Y-89414395D01*
X205363116Y-89414393D01*
X205363119Y-89414393D01*
X205462826Y-89370000D01*
X215855000Y-89370000D01*
X215855000Y-88900000D01*
X219831747Y-88900000D01*
X219770961Y-88933191D01*
G37*
%TD.AperFunction*%
%TD*%
%TA.AperFunction,Conductor*%
%TO.N,GND*%
G36*
X213299942Y-78759685D02*
G01*
X213345697Y-78812489D01*
X213355641Y-78881647D01*
X213338441Y-78929098D01*
X213333644Y-78936873D01*
X213333641Y-78936880D01*
X213278494Y-79103302D01*
X213278493Y-79103309D01*
X213268000Y-79206013D01*
X213268000Y-79331000D01*
X215667999Y-79331000D01*
X215667999Y-79206028D01*
X215667998Y-79206013D01*
X215657505Y-79103302D01*
X215602358Y-78936880D01*
X215602355Y-78936873D01*
X215597559Y-78929098D01*
X215579118Y-78861705D01*
X215600040Y-78795042D01*
X215653682Y-78750272D01*
X215703097Y-78740000D01*
X216861903Y-78740000D01*
X216928942Y-78759685D01*
X216974697Y-78812489D01*
X216984641Y-78881647D01*
X216967441Y-78929098D01*
X216962644Y-78936873D01*
X216962641Y-78936880D01*
X216907494Y-79103302D01*
X216907493Y-79103309D01*
X216897000Y-79206013D01*
X216897000Y-79331000D01*
X219296999Y-79331000D01*
X219296999Y-79206028D01*
X219296998Y-79206013D01*
X219286505Y-79103302D01*
X219231358Y-78936880D01*
X219231355Y-78936873D01*
X219226559Y-78929098D01*
X219208118Y-78861705D01*
X219229040Y-78795042D01*
X219282682Y-78750272D01*
X219332097Y-78740000D01*
X220561391Y-78740000D01*
X220628430Y-78759685D01*
X220674185Y-78812489D01*
X220684129Y-78881647D01*
X220666930Y-78929097D01*
X220650500Y-78955732D01*
X220650498Y-78955737D01*
X220595351Y-79122159D01*
X220595350Y-79122166D01*
X220584857Y-79224870D01*
X220584857Y-79349857D01*
X221910857Y-79349857D01*
X221977896Y-79369542D01*
X222023651Y-79422346D01*
X222034857Y-79473857D01*
X222034857Y-80674856D01*
X222284829Y-80674856D01*
X222284843Y-80674855D01*
X222387554Y-80664362D01*
X222553976Y-80609215D01*
X222553987Y-80609210D01*
X222695903Y-80521675D01*
X222763295Y-80503234D01*
X222829959Y-80524156D01*
X222874728Y-80577798D01*
X222885000Y-80627213D01*
X222885000Y-88900000D01*
X221878253Y-88900000D01*
X221687957Y-88796091D01*
X221687958Y-88796091D01*
X221419895Y-88696109D01*
X221140362Y-88635300D01*
X220855001Y-88614891D01*
X220854999Y-88614891D01*
X220569637Y-88635300D01*
X220290104Y-88696109D01*
X220022041Y-88796091D01*
X219831746Y-88900000D01*
X215855000Y-88900000D01*
X215855000Y-81120000D01*
X212725000Y-81120000D01*
X212725000Y-79831000D01*
X213268001Y-79831000D01*
X213268001Y-79955986D01*
X213278494Y-80058697D01*
X213333641Y-80225119D01*
X213333643Y-80225124D01*
X213425684Y-80374345D01*
X213549654Y-80498315D01*
X213698875Y-80590356D01*
X213698880Y-80590358D01*
X213865302Y-80645505D01*
X213865309Y-80645506D01*
X213968019Y-80655999D01*
X214217999Y-80655999D01*
X214218000Y-80655998D01*
X214218000Y-79831000D01*
X214718000Y-79831000D01*
X214718000Y-80655999D01*
X214967972Y-80655999D01*
X214967986Y-80655998D01*
X215070697Y-80645505D01*
X215237119Y-80590358D01*
X215237124Y-80590356D01*
X215386345Y-80498315D01*
X215510315Y-80374345D01*
X215602356Y-80225124D01*
X215602358Y-80225119D01*
X215657505Y-80058697D01*
X215657506Y-80058690D01*
X215667999Y-79955986D01*
X215668000Y-79955973D01*
X215668000Y-79831000D01*
X216897001Y-79831000D01*
X216897001Y-79955986D01*
X216907494Y-80058697D01*
X216962641Y-80225119D01*
X216962643Y-80225124D01*
X217054684Y-80374345D01*
X217178654Y-80498315D01*
X217327875Y-80590356D01*
X217327880Y-80590358D01*
X217494302Y-80645505D01*
X217494309Y-80645506D01*
X217597019Y-80655999D01*
X217846999Y-80655999D01*
X217847000Y-80655998D01*
X217847000Y-79831000D01*
X218347000Y-79831000D01*
X218347000Y-80655999D01*
X218596972Y-80655999D01*
X218596986Y-80655998D01*
X218699697Y-80645505D01*
X218866119Y-80590358D01*
X218866124Y-80590356D01*
X219015345Y-80498315D01*
X219139315Y-80374345D01*
X219231356Y-80225124D01*
X219231358Y-80225119D01*
X219286505Y-80058697D01*
X219286506Y-80058690D01*
X219296999Y-79955986D01*
X219297000Y-79955973D01*
X219297000Y-79849857D01*
X220584858Y-79849857D01*
X220584858Y-79974843D01*
X220595351Y-80077554D01*
X220650498Y-80243976D01*
X220650500Y-80243981D01*
X220742541Y-80393202D01*
X220866511Y-80517172D01*
X221015732Y-80609213D01*
X221015737Y-80609215D01*
X221182159Y-80664362D01*
X221182166Y-80664363D01*
X221284876Y-80674856D01*
X221534856Y-80674856D01*
X221534857Y-80674855D01*
X221534857Y-79849857D01*
X220584858Y-79849857D01*
X219297000Y-79849857D01*
X219297000Y-79831000D01*
X218347000Y-79831000D01*
X217847000Y-79831000D01*
X216897001Y-79831000D01*
X215668000Y-79831000D01*
X214718000Y-79831000D01*
X214218000Y-79831000D01*
X213268001Y-79831000D01*
X212725000Y-79831000D01*
X212725000Y-78864000D01*
X212744685Y-78796961D01*
X212797489Y-78751206D01*
X212849000Y-78740000D01*
X213232903Y-78740000D01*
X213299942Y-78759685D01*
G37*
%TD.AperFunction*%
%TD*%
%TA.AperFunction,Conductor*%
%TO.N,GND*%
G36*
X155048039Y-55889685D02*
G01*
X155093794Y-55942489D01*
X155105000Y-55994000D01*
X155105000Y-65818638D01*
X155085315Y-65885677D01*
X155068681Y-65906319D01*
X154141319Y-66833681D01*
X154079996Y-66867166D01*
X154053638Y-66870000D01*
X151819000Y-66870000D01*
X151751961Y-66850315D01*
X151706206Y-66797511D01*
X151704453Y-66789453D01*
X151695000Y-66780000D01*
X149295001Y-66780000D01*
X149280867Y-66794133D01*
X149275316Y-66813039D01*
X149222512Y-66858794D01*
X149171001Y-66870000D01*
X148229000Y-66870000D01*
X148161961Y-66850315D01*
X148116206Y-66797511D01*
X148105000Y-66746000D01*
X148105000Y-66280000D01*
X149295000Y-66280000D01*
X150245000Y-66280000D01*
X150245000Y-65455000D01*
X150745000Y-65455000D01*
X150745000Y-66280000D01*
X151694999Y-66280000D01*
X151694999Y-66155028D01*
X151694998Y-66155013D01*
X151684505Y-66052302D01*
X151629358Y-65885880D01*
X151629356Y-65885875D01*
X151537315Y-65736654D01*
X151413345Y-65612684D01*
X151264124Y-65520643D01*
X151264119Y-65520641D01*
X151097697Y-65465494D01*
X151097690Y-65465493D01*
X150994986Y-65455000D01*
X150745000Y-65455000D01*
X150245000Y-65455000D01*
X149995029Y-65455000D01*
X149995012Y-65455001D01*
X149892302Y-65465494D01*
X149725880Y-65520641D01*
X149725875Y-65520643D01*
X149576654Y-65612684D01*
X149452684Y-65736654D01*
X149360643Y-65885875D01*
X149360641Y-65885880D01*
X149305494Y-66052302D01*
X149305493Y-66052309D01*
X149295000Y-66155013D01*
X149295000Y-66280000D01*
X148105000Y-66280000D01*
X148105000Y-55994000D01*
X148124685Y-55926961D01*
X148177489Y-55881206D01*
X148229000Y-55870000D01*
X154981000Y-55870000D01*
X155048039Y-55889685D01*
G37*
%TD.AperFunction*%
%TD*%
%TA.AperFunction,Conductor*%
%TO.N,GND*%
G36*
X171973745Y-71740005D02*
G01*
X172024563Y-71787957D01*
X172041500Y-71850515D01*
X172041500Y-82496000D01*
X172021815Y-82563039D01*
X171969011Y-82608794D01*
X171917500Y-82620000D01*
X167605000Y-82620000D01*
X167605000Y-75120000D01*
X171840344Y-71753443D01*
X171905070Y-71727140D01*
X171973745Y-71740005D01*
G37*
%TD.AperFunction*%
%TA.AperFunction,Conductor*%
G36*
X177693105Y-75874427D02*
G01*
X177749038Y-75916299D01*
X177770428Y-75962012D01*
X177791389Y-76050451D01*
X177791389Y-76050452D01*
X177870126Y-76207231D01*
X177879414Y-76218633D01*
X177906490Y-76283043D01*
X177894446Y-76351866D01*
X177870953Y-76384626D01*
X177287953Y-76967626D01*
X177275669Y-76977469D01*
X177275849Y-76977687D01*
X177269837Y-76982660D01*
X177223646Y-77031847D01*
X177220941Y-77034638D01*
X177201379Y-77054200D01*
X177201375Y-77054205D01*
X177198895Y-77057403D01*
X177191317Y-77066274D01*
X177161308Y-77098230D01*
X177161305Y-77098234D01*
X177151606Y-77115877D01*
X177140928Y-77132133D01*
X177128594Y-77148034D01*
X177128589Y-77148042D01*
X177111185Y-77188262D01*
X177106046Y-77198752D01*
X177084927Y-77237167D01*
X177079920Y-77256668D01*
X177073621Y-77275064D01*
X177066893Y-77290612D01*
X177065625Y-77293544D01*
X177065624Y-77293546D01*
X177058769Y-77336831D01*
X177056401Y-77348267D01*
X177045500Y-77390723D01*
X177045500Y-77410858D01*
X177043973Y-77430257D01*
X177040825Y-77450131D01*
X177044950Y-77493767D01*
X177045500Y-77505437D01*
X177045500Y-79757620D01*
X177043772Y-79773269D01*
X177044054Y-79773296D01*
X177043319Y-79781063D01*
X177045439Y-79848505D01*
X177045500Y-79852399D01*
X177045500Y-79880064D01*
X177046006Y-79884073D01*
X177046921Y-79895704D01*
X177048298Y-79939530D01*
X177053916Y-79958863D01*
X177057862Y-79977917D01*
X177060383Y-79997875D01*
X177060386Y-79997887D01*
X177076519Y-80038636D01*
X177080302Y-80049686D01*
X177094708Y-80099272D01*
X177092372Y-80099950D01*
X177099460Y-80157342D01*
X177069175Y-80220307D01*
X177063602Y-80226096D01*
X176009115Y-81252834D01*
X175947351Y-81285499D01*
X175877732Y-81279586D01*
X175834930Y-81251673D01*
X175034819Y-80451562D01*
X175001334Y-80390239D01*
X174998500Y-80363881D01*
X174998500Y-78517881D01*
X175018185Y-78450842D01*
X175034819Y-78430200D01*
X176291680Y-77173339D01*
X177562092Y-75902926D01*
X177623413Y-75869443D01*
X177693105Y-75874427D01*
G37*
%TD.AperFunction*%
%TA.AperFunction,Conductor*%
G36*
X179832157Y-71267185D02*
G01*
X179838003Y-71271182D01*
X179937357Y-71343367D01*
X179937359Y-71343368D01*
X179937362Y-71343370D01*
X180055851Y-71396125D01*
X180109086Y-71441373D01*
X180129408Y-71508222D01*
X180110363Y-71575446D01*
X180093095Y-71597084D01*
X173985953Y-77704226D01*
X173973669Y-77714069D01*
X173973849Y-77714287D01*
X173967837Y-77719260D01*
X173921646Y-77768447D01*
X173918941Y-77771238D01*
X173899379Y-77790800D01*
X173899375Y-77790805D01*
X173896895Y-77794003D01*
X173889318Y-77802874D01*
X173866894Y-77826754D01*
X173806653Y-77862150D01*
X173736839Y-77859358D01*
X173679617Y-77819266D01*
X173653155Y-77754601D01*
X173652500Y-77741872D01*
X173652500Y-71549500D01*
X173672185Y-71482461D01*
X173724989Y-71436706D01*
X173776500Y-71425500D01*
X174368520Y-71425500D01*
X174435559Y-71445185D01*
X174481314Y-71497989D01*
X174484702Y-71506167D01*
X174518702Y-71597328D01*
X174518706Y-71597335D01*
X174604952Y-71712544D01*
X174604955Y-71712547D01*
X174720164Y-71798793D01*
X174720171Y-71798797D01*
X174855017Y-71849091D01*
X174855016Y-71849091D01*
X174861944Y-71849835D01*
X174914627Y-71855500D01*
X176295372Y-71855499D01*
X176354983Y-71849091D01*
X176489831Y-71798796D01*
X176503691Y-71788419D01*
X176569150Y-71764003D01*
X176637423Y-71778853D01*
X176652294Y-71788409D01*
X176666169Y-71798796D01*
X176666173Y-71798797D01*
X176666174Y-71798798D01*
X176801017Y-71849091D01*
X176801016Y-71849091D01*
X176807944Y-71849835D01*
X176860627Y-71855500D01*
X178241372Y-71855499D01*
X178300983Y-71849091D01*
X178435831Y-71798796D01*
X178551046Y-71712546D01*
X178637296Y-71597331D01*
X178687591Y-71462483D01*
X178694000Y-71402873D01*
X178694000Y-71371500D01*
X178713685Y-71304461D01*
X178766489Y-71258706D01*
X178818000Y-71247500D01*
X179765118Y-71247500D01*
X179832157Y-71267185D01*
G37*
%TD.AperFunction*%
%TA.AperFunction,Conductor*%
G36*
X181765434Y-71802099D02*
G01*
X181821367Y-71843971D01*
X181845784Y-71909435D01*
X181846100Y-71918281D01*
X181846100Y-73887581D01*
X181826415Y-73954620D01*
X181773611Y-74000375D01*
X181704453Y-74010319D01*
X181640897Y-73981294D01*
X181634419Y-73975262D01*
X180940969Y-73281814D01*
X180940948Y-73281795D01*
X180860917Y-73216599D01*
X180860904Y-73216590D01*
X180704234Y-73137907D01*
X180615551Y-73116889D01*
X180554859Y-73082275D01*
X180522515Y-73020342D01*
X180528788Y-72950755D01*
X180556465Y-72908553D01*
X181634419Y-71830600D01*
X181695742Y-71797115D01*
X181765434Y-71802099D01*
G37*
%TD.AperFunction*%
%TA.AperFunction,Conductor*%
G36*
X189587578Y-69433185D02*
G01*
X189633333Y-69485989D01*
X189643277Y-69555147D01*
X189614252Y-69618703D01*
X189608220Y-69625181D01*
X189007160Y-70226240D01*
X189007156Y-70226244D01*
X188969576Y-70272879D01*
X188909850Y-70403658D01*
X188909849Y-70403663D01*
X188889389Y-70545977D01*
X188909849Y-70688291D01*
X188909850Y-70688296D01*
X188969576Y-70819074D01*
X188969577Y-70819076D01*
X189007155Y-70865707D01*
X189007161Y-70865714D01*
X189983425Y-71841978D01*
X189983432Y-71841984D01*
X190030063Y-71879562D01*
X190030065Y-71879563D01*
X190160843Y-71939289D01*
X190160849Y-71939290D01*
X190177763Y-71941722D01*
X190241319Y-71970745D01*
X190279095Y-72029522D01*
X190282857Y-72046813D01*
X190285394Y-72064465D01*
X190285395Y-72064466D01*
X190326725Y-72154966D01*
X190336669Y-72224124D01*
X190307644Y-72287680D01*
X190248866Y-72325454D01*
X190178996Y-72325454D01*
X190164684Y-72320278D01*
X190136737Y-72308184D01*
X190126247Y-72303045D01*
X190087838Y-72281929D01*
X190087828Y-72281926D01*
X190068334Y-72276920D01*
X190049933Y-72270620D01*
X190031459Y-72262626D01*
X190031452Y-72262624D01*
X189988173Y-72255770D01*
X189976733Y-72253401D01*
X189934279Y-72242500D01*
X189934272Y-72242500D01*
X189914142Y-72242500D01*
X189894743Y-72240973D01*
X189874868Y-72237825D01*
X189874867Y-72237825D01*
X189831230Y-72241950D01*
X189819561Y-72242500D01*
X189363974Y-72242500D01*
X189296935Y-72222815D01*
X189276293Y-72206181D01*
X187305069Y-70234957D01*
X187295224Y-70222668D01*
X187295006Y-70222849D01*
X187290033Y-70216838D01*
X187240846Y-70170648D01*
X187238047Y-70167935D01*
X187218490Y-70148377D01*
X187215300Y-70145903D01*
X187206409Y-70138310D01*
X187174461Y-70108308D01*
X187174456Y-70108304D01*
X187156815Y-70098606D01*
X187140550Y-70087922D01*
X187124656Y-70075593D01*
X187124655Y-70075592D01*
X187095355Y-70062912D01*
X187084428Y-70058184D01*
X187073940Y-70053045D01*
X187035531Y-70031929D01*
X187035521Y-70031926D01*
X187016027Y-70026920D01*
X186997626Y-70020620D01*
X186979152Y-70012626D01*
X186979145Y-70012624D01*
X186935866Y-70005770D01*
X186924426Y-70003401D01*
X186881972Y-69992500D01*
X186881965Y-69992500D01*
X186861835Y-69992500D01*
X186842436Y-69990973D01*
X186822561Y-69987825D01*
X186822560Y-69987825D01*
X186778923Y-69991950D01*
X186767254Y-69992500D01*
X185687967Y-69992500D01*
X185672318Y-69990772D01*
X185672292Y-69991054D01*
X185664524Y-69990319D01*
X185597082Y-69992439D01*
X185593188Y-69992500D01*
X185565523Y-69992500D01*
X185561514Y-69993006D01*
X185549884Y-69993921D01*
X185506060Y-69995298D01*
X185506054Y-69995299D01*
X185486719Y-70000916D01*
X185467680Y-70004859D01*
X185447715Y-70007382D01*
X185447701Y-70007385D01*
X185406950Y-70023519D01*
X185395906Y-70027300D01*
X185353809Y-70039531D01*
X185353806Y-70039533D01*
X185336480Y-70049779D01*
X185319010Y-70058337D01*
X185300298Y-70065745D01*
X185264826Y-70091516D01*
X185255066Y-70097927D01*
X185217346Y-70120234D01*
X185203106Y-70134474D01*
X185188320Y-70147102D01*
X185172033Y-70158936D01*
X185144090Y-70192712D01*
X185136229Y-70201350D01*
X183832510Y-71505070D01*
X183771187Y-71538555D01*
X183770610Y-71538679D01*
X183596886Y-71575604D01*
X183596880Y-71575606D01*
X183437362Y-71646629D01*
X183437357Y-71646632D01*
X183297985Y-71747892D01*
X183232179Y-71771372D01*
X183164125Y-71755546D01*
X183115430Y-71705440D01*
X183101100Y-71647574D01*
X183101100Y-71278881D01*
X183120785Y-71211842D01*
X183137419Y-71191200D01*
X184878800Y-69449819D01*
X184940123Y-69416334D01*
X184966481Y-69413500D01*
X189520539Y-69413500D01*
X189587578Y-69433185D01*
G37*
%TD.AperFunction*%
%TA.AperFunction,Conductor*%
G36*
X187633580Y-63139685D02*
G01*
X187679335Y-63192489D01*
X187690541Y-63244000D01*
X187690541Y-63890246D01*
X187670856Y-63957285D01*
X187618052Y-64003040D01*
X187605549Y-64007951D01*
X187603403Y-64008661D01*
X187454082Y-64100763D01*
X187360064Y-64194781D01*
X187298740Y-64228265D01*
X187229049Y-64223281D01*
X187184702Y-64194780D01*
X187091082Y-64101160D01*
X186941861Y-64009119D01*
X186941856Y-64009117D01*
X186775434Y-63953970D01*
X186775427Y-63953969D01*
X186672723Y-63943476D01*
X186522737Y-63943476D01*
X186522737Y-66343475D01*
X186672709Y-66343475D01*
X186672723Y-66343474D01*
X186775434Y-66332981D01*
X186941856Y-66277834D01*
X186941861Y-66277832D01*
X187091079Y-66185793D01*
X187184701Y-66092171D01*
X187246024Y-66058686D01*
X187315716Y-66063670D01*
X187360064Y-66092171D01*
X187454081Y-66186188D01*
X187603403Y-66278290D01*
X187769940Y-66333475D01*
X187872728Y-66343976D01*
X188672745Y-66343975D01*
X188672753Y-66343974D01*
X188672756Y-66343974D01*
X188729039Y-66338224D01*
X188775534Y-66333475D01*
X188942071Y-66278290D01*
X189091393Y-66186188D01*
X189215449Y-66062132D01*
X189307551Y-65912810D01*
X189307553Y-65912803D01*
X189310603Y-65906265D01*
X189312125Y-65906974D01*
X189346841Y-65856844D01*
X189411359Y-65830027D01*
X189424765Y-65829300D01*
X192231000Y-65829300D01*
X192298039Y-65848985D01*
X192343794Y-65901789D01*
X192355000Y-65953300D01*
X192355000Y-67234858D01*
X192335315Y-67301897D01*
X192282511Y-67347652D01*
X192231000Y-67358858D01*
X184674209Y-67358858D01*
X184658560Y-67357130D01*
X184658534Y-67357412D01*
X184650766Y-67356677D01*
X184583323Y-67358797D01*
X184579429Y-67358858D01*
X184551765Y-67358858D01*
X184547756Y-67359364D01*
X184536126Y-67360279D01*
X184492298Y-67361656D01*
X184472955Y-67367276D01*
X184453911Y-67371220D01*
X184450951Y-67371593D01*
X184433949Y-67373742D01*
X184433945Y-67373743D01*
X184433942Y-67373744D01*
X184393192Y-67389877D01*
X184382148Y-67393658D01*
X184340051Y-67405889D01*
X184340048Y-67405891D01*
X184322722Y-67416137D01*
X184305252Y-67424695D01*
X184286540Y-67432103D01*
X184251068Y-67457874D01*
X184241308Y-67464285D01*
X184203588Y-67486592D01*
X184189348Y-67500832D01*
X184174562Y-67513460D01*
X184158275Y-67525294D01*
X184130332Y-67559070D01*
X184122471Y-67567708D01*
X183191090Y-68499089D01*
X183129767Y-68532574D01*
X183060075Y-68527590D01*
X183004142Y-68485718D01*
X182996022Y-68473408D01*
X182982738Y-68450399D01*
X182920752Y-68343037D01*
X182803909Y-68213269D01*
X182803907Y-68213267D01*
X182662642Y-68110632D01*
X182662637Y-68110629D01*
X182503119Y-68039606D01*
X182503113Y-68039604D01*
X182329389Y-68002679D01*
X182267907Y-67969487D01*
X182267489Y-67969070D01*
X179691895Y-65393476D01*
X185172738Y-65393476D01*
X185172738Y-65643462D01*
X185183231Y-65746173D01*
X185238378Y-65912595D01*
X185238380Y-65912600D01*
X185330421Y-66061821D01*
X185454391Y-66185791D01*
X185603612Y-66277832D01*
X185603617Y-66277834D01*
X185770039Y-66332981D01*
X185770046Y-66332982D01*
X185872756Y-66343475D01*
X186022736Y-66343475D01*
X186022737Y-66343474D01*
X186022737Y-65393476D01*
X185172738Y-65393476D01*
X179691895Y-65393476D01*
X179191895Y-64893476D01*
X185172737Y-64893476D01*
X186022737Y-64893476D01*
X186022737Y-63943476D01*
X185872764Y-63943476D01*
X185872749Y-63943477D01*
X185770039Y-63953970D01*
X185603617Y-64009117D01*
X185603612Y-64009119D01*
X185454391Y-64101160D01*
X185330421Y-64225130D01*
X185238380Y-64374351D01*
X185238378Y-64374356D01*
X185183231Y-64540778D01*
X185183230Y-64540785D01*
X185172737Y-64643489D01*
X185172737Y-64893476D01*
X179191895Y-64893476D01*
X177630100Y-63331681D01*
X177596615Y-63270358D01*
X177601599Y-63200666D01*
X177643471Y-63144733D01*
X177708935Y-63120316D01*
X177717781Y-63120000D01*
X180721000Y-63120000D01*
X186563000Y-63120000D01*
X187566541Y-63120000D01*
X187633580Y-63139685D01*
G37*
%TD.AperFunction*%
%TA.AperFunction,Conductor*%
G36*
X192355000Y-64262000D02*
G01*
X192355000Y-64450300D01*
X192335315Y-64517339D01*
X192282511Y-64563094D01*
X192231000Y-64574300D01*
X189463418Y-64574300D01*
X189396379Y-64554615D01*
X189350624Y-64501811D01*
X189345712Y-64489304D01*
X189332787Y-64450300D01*
X189307551Y-64374142D01*
X189215449Y-64224820D01*
X189091393Y-64100764D01*
X189091392Y-64100763D01*
X189004443Y-64047132D01*
X188957719Y-63995184D01*
X188945541Y-63941594D01*
X188945541Y-63244000D01*
X188965226Y-63176961D01*
X189018030Y-63131206D01*
X189069541Y-63120000D01*
X191389000Y-63120000D01*
X192355000Y-63120000D01*
X192355000Y-64262000D01*
G37*
%TD.AperFunction*%
%TD*%
M02*
