%TF.GenerationSoftware,KiCad,Pcbnew,7.0.10*%
%TF.CreationDate,2024-03-07T19:45:30-05:00*%
%TF.ProjectId,TrumpetMelody,5472756d-7065-4744-9d65-6c6f64792e6b,rev?*%
%TF.SameCoordinates,Original*%
%TF.FileFunction,Paste,Top*%
%TF.FilePolarity,Positive*%
%FSLAX46Y46*%
G04 Gerber Fmt 4.6, Leading zero omitted, Abs format (unit mm)*
G04 Created by KiCad (PCBNEW 7.0.10) date 2024-03-07 19:45:30*
%MOMM*%
%LPD*%
G01*
G04 APERTURE LIST*
G04 Aperture macros list*
%AMRoundRect*
0 Rectangle with rounded corners*
0 $1 Rounding radius*
0 $2 $3 $4 $5 $6 $7 $8 $9 X,Y pos of 4 corners*
0 Add a 4 corners polygon primitive as box body*
4,1,4,$2,$3,$4,$5,$6,$7,$8,$9,$2,$3,0*
0 Add four circle primitives for the rounded corners*
1,1,$1+$1,$2,$3*
1,1,$1+$1,$4,$5*
1,1,$1+$1,$6,$7*
1,1,$1+$1,$8,$9*
0 Add four rect primitives between the rounded corners*
20,1,$1+$1,$2,$3,$4,$5,0*
20,1,$1+$1,$4,$5,$6,$7,0*
20,1,$1+$1,$6,$7,$8,$9,0*
20,1,$1+$1,$8,$9,$2,$3,0*%
%AMRotRect*
0 Rectangle, with rotation*
0 The origin of the aperture is its center*
0 $1 length*
0 $2 width*
0 $3 Rotation angle, in degrees counterclockwise*
0 Add horizontal line*
21,1,$1,$2,0,0,$3*%
G04 Aperture macros list end*
%ADD10R,1.285000X1.470000*%
%ADD11RoundRect,0.250000X-0.450000X0.350000X-0.450000X-0.350000X0.450000X-0.350000X0.450000X0.350000X0*%
%ADD12RoundRect,0.250000X-0.350000X-0.450000X0.350000X-0.450000X0.350000X0.450000X-0.350000X0.450000X0*%
%ADD13RoundRect,0.250000X-0.070711X0.565685X-0.565685X0.070711X0.070711X-0.565685X0.565685X-0.070711X0*%
%ADD14RoundRect,0.250000X0.070711X-0.565685X0.565685X-0.070711X-0.070711X0.565685X-0.565685X0.070711X0*%
%ADD15RoundRect,0.250000X-0.097227X0.574524X-0.574524X0.097227X0.097227X-0.574524X0.574524X-0.097227X0*%
%ADD16RoundRect,0.250000X0.337500X0.475000X-0.337500X0.475000X-0.337500X-0.475000X0.337500X-0.475000X0*%
%ADD17RoundRect,0.243750X-0.494975X-0.150260X-0.150260X-0.494975X0.494975X0.150260X0.150260X0.494975X0*%
%ADD18RoundRect,0.250000X0.350000X0.450000X-0.350000X0.450000X-0.350000X-0.450000X0.350000X-0.450000X0*%
%ADD19RoundRect,0.243750X0.456250X-0.243750X0.456250X0.243750X-0.456250X0.243750X-0.456250X-0.243750X0*%
%ADD20RoundRect,0.250000X-0.565685X-0.070711X-0.070711X-0.565685X0.565685X0.070711X0.070711X0.565685X0*%
%ADD21RoundRect,0.250000X-0.475000X0.337500X-0.475000X-0.337500X0.475000X-0.337500X0.475000X0.337500X0*%
%ADD22RoundRect,0.250000X0.450000X-0.350000X0.450000X0.350000X-0.450000X0.350000X-0.450000X-0.350000X0*%
%ADD23RoundRect,0.250000X0.450000X-0.325000X0.450000X0.325000X-0.450000X0.325000X-0.450000X-0.325000X0*%
%ADD24R,0.254000X1.498600*%
%ADD25R,1.498600X0.254000*%
%ADD26R,1.244600X1.244600*%
%ADD27RoundRect,0.250000X-0.450000X0.325000X-0.450000X-0.325000X0.450000X-0.325000X0.450000X0.325000X0*%
%ADD28R,0.650000X1.560000*%
%ADD29R,3.500000X3.000000*%
%ADD30RoundRect,0.243750X-0.243750X-0.456250X0.243750X-0.456250X0.243750X0.456250X-0.243750X0.456250X0*%
%ADD31R,1.000000X2.250000*%
%ADD32RoundRect,0.250000X-0.325000X-0.450000X0.325000X-0.450000X0.325000X0.450000X-0.325000X0.450000X0*%
%ADD33RoundRect,0.250000X-0.337500X-0.475000X0.337500X-0.475000X0.337500X0.475000X-0.337500X0.475000X0*%
%ADD34RotRect,1.285000X1.470000X315.000000*%
%ADD35RoundRect,0.250000X-0.412500X-0.650000X0.412500X-0.650000X0.412500X0.650000X-0.412500X0.650000X0*%
%ADD36RoundRect,0.075000X0.441942X0.548008X-0.548008X-0.441942X-0.441942X-0.548008X0.548008X0.441942X0*%
%ADD37RoundRect,0.075000X-0.441942X0.548008X-0.548008X0.441942X0.441942X-0.548008X0.548008X-0.441942X0*%
%ADD38RoundRect,0.243750X0.243750X0.456250X-0.243750X0.456250X-0.243750X-0.456250X0.243750X-0.456250X0*%
%ADD39R,0.700000X0.450000*%
%ADD40RoundRect,0.088500X-0.516500X-0.206500X0.516500X-0.206500X0.516500X0.206500X-0.516500X0.206500X0*%
%ADD41RoundRect,0.250000X0.097227X-0.574524X0.574524X-0.097227X-0.097227X0.574524X-0.574524X0.097227X0*%
%ADD42RoundRect,0.250000X0.625000X-0.400000X0.625000X0.400000X-0.625000X0.400000X-0.625000X-0.400000X0*%
G04 APERTURE END LIST*
D10*
%TO.C,FB5*%
X203878000Y-112014000D03*
X205824000Y-112014000D03*
%TD*%
D11*
%TO.C,R15*%
X218097000Y-71866000D03*
X218097000Y-73866000D03*
%TD*%
D12*
%TO.C,R4*%
X174133000Y-55626000D03*
X176133000Y-55626000D03*
%TD*%
D13*
%TO.C,R23*%
X184294214Y-95105786D03*
X182880000Y-96520000D03*
%TD*%
D14*
%TO.C,R3*%
X172901893Y-59381107D03*
X174316107Y-57966893D03*
%TD*%
%TO.C,R11*%
X193040000Y-102870000D03*
X194454214Y-101455786D03*
%TD*%
D12*
%TO.C,R20*%
X186318041Y-61770219D03*
X188318041Y-61770219D03*
%TD*%
D15*
%TO.C,C17*%
X215836078Y-55937745D03*
X214368832Y-57404991D03*
%TD*%
D16*
%TO.C,C19*%
X188342060Y-58301493D03*
X186267060Y-58301493D03*
%TD*%
D17*
%TO.C,D1*%
X170914087Y-53185087D03*
X172239913Y-54510913D03*
%TD*%
D10*
%TO.C,FB2*%
X210144000Y-96520000D03*
X212090000Y-96520000D03*
%TD*%
D18*
%TO.C,R9*%
X208904403Y-62394663D03*
X206904403Y-62394663D03*
%TD*%
D19*
%TO.C,D2*%
X211963000Y-55547500D03*
X211963000Y-53672500D03*
%TD*%
D20*
%TO.C,R26*%
X199245786Y-98280786D03*
X200660000Y-99695000D03*
%TD*%
D21*
%TO.C,C13*%
X191770000Y-107145000D03*
X191770000Y-109220000D03*
%TD*%
D12*
%TO.C,R21*%
X176381296Y-102761319D03*
X178381296Y-102761319D03*
%TD*%
D22*
%TO.C,R18*%
X220328375Y-59632634D03*
X220328375Y-57632634D03*
%TD*%
D10*
%TO.C,FB3*%
X212131000Y-100330000D03*
X210185000Y-100330000D03*
%TD*%
D13*
%TO.C,R2*%
X195269214Y-86955786D03*
X193855000Y-88370000D03*
%TD*%
D23*
%TO.C,D13*%
X221784857Y-79599857D03*
X221784857Y-77549857D03*
%TD*%
D24*
%TO.C,U3*%
X199505001Y-102984300D03*
X199005000Y-102984300D03*
X198505000Y-102984300D03*
X198004999Y-102984300D03*
D25*
X196964300Y-104024999D03*
X196964300Y-104525000D03*
X196964300Y-105025000D03*
X196964300Y-105525001D03*
D24*
X198004999Y-106565700D03*
X198505000Y-106565700D03*
X199005000Y-106565700D03*
X199505001Y-106565700D03*
D25*
X200545700Y-105525001D03*
X200545700Y-105025000D03*
X200545700Y-104525000D03*
X200545700Y-104024999D03*
D26*
X198755000Y-104775000D03*
%TD*%
D27*
%TO.C,D10*%
X150495000Y-66530000D03*
X150495000Y-68580000D03*
%TD*%
D28*
%TO.C,U2*%
X159065000Y-85010000D03*
X158115000Y-85010000D03*
X157165000Y-85010000D03*
X157165000Y-87710000D03*
X159065000Y-87710000D03*
%TD*%
D29*
%TO.C,LQH1*%
X152781000Y-86280000D03*
X152781000Y-81280000D03*
%TD*%
D30*
%TO.C,D3*%
X186133500Y-55372000D03*
X188008500Y-55372000D03*
%TD*%
D21*
%TO.C,C12*%
X212831667Y-107578444D03*
X212831667Y-109653444D03*
%TD*%
%TO.C,C10*%
X186690000Y-107145000D03*
X186690000Y-109220000D03*
%TD*%
D12*
%TO.C,R6*%
X186272737Y-65143476D03*
X188272737Y-65143476D03*
%TD*%
D31*
%TO.C,SW1*%
X205105000Y-77470000D03*
X205105000Y-83470000D03*
X201105000Y-77470000D03*
X201105000Y-83470000D03*
%TD*%
D12*
%TO.C,R22*%
X180340000Y-100965000D03*
X182340000Y-100965000D03*
%TD*%
D22*
%TO.C,R17*%
X150495000Y-73025000D03*
X150495000Y-71025000D03*
%TD*%
D12*
%TO.C,R8*%
X213965738Y-64805458D03*
X215965738Y-64805458D03*
%TD*%
D32*
%TO.C,D7*%
X195952000Y-59877781D03*
X198002000Y-59877781D03*
%TD*%
D23*
%TO.C,D12*%
X218097000Y-79581000D03*
X218097000Y-77531000D03*
%TD*%
D33*
%TO.C,C6*%
X200677011Y-73914000D03*
X202752011Y-73914000D03*
%TD*%
%TO.C,C9*%
X194394000Y-81534000D03*
X196469000Y-81534000D03*
%TD*%
D12*
%TO.C,R19*%
X201233946Y-59823090D03*
X203233946Y-59823090D03*
%TD*%
D15*
%TO.C,C11*%
X175431846Y-62058154D03*
X173964600Y-63525400D03*
%TD*%
D33*
%TO.C,C18*%
X206874152Y-58783961D03*
X208949152Y-58783961D03*
%TD*%
D22*
%TO.C,R1*%
X198322970Y-77747943D03*
X198322970Y-75747943D03*
%TD*%
D34*
%TO.C,FB4*%
X190368570Y-70480570D03*
X191744600Y-71856600D03*
%TD*%
D22*
%TO.C,R7*%
X196035339Y-54695220D03*
X196035339Y-52695220D03*
%TD*%
D20*
%TO.C,R25*%
X196929515Y-90899070D03*
X198343729Y-92313284D03*
%TD*%
D23*
%TO.C,D11*%
X214468000Y-79581000D03*
X214468000Y-77531000D03*
%TD*%
D32*
%TO.C,D9*%
X181467602Y-61802042D03*
X183517602Y-61802042D03*
%TD*%
D33*
%TO.C,GRM21*%
X156569500Y-80264000D03*
X158644500Y-80264000D03*
%TD*%
D21*
%TO.C,C14*%
X209042338Y-107578444D03*
X209042338Y-109653444D03*
%TD*%
D35*
%TO.C,GRM31*%
X156298500Y-91440000D03*
X159423500Y-91440000D03*
%TD*%
D10*
%TO.C,FB1*%
X175605000Y-70620000D03*
X177551000Y-70620000D03*
%TD*%
D14*
%TO.C,R24*%
X188450786Y-95394214D03*
X189865000Y-93980000D03*
%TD*%
D36*
%TO.C,U1*%
X191750464Y-82003302D03*
X191396911Y-81649749D03*
X191043358Y-81296196D03*
X190689804Y-80942642D03*
X190336251Y-80589089D03*
X189982697Y-80235535D03*
X189629144Y-79881982D03*
X189275591Y-79528429D03*
X188922037Y-79174875D03*
X188568484Y-78821322D03*
X188214931Y-78467769D03*
X187861377Y-78114215D03*
X187507824Y-77760662D03*
X187154270Y-77407108D03*
X186800717Y-77053555D03*
X186447164Y-76700002D03*
D37*
X183724802Y-76700002D03*
X183371249Y-77053555D03*
X183017696Y-77407108D03*
X182664142Y-77760662D03*
X182310589Y-78114215D03*
X181957035Y-78467769D03*
X181603482Y-78821322D03*
X181249929Y-79174875D03*
X180896375Y-79528429D03*
X180542822Y-79881982D03*
X180189269Y-80235535D03*
X179835715Y-80589089D03*
X179482162Y-80942642D03*
X179128608Y-81296196D03*
X178775055Y-81649749D03*
X178421502Y-82003302D03*
D36*
X178421502Y-84725664D03*
X178775055Y-85079217D03*
X179128608Y-85432770D03*
X179482162Y-85786324D03*
X179835715Y-86139877D03*
X180189269Y-86493431D03*
X180542822Y-86846984D03*
X180896375Y-87200537D03*
X181249929Y-87554091D03*
X181603482Y-87907644D03*
X181957035Y-88261197D03*
X182310589Y-88614751D03*
X182664142Y-88968304D03*
X183017696Y-89321858D03*
X183371249Y-89675411D03*
X183724802Y-90028964D03*
D37*
X186447164Y-90028964D03*
X186800717Y-89675411D03*
X187154270Y-89321858D03*
X187507824Y-88968304D03*
X187861377Y-88614751D03*
X188214931Y-88261197D03*
X188568484Y-87907644D03*
X188922037Y-87554091D03*
X189275591Y-87200537D03*
X189629144Y-86846984D03*
X189982697Y-86493431D03*
X190336251Y-86139877D03*
X190689804Y-85786324D03*
X191043358Y-85432770D03*
X191396911Y-85079217D03*
X191750464Y-84725664D03*
%TD*%
D11*
%TO.C,R14*%
X214468000Y-71866000D03*
X214468000Y-73866000D03*
%TD*%
D38*
%TO.C,D4*%
X208582500Y-55880000D03*
X206707500Y-55880000D03*
%TD*%
D11*
%TO.C,R16*%
X221731500Y-71894894D03*
X221731500Y-73894894D03*
%TD*%
D18*
%TO.C,R5*%
X211662118Y-50938708D03*
X209662118Y-50938708D03*
%TD*%
D39*
%TO.C,U4*%
X194453000Y-77328000D03*
X194453000Y-78628000D03*
X196453000Y-77978000D03*
%TD*%
D11*
%TO.C,ERJ1*%
X163195000Y-84598000D03*
X163195000Y-86598000D03*
%TD*%
D40*
%TO.C,U5*%
X164495000Y-106050000D03*
X164495000Y-107000000D03*
X164495000Y-107950000D03*
X167005000Y-107950000D03*
X167005000Y-106050000D03*
%TD*%
D18*
%TO.C,R10*%
X203168000Y-55905400D03*
X201168000Y-55905400D03*
%TD*%
D41*
%TO.C,C16*%
X179075954Y-75889246D03*
X180543200Y-74422000D03*
%TD*%
D42*
%TO.C,RC1206*%
X167005000Y-87910000D03*
X167005000Y-84810000D03*
%TD*%
D23*
%TO.C,D8*%
X220334656Y-64309273D03*
X220334656Y-62259273D03*
%TD*%
M02*
