%TF.GenerationSoftware,KiCad,Pcbnew,7.0.10*%
%TF.CreationDate,2024-03-07T19:45:30-05:00*%
%TF.ProjectId,TrumpetMelody,5472756d-7065-4744-9d65-6c6f64792e6b,rev?*%
%TF.SameCoordinates,Original*%
%TF.FileFunction,Soldermask,Top*%
%TF.FilePolarity,Negative*%
%FSLAX46Y46*%
G04 Gerber Fmt 4.6, Leading zero omitted, Abs format (unit mm)*
G04 Created by KiCad (PCBNEW 7.0.10) date 2024-03-07 19:45:30*
%MOMM*%
%LPD*%
G01*
G04 APERTURE LIST*
G04 Aperture macros list*
%AMRoundRect*
0 Rectangle with rounded corners*
0 $1 Rounding radius*
0 $2 $3 $4 $5 $6 $7 $8 $9 X,Y pos of 4 corners*
0 Add a 4 corners polygon primitive as box body*
4,1,4,$2,$3,$4,$5,$6,$7,$8,$9,$2,$3,0*
0 Add four circle primitives for the rounded corners*
1,1,$1+$1,$2,$3*
1,1,$1+$1,$4,$5*
1,1,$1+$1,$6,$7*
1,1,$1+$1,$8,$9*
0 Add four rect primitives between the rounded corners*
20,1,$1+$1,$2,$3,$4,$5,0*
20,1,$1+$1,$4,$5,$6,$7,0*
20,1,$1+$1,$6,$7,$8,$9,0*
20,1,$1+$1,$8,$9,$2,$3,0*%
%AMHorizOval*
0 Thick line with rounded ends*
0 $1 width*
0 $2 $3 position (X,Y) of the first rounded end (center of the circle)*
0 $4 $5 position (X,Y) of the second rounded end (center of the circle)*
0 Add line between two ends*
20,1,$1,$2,$3,$4,$5,0*
0 Add two circle primitives to create the rounded ends*
1,1,$1,$2,$3*
1,1,$1,$4,$5*%
G04 Aperture macros list end*
%ADD10RoundRect,0.102000X-0.642500X-0.735000X0.642500X-0.735000X0.642500X0.735000X-0.642500X0.735000X0*%
%ADD11RoundRect,0.102000X-0.685000X-0.685000X0.685000X-0.685000X0.685000X0.685000X-0.685000X0.685000X0*%
%ADD12C,1.574000*%
%ADD13RoundRect,0.265833X-0.472167X0.372167X-0.472167X-0.372167X0.472167X-0.372167X0.472167X0.372167X0*%
%ADD14RoundRect,0.265833X-0.372167X-0.472167X0.372167X-0.472167X0.372167X0.472167X-0.372167X0.472167X0*%
%ADD15RoundRect,0.265833X-0.070711X0.597034X-0.597034X0.070711X0.070711X-0.597034X0.597034X-0.070711X0*%
%ADD16RoundRect,0.265833X0.070711X-0.597034X0.597034X-0.070711X-0.070711X0.597034X-0.597034X0.070711X0*%
%ADD17RoundRect,0.266170X-0.097227X0.605397X-0.605397X0.097227X0.097227X-0.605397X0.605397X-0.097227X0*%
%ADD18RoundRect,0.266170X0.359330X0.496830X-0.359330X0.496830X-0.359330X-0.496830X0.359330X-0.496830X0*%
%ADD19C,3.576000*%
%ADD20RoundRect,0.262750X-0.521845X-0.150260X-0.150260X-0.521845X0.521845X0.150260X0.150260X0.521845X0*%
%ADD21RoundRect,0.265833X0.372167X0.472167X-0.372167X0.472167X-0.372167X-0.472167X0.372167X-0.472167X0*%
%ADD22RoundRect,0.262750X0.475250X-0.262750X0.475250X0.262750X-0.475250X0.262750X-0.475250X-0.262750X0*%
%ADD23RoundRect,0.265833X-0.597034X-0.070711X-0.070711X-0.597034X0.597034X0.070711X0.070711X0.597034X0*%
%ADD24C,1.412000*%
%ADD25O,2.620000X1.412000*%
%ADD26RoundRect,0.266170X-0.496830X0.359330X-0.496830X-0.359330X0.496830X-0.359330X0.496830X0.359330X0*%
%ADD27RoundRect,0.265833X0.472167X-0.372167X0.472167X0.372167X-0.472167X0.372167X-0.472167X-0.372167X0*%
%ADD28RoundRect,0.102000X0.642500X0.735000X-0.642500X0.735000X-0.642500X-0.735000X0.642500X-0.735000X0*%
%ADD29RoundRect,0.266522X0.471478X-0.346478X0.471478X0.346478X-0.471478X0.346478X-0.471478X-0.346478X0*%
%ADD30RoundRect,0.038000X-0.127000X-0.749300X0.127000X-0.749300X0.127000X0.749300X-0.127000X0.749300X0*%
%ADD31RoundRect,0.038000X-0.749300X0.127000X-0.749300X-0.127000X0.749300X-0.127000X0.749300X0.127000X0*%
%ADD32RoundRect,0.038000X-0.622300X0.622300X-0.622300X-0.622300X0.622300X-0.622300X0.622300X0.622300X0*%
%ADD33RoundRect,0.266522X-0.471478X0.346478X-0.471478X-0.346478X0.471478X-0.346478X0.471478X0.346478X0*%
%ADD34RoundRect,0.038000X-0.325000X0.780000X-0.325000X-0.780000X0.325000X-0.780000X0.325000X0.780000X0*%
%ADD35RoundRect,0.038000X1.750000X-1.500000X1.750000X1.500000X-1.750000X1.500000X-1.750000X-1.500000X0*%
%ADD36RoundRect,0.262750X-0.262750X-0.475250X0.262750X-0.475250X0.262750X0.475250X-0.262750X0.475250X0*%
%ADD37RoundRect,0.038000X-0.500000X1.125000X-0.500000X-1.125000X0.500000X-1.125000X0.500000X1.125000X0*%
%ADD38RoundRect,0.266522X-0.346478X-0.471478X0.346478X-0.471478X0.346478X0.471478X-0.346478X0.471478X0*%
%ADD39C,3.076000*%
%ADD40RoundRect,0.266170X-0.359330X-0.496830X0.359330X-0.496830X0.359330X0.496830X-0.359330X0.496830X0*%
%ADD41RoundRect,0.102000X-0.974040X-0.065407X-0.065407X-0.974040X0.974040X0.065407X0.065407X0.974040X0*%
%ADD42RoundRect,0.038000X1.202082X0.000000X0.000000X1.202082X-1.202082X0.000000X0.000000X-1.202082X0*%
%ADD43HorizOval,1.776000X0.000000X0.000000X0.000000X0.000000X0*%
%ADD44RoundRect,0.264340X-0.436160X-0.673660X0.436160X-0.673660X0.436160X0.673660X-0.436160X0.673660X0*%
%ADD45RoundRect,0.094000X0.441942X0.574878X-0.574878X-0.441942X-0.441942X-0.574878X0.574878X0.441942X0*%
%ADD46RoundRect,0.094000X-0.441942X0.574878X-0.574878X0.441942X0.441942X-0.574878X0.574878X-0.441942X0*%
%ADD47RoundRect,0.262750X0.262750X0.475250X-0.262750X0.475250X-0.262750X-0.475250X0.262750X-0.475250X0*%
%ADD48RoundRect,0.038000X-0.350000X0.225000X-0.350000X-0.225000X0.350000X-0.225000X0.350000X0.225000X0*%
%ADD49RoundRect,0.119100X-0.587900X-0.277900X0.587900X-0.277900X0.587900X0.277900X-0.587900X0.277900X0*%
%ADD50RoundRect,0.102000X0.685000X-0.685000X0.685000X0.685000X-0.685000X0.685000X-0.685000X-0.685000X0*%
%ADD51RoundRect,0.266170X0.097227X-0.605397X0.605397X-0.097227X-0.097227X0.605397X-0.605397X0.097227X0*%
%ADD52RoundRect,0.264615X0.648385X-0.423385X0.648385X0.423385X-0.648385X0.423385X-0.648385X-0.423385X0*%
%ADD53C,0.736400*%
%ADD54C,1.092000*%
%ADD55C,1.876000*%
G04 APERTURE END LIST*
D10*
%TO.C,FB5*%
X203878000Y-112014000D03*
X205824000Y-112014000D03*
%TD*%
D11*
%TO.C,J3*%
X205613000Y-51054000D03*
D12*
X203073000Y-51054000D03*
X200533000Y-51054000D03*
%TD*%
D13*
%TO.C,R15*%
X218097000Y-71866000D03*
X218097000Y-73866000D03*
%TD*%
D14*
%TO.C,R4*%
X174133000Y-55626000D03*
X176133000Y-55626000D03*
%TD*%
D15*
%TO.C,R23*%
X184294214Y-95105786D03*
X182880000Y-96520000D03*
%TD*%
D16*
%TO.C,R3*%
X172901893Y-59381107D03*
X174316107Y-57966893D03*
%TD*%
%TO.C,R11*%
X193040000Y-102870000D03*
X194454214Y-101455786D03*
%TD*%
D14*
%TO.C,R20*%
X186318041Y-61770219D03*
X188318041Y-61770219D03*
%TD*%
D17*
%TO.C,C17*%
X215836078Y-55937745D03*
X214368832Y-57404991D03*
%TD*%
D18*
%TO.C,C19*%
X188342060Y-58301493D03*
X186267060Y-58301493D03*
%TD*%
D19*
%TO.C,H3*%
X218440000Y-109220000D03*
%TD*%
D20*
%TO.C,D1*%
X170914087Y-53185087D03*
X172239913Y-54510913D03*
%TD*%
D10*
%TO.C,FB2*%
X210144000Y-96520000D03*
X212090000Y-96520000D03*
%TD*%
D21*
%TO.C,R9*%
X208904403Y-62394663D03*
X206904403Y-62394663D03*
%TD*%
D22*
%TO.C,D2*%
X211963000Y-55547500D03*
X211963000Y-53672500D03*
%TD*%
D11*
%TO.C,J4*%
X167513000Y-51054000D03*
D12*
X164973000Y-51054000D03*
X162433000Y-51054000D03*
%TD*%
D23*
%TO.C,R26*%
X199245786Y-98280786D03*
X200660000Y-99695000D03*
%TD*%
D24*
%TO.C,J1*%
X154286352Y-97874978D03*
X153086352Y-98674978D03*
X154286352Y-99474978D03*
X153086352Y-100274978D03*
X154286352Y-101074978D03*
D25*
X149236352Y-103124978D03*
X149236352Y-95824978D03*
%TD*%
D26*
%TO.C,C13*%
X191770000Y-107145000D03*
X191770000Y-109220000D03*
%TD*%
D14*
%TO.C,R21*%
X176381296Y-102761319D03*
X178381296Y-102761319D03*
%TD*%
D27*
%TO.C,R18*%
X220328375Y-59632634D03*
X220328375Y-57632634D03*
%TD*%
D28*
%TO.C,FB3*%
X212131000Y-100330000D03*
X210185000Y-100330000D03*
%TD*%
D15*
%TO.C,R2*%
X195269214Y-86955786D03*
X193855000Y-88370000D03*
%TD*%
D29*
%TO.C,D13*%
X221784857Y-79599857D03*
X221784857Y-77549857D03*
%TD*%
D30*
%TO.C,U3*%
X199505001Y-102984300D03*
X199005000Y-102984300D03*
X198505000Y-102984300D03*
X198004999Y-102984300D03*
D31*
X196964300Y-104024999D03*
X196964300Y-104525000D03*
X196964300Y-105025000D03*
X196964300Y-105525001D03*
D30*
X198004999Y-106565700D03*
X198505000Y-106565700D03*
X199005000Y-106565700D03*
X199505001Y-106565700D03*
D31*
X200545700Y-105525001D03*
X200545700Y-105025000D03*
X200545700Y-104525000D03*
X200545700Y-104024999D03*
D32*
X198755000Y-104775000D03*
%TD*%
D33*
%TO.C,D10*%
X150495000Y-66530000D03*
X150495000Y-68580000D03*
%TD*%
D34*
%TO.C,U2*%
X159065000Y-85010000D03*
X158115000Y-85010000D03*
X157165000Y-85010000D03*
X157165000Y-87710000D03*
X159065000Y-87710000D03*
%TD*%
D35*
%TO.C,LQH1*%
X152781000Y-86280000D03*
X152781000Y-81280000D03*
%TD*%
D36*
%TO.C,D3*%
X186133500Y-55372000D03*
X188008500Y-55372000D03*
%TD*%
D26*
%TO.C,C12*%
X212831667Y-107578444D03*
X212831667Y-109653444D03*
%TD*%
%TO.C,C10*%
X186690000Y-107145000D03*
X186690000Y-109220000D03*
%TD*%
D14*
%TO.C,R6*%
X186272737Y-65143476D03*
X188272737Y-65143476D03*
%TD*%
D11*
%TO.C,RV1*%
X186255606Y-50919442D03*
D12*
X183715606Y-50919442D03*
X181175606Y-50919442D03*
%TD*%
D37*
%TO.C,SW1*%
X205105000Y-77470000D03*
X205105000Y-83470000D03*
X201105000Y-77470000D03*
X201105000Y-83470000D03*
%TD*%
D14*
%TO.C,R22*%
X180340000Y-100965000D03*
X182340000Y-100965000D03*
%TD*%
D27*
%TO.C,R17*%
X150495000Y-73025000D03*
X150495000Y-71025000D03*
%TD*%
D14*
%TO.C,R8*%
X213965738Y-64805458D03*
X215965738Y-64805458D03*
%TD*%
D38*
%TO.C,D7*%
X195952000Y-59877781D03*
X198002000Y-59877781D03*
%TD*%
D29*
%TO.C,D12*%
X218097000Y-79581000D03*
X218097000Y-77531000D03*
%TD*%
D39*
%TO.C,GND TP*%
X220855000Y-90620000D03*
%TD*%
D40*
%TO.C,C6*%
X200677011Y-73914000D03*
X202752011Y-73914000D03*
%TD*%
%TO.C,C9*%
X194394000Y-81534000D03*
X196469000Y-81534000D03*
%TD*%
D14*
%TO.C,R19*%
X201233946Y-59823090D03*
X203233946Y-59823090D03*
%TD*%
D17*
%TO.C,C11*%
X175431846Y-62058154D03*
X173964600Y-63525400D03*
%TD*%
D40*
%TO.C,C18*%
X206874152Y-58783961D03*
X208949152Y-58783961D03*
%TD*%
D27*
%TO.C,R1*%
X198322970Y-77747943D03*
X198322970Y-75747943D03*
%TD*%
D19*
%TO.C,H4*%
X152400000Y-109220000D03*
%TD*%
%TO.C,H2*%
X218440000Y-50800000D03*
%TD*%
D41*
%TO.C,FB4*%
X190368570Y-70480570D03*
X191744600Y-71856600D03*
%TD*%
D27*
%TO.C,R7*%
X196035339Y-54695220D03*
X196035339Y-52695220D03*
%TD*%
D19*
%TO.C,H1*%
X152400000Y-50800000D03*
%TD*%
D23*
%TO.C,R25*%
X196929515Y-90899070D03*
X198343729Y-92313284D03*
%TD*%
D29*
%TO.C,D11*%
X214468000Y-79581000D03*
X214468000Y-77531000D03*
%TD*%
D38*
%TO.C,D9*%
X181467602Y-61802042D03*
X183517602Y-61802042D03*
%TD*%
D40*
%TO.C,GRM21*%
X156569500Y-80264000D03*
X158644500Y-80264000D03*
%TD*%
D26*
%TO.C,C14*%
X209042338Y-107578444D03*
X209042338Y-109653444D03*
%TD*%
D42*
%TO.C,J2*%
X187960000Y-100965000D03*
D43*
X189756051Y-99168949D03*
X191552102Y-97372898D03*
X193348154Y-95576846D03*
X195144205Y-93780795D03*
%TD*%
D44*
%TO.C,GRM31*%
X156298500Y-91440000D03*
X159423500Y-91440000D03*
%TD*%
D10*
%TO.C,FB1*%
X175605000Y-70620000D03*
X177551000Y-70620000D03*
%TD*%
D16*
%TO.C,R24*%
X188450786Y-95394214D03*
X189865000Y-93980000D03*
%TD*%
D45*
%TO.C,U1*%
X191750464Y-82003302D03*
X191396911Y-81649749D03*
X191043358Y-81296196D03*
X190689804Y-80942642D03*
X190336251Y-80589089D03*
X189982697Y-80235535D03*
X189629144Y-79881982D03*
X189275591Y-79528429D03*
X188922037Y-79174875D03*
X188568484Y-78821322D03*
X188214931Y-78467769D03*
X187861377Y-78114215D03*
X187507824Y-77760662D03*
X187154270Y-77407108D03*
X186800717Y-77053555D03*
X186447164Y-76700002D03*
D46*
X183724802Y-76700002D03*
X183371249Y-77053555D03*
X183017696Y-77407108D03*
X182664142Y-77760662D03*
X182310589Y-78114215D03*
X181957035Y-78467769D03*
X181603482Y-78821322D03*
X181249929Y-79174875D03*
X180896375Y-79528429D03*
X180542822Y-79881982D03*
X180189269Y-80235535D03*
X179835715Y-80589089D03*
X179482162Y-80942642D03*
X179128608Y-81296196D03*
X178775055Y-81649749D03*
X178421502Y-82003302D03*
D45*
X178421502Y-84725664D03*
X178775055Y-85079217D03*
X179128608Y-85432770D03*
X179482162Y-85786324D03*
X179835715Y-86139877D03*
X180189269Y-86493431D03*
X180542822Y-86846984D03*
X180896375Y-87200537D03*
X181249929Y-87554091D03*
X181603482Y-87907644D03*
X181957035Y-88261197D03*
X182310589Y-88614751D03*
X182664142Y-88968304D03*
X183017696Y-89321858D03*
X183371249Y-89675411D03*
X183724802Y-90028964D03*
D46*
X186447164Y-90028964D03*
X186800717Y-89675411D03*
X187154270Y-89321858D03*
X187507824Y-88968304D03*
X187861377Y-88614751D03*
X188214931Y-88261197D03*
X188568484Y-87907644D03*
X188922037Y-87554091D03*
X189275591Y-87200537D03*
X189629144Y-86846984D03*
X189982697Y-86493431D03*
X190336251Y-86139877D03*
X190689804Y-85786324D03*
X191043358Y-85432770D03*
X191396911Y-85079217D03*
X191750464Y-84725664D03*
%TD*%
D13*
%TO.C,R14*%
X214468000Y-71866000D03*
X214468000Y-73866000D03*
%TD*%
D47*
%TO.C,D4*%
X208582500Y-55880000D03*
X206707500Y-55880000D03*
%TD*%
D13*
%TO.C,R16*%
X221731500Y-71894894D03*
X221731500Y-73894894D03*
%TD*%
D21*
%TO.C,R5*%
X211662118Y-50938708D03*
X209662118Y-50938708D03*
%TD*%
D48*
%TO.C,U4*%
X194453000Y-77328000D03*
X194453000Y-78628000D03*
X196453000Y-77978000D03*
%TD*%
D13*
%TO.C,ERJ1*%
X163195000Y-84598000D03*
X163195000Y-86598000D03*
%TD*%
D49*
%TO.C,U5*%
X164495000Y-106050000D03*
X164495000Y-107000000D03*
X164495000Y-107950000D03*
X167005000Y-107950000D03*
X167005000Y-106050000D03*
%TD*%
D21*
%TO.C,R10*%
X203168000Y-55905400D03*
X201168000Y-55905400D03*
%TD*%
D50*
%TO.C,LS1*%
X218440000Y-96520000D03*
D12*
X218440000Y-99060000D03*
X218440000Y-101600000D03*
%TD*%
D51*
%TO.C,C16*%
X179075954Y-75889246D03*
X180543200Y-74422000D03*
%TD*%
D52*
%TO.C,RC1206*%
X167005000Y-87910000D03*
X167005000Y-84810000D03*
%TD*%
D29*
%TO.C,D8*%
X220334656Y-64309273D03*
X220334656Y-62259273D03*
%TD*%
D53*
X194355000Y-83120000D03*
X187560857Y-86900017D03*
X191363602Y-83644765D03*
X156312277Y-82552468D03*
X190742837Y-83010930D03*
X178605000Y-89120000D03*
X179299113Y-83183996D03*
X177014409Y-90117100D03*
X177912955Y-89813840D03*
X183141439Y-79298619D03*
X163195000Y-82804000D03*
X198501000Y-84074000D03*
X215855000Y-90620000D03*
X210855000Y-90620000D03*
X161855000Y-109870000D03*
X195355000Y-110620000D03*
X195355000Y-111870000D03*
X163355000Y-109870000D03*
X192105000Y-58120000D03*
X159893000Y-81534000D03*
X164465000Y-72898000D03*
X164465000Y-73914000D03*
X214605000Y-90620000D03*
X164211000Y-89662000D03*
X164465602Y-80898116D03*
X169291000Y-83058000D03*
X196605000Y-85620000D03*
X161105000Y-101370000D03*
X218855000Y-67370000D03*
X151105000Y-62870000D03*
X193855000Y-58120000D03*
X176605000Y-79370000D03*
X214605000Y-89370000D03*
X151105000Y-64120000D03*
X181855000Y-56620000D03*
X213355000Y-90620000D03*
X207855000Y-105370000D03*
X215855000Y-61120000D03*
X212105000Y-89370000D03*
X156845000Y-104140000D03*
X165481000Y-89662000D03*
X192105000Y-59620000D03*
X209105000Y-102120000D03*
X162605000Y-102620000D03*
X181855000Y-57870000D03*
X197855000Y-111870000D03*
X189105000Y-69620000D03*
X164465000Y-75946000D03*
X169291000Y-84074000D03*
X175355000Y-78370000D03*
X217855000Y-68620000D03*
X185855000Y-83620000D03*
X221855000Y-68620000D03*
X215855000Y-91870000D03*
X169291000Y-89662000D03*
X159331698Y-101931826D03*
X217855000Y-67370000D03*
X200355000Y-110620000D03*
X181355000Y-63870000D03*
X166355000Y-109870000D03*
X200355000Y-111870000D03*
X162941000Y-93726000D03*
X200605000Y-107870000D03*
X168021000Y-89662000D03*
X221855000Y-67370000D03*
X181254400Y-73050400D03*
X162941000Y-89662000D03*
X218355000Y-91870000D03*
X184105000Y-63870000D03*
X217105000Y-89370000D03*
X218855000Y-68620000D03*
X158505735Y-101077370D03*
X207855000Y-102120000D03*
X169355000Y-109870000D03*
X212105000Y-90620000D03*
D54*
X198755000Y-104775000D03*
D53*
X209605000Y-90620000D03*
X153605000Y-64120000D03*
X174605000Y-74370000D03*
X182605000Y-63870000D03*
X219855000Y-68620000D03*
X214605000Y-91870000D03*
X196605000Y-111870000D03*
X183769000Y-110490000D03*
X149855000Y-62870000D03*
X217105000Y-90620000D03*
X218355000Y-89370000D03*
X214855000Y-62120000D03*
X207855000Y-103120000D03*
X164465000Y-77978000D03*
X158115000Y-104775000D03*
X174605000Y-72870000D03*
X178725744Y-107974565D03*
X169291000Y-88646000D03*
X209605000Y-91870000D03*
X193855000Y-56870000D03*
X196605000Y-110620000D03*
X189328624Y-85132250D03*
X213355000Y-89370000D03*
X202355000Y-106870000D03*
X162941000Y-90678000D03*
X181196896Y-81243163D03*
X176355000Y-74370000D03*
X167855000Y-109870000D03*
X157287307Y-101063365D03*
X164465000Y-81788000D03*
X185616313Y-88137454D03*
X215855000Y-62120000D03*
X153605000Y-62870000D03*
X215855000Y-89370000D03*
X176605000Y-78370000D03*
X164465000Y-80010000D03*
X189105000Y-71370000D03*
X164855000Y-109870000D03*
X192105000Y-56870000D03*
X184105000Y-85370000D03*
X213855000Y-61120000D03*
X176355000Y-72870000D03*
X162605000Y-101370000D03*
X166751000Y-89662000D03*
X218355000Y-90620000D03*
X162941000Y-92710000D03*
X183355000Y-57870000D03*
X197855000Y-110620000D03*
X214855000Y-61120000D03*
X213355000Y-91870000D03*
X220855000Y-68620000D03*
X152355000Y-64120000D03*
X183355000Y-56620000D03*
X165735000Y-83058000D03*
X203105000Y-102370000D03*
D55*
X220853000Y-90678000D03*
D53*
X203605000Y-105370000D03*
X199105000Y-111870000D03*
X219855000Y-67370000D03*
X193855000Y-59620000D03*
X168275000Y-83058000D03*
X162941000Y-91694000D03*
X217105000Y-91870000D03*
X203605000Y-106870000D03*
X164465000Y-74930000D03*
X175355000Y-79370000D03*
X164465000Y-76962000D03*
X220855000Y-67370000D03*
X167005000Y-83058000D03*
X149855000Y-64120000D03*
X184555653Y-77884406D03*
X161105000Y-102620000D03*
X202105000Y-103620000D03*
X164465000Y-78994000D03*
X199105000Y-110620000D03*
X198105000Y-85620000D03*
X152355000Y-62870000D03*
X213855000Y-62120000D03*
X201105000Y-106870000D03*
X210855000Y-91870000D03*
X198245857Y-101474143D03*
X212105000Y-91870000D03*
X177605000Y-66370000D03*
X183855000Y-72370000D03*
X188796004Y-75761647D03*
X180355000Y-70620000D03*
X190605000Y-73620000D03*
X193167000Y-70358000D03*
X170545712Y-67375745D03*
X189434147Y-76419941D03*
X191355000Y-74370000D03*
X169049353Y-67383846D03*
X172054488Y-67362739D03*
X160239385Y-85031364D03*
X155321000Y-89408000D03*
X157855000Y-97870000D03*
X182245000Y-68834000D03*
X186855000Y-73370000D03*
X213995000Y-101600000D03*
X213995000Y-95250000D03*
X211857768Y-72392265D03*
X188653585Y-91321414D03*
X211840060Y-68134940D03*
X205105000Y-88620000D03*
X189225811Y-90570706D03*
X211053703Y-73088010D03*
X205105000Y-87620000D03*
X211060276Y-68992484D03*
X210199926Y-69606315D03*
X189235476Y-89623544D03*
X210185000Y-73660000D03*
X205105000Y-86620000D03*
X167005000Y-106045000D03*
X164465000Y-106045000D03*
X155967968Y-103224672D03*
X186690000Y-94615000D03*
X186690000Y-92710000D03*
X193105000Y-80620000D03*
X194242606Y-79838747D03*
X202991350Y-99560115D03*
X206869544Y-69443200D03*
X186605000Y-74620000D03*
X185605000Y-75370000D03*
X184355000Y-75620000D03*
X184105000Y-74620000D03*
X184605000Y-73620000D03*
X180921403Y-76936403D03*
X180205684Y-77652122D03*
X179605000Y-78370492D03*
X179086900Y-79120000D03*
X203901637Y-100392930D03*
X207645000Y-68786000D03*
X204705402Y-101090172D03*
X208484094Y-67986358D03*
X177105000Y-85620000D03*
X176605000Y-86370000D03*
X176105000Y-87120000D03*
X175605000Y-87870000D03*
X174605000Y-88370000D03*
X175605000Y-91120000D03*
X159385000Y-99314000D03*
X159855000Y-100120000D03*
X190855000Y-88370000D03*
X192105000Y-88870000D03*
X192605000Y-87120000D03*
X192855000Y-85870000D03*
X193105000Y-79254500D03*
M02*
