%TF.GenerationSoftware,KiCad,Pcbnew,7.0.10*%
%TF.CreationDate,2024-03-07T19:45:30-05:00*%
%TF.ProjectId,TrumpetMelody,5472756d-7065-4744-9d65-6c6f64792e6b,rev?*%
%TF.SameCoordinates,Original*%
%TF.FileFunction,Copper,L2,Bot*%
%TF.FilePolarity,Positive*%
%FSLAX46Y46*%
G04 Gerber Fmt 4.6, Leading zero omitted, Abs format (unit mm)*
G04 Created by KiCad (PCBNEW 7.0.10) date 2024-03-07 19:45:30*
%MOMM*%
%LPD*%
G01*
G04 APERTURE LIST*
G04 Aperture macros list*
%AMRoundRect*
0 Rectangle with rounded corners*
0 $1 Rounding radius*
0 $2 $3 $4 $5 $6 $7 $8 $9 X,Y pos of 4 corners*
0 Add a 4 corners polygon primitive as box body*
4,1,4,$2,$3,$4,$5,$6,$7,$8,$9,$2,$3,0*
0 Add four circle primitives for the rounded corners*
1,1,$1+$1,$2,$3*
1,1,$1+$1,$4,$5*
1,1,$1+$1,$6,$7*
1,1,$1+$1,$8,$9*
0 Add four rect primitives between the rounded corners*
20,1,$1+$1,$2,$3,$4,$5,0*
20,1,$1+$1,$4,$5,$6,$7,0*
20,1,$1+$1,$6,$7,$8,$9,0*
20,1,$1+$1,$8,$9,$2,$3,0*%
%AMHorizOval*
0 Thick line with rounded ends*
0 $1 width*
0 $2 $3 position (X,Y) of the first rounded end (center of the circle)*
0 $4 $5 position (X,Y) of the second rounded end (center of the circle)*
0 Add line between two ends*
20,1,$1,$2,$3,$4,$5,0*
0 Add two circle primitives to create the rounded ends*
1,1,$1,$2,$3*
1,1,$1,$4,$5*%
%AMRotRect*
0 Rectangle, with rotation*
0 The origin of the aperture is its center*
0 $1 length*
0 $2 width*
0 $3 Rotation angle, in degrees counterclockwise*
0 Add horizontal line*
21,1,$1,$2,0,0,$3*%
G04 Aperture macros list end*
%TA.AperFunction,ComponentPad*%
%ADD10R,1.370000X1.370000*%
%TD*%
%TA.AperFunction,ComponentPad*%
%ADD11C,1.370000*%
%TD*%
%TA.AperFunction,ComponentPad*%
%ADD12C,1.208000*%
%TD*%
%TA.AperFunction,ComponentPad*%
%ADD13O,2.416000X1.208000*%
%TD*%
%TA.AperFunction,ComponentPad*%
%ADD14RotRect,1.700000X1.700000X135.000000*%
%TD*%
%TA.AperFunction,ComponentPad*%
%ADD15HorizOval,1.700000X0.000000X0.000000X0.000000X0.000000X0*%
%TD*%
%TA.AperFunction,SMDPad,CuDef*%
%ADD16RoundRect,0.250000X-0.097227X0.574524X-0.574524X0.097227X0.097227X-0.574524X0.574524X-0.097227X0*%
%TD*%
%TA.AperFunction,SMDPad,CuDef*%
%ADD17RoundRect,0.250000X0.097227X-0.574524X0.574524X-0.097227X-0.097227X0.574524X-0.574524X0.097227X0*%
%TD*%
%TA.AperFunction,SMDPad,CuDef*%
%ADD18RoundRect,0.250000X-0.574524X-0.097227X-0.097227X-0.574524X0.574524X0.097227X0.097227X0.574524X0*%
%TD*%
%TA.AperFunction,ViaPad*%
%ADD19C,0.660400*%
%TD*%
%TA.AperFunction,ViaPad*%
%ADD20C,1.016000*%
%TD*%
%TA.AperFunction,ViaPad*%
%ADD21C,1.800000*%
%TD*%
%TA.AperFunction,Conductor*%
%ADD22C,0.200000*%
%TD*%
%TA.AperFunction,Conductor*%
%ADD23C,0.610000*%
%TD*%
%TA.AperFunction,Conductor*%
%ADD24C,0.300000*%
%TD*%
%TA.AperFunction,Conductor*%
%ADD25C,0.254000*%
%TD*%
%TA.AperFunction,Conductor*%
%ADD26C,0.500000*%
%TD*%
G04 APERTURE END LIST*
D10*
%TO.P,J3,1,1*%
%TO.N,BUTTON_0*%
X205613000Y-51054000D03*
D11*
%TO.P,J3,2,2*%
%TO.N,BUTTON_1*%
X203073000Y-51054000D03*
%TO.P,J3,3,3*%
%TO.N,BUTTON_2*%
X200533000Y-51054000D03*
%TD*%
D10*
%TO.P,J4,1,1*%
%TO.N,+3.3V*%
X167513000Y-51054000D03*
D11*
%TO.P,J4,2,2*%
X164973000Y-51054000D03*
%TO.P,J4,3,3*%
X162433000Y-51054000D03*
%TD*%
D12*
%TO.P,J1,1,VBUS*%
%TO.N,+5V*%
X154286352Y-97874978D03*
%TO.P,J1,2,D-*%
%TO.N,USB_DM*%
X153086352Y-98674978D03*
%TO.P,J1,3,D+*%
%TO.N,USB_DP*%
X154286352Y-99474978D03*
%TO.P,J1,4,ID*%
%TO.N,USB_ID_Connector*%
X153086352Y-100274978D03*
%TO.P,J1,5,GND*%
%TO.N,GND*%
X154286352Y-101074978D03*
D13*
%TO.P,J1,SH1*%
%TO.N,N/C*%
X149236352Y-103124978D03*
%TO.P,J1,SH2*%
X149236352Y-95824978D03*
%TD*%
D10*
%TO.P,RV1,1,1*%
%TO.N,+3.3VA*%
X186255606Y-50919442D03*
D11*
%TO.P,RV1,2,2*%
%TO.N,Net-(R4-Pad2)*%
X183715606Y-50919442D03*
%TO.P,RV1,3,3*%
%TO.N,GNDA*%
X181175606Y-50919442D03*
%TD*%
D14*
%TO.P,J2,1,Pin_1*%
%TO.N,Net-(J2-Pin_1)*%
X187960000Y-100965000D03*
D15*
%TO.P,J2,2,Pin_2*%
%TO.N,Net-(J2-Pin_2)*%
X189756051Y-99168949D03*
%TO.P,J2,3,Pin_3*%
%TO.N,Net-(J2-Pin_3)*%
X191552102Y-97372898D03*
%TO.P,J2,4,Pin_4*%
%TO.N,Net-(J2-Pin_4)*%
X193348154Y-95576846D03*
%TO.P,J2,5,Pin_5*%
%TO.N,Net-(J2-Pin_5)*%
X195144205Y-93780795D03*
%TD*%
D10*
%TO.P,LS1,1,1*%
%TO.N,Net-(C12-Pad1)*%
X218440000Y-96520000D03*
D11*
%TO.P,LS1,2,2*%
%TO.N,Net-(C14-Pad1)*%
X218440000Y-99060000D03*
%TO.P,LS1,3*%
%TO.N,N/C*%
X218440000Y-101600000D03*
%TD*%
D16*
%TO.P,C4,1*%
%TO.N,+3.3V*%
X186199676Y-85786324D03*
%TO.P,C4,2*%
%TO.N,GND*%
X184732430Y-87253570D03*
%TD*%
D17*
%TO.P,C1,1*%
%TO.N,+3.3V*%
X184025323Y-80182503D03*
%TO.P,C1,2*%
%TO.N,GND*%
X185492569Y-78715257D03*
%TD*%
D18*
%TO.P,C5,1*%
%TO.N,+3.3VA*%
X189452368Y-74649393D03*
%TO.P,C5,2*%
%TO.N,GNDA*%
X190919614Y-76116639D03*
%TD*%
D16*
%TO.P,C3,1*%
%TO.N,+3.3V*%
X189328623Y-82657377D03*
%TO.P,C3,2*%
%TO.N,GND*%
X187861377Y-84124623D03*
%TD*%
D17*
%TO.P,C2,1*%
%TO.N,+3.3V*%
X180843343Y-83364483D03*
%TO.P,C2,2*%
%TO.N,GND*%
X182310589Y-81897237D03*
%TD*%
D19*
%TO.N,+3.3V*%
X194355000Y-83120000D03*
X187560857Y-86900017D03*
X191363602Y-83644765D03*
X156312277Y-82552468D03*
X190742837Y-83010930D03*
X178605000Y-89120000D03*
X179299113Y-83183996D03*
X177014409Y-90117100D03*
X177912955Y-89813840D03*
X183141439Y-79298619D03*
X163195000Y-82804000D03*
X198501000Y-84074000D03*
%TO.N,GND*%
X215855000Y-90620000D03*
X210855000Y-90620000D03*
X161855000Y-109870000D03*
X195355000Y-110620000D03*
X195355000Y-111870000D03*
X163355000Y-109870000D03*
X192105000Y-58120000D03*
X159893000Y-81534000D03*
X164465000Y-72898000D03*
X164465000Y-73914000D03*
X214605000Y-90620000D03*
X164211000Y-89662000D03*
X164465602Y-80898116D03*
X169291000Y-83058000D03*
X196605000Y-85620000D03*
X161105000Y-101370000D03*
X218855000Y-67370000D03*
X151105000Y-62870000D03*
X193855000Y-58120000D03*
X176605000Y-79370000D03*
X214605000Y-89370000D03*
X151105000Y-64120000D03*
X181855000Y-56620000D03*
X213355000Y-90620000D03*
X207855000Y-105370000D03*
X215855000Y-61120000D03*
X212105000Y-89370000D03*
X156845000Y-104140000D03*
X165481000Y-89662000D03*
X192105000Y-59620000D03*
X209105000Y-102120000D03*
X162605000Y-102620000D03*
X181855000Y-57870000D03*
X197855000Y-111870000D03*
X189105000Y-69620000D03*
X164465000Y-75946000D03*
X169291000Y-84074000D03*
X175355000Y-78370000D03*
X217855000Y-68620000D03*
X185855000Y-83620000D03*
X221855000Y-68620000D03*
X215855000Y-91870000D03*
X169291000Y-89662000D03*
X159331698Y-101931826D03*
X217855000Y-67370000D03*
X200355000Y-110620000D03*
X181355000Y-63870000D03*
X166355000Y-109870000D03*
X200355000Y-111870000D03*
X162941000Y-93726000D03*
X200605000Y-107870000D03*
X168021000Y-89662000D03*
X221855000Y-67370000D03*
X181254400Y-73050400D03*
X162941000Y-89662000D03*
X218355000Y-91870000D03*
X184105000Y-63870000D03*
X217105000Y-89370000D03*
X218855000Y-68620000D03*
X158505735Y-101077370D03*
X207855000Y-102120000D03*
X169355000Y-109870000D03*
X212105000Y-90620000D03*
D20*
X198755000Y-104775000D03*
D19*
X209605000Y-90620000D03*
X153605000Y-64120000D03*
X174605000Y-74370000D03*
X182605000Y-63870000D03*
X219855000Y-68620000D03*
X214605000Y-91870000D03*
X196605000Y-111870000D03*
X183769000Y-110490000D03*
X149855000Y-62870000D03*
X217105000Y-90620000D03*
X218355000Y-89370000D03*
X214855000Y-62120000D03*
X207855000Y-103120000D03*
X164465000Y-77978000D03*
X158115000Y-104775000D03*
X174605000Y-72870000D03*
X178725744Y-107974565D03*
X169291000Y-88646000D03*
X209605000Y-91870000D03*
X193855000Y-56870000D03*
X196605000Y-110620000D03*
X189328624Y-85132250D03*
X213355000Y-89370000D03*
X202355000Y-106870000D03*
X162941000Y-90678000D03*
X181196896Y-81243163D03*
X176355000Y-74370000D03*
X167855000Y-109870000D03*
X157287307Y-101063365D03*
X164465000Y-81788000D03*
X185616313Y-88137454D03*
X215855000Y-62120000D03*
X153605000Y-62870000D03*
X215855000Y-89370000D03*
X176605000Y-78370000D03*
X164465000Y-80010000D03*
X189105000Y-71370000D03*
X164855000Y-109870000D03*
X192105000Y-56870000D03*
X184105000Y-85370000D03*
X213855000Y-61120000D03*
X176355000Y-72870000D03*
X162605000Y-101370000D03*
X166751000Y-89662000D03*
X218355000Y-90620000D03*
X162941000Y-92710000D03*
X183355000Y-57870000D03*
X197855000Y-110620000D03*
X214855000Y-61120000D03*
X213355000Y-91870000D03*
X220855000Y-68620000D03*
X152355000Y-64120000D03*
X183355000Y-56620000D03*
X165735000Y-83058000D03*
X203105000Y-102370000D03*
D21*
X220853000Y-90678000D03*
D19*
X203605000Y-105370000D03*
X199105000Y-111870000D03*
X219855000Y-67370000D03*
X193855000Y-59620000D03*
X168275000Y-83058000D03*
X162941000Y-91694000D03*
X217105000Y-91870000D03*
X203605000Y-106870000D03*
X164465000Y-74930000D03*
X175355000Y-79370000D03*
X164465000Y-76962000D03*
X220855000Y-67370000D03*
X167005000Y-83058000D03*
X149855000Y-64120000D03*
X184555653Y-77884406D03*
X161105000Y-102620000D03*
X202105000Y-103620000D03*
X164465000Y-78994000D03*
X199105000Y-110620000D03*
X198105000Y-85620000D03*
X152355000Y-62870000D03*
X213855000Y-62120000D03*
X201105000Y-106870000D03*
X210855000Y-91870000D03*
X198245857Y-101474143D03*
X212105000Y-91870000D03*
%TO.N,+3.3VA*%
X177605000Y-66370000D03*
X183855000Y-72370000D03*
X188796004Y-75761647D03*
X180355000Y-70620000D03*
X190605000Y-73620000D03*
%TO.N,GNDA*%
X193167000Y-70358000D03*
X170545712Y-67375745D03*
X189434147Y-76419941D03*
X191355000Y-74370000D03*
X169049353Y-67383846D03*
X172054488Y-67362739D03*
%TO.N,+5V*%
X160239385Y-85031364D03*
X155321000Y-89408000D03*
X157855000Y-97870000D03*
%TO.N,ADC1_IN0*%
X182245000Y-68834000D03*
X186855000Y-73370000D03*
%TO.N,Net-(C12-Pad1)*%
X213995000Y-101600000D03*
X213995000Y-95250000D03*
%TO.N,GPIO_BUTTON_0*%
X211857768Y-72392265D03*
X188653585Y-91321414D03*
X211840060Y-68134940D03*
X205105000Y-88620000D03*
%TO.N,GPIO_BUTTON_1*%
X189225811Y-90570706D03*
X211053703Y-73088010D03*
X205105000Y-87620000D03*
X211060276Y-68992484D03*
%TO.N,GPIO_BUTTON_2*%
X210199926Y-69606315D03*
X189235476Y-89623544D03*
X210185000Y-73660000D03*
X205105000Y-86620000D03*
%TO.N,USB_DP*%
X167005000Y-106045000D03*
%TO.N,USB_DM*%
X164465000Y-106045000D03*
%TO.N,USB_ID_Connector*%
X155967968Y-103224672D03*
%TO.N,JTDI*%
X186690000Y-94615000D03*
X186690000Y-92710000D03*
%TO.N,PC13*%
X193105000Y-80620000D03*
%TO.N,OSC32_IN*%
X194242606Y-79838747D03*
%TO.N,I2S_SD*%
X202991350Y-99560115D03*
X206869544Y-69443200D03*
%TO.N,PA1*%
X186605000Y-74620000D03*
%TO.N,PA2*%
X185605000Y-75370000D03*
%TO.N,PA3*%
X184355000Y-75620000D03*
%TO.N,PA4*%
X184105000Y-74620000D03*
%TO.N,PA5*%
X184605000Y-73620000D03*
%TO.N,PA6*%
X180921403Y-76936403D03*
%TO.N,PA7*%
X180205684Y-77652122D03*
%TO.N,PC5*%
X179605000Y-78370492D03*
%TO.N,PB1*%
X179086900Y-79120000D03*
%TO.N,I2S_CK*%
X203901637Y-100392930D03*
X207645000Y-68786000D03*
%TO.N,I2S_WS*%
X204705402Y-101090172D03*
X208484094Y-67986358D03*
%TO.N,PB13*%
X177105000Y-85620000D03*
%TO.N,PB14*%
X176605000Y-86370000D03*
%TO.N,PB15*%
X176105000Y-87120000D03*
%TO.N,PC6*%
X175605000Y-87870000D03*
%TO.N,PC7*%
X174605000Y-88370000D03*
%TO.N,PA8*%
X175605000Y-91120000D03*
%TO.N,USB_VSENSE*%
X159385000Y-99314000D03*
%TO.N,USB_ID*%
X159855000Y-100120000D03*
%TO.N,PB6*%
X190855000Y-88370000D03*
%TO.N,PB7*%
X192105000Y-88870000D03*
%TO.N,PB8*%
X192605000Y-87120000D03*
%TO.N,PB9*%
X192855000Y-85870000D03*
%TO.N,OSC32_OUT*%
X193105000Y-79254500D03*
%TD*%
D22*
%TO.N,+3.3V*%
X190389284Y-82657377D02*
X189328624Y-82657377D01*
D23*
X177014409Y-90117100D02*
X177607900Y-90117100D01*
X156314745Y-82550000D02*
X156312277Y-82552468D01*
X177607900Y-90117100D02*
X182605000Y-85120000D01*
X185855000Y-81870000D02*
X185712820Y-81870000D01*
X184230000Y-83495000D02*
X184230000Y-83816648D01*
X193415000Y-83560000D02*
X192790000Y-82935000D01*
D22*
X179479600Y-83364483D02*
X180843342Y-83364483D01*
X183141439Y-79298619D02*
X184025323Y-80182503D01*
D23*
X182605000Y-85120000D02*
X184230000Y-83495000D01*
X182605000Y-85120000D02*
X182598860Y-85120000D01*
X163195000Y-82804000D02*
X162941000Y-82550000D01*
X186355000Y-81370000D02*
X188041246Y-81370000D01*
D24*
X193855000Y-83120000D02*
X194355000Y-83120000D01*
D22*
X191363602Y-83644765D02*
X190316011Y-83644765D01*
D23*
X191225000Y-81370000D02*
X186355000Y-81370000D01*
X185855000Y-81870000D02*
X186355000Y-81370000D01*
X192790000Y-82935000D02*
X191225000Y-81370000D01*
X193929000Y-84074000D02*
X193415000Y-83560000D01*
D22*
X190742837Y-83010930D02*
X190389284Y-82657377D01*
X186447164Y-85786324D02*
X186199676Y-85786324D01*
D23*
X185712820Y-81870000D02*
X184025323Y-80182503D01*
D22*
X187560857Y-86900017D02*
X186447164Y-85786324D01*
D24*
X193415000Y-83560000D02*
X193855000Y-83120000D01*
D22*
X190316011Y-83644765D02*
X189328623Y-82657377D01*
D23*
X198501000Y-84074000D02*
X193929000Y-84074000D01*
X162941000Y-82550000D02*
X156314745Y-82550000D01*
X182598860Y-85120000D02*
X180843343Y-83364483D01*
X184230000Y-83816648D02*
X186199676Y-85786324D01*
D22*
X179299113Y-83183996D02*
X179479600Y-83364483D01*
D23*
X184230000Y-83495000D02*
X185855000Y-81870000D01*
X188041246Y-81370000D02*
X189328623Y-82657377D01*
D22*
%TO.N,GND*%
X181850969Y-81897237D02*
X182310589Y-81897237D01*
X181196896Y-81243163D02*
X181850969Y-81897237D01*
D25*
X169094381Y-105880619D02*
X169094381Y-106113668D01*
D22*
X187861377Y-84018557D02*
X187861377Y-84124623D01*
X185386503Y-78715256D02*
X185492569Y-78715256D01*
X189328624Y-85132250D02*
X188320997Y-84124623D01*
X182310589Y-81897237D02*
X183283352Y-82870000D01*
X184555653Y-77884406D02*
X185386503Y-78715256D01*
X183283352Y-82870000D02*
X183355000Y-82870000D01*
X182310589Y-81897237D02*
X183087826Y-81120000D01*
X188320997Y-84124623D02*
X187861377Y-84124623D01*
X183087826Y-81120000D02*
X183105000Y-81120000D01*
X187861377Y-85376377D02*
X188355000Y-85870000D01*
X185616313Y-88137454D02*
X184732430Y-87253571D01*
X187861377Y-84124623D02*
X187861377Y-85376377D01*
D25*
%TO.N,+3.3VA*%
X188796004Y-75761647D02*
X188796004Y-75305757D01*
X180680655Y-54870000D02*
X183953940Y-54870000D01*
X179855000Y-64120000D02*
X179855000Y-55724475D01*
X179855000Y-55724475D02*
X179840590Y-55710065D01*
X190605000Y-73620000D02*
X190481761Y-73620000D01*
X177605000Y-66370000D02*
X179855000Y-64120000D01*
X180355000Y-71120000D02*
X181605000Y-72370000D01*
X181605000Y-72370000D02*
X183855000Y-72370000D01*
X184721313Y-54102627D02*
X186255606Y-52568334D01*
X183953940Y-54870000D02*
X184721313Y-54102627D01*
X179840590Y-55710065D02*
X180680655Y-54870000D01*
X188796004Y-75305757D02*
X189452368Y-74649393D01*
X186255606Y-52568334D02*
X186255606Y-50919442D01*
X190481761Y-73620000D02*
X189452368Y-74649393D01*
X180355000Y-70620000D02*
X180355000Y-71120000D01*
D26*
%TO.N,GNDA*%
X177715631Y-67362739D02*
X178208370Y-66870000D01*
D25*
X170558718Y-67362739D02*
X170545712Y-67375745D01*
D26*
X192647803Y-66870000D02*
X193167000Y-67389197D01*
X172054488Y-67362739D02*
X170558718Y-67362739D01*
D25*
X189434147Y-76419941D02*
X190616312Y-76419941D01*
X190616312Y-76419941D02*
X190919614Y-76116639D01*
X169057454Y-67375745D02*
X169049353Y-67383846D01*
X191355000Y-75681253D02*
X190919614Y-76116639D01*
D26*
X193167000Y-67389197D02*
X193167000Y-70358000D01*
X172054488Y-67362739D02*
X177715631Y-67362739D01*
D25*
X191355000Y-74370000D02*
X191355000Y-75681253D01*
D26*
X178208370Y-66870000D02*
X192647803Y-66870000D01*
X170545712Y-67375745D02*
X169057454Y-67375745D01*
D23*
%TO.N,+5V*%
X160239385Y-85031364D02*
X160147000Y-85123749D01*
X159639000Y-89408000D02*
X155321000Y-89408000D01*
X160147000Y-85123749D02*
X160147000Y-88900000D01*
X160147000Y-88900000D02*
X159639000Y-89408000D01*
D25*
%TO.N,ADC1_IN0*%
X186781000Y-73370000D02*
X182245000Y-68834000D01*
X186855000Y-73370000D02*
X186781000Y-73370000D01*
%TO.N,Net-(C12-Pad1)*%
X213995000Y-95250000D02*
X213995000Y-101600000D01*
%TO.N,GPIO_BUTTON_0*%
X211857768Y-68152648D02*
X211857768Y-72392265D01*
X211840060Y-68134940D02*
X211857768Y-68152648D01*
X196687700Y-88620000D02*
X193986286Y-91321414D01*
X205105000Y-88620000D02*
X196687700Y-88620000D01*
X193986286Y-91321414D02*
X188653585Y-91321414D01*
%TO.N,GPIO_BUTTON_1*%
X211060276Y-68992484D02*
X211060276Y-73081437D01*
X193996604Y-90570706D02*
X196947310Y-87620000D01*
X211060276Y-73081437D02*
X211053703Y-73088010D01*
X196947310Y-87620000D02*
X205105000Y-87620000D01*
X189225811Y-90570706D02*
X193996604Y-90570706D01*
%TO.N,GPIO_BUTTON_2*%
X205105000Y-86620000D02*
X197188412Y-86620000D01*
X210185000Y-69621241D02*
X210185000Y-73660000D01*
X197188412Y-86620000D02*
X194184868Y-89623544D01*
X194184868Y-89623544D02*
X189235476Y-89623544D01*
X210199926Y-69606315D02*
X210185000Y-69621241D01*
%TO.N,USB_DP*%
X159681374Y-104870000D02*
X165105000Y-104870000D01*
X154286352Y-99474978D02*
X159681374Y-104870000D01*
X166280000Y-106045000D02*
X167005000Y-106045000D01*
X167012053Y-106045000D02*
X167005000Y-106045000D01*
X165105000Y-104870000D02*
X166280000Y-106045000D01*
%TO.N,USB_DM*%
X152105000Y-99656330D02*
X153086352Y-98674978D01*
X156654507Y-106045000D02*
X152105000Y-101495493D01*
X164465000Y-106045000D02*
X156654507Y-106045000D01*
X164465000Y-106045000D02*
X164624653Y-106045000D01*
X152105000Y-101495493D02*
X152105000Y-99656330D01*
%TO.N,JTDI*%
X186690000Y-92710000D02*
X186690000Y-94615000D01*
%TO.N,I2S_SD*%
X206869544Y-69443200D02*
X206869544Y-91605456D01*
X202996857Y-95478143D02*
X202996857Y-99554608D01*
X206869544Y-91605456D02*
X202996857Y-95478143D01*
X202996857Y-99554608D02*
X202991350Y-99560115D01*
%TO.N,I2S_CK*%
X203909528Y-100385039D02*
X203901637Y-100392930D01*
X203909528Y-95565472D02*
X203909528Y-100385039D01*
X207645000Y-68786000D02*
X207645000Y-91830000D01*
X207645000Y-91830000D02*
X203909528Y-95565472D01*
%TO.N,I2S_WS*%
X208484094Y-67986358D02*
X208484094Y-91990906D01*
X208484094Y-91990906D02*
X204705402Y-95769598D01*
X204705402Y-95769598D02*
X204705402Y-100267273D01*
X204705402Y-100267273D02*
X204705402Y-101090172D01*
%TD*%
%TA.AperFunction,Conductor*%
%TO.N,GND*%
G36*
X156993564Y-103072321D02*
G01*
X157010283Y-103086328D01*
X159129774Y-105205819D01*
X159163259Y-105267142D01*
X159158275Y-105336834D01*
X159116403Y-105392767D01*
X159050939Y-105417184D01*
X159042093Y-105417500D01*
X156965788Y-105417500D01*
X156898749Y-105397815D01*
X156878107Y-105381181D01*
X155759668Y-104262742D01*
X155726183Y-104201419D01*
X155731167Y-104131727D01*
X155773039Y-104075794D01*
X155838503Y-104051377D01*
X155873127Y-104053771D01*
X155880658Y-104055372D01*
X155880662Y-104055372D01*
X156055277Y-104055372D01*
X156055278Y-104055372D01*
X156226082Y-104019067D01*
X156226084Y-104019065D01*
X156226087Y-104019065D01*
X156279820Y-103995141D01*
X156385606Y-103948042D01*
X156526877Y-103845403D01*
X156643720Y-103715635D01*
X156731031Y-103564409D01*
X156784991Y-103398336D01*
X156803244Y-103224672D01*
X156799281Y-103186969D01*
X156811850Y-103118241D01*
X156859582Y-103067217D01*
X156927322Y-103050099D01*
X156993564Y-103072321D01*
G37*
%TD.AperFunction*%
%TA.AperFunction,Conductor*%
G36*
X155226672Y-101661746D02*
G01*
X155226673Y-101661746D01*
X155229009Y-101658653D01*
X155269733Y-101576870D01*
X155317236Y-101525633D01*
X155384899Y-101508211D01*
X155451239Y-101530136D01*
X155468415Y-101544460D01*
X156106246Y-102182291D01*
X156139731Y-102243614D01*
X156134747Y-102313306D01*
X156092875Y-102369239D01*
X156027411Y-102393656D01*
X156018565Y-102393972D01*
X155880658Y-102393972D01*
X155859854Y-102398394D01*
X155709854Y-102430276D01*
X155709848Y-102430278D01*
X155550330Y-102501301D01*
X155550325Y-102501304D01*
X155409060Y-102603939D01*
X155409058Y-102603941D01*
X155292215Y-102733710D01*
X155204905Y-102884934D01*
X155204901Y-102884943D01*
X155151240Y-103050099D01*
X155150945Y-103051008D01*
X155137622Y-103177767D01*
X155132692Y-103224672D01*
X155144372Y-103335802D01*
X155131802Y-103404532D01*
X155084070Y-103455555D01*
X155016330Y-103472673D01*
X154950088Y-103450450D01*
X154933370Y-103436444D01*
X153836023Y-102339097D01*
X153802538Y-102277774D01*
X153807522Y-102208082D01*
X153849394Y-102152149D01*
X153914858Y-102127732D01*
X153968500Y-102135790D01*
X153982935Y-102141382D01*
X154184053Y-102178978D01*
X154388651Y-102178978D01*
X154589767Y-102141382D01*
X154589768Y-102141382D01*
X154780554Y-102067472D01*
X154780556Y-102067471D01*
X154869945Y-102012123D01*
X154282800Y-101424978D01*
X154315357Y-101424978D01*
X154401568Y-101410592D01*
X154504299Y-101354997D01*
X154583412Y-101269057D01*
X154630334Y-101162086D01*
X154637731Y-101072805D01*
X155226672Y-101661746D01*
G37*
%TD.AperFunction*%
%TA.AperFunction,Conductor*%
G36*
X187723274Y-82195185D02*
G01*
X187743916Y-82211819D01*
X187967279Y-82435182D01*
X188000764Y-82496505D01*
X188003598Y-82522863D01*
X188003598Y-82647867D01*
X188003599Y-82647876D01*
X188004496Y-82651662D01*
X188004354Y-82654337D01*
X188004437Y-82655046D01*
X188004315Y-82655060D01*
X188000799Y-82721434D01*
X187959968Y-82778131D01*
X187894966Y-82803753D01*
X187855242Y-82800911D01*
X187851812Y-82800098D01*
X187676490Y-82800098D01*
X187505885Y-82840532D01*
X187349209Y-82919217D01*
X187269171Y-82984418D01*
X187269153Y-82984434D01*
X187171948Y-83081640D01*
X188127249Y-84036941D01*
X188160734Y-84098264D01*
X188155750Y-84167956D01*
X188127249Y-84212303D01*
X187949058Y-84390495D01*
X187887735Y-84423980D01*
X187818044Y-84418996D01*
X187773696Y-84390495D01*
X186818395Y-83435194D01*
X186721182Y-83532408D01*
X186721172Y-83532419D01*
X186655976Y-83612450D01*
X186655967Y-83612463D01*
X186577286Y-83769131D01*
X186536852Y-83939735D01*
X186536852Y-84115056D01*
X186577286Y-84285660D01*
X186627469Y-84385583D01*
X186639966Y-84454326D01*
X186613313Y-84518912D01*
X186555974Y-84558837D01*
X186486152Y-84561423D01*
X186461008Y-84552045D01*
X186360878Y-84501758D01*
X186190177Y-84461300D01*
X186190172Y-84461299D01*
X186190170Y-84461299D01*
X186065162Y-84461299D01*
X185998123Y-84441614D01*
X185977481Y-84424980D01*
X185296006Y-83743505D01*
X185262521Y-83682182D01*
X185267505Y-83612490D01*
X185296006Y-83568143D01*
X186652330Y-82211819D01*
X186713653Y-82178334D01*
X186740011Y-82175500D01*
X187656235Y-82175500D01*
X187723274Y-82195185D01*
G37*
%TD.AperFunction*%
%TA.AperFunction,Conductor*%
G36*
X222962539Y-46240185D02*
G01*
X223008294Y-46292989D01*
X223019500Y-46344500D01*
X223019500Y-113675500D01*
X222999815Y-113742539D01*
X222947011Y-113788294D01*
X222895500Y-113799500D01*
X147944500Y-113799500D01*
X147877461Y-113779815D01*
X147831706Y-113727011D01*
X147820500Y-113675500D01*
X147820500Y-109320119D01*
X148385155Y-109320119D01*
X148415075Y-109719369D01*
X148415077Y-109719383D01*
X148484600Y-110113670D01*
X148593034Y-110499063D01*
X148593038Y-110499077D01*
X148739303Y-110871754D01*
X148739308Y-110871766D01*
X148739309Y-110871767D01*
X148921962Y-111228046D01*
X149139182Y-111564368D01*
X149388810Y-111877391D01*
X149388819Y-111877402D01*
X149668356Y-112163996D01*
X149668374Y-112164013D01*
X149975071Y-112421361D01*
X149975073Y-112421362D01*
X150305860Y-112646891D01*
X150378631Y-112686519D01*
X150657483Y-112838374D01*
X151026416Y-112993892D01*
X151026427Y-112993895D01*
X151026437Y-112993899D01*
X151201837Y-113048002D01*
X151409000Y-113111904D01*
X151801433Y-113191236D01*
X152142902Y-113225405D01*
X152199813Y-113231100D01*
X152199814Y-113231100D01*
X152500007Y-113231100D01*
X152500024Y-113231100D01*
X152799874Y-113216135D01*
X153195773Y-113156463D01*
X153583764Y-113057668D01*
X153959990Y-112920733D01*
X154320712Y-112747019D01*
X154662345Y-112538251D01*
X154981494Y-112296505D01*
X155274987Y-112024183D01*
X155539907Y-111723992D01*
X155773621Y-111398916D01*
X155973807Y-111052184D01*
X156138475Y-110687243D01*
X156265988Y-110307720D01*
X156355079Y-109917387D01*
X156404862Y-109520123D01*
X156409850Y-109320119D01*
X214425155Y-109320119D01*
X214455075Y-109719369D01*
X214455077Y-109719383D01*
X214524600Y-110113670D01*
X214633034Y-110499063D01*
X214633038Y-110499077D01*
X214779303Y-110871754D01*
X214779308Y-110871766D01*
X214779309Y-110871767D01*
X214961962Y-111228046D01*
X215179182Y-111564368D01*
X215428810Y-111877391D01*
X215428819Y-111877402D01*
X215708356Y-112163996D01*
X215708374Y-112164013D01*
X216015071Y-112421361D01*
X216015073Y-112421362D01*
X216345860Y-112646891D01*
X216418631Y-112686519D01*
X216697483Y-112838374D01*
X217066416Y-112993892D01*
X217066427Y-112993895D01*
X217066437Y-112993899D01*
X217241837Y-113048002D01*
X217449000Y-113111904D01*
X217841433Y-113191236D01*
X218182902Y-113225405D01*
X218239813Y-113231100D01*
X218239814Y-113231100D01*
X218540007Y-113231100D01*
X218540024Y-113231100D01*
X218839874Y-113216135D01*
X219235773Y-113156463D01*
X219623764Y-113057668D01*
X219999990Y-112920733D01*
X220360712Y-112747019D01*
X220702345Y-112538251D01*
X221021494Y-112296505D01*
X221314987Y-112024183D01*
X221579907Y-111723992D01*
X221813621Y-111398916D01*
X222013807Y-111052184D01*
X222178475Y-110687243D01*
X222305988Y-110307720D01*
X222395079Y-109917387D01*
X222444862Y-109520123D01*
X222454844Y-109119876D01*
X222424924Y-108720624D01*
X222355400Y-108326335D01*
X222355399Y-108326329D01*
X222246965Y-107940936D01*
X222246961Y-107940922D01*
X222100696Y-107568245D01*
X222100691Y-107568233D01*
X221918042Y-107211962D01*
X221918038Y-107211954D01*
X221700818Y-106875632D01*
X221451190Y-106562609D01*
X221451187Y-106562606D01*
X221451180Y-106562597D01*
X221171643Y-106276003D01*
X221171625Y-106275986D01*
X220864928Y-106018638D01*
X220864926Y-106018637D01*
X220534139Y-105793108D01*
X220350271Y-105692980D01*
X220182517Y-105601626D01*
X220182509Y-105601622D01*
X220182506Y-105601621D01*
X219813584Y-105446108D01*
X219813562Y-105446100D01*
X219430997Y-105328095D01*
X219430984Y-105328092D01*
X219038581Y-105248766D01*
X219038560Y-105248763D01*
X218640187Y-105208900D01*
X218640186Y-105208900D01*
X218339976Y-105208900D01*
X218339961Y-105208900D01*
X218040126Y-105223864D01*
X217644227Y-105283536D01*
X217320634Y-105365934D01*
X217256236Y-105382332D01*
X217256234Y-105382332D01*
X217256225Y-105382335D01*
X216880001Y-105519270D01*
X216519288Y-105692980D01*
X216519284Y-105692982D01*
X216177659Y-105901745D01*
X216177648Y-105901753D01*
X215858505Y-106143495D01*
X215858502Y-106143497D01*
X215565007Y-106415822D01*
X215300089Y-106716012D01*
X215066384Y-107041077D01*
X215066371Y-107041097D01*
X214866194Y-107387813D01*
X214701524Y-107752757D01*
X214574012Y-108132277D01*
X214484921Y-108522610D01*
X214435137Y-108919882D01*
X214425155Y-109320108D01*
X214425155Y-109320119D01*
X156409850Y-109320119D01*
X156414844Y-109119876D01*
X156384924Y-108720624D01*
X156315400Y-108326335D01*
X156315399Y-108326329D01*
X156206965Y-107940936D01*
X156206961Y-107940922D01*
X156060696Y-107568245D01*
X156060691Y-107568233D01*
X155878042Y-107211962D01*
X155878038Y-107211954D01*
X155660818Y-106875632D01*
X155411190Y-106562609D01*
X155411187Y-106562606D01*
X155411180Y-106562597D01*
X155131643Y-106276003D01*
X155131625Y-106275986D01*
X154824928Y-106018638D01*
X154824926Y-106018637D01*
X154494139Y-105793108D01*
X154310271Y-105692980D01*
X154142517Y-105601626D01*
X154142509Y-105601622D01*
X154142506Y-105601621D01*
X153773584Y-105446108D01*
X153773562Y-105446100D01*
X153390997Y-105328095D01*
X153390984Y-105328092D01*
X152998581Y-105248766D01*
X152998560Y-105248763D01*
X152600187Y-105208900D01*
X152600186Y-105208900D01*
X152299976Y-105208900D01*
X152299961Y-105208900D01*
X152000126Y-105223864D01*
X151604227Y-105283536D01*
X151280634Y-105365934D01*
X151216236Y-105382332D01*
X151216234Y-105382332D01*
X151216225Y-105382335D01*
X150840001Y-105519270D01*
X150479288Y-105692980D01*
X150479284Y-105692982D01*
X150137659Y-105901745D01*
X150137648Y-105901753D01*
X149818505Y-106143495D01*
X149818502Y-106143497D01*
X149525007Y-106415822D01*
X149260089Y-106716012D01*
X149026384Y-107041077D01*
X149026371Y-107041097D01*
X148826194Y-107387813D01*
X148661524Y-107752757D01*
X148534012Y-108132277D01*
X148444921Y-108522610D01*
X148395137Y-108919882D01*
X148385155Y-109320108D01*
X148385155Y-109320119D01*
X147820500Y-109320119D01*
X147820500Y-104143243D01*
X147840185Y-104076204D01*
X147892989Y-104030449D01*
X147962147Y-104020505D01*
X148011538Y-104038926D01*
X148123939Y-104111162D01*
X148319763Y-104189558D01*
X148526885Y-104229478D01*
X149892970Y-104229478D01*
X150035296Y-104215886D01*
X150050331Y-104214451D01*
X150252720Y-104155025D01*
X150440206Y-104058369D01*
X150464929Y-104038927D01*
X150518086Y-103997123D01*
X150606011Y-103927978D01*
X150744144Y-103768565D01*
X150849611Y-103585891D01*
X150918600Y-103386558D01*
X150948619Y-103177771D01*
X150938583Y-102967076D01*
X150888853Y-102762088D01*
X150816629Y-102603939D01*
X150801228Y-102570215D01*
X150801224Y-102570209D01*
X150678878Y-102398398D01*
X150678872Y-102398392D01*
X150526216Y-102252835D01*
X150526214Y-102252833D01*
X150348765Y-102138794D01*
X150152941Y-102060398D01*
X149945819Y-102020478D01*
X148579739Y-102020478D01*
X148579734Y-102020478D01*
X148422383Y-102035503D01*
X148422366Y-102035506D01*
X148219987Y-102094929D01*
X148032492Y-102191590D01*
X148021148Y-102200511D01*
X147956283Y-102226477D01*
X147887676Y-102213252D01*
X147837111Y-102165034D01*
X147820500Y-102103038D01*
X147820500Y-99636461D01*
X151472825Y-99636461D01*
X151476950Y-99680097D01*
X151477500Y-99691767D01*
X151477500Y-101412525D01*
X151475772Y-101428174D01*
X151476054Y-101428201D01*
X151475319Y-101435968D01*
X151477439Y-101503410D01*
X151477500Y-101507304D01*
X151477500Y-101534969D01*
X151478006Y-101538978D01*
X151478921Y-101550609D01*
X151480298Y-101594435D01*
X151485916Y-101613768D01*
X151489862Y-101632822D01*
X151492383Y-101652780D01*
X151492386Y-101652792D01*
X151508519Y-101693541D01*
X151512302Y-101704591D01*
X151524530Y-101746680D01*
X151524530Y-101746681D01*
X151534777Y-101764008D01*
X151543335Y-101781478D01*
X151550745Y-101800194D01*
X151576511Y-101835657D01*
X151582925Y-101845422D01*
X151605234Y-101883145D01*
X151605240Y-101883153D01*
X151619469Y-101897381D01*
X151632106Y-101912177D01*
X151643937Y-101928460D01*
X151677717Y-101956405D01*
X151686346Y-101964258D01*
X156152131Y-106430043D01*
X156161978Y-106442333D01*
X156162196Y-106442154D01*
X156167164Y-106448159D01*
X156216353Y-106494351D01*
X156219150Y-106497062D01*
X156238714Y-106516626D01*
X156241896Y-106519094D01*
X156250783Y-106526683D01*
X156282740Y-106556693D01*
X156300391Y-106566396D01*
X156316641Y-106577071D01*
X156332544Y-106589407D01*
X156332545Y-106589408D01*
X156332548Y-106589410D01*
X156372766Y-106606813D01*
X156383250Y-106611948D01*
X156421673Y-106633072D01*
X156440747Y-106637969D01*
X156441167Y-106638077D01*
X156459571Y-106644377D01*
X156478049Y-106652374D01*
X156521358Y-106659233D01*
X156532765Y-106661595D01*
X156575235Y-106672500D01*
X156595365Y-106672500D01*
X156614764Y-106674027D01*
X156634640Y-106677175D01*
X156674435Y-106673413D01*
X156678277Y-106673050D01*
X156689946Y-106672500D01*
X163875118Y-106672500D01*
X163942157Y-106692185D01*
X163948003Y-106696182D01*
X164047357Y-106768367D01*
X164047362Y-106768370D01*
X164206880Y-106839393D01*
X164206886Y-106839395D01*
X164377690Y-106875700D01*
X164377691Y-106875700D01*
X164552309Y-106875700D01*
X164552310Y-106875700D01*
X164723114Y-106839395D01*
X164723116Y-106839393D01*
X164723119Y-106839393D01*
X164776852Y-106815469D01*
X164882638Y-106768370D01*
X165023909Y-106665731D01*
X165140752Y-106535963D01*
X165228063Y-106384737D01*
X165282023Y-106218664D01*
X165282023Y-106218654D01*
X165283374Y-106212308D01*
X165284921Y-106212636D01*
X165308450Y-106155421D01*
X165365741Y-106115427D01*
X165435560Y-106112755D01*
X165492881Y-106145300D01*
X165777624Y-106430043D01*
X165787471Y-106442333D01*
X165787689Y-106442154D01*
X165792657Y-106448159D01*
X165841846Y-106494351D01*
X165844643Y-106497062D01*
X165864207Y-106516626D01*
X165867385Y-106519090D01*
X165876279Y-106526685D01*
X165894542Y-106543836D01*
X165908235Y-106556695D01*
X165908237Y-106556696D01*
X165925867Y-106566387D01*
X165942135Y-106577072D01*
X165958038Y-106589408D01*
X165958039Y-106589408D01*
X165958040Y-106589409D01*
X165971795Y-106595361D01*
X165998260Y-106606813D01*
X166008754Y-106611954D01*
X166047158Y-106633068D01*
X166047160Y-106633069D01*
X166047166Y-106633072D01*
X166066240Y-106637969D01*
X166066660Y-106638077D01*
X166085064Y-106644377D01*
X166103542Y-106652374D01*
X166146851Y-106659233D01*
X166158258Y-106661595D01*
X166200728Y-106672500D01*
X166220858Y-106672500D01*
X166240257Y-106674027D01*
X166260133Y-106677175D01*
X166299928Y-106673413D01*
X166303770Y-106673050D01*
X166315439Y-106672500D01*
X166415118Y-106672500D01*
X166482157Y-106692185D01*
X166488003Y-106696182D01*
X166587357Y-106768367D01*
X166587362Y-106768370D01*
X166746880Y-106839393D01*
X166746886Y-106839395D01*
X166917690Y-106875700D01*
X166917691Y-106875700D01*
X167092309Y-106875700D01*
X167092310Y-106875700D01*
X167263114Y-106839395D01*
X167263116Y-106839393D01*
X167263119Y-106839393D01*
X167316852Y-106815469D01*
X167422638Y-106768370D01*
X167563909Y-106665731D01*
X167680752Y-106535963D01*
X167768063Y-106384737D01*
X167822023Y-106218664D01*
X167840276Y-106045000D01*
X167822023Y-105871336D01*
X167768063Y-105705263D01*
X167680752Y-105554037D01*
X167563909Y-105424269D01*
X167563907Y-105424267D01*
X167422642Y-105321632D01*
X167422637Y-105321629D01*
X167263119Y-105250606D01*
X167263113Y-105250604D01*
X167128614Y-105222016D01*
X167092310Y-105214300D01*
X166917690Y-105214300D01*
X166887749Y-105220663D01*
X166746886Y-105250604D01*
X166746880Y-105250606D01*
X166587362Y-105321629D01*
X166581729Y-105324882D01*
X166580662Y-105323033D01*
X166524217Y-105343167D01*
X166456165Y-105327336D01*
X166429469Y-105307050D01*
X165607376Y-104484957D01*
X165597531Y-104472668D01*
X165597313Y-104472849D01*
X165592340Y-104466838D01*
X165543153Y-104420648D01*
X165540354Y-104417935D01*
X165520797Y-104398377D01*
X165517607Y-104395903D01*
X165508716Y-104388310D01*
X165476768Y-104358308D01*
X165476763Y-104358304D01*
X165459122Y-104348606D01*
X165442857Y-104337922D01*
X165426963Y-104325593D01*
X165426962Y-104325592D01*
X165386735Y-104308184D01*
X165376247Y-104303045D01*
X165337838Y-104281929D01*
X165337828Y-104281926D01*
X165318334Y-104276920D01*
X165299933Y-104270620D01*
X165281459Y-104262626D01*
X165281452Y-104262624D01*
X165238173Y-104255770D01*
X165226733Y-104253401D01*
X165184279Y-104242500D01*
X165184272Y-104242500D01*
X165164142Y-104242500D01*
X165144743Y-104240973D01*
X165124868Y-104237825D01*
X165124867Y-104237825D01*
X165081230Y-104241950D01*
X165069561Y-104242500D01*
X159992655Y-104242500D01*
X159925616Y-104222815D01*
X159904974Y-104206181D01*
X156663793Y-100965000D01*
X186252272Y-100965000D01*
X186272752Y-101107455D01*
X186272753Y-101107459D01*
X186332539Y-101238370D01*
X186332540Y-101238371D01*
X186332541Y-101238373D01*
X186370160Y-101285056D01*
X186370163Y-101285059D01*
X186370168Y-101285065D01*
X187454345Y-102369239D01*
X187639944Y-102554838D01*
X187639948Y-102554841D01*
X187639950Y-102554843D01*
X187686626Y-102592459D01*
X187817540Y-102652246D01*
X187817541Y-102652246D01*
X187817543Y-102652247D01*
X187960000Y-102672728D01*
X188102457Y-102652247D01*
X188233373Y-102592459D01*
X188280056Y-102554840D01*
X189549838Y-101285056D01*
X189587459Y-101238373D01*
X189647247Y-101107457D01*
X189667728Y-100965000D01*
X189647247Y-100822543D01*
X189641110Y-100809106D01*
X189589402Y-100695881D01*
X189579458Y-100626723D01*
X189608483Y-100563167D01*
X189667261Y-100525392D01*
X189713000Y-100520841D01*
X189756051Y-100524608D01*
X189991459Y-100504012D01*
X190219714Y-100442852D01*
X190433881Y-100342984D01*
X190627452Y-100207444D01*
X190794546Y-100040350D01*
X190930086Y-99846779D01*
X191029954Y-99632612D01*
X191049379Y-99560115D01*
X202156074Y-99560115D01*
X202174327Y-99733779D01*
X202174328Y-99733782D01*
X202228283Y-99899843D01*
X202228287Y-99899852D01*
X202315598Y-100051078D01*
X202383627Y-100126632D01*
X202432440Y-100180845D01*
X202432442Y-100180847D01*
X202573707Y-100283482D01*
X202573712Y-100283485D01*
X202733230Y-100354508D01*
X202733236Y-100354510D01*
X202904040Y-100390815D01*
X202954489Y-100390815D01*
X203021528Y-100410500D01*
X203067283Y-100463304D01*
X203077808Y-100501849D01*
X203084614Y-100566594D01*
X203084615Y-100566597D01*
X203138570Y-100732658D01*
X203138574Y-100732667D01*
X203225885Y-100883893D01*
X203255248Y-100916504D01*
X203342727Y-101013660D01*
X203342729Y-101013662D01*
X203483994Y-101116297D01*
X203483999Y-101116300D01*
X203643517Y-101187323D01*
X203643520Y-101187323D01*
X203643523Y-101187325D01*
X203809811Y-101222670D01*
X203871293Y-101255862D01*
X203901962Y-101305642D01*
X203942336Y-101429903D01*
X203942339Y-101429909D01*
X204029650Y-101581135D01*
X204076189Y-101632822D01*
X204146492Y-101710902D01*
X204146494Y-101710904D01*
X204287759Y-101813539D01*
X204287764Y-101813542D01*
X204447282Y-101884565D01*
X204447288Y-101884567D01*
X204618092Y-101920872D01*
X204618093Y-101920872D01*
X204792711Y-101920872D01*
X204792712Y-101920872D01*
X204963516Y-101884567D01*
X204963518Y-101884565D01*
X204963521Y-101884565D01*
X205017254Y-101860641D01*
X205123040Y-101813542D01*
X205264311Y-101710903D01*
X205364168Y-101600000D01*
X213159724Y-101600000D01*
X213177977Y-101773664D01*
X213177978Y-101773667D01*
X213231933Y-101939728D01*
X213231937Y-101939737D01*
X213319248Y-102090963D01*
X213417885Y-102200511D01*
X213436090Y-102220730D01*
X213436092Y-102220732D01*
X213577357Y-102323367D01*
X213577362Y-102323370D01*
X213736880Y-102394393D01*
X213736886Y-102394395D01*
X213907690Y-102430700D01*
X213907691Y-102430700D01*
X214082309Y-102430700D01*
X214082310Y-102430700D01*
X214253114Y-102394395D01*
X214253116Y-102394393D01*
X214253119Y-102394393D01*
X214309615Y-102369239D01*
X214412638Y-102323370D01*
X214553909Y-102220731D01*
X214670752Y-102090963D01*
X214758063Y-101939737D01*
X214812023Y-101773664D01*
X214830276Y-101600000D01*
X217249421Y-101600000D01*
X217269692Y-101818763D01*
X217269692Y-101818765D01*
X217269693Y-101818768D01*
X217311088Y-101964258D01*
X217329819Y-102030090D01*
X217427749Y-102226759D01*
X217560153Y-102402090D01*
X217668983Y-102501301D01*
X217722516Y-102550103D01*
X217909313Y-102665763D01*
X218114183Y-102745129D01*
X218330147Y-102785500D01*
X218330149Y-102785500D01*
X218549851Y-102785500D01*
X218549853Y-102785500D01*
X218765817Y-102745129D01*
X218970687Y-102665763D01*
X219157484Y-102550103D01*
X219319848Y-102402088D01*
X219452251Y-102226759D01*
X219550182Y-102030087D01*
X219610307Y-101818768D01*
X219630579Y-101600000D01*
X219610307Y-101381232D01*
X219550182Y-101169913D01*
X219452251Y-100973241D01*
X219365914Y-100858913D01*
X219319846Y-100797909D01*
X219157485Y-100649898D01*
X219157484Y-100649897D01*
X218970687Y-100534237D01*
X218970685Y-100534236D01*
X218765820Y-100454872D01*
X218765819Y-100454871D01*
X218765817Y-100454871D01*
X218749858Y-100451887D01*
X218687580Y-100420221D01*
X218652307Y-100359909D01*
X218655241Y-100290101D01*
X218695449Y-100232960D01*
X218749858Y-100208112D01*
X218765817Y-100205129D01*
X218970687Y-100125763D01*
X219157484Y-100010103D01*
X219319848Y-99862088D01*
X219452251Y-99686759D01*
X219550182Y-99490087D01*
X219610307Y-99278768D01*
X219630579Y-99060000D01*
X219610307Y-98841232D01*
X219550182Y-98629913D01*
X219452251Y-98433241D01*
X219349780Y-98297548D01*
X219319846Y-98257909D01*
X219157485Y-98109898D01*
X219157484Y-98109897D01*
X218970687Y-97994237D01*
X218970685Y-97994236D01*
X218843915Y-97945126D01*
X218788514Y-97902553D01*
X218764923Y-97836786D01*
X218780634Y-97768706D01*
X218830658Y-97719927D01*
X218888708Y-97705499D01*
X219172872Y-97705499D01*
X219232483Y-97699091D01*
X219367331Y-97648796D01*
X219482546Y-97562546D01*
X219568796Y-97447331D01*
X219619091Y-97312483D01*
X219625500Y-97252873D01*
X219625499Y-95787128D01*
X219619091Y-95727517D01*
X219568796Y-95592669D01*
X219568795Y-95592668D01*
X219568793Y-95592664D01*
X219482547Y-95477455D01*
X219482544Y-95477452D01*
X219367335Y-95391206D01*
X219367328Y-95391202D01*
X219232482Y-95340908D01*
X219232483Y-95340908D01*
X219172883Y-95334501D01*
X219172881Y-95334500D01*
X219172873Y-95334500D01*
X219172864Y-95334500D01*
X217707129Y-95334500D01*
X217707123Y-95334501D01*
X217647516Y-95340908D01*
X217512671Y-95391202D01*
X217512664Y-95391206D01*
X217397455Y-95477452D01*
X217397452Y-95477455D01*
X217311206Y-95592664D01*
X217311202Y-95592671D01*
X217260908Y-95727517D01*
X217254501Y-95787116D01*
X217254501Y-95787123D01*
X217254500Y-95787135D01*
X217254500Y-97252870D01*
X217254501Y-97252876D01*
X217260908Y-97312483D01*
X217311202Y-97447328D01*
X217311206Y-97447335D01*
X217397452Y-97562544D01*
X217397455Y-97562547D01*
X217512664Y-97648793D01*
X217512671Y-97648797D01*
X217647517Y-97699091D01*
X217647516Y-97699091D01*
X217654444Y-97699835D01*
X217707127Y-97705500D01*
X217991291Y-97705499D01*
X218058328Y-97725183D01*
X218104083Y-97777987D01*
X218114027Y-97847146D01*
X218085002Y-97910701D01*
X218036083Y-97945125D01*
X217909323Y-97994232D01*
X217909312Y-97994237D01*
X217722514Y-98109898D01*
X217560153Y-98257909D01*
X217427749Y-98433240D01*
X217329819Y-98629909D01*
X217308415Y-98705137D01*
X217295735Y-98749705D01*
X217269692Y-98841236D01*
X217249421Y-99059999D01*
X217249421Y-99060000D01*
X217269692Y-99278763D01*
X217269692Y-99278765D01*
X217269693Y-99278768D01*
X217329818Y-99490087D01*
X217329819Y-99490090D01*
X217427749Y-99686759D01*
X217560153Y-99862090D01*
X217652567Y-99946336D01*
X217722516Y-100010103D01*
X217909313Y-100125763D01*
X218114183Y-100205129D01*
X218130141Y-100208112D01*
X218192419Y-100239780D01*
X218227692Y-100300092D01*
X218224758Y-100369900D01*
X218184549Y-100427040D01*
X218130141Y-100451887D01*
X218114183Y-100454871D01*
X218114181Y-100454871D01*
X218114179Y-100454872D01*
X217909314Y-100534236D01*
X217909312Y-100534237D01*
X217722514Y-100649898D01*
X217560153Y-100797909D01*
X217427749Y-100973240D01*
X217329819Y-101169909D01*
X217329818Y-101169913D01*
X217277158Y-101354997D01*
X217269692Y-101381236D01*
X217249421Y-101599999D01*
X217249421Y-101600000D01*
X214830276Y-101600000D01*
X214812023Y-101426336D01*
X214775947Y-101315305D01*
X214758066Y-101260271D01*
X214758064Y-101260267D01*
X214758063Y-101260263D01*
X214700270Y-101160164D01*
X214670754Y-101109040D01*
X214670750Y-101109035D01*
X214669327Y-101107455D01*
X214666469Y-101104280D01*
X214654347Y-101090816D01*
X214624120Y-101027823D01*
X214622500Y-101007847D01*
X214622500Y-95842151D01*
X214642185Y-95775112D01*
X214654344Y-95759185D01*
X214670752Y-95740963D01*
X214758063Y-95589737D01*
X214812023Y-95423664D01*
X214830276Y-95250000D01*
X214812023Y-95076336D01*
X214772513Y-94954737D01*
X214758066Y-94910271D01*
X214758064Y-94910267D01*
X214758063Y-94910263D01*
X214670752Y-94759037D01*
X214553909Y-94629269D01*
X214553907Y-94629267D01*
X214412642Y-94526632D01*
X214412637Y-94526629D01*
X214253119Y-94455606D01*
X214253113Y-94455604D01*
X214118614Y-94427016D01*
X214082310Y-94419300D01*
X213907690Y-94419300D01*
X213877749Y-94425663D01*
X213736886Y-94455604D01*
X213736880Y-94455606D01*
X213577362Y-94526629D01*
X213577357Y-94526632D01*
X213436092Y-94629267D01*
X213436090Y-94629269D01*
X213319247Y-94759038D01*
X213231937Y-94910262D01*
X213231933Y-94910271D01*
X213178318Y-95075287D01*
X213177977Y-95076336D01*
X213159724Y-95250000D01*
X213177977Y-95423664D01*
X213177978Y-95423667D01*
X213231933Y-95589728D01*
X213231937Y-95589737D01*
X213319248Y-95740963D01*
X213335651Y-95759180D01*
X213365880Y-95822170D01*
X213367500Y-95842151D01*
X213367500Y-101007847D01*
X213347815Y-101074886D01*
X213335653Y-101090816D01*
X213319249Y-101109035D01*
X213319245Y-101109040D01*
X213231937Y-101260262D01*
X213231933Y-101260271D01*
X213177978Y-101426332D01*
X213177977Y-101426336D01*
X213159724Y-101600000D01*
X205364168Y-101600000D01*
X205381154Y-101581135D01*
X205468465Y-101429909D01*
X205522425Y-101263836D01*
X205540678Y-101090172D01*
X205522425Y-100916508D01*
X205478268Y-100780605D01*
X205468468Y-100750443D01*
X205468466Y-100750439D01*
X205468465Y-100750435D01*
X205381154Y-100599209D01*
X205378515Y-100596278D01*
X205364749Y-100580988D01*
X205334522Y-100517995D01*
X205332902Y-100498019D01*
X205332902Y-96080878D01*
X205352587Y-96013839D01*
X205369216Y-95993202D01*
X208869137Y-92493280D01*
X208881419Y-92483443D01*
X208881238Y-92483224D01*
X208887251Y-92478248D01*
X208887256Y-92478246D01*
X208933478Y-92429022D01*
X208936127Y-92426290D01*
X208955717Y-92406702D01*
X208958190Y-92403512D01*
X208965776Y-92394628D01*
X208995787Y-92362673D01*
X209005483Y-92345034D01*
X209016167Y-92328767D01*
X209028502Y-92312868D01*
X209045911Y-92272634D01*
X209051049Y-92262149D01*
X209072163Y-92223746D01*
X209072163Y-92223744D01*
X209072166Y-92223740D01*
X209077172Y-92204240D01*
X209083476Y-92185830D01*
X209091464Y-92167371D01*
X209091467Y-92167365D01*
X209095661Y-92140883D01*
X209098324Y-92124072D01*
X209100690Y-92112643D01*
X209111594Y-92070178D01*
X209111594Y-92050041D01*
X209113121Y-92030641D01*
X209116268Y-92010773D01*
X209112144Y-91967144D01*
X209111594Y-91955475D01*
X209111594Y-73760402D01*
X209131279Y-73693363D01*
X209170531Y-73659350D01*
X209170448Y-73659301D01*
X209300620Y-73659301D01*
X209316797Y-73666689D01*
X209354571Y-73725467D01*
X209358913Y-73747433D01*
X209367977Y-73833664D01*
X209367978Y-73833667D01*
X209421933Y-73999728D01*
X209421937Y-73999737D01*
X209509248Y-74150963D01*
X209613165Y-74266375D01*
X209626090Y-74280730D01*
X209626092Y-74280732D01*
X209767357Y-74383367D01*
X209767362Y-74383370D01*
X209926880Y-74454393D01*
X209926886Y-74454395D01*
X210097690Y-74490700D01*
X210097691Y-74490700D01*
X210272309Y-74490700D01*
X210272310Y-74490700D01*
X210443114Y-74454395D01*
X210443116Y-74454393D01*
X210443119Y-74454393D01*
X210575353Y-74395518D01*
X210602638Y-74383370D01*
X210743909Y-74280731D01*
X210860752Y-74150963D01*
X210948063Y-73999737D01*
X210948066Y-73999728D01*
X210950708Y-73993797D01*
X210953080Y-73994853D01*
X210985959Y-73946740D01*
X211050309Y-73919522D01*
X211064481Y-73918710D01*
X211141012Y-73918710D01*
X211141013Y-73918710D01*
X211311817Y-73882405D01*
X211311819Y-73882403D01*
X211311822Y-73882403D01*
X211396995Y-73844481D01*
X211471341Y-73811380D01*
X211612612Y-73708741D01*
X211729455Y-73578973D01*
X211816766Y-73427747D01*
X211856598Y-73305155D01*
X211896033Y-73247481D01*
X211948740Y-73222186D01*
X212115882Y-73186660D01*
X212275406Y-73115635D01*
X212416677Y-73012996D01*
X212533520Y-72883228D01*
X212620831Y-72732002D01*
X212674791Y-72565929D01*
X212693044Y-72392265D01*
X212674791Y-72218601D01*
X212620831Y-72052528D01*
X212533520Y-71901302D01*
X212530881Y-71898371D01*
X212517115Y-71883081D01*
X212486888Y-71820088D01*
X212485268Y-71800112D01*
X212485268Y-68707424D01*
X212504953Y-68640385D01*
X212511996Y-68631160D01*
X212511994Y-68631158D01*
X212515808Y-68625907D01*
X212515812Y-68625903D01*
X212603123Y-68474677D01*
X212657083Y-68308604D01*
X212675336Y-68134940D01*
X212657083Y-67961276D01*
X212603123Y-67795203D01*
X212515812Y-67643977D01*
X212398969Y-67514209D01*
X212398967Y-67514207D01*
X212257702Y-67411572D01*
X212257697Y-67411569D01*
X212098179Y-67340546D01*
X212098173Y-67340544D01*
X211959701Y-67311112D01*
X211927370Y-67304240D01*
X211752750Y-67304240D01*
X211722809Y-67310603D01*
X211581946Y-67340544D01*
X211581940Y-67340546D01*
X211422422Y-67411569D01*
X211422417Y-67411572D01*
X211281152Y-67514207D01*
X211281150Y-67514209D01*
X211164307Y-67643978D01*
X211076997Y-67795202D01*
X211076993Y-67795211D01*
X211023038Y-67961272D01*
X211023037Y-67961276D01*
X211018620Y-68003300D01*
X211012042Y-68065883D01*
X210985457Y-68130497D01*
X210928159Y-68170481D01*
X210914502Y-68174210D01*
X210802162Y-68198088D01*
X210802156Y-68198090D01*
X210642638Y-68269113D01*
X210642633Y-68269116D01*
X210501368Y-68371751D01*
X210501366Y-68371753D01*
X210384523Y-68501522D01*
X210297213Y-68652746D01*
X210297211Y-68652750D01*
X210285130Y-68689934D01*
X210245692Y-68747609D01*
X210181333Y-68774807D01*
X210167199Y-68775615D01*
X210112616Y-68775615D01*
X210082675Y-68781978D01*
X209941812Y-68811919D01*
X209941806Y-68811921D01*
X209782288Y-68882944D01*
X209782283Y-68882947D01*
X209641018Y-68985582D01*
X209641016Y-68985584D01*
X209524173Y-69115353D01*
X209436863Y-69266577D01*
X209436859Y-69266586D01*
X209382904Y-69432647D01*
X209382903Y-69432651D01*
X209364650Y-69606315D01*
X209382903Y-69779979D01*
X209382904Y-69779982D01*
X209436859Y-69946043D01*
X209436863Y-69946052D01*
X209524174Y-70097278D01*
X209525650Y-70098917D01*
X209526204Y-70100073D01*
X209527992Y-70102533D01*
X209527542Y-70102859D01*
X209555879Y-70161906D01*
X209557500Y-70181889D01*
X209557500Y-73067847D01*
X209537815Y-73134886D01*
X209525653Y-73150816D01*
X209509249Y-73169035D01*
X209509245Y-73169040D01*
X209421937Y-73320262D01*
X209421933Y-73320271D01*
X209367978Y-73486332D01*
X209367977Y-73486336D01*
X209360682Y-73555744D01*
X209358915Y-73572559D01*
X209332330Y-73637173D01*
X209300620Y-73659301D01*
X209170448Y-73659301D01*
X209145040Y-73644308D01*
X209113617Y-73581904D01*
X209111594Y-73559597D01*
X209111594Y-68578509D01*
X209131279Y-68511470D01*
X209143438Y-68495543D01*
X209159846Y-68477321D01*
X209247157Y-68326095D01*
X209301117Y-68160022D01*
X209319370Y-67986358D01*
X209301117Y-67812694D01*
X209252719Y-67663739D01*
X209247160Y-67646629D01*
X209247158Y-67646625D01*
X209247157Y-67646621D01*
X209159846Y-67495395D01*
X209043003Y-67365627D01*
X209043001Y-67365625D01*
X208901736Y-67262990D01*
X208901731Y-67262987D01*
X208742213Y-67191964D01*
X208742207Y-67191962D01*
X208607708Y-67163374D01*
X208571404Y-67155658D01*
X208396784Y-67155658D01*
X208366843Y-67162021D01*
X208225980Y-67191962D01*
X208225974Y-67191964D01*
X208066456Y-67262987D01*
X208066451Y-67262990D01*
X207925186Y-67365625D01*
X207925184Y-67365627D01*
X207808341Y-67495396D01*
X207721031Y-67646620D01*
X207721028Y-67646626D01*
X207667072Y-67812689D01*
X207667072Y-67812690D01*
X207667071Y-67812694D01*
X207663633Y-67845407D01*
X207637047Y-67910021D01*
X207579749Y-67950005D01*
X207563940Y-67953447D01*
X207564047Y-67953949D01*
X207557691Y-67955300D01*
X207557690Y-67955300D01*
X207556994Y-67955448D01*
X207386886Y-67991604D01*
X207386880Y-67991606D01*
X207227362Y-68062629D01*
X207227357Y-68062632D01*
X207086092Y-68165267D01*
X207086090Y-68165269D01*
X206969247Y-68295038D01*
X206881937Y-68446262D01*
X206881935Y-68446266D01*
X206853435Y-68533981D01*
X206813997Y-68591656D01*
X206761285Y-68616952D01*
X206611430Y-68648804D01*
X206611424Y-68648806D01*
X206451906Y-68719829D01*
X206451901Y-68719832D01*
X206310636Y-68822467D01*
X206310634Y-68822469D01*
X206193791Y-68952238D01*
X206106481Y-69103462D01*
X206106477Y-69103471D01*
X206052522Y-69269532D01*
X206052521Y-69269536D01*
X206034268Y-69443200D01*
X206052521Y-69616864D01*
X206052522Y-69616867D01*
X206106477Y-69782928D01*
X206106481Y-69782937D01*
X206172121Y-69896629D01*
X206193792Y-69934163D01*
X206210195Y-69952380D01*
X206240424Y-70015370D01*
X206242044Y-70035351D01*
X206242044Y-91294174D01*
X206222359Y-91361213D01*
X206205725Y-91381855D01*
X202611810Y-94975769D01*
X202599526Y-94985612D01*
X202599706Y-94985830D01*
X202593694Y-94990803D01*
X202547503Y-95039990D01*
X202544798Y-95042781D01*
X202525236Y-95062343D01*
X202525232Y-95062348D01*
X202522752Y-95065546D01*
X202515174Y-95074417D01*
X202485165Y-95106373D01*
X202485162Y-95106377D01*
X202475463Y-95124020D01*
X202464785Y-95140276D01*
X202452451Y-95156177D01*
X202452446Y-95156185D01*
X202435042Y-95196405D01*
X202429903Y-95206895D01*
X202408784Y-95245310D01*
X202403777Y-95264811D01*
X202397478Y-95283207D01*
X202390750Y-95298755D01*
X202389482Y-95301687D01*
X202389481Y-95301689D01*
X202382626Y-95344974D01*
X202380258Y-95356410D01*
X202369357Y-95398866D01*
X202369357Y-95419001D01*
X202367830Y-95438398D01*
X202364682Y-95458276D01*
X202365043Y-95462091D01*
X202368807Y-95501910D01*
X202369357Y-95513580D01*
X202369357Y-98961846D01*
X202349672Y-99028885D01*
X202337508Y-99044817D01*
X202315601Y-99069146D01*
X202315596Y-99069153D01*
X202228287Y-99220377D01*
X202228283Y-99220386D01*
X202174772Y-99385082D01*
X202174327Y-99386451D01*
X202156074Y-99560115D01*
X191049379Y-99560115D01*
X191091114Y-99404357D01*
X191111710Y-99168949D01*
X191111278Y-99164017D01*
X191102178Y-99059999D01*
X191091114Y-98933541D01*
X191064134Y-98832849D01*
X191065797Y-98762999D01*
X191104960Y-98705137D01*
X191169188Y-98677633D01*
X191216002Y-98680981D01*
X191316694Y-98707961D01*
X191505020Y-98724437D01*
X191552101Y-98728557D01*
X191552102Y-98728557D01*
X191552103Y-98728557D01*
X191591336Y-98725124D01*
X191787510Y-98707961D01*
X192015765Y-98646801D01*
X192229932Y-98546933D01*
X192423503Y-98411393D01*
X192590597Y-98244299D01*
X192726137Y-98050728D01*
X192826005Y-97836561D01*
X192887165Y-97608306D01*
X192907761Y-97372898D01*
X192887165Y-97137490D01*
X192860184Y-97036794D01*
X192861847Y-96966947D01*
X192901009Y-96909084D01*
X192965238Y-96881580D01*
X193012049Y-96884927D01*
X193112746Y-96911909D01*
X193301072Y-96928385D01*
X193348153Y-96932505D01*
X193348154Y-96932505D01*
X193348155Y-96932505D01*
X193387388Y-96929072D01*
X193583562Y-96911909D01*
X193811817Y-96850749D01*
X194025984Y-96750881D01*
X194219555Y-96615341D01*
X194386649Y-96448247D01*
X194522189Y-96254676D01*
X194622057Y-96040509D01*
X194683217Y-95812254D01*
X194703813Y-95576846D01*
X194683217Y-95341438D01*
X194656237Y-95240746D01*
X194657900Y-95170896D01*
X194697063Y-95113034D01*
X194761291Y-95085530D01*
X194808105Y-95088878D01*
X194908797Y-95115858D01*
X195097123Y-95132334D01*
X195144204Y-95136454D01*
X195144205Y-95136454D01*
X195144206Y-95136454D01*
X195188610Y-95132569D01*
X195379613Y-95115858D01*
X195607868Y-95054698D01*
X195822035Y-94954830D01*
X196015606Y-94819290D01*
X196182700Y-94652196D01*
X196318240Y-94458625D01*
X196418108Y-94244458D01*
X196479268Y-94016203D01*
X196499864Y-93780795D01*
X196479268Y-93545387D01*
X196418108Y-93317132D01*
X196318240Y-93102966D01*
X196182700Y-92909394D01*
X196182699Y-92909392D01*
X196015607Y-92742301D01*
X196015600Y-92742296D01*
X195822039Y-92606762D01*
X195822035Y-92606760D01*
X195822033Y-92606759D01*
X195607868Y-92506892D01*
X195607864Y-92506891D01*
X195607860Y-92506889D01*
X195379618Y-92445733D01*
X195379608Y-92445731D01*
X195144206Y-92425136D01*
X195144204Y-92425136D01*
X194908801Y-92445731D01*
X194908791Y-92445733D01*
X194680549Y-92506889D01*
X194680540Y-92506893D01*
X194466376Y-92606759D01*
X194466374Y-92606760D01*
X194272802Y-92742300D01*
X194105710Y-92909392D01*
X193970170Y-93102964D01*
X193970169Y-93102966D01*
X193870303Y-93317130D01*
X193870299Y-93317139D01*
X193809143Y-93545381D01*
X193809141Y-93545391D01*
X193788546Y-93780794D01*
X193788546Y-93780795D01*
X193809141Y-94016198D01*
X193809144Y-94016211D01*
X193836121Y-94116895D01*
X193834458Y-94186745D01*
X193795295Y-94244607D01*
X193731066Y-94272110D01*
X193684254Y-94268762D01*
X193583570Y-94241785D01*
X193583566Y-94241784D01*
X193583562Y-94241783D01*
X193583560Y-94241782D01*
X193583557Y-94241782D01*
X193348155Y-94221187D01*
X193348153Y-94221187D01*
X193112750Y-94241782D01*
X193112740Y-94241784D01*
X192884498Y-94302940D01*
X192884489Y-94302944D01*
X192670325Y-94402810D01*
X192670323Y-94402811D01*
X192476751Y-94538351D01*
X192309659Y-94705443D01*
X192174119Y-94899015D01*
X192174118Y-94899017D01*
X192094314Y-95070158D01*
X192074321Y-95113034D01*
X192074252Y-95113181D01*
X192074248Y-95113190D01*
X192013092Y-95341432D01*
X192013090Y-95341442D01*
X191992495Y-95576845D01*
X191992495Y-95576846D01*
X192013090Y-95812249D01*
X192013092Y-95812259D01*
X192040071Y-95912947D01*
X192038408Y-95982797D01*
X191999245Y-96040659D01*
X191935016Y-96068163D01*
X191888203Y-96064815D01*
X191787515Y-96037836D01*
X191787505Y-96037834D01*
X191552103Y-96017239D01*
X191552101Y-96017239D01*
X191316698Y-96037834D01*
X191316688Y-96037836D01*
X191088446Y-96098992D01*
X191088437Y-96098996D01*
X190874273Y-96198862D01*
X190874271Y-96198863D01*
X190680699Y-96334403D01*
X190513607Y-96501495D01*
X190378067Y-96695067D01*
X190378066Y-96695069D01*
X190278200Y-96909233D01*
X190278196Y-96909242D01*
X190217040Y-97137484D01*
X190217038Y-97137494D01*
X190196443Y-97372897D01*
X190196443Y-97372898D01*
X190217038Y-97608301D01*
X190217041Y-97608314D01*
X190244018Y-97708998D01*
X190242355Y-97778848D01*
X190203192Y-97836710D01*
X190138963Y-97864213D01*
X190092151Y-97860865D01*
X189991467Y-97833888D01*
X189991463Y-97833887D01*
X189991459Y-97833886D01*
X189991457Y-97833885D01*
X189991454Y-97833885D01*
X189756052Y-97813290D01*
X189756050Y-97813290D01*
X189520647Y-97833885D01*
X189520637Y-97833887D01*
X189292395Y-97895043D01*
X189292386Y-97895047D01*
X189078222Y-97994913D01*
X189078220Y-97994914D01*
X188884648Y-98130454D01*
X188717556Y-98297546D01*
X188582016Y-98491118D01*
X188582015Y-98491120D01*
X188517297Y-98629909D01*
X188482218Y-98705137D01*
X188482149Y-98705284D01*
X188482145Y-98705293D01*
X188420989Y-98933535D01*
X188420987Y-98933545D01*
X188400392Y-99168948D01*
X188400392Y-99168950D01*
X188404158Y-99211996D01*
X188390391Y-99280496D01*
X188341776Y-99330679D01*
X188273748Y-99346612D01*
X188229118Y-99335597D01*
X188102460Y-99277753D01*
X188102455Y-99277752D01*
X187960000Y-99257272D01*
X187817544Y-99277752D01*
X187817540Y-99277753D01*
X187686629Y-99337539D01*
X187639934Y-99375168D01*
X186370165Y-100644940D01*
X186370156Y-100644950D01*
X186332540Y-100691626D01*
X186272753Y-100822540D01*
X186272752Y-100822544D01*
X186252272Y-100965000D01*
X156663793Y-100965000D01*
X155417933Y-99719140D01*
X155384448Y-99657817D01*
X155382143Y-99620017D01*
X155383355Y-99606945D01*
X155395584Y-99474978D01*
X155380667Y-99314000D01*
X158549724Y-99314000D01*
X158567977Y-99487664D01*
X158567978Y-99487667D01*
X158621933Y-99653728D01*
X158621937Y-99653737D01*
X158709248Y-99804963D01*
X158826091Y-99934731D01*
X158929322Y-100009733D01*
X158969985Y-100039276D01*
X159012651Y-100094606D01*
X159020421Y-100126632D01*
X159037977Y-100293664D01*
X159037978Y-100293667D01*
X159091933Y-100459728D01*
X159091937Y-100459737D01*
X159179248Y-100610963D01*
X159251877Y-100691626D01*
X159296090Y-100740730D01*
X159296092Y-100740732D01*
X159437357Y-100843367D01*
X159437362Y-100843370D01*
X159596880Y-100914393D01*
X159596886Y-100914395D01*
X159767690Y-100950700D01*
X159767691Y-100950700D01*
X159942309Y-100950700D01*
X159942310Y-100950700D01*
X160113114Y-100914395D01*
X160113116Y-100914393D01*
X160113119Y-100914393D01*
X160188347Y-100880899D01*
X160272638Y-100843370D01*
X160413909Y-100740731D01*
X160530752Y-100610963D01*
X160618063Y-100459737D01*
X160672023Y-100293664D01*
X160690276Y-100120000D01*
X160672023Y-99946336D01*
X160637700Y-99840702D01*
X160618066Y-99780271D01*
X160618064Y-99780267D01*
X160618063Y-99780263D01*
X160530752Y-99629037D01*
X160413909Y-99499269D01*
X160413907Y-99499267D01*
X160270014Y-99394723D01*
X160227348Y-99339393D01*
X160219579Y-99307373D01*
X160202023Y-99140336D01*
X160148063Y-98974263D01*
X160060752Y-98823037D01*
X159943909Y-98693269D01*
X159943907Y-98693267D01*
X159802642Y-98590632D01*
X159802637Y-98590629D01*
X159643119Y-98519606D01*
X159643113Y-98519604D01*
X159507266Y-98490730D01*
X159472310Y-98483300D01*
X159297690Y-98483300D01*
X159267749Y-98489663D01*
X159126886Y-98519604D01*
X159126880Y-98519606D01*
X158967362Y-98590629D01*
X158967357Y-98590632D01*
X158826092Y-98693267D01*
X158826090Y-98693269D01*
X158709247Y-98823038D01*
X158621937Y-98974262D01*
X158621933Y-98974271D01*
X158567978Y-99140332D01*
X158567977Y-99140336D01*
X158549724Y-99314000D01*
X155380667Y-99314000D01*
X155376697Y-99271157D01*
X155320680Y-99074277D01*
X155229440Y-98891043D01*
X155122705Y-98749703D01*
X155098014Y-98684344D01*
X155112579Y-98616009D01*
X155122702Y-98600256D01*
X155229440Y-98458913D01*
X155320680Y-98275679D01*
X155376697Y-98078799D01*
X155395584Y-97874978D01*
X155395123Y-97870000D01*
X157019724Y-97870000D01*
X157037977Y-98043664D01*
X157037978Y-98043667D01*
X157091933Y-98209728D01*
X157091937Y-98209737D01*
X157179248Y-98360963D01*
X157224658Y-98411396D01*
X157296090Y-98490730D01*
X157296092Y-98490732D01*
X157437357Y-98593367D01*
X157437362Y-98593370D01*
X157596880Y-98664393D01*
X157596886Y-98664395D01*
X157767690Y-98700700D01*
X157767691Y-98700700D01*
X157942309Y-98700700D01*
X157942310Y-98700700D01*
X158113114Y-98664395D01*
X158113116Y-98664393D01*
X158113119Y-98664393D01*
X158190570Y-98629909D01*
X158272638Y-98593370D01*
X158413909Y-98490731D01*
X158530752Y-98360963D01*
X158618063Y-98209737D01*
X158672023Y-98043664D01*
X158690276Y-97870000D01*
X158672023Y-97696336D01*
X158618063Y-97530263D01*
X158530752Y-97379037D01*
X158413909Y-97249269D01*
X158413907Y-97249267D01*
X158272642Y-97146632D01*
X158272637Y-97146629D01*
X158113119Y-97075606D01*
X158113113Y-97075604D01*
X157978614Y-97047016D01*
X157942310Y-97039300D01*
X157767690Y-97039300D01*
X157737749Y-97045663D01*
X157596886Y-97075604D01*
X157596880Y-97075606D01*
X157437362Y-97146629D01*
X157437357Y-97146632D01*
X157296092Y-97249267D01*
X157296090Y-97249269D01*
X157179247Y-97379038D01*
X157091937Y-97530262D01*
X157091933Y-97530271D01*
X157037978Y-97696332D01*
X157037977Y-97696336D01*
X157019724Y-97870000D01*
X155395123Y-97870000D01*
X155394586Y-97864213D01*
X155381216Y-97719927D01*
X155376697Y-97671157D01*
X155320680Y-97474277D01*
X155229440Y-97291043D01*
X155120384Y-97146629D01*
X155106082Y-97127690D01*
X154954814Y-96989792D01*
X154954812Y-96989790D01*
X154780782Y-96882035D01*
X154780776Y-96882032D01*
X154630345Y-96823755D01*
X154589908Y-96808090D01*
X154388699Y-96770478D01*
X154184005Y-96770478D01*
X153982796Y-96808090D01*
X153982793Y-96808090D01*
X153982793Y-96808091D01*
X153791927Y-96882032D01*
X153791921Y-96882035D01*
X153617891Y-96989790D01*
X153617889Y-96989792D01*
X153466621Y-97127690D01*
X153343264Y-97291042D01*
X153252026Y-97474272D01*
X153252023Y-97474280D01*
X153250278Y-97480415D01*
X153212997Y-97539507D01*
X153149687Y-97569064D01*
X153131012Y-97570478D01*
X152984005Y-97570478D01*
X152782796Y-97608090D01*
X152782793Y-97608090D01*
X152782793Y-97608091D01*
X152591927Y-97682032D01*
X152591921Y-97682035D01*
X152417891Y-97789790D01*
X152417889Y-97789792D01*
X152266621Y-97927690D01*
X152143264Y-98091042D01*
X152052025Y-98274273D01*
X151996006Y-98471161D01*
X151982584Y-98616009D01*
X151977120Y-98674978D01*
X151979929Y-98705293D01*
X151990560Y-98820017D01*
X151977145Y-98888586D01*
X151954770Y-98919139D01*
X151719953Y-99153956D01*
X151707669Y-99163799D01*
X151707849Y-99164017D01*
X151701837Y-99168990D01*
X151655646Y-99218177D01*
X151652941Y-99220968D01*
X151633379Y-99240530D01*
X151633375Y-99240535D01*
X151630895Y-99243733D01*
X151623317Y-99252604D01*
X151593308Y-99284560D01*
X151593305Y-99284564D01*
X151583606Y-99302207D01*
X151572928Y-99318463D01*
X151560594Y-99334364D01*
X151560589Y-99334372D01*
X151543185Y-99374592D01*
X151538046Y-99385082D01*
X151516927Y-99423497D01*
X151511920Y-99442998D01*
X151505621Y-99461394D01*
X151499744Y-99474977D01*
X151497625Y-99479874D01*
X151497624Y-99479876D01*
X151490769Y-99523161D01*
X151488401Y-99534597D01*
X151477500Y-99577053D01*
X151477500Y-99597188D01*
X151475973Y-99616587D01*
X151472825Y-99636461D01*
X147820500Y-99636461D01*
X147820500Y-96843243D01*
X147840185Y-96776204D01*
X147892989Y-96730449D01*
X147962147Y-96720505D01*
X148011538Y-96738926D01*
X148123939Y-96811162D01*
X148319763Y-96889558D01*
X148526885Y-96929478D01*
X149892970Y-96929478D01*
X150035296Y-96915886D01*
X150050331Y-96914451D01*
X150252720Y-96855025D01*
X150440206Y-96758369D01*
X150464929Y-96738927D01*
X150606008Y-96627980D01*
X150606011Y-96627978D01*
X150744144Y-96468565D01*
X150849611Y-96285891D01*
X150918600Y-96086558D01*
X150948619Y-95877771D01*
X150938583Y-95667076D01*
X150888853Y-95462088D01*
X150845040Y-95366152D01*
X150801228Y-95270215D01*
X150801224Y-95270209D01*
X150678878Y-95098398D01*
X150678872Y-95098392D01*
X150526216Y-94952835D01*
X150526214Y-94952833D01*
X150348765Y-94838794D01*
X150152941Y-94760398D01*
X149945819Y-94720478D01*
X148579739Y-94720478D01*
X148579734Y-94720478D01*
X148422383Y-94735503D01*
X148422366Y-94735506D01*
X148219987Y-94794929D01*
X148032492Y-94891590D01*
X148021148Y-94900511D01*
X147956283Y-94926477D01*
X147887676Y-94913252D01*
X147837111Y-94865034D01*
X147820500Y-94803038D01*
X147820500Y-94615000D01*
X185854724Y-94615000D01*
X185872977Y-94788664D01*
X185872978Y-94788667D01*
X185926933Y-94954728D01*
X185926937Y-94954737D01*
X186014248Y-95105963D01*
X186105127Y-95206895D01*
X186131090Y-95235730D01*
X186131092Y-95235732D01*
X186272357Y-95338367D01*
X186272362Y-95338370D01*
X186431880Y-95409393D01*
X186431886Y-95409395D01*
X186602690Y-95445700D01*
X186602691Y-95445700D01*
X186777309Y-95445700D01*
X186777310Y-95445700D01*
X186948114Y-95409395D01*
X186948116Y-95409393D01*
X186948119Y-95409393D01*
X187001852Y-95385469D01*
X187107638Y-95338370D01*
X187248909Y-95235731D01*
X187365752Y-95105963D01*
X187453063Y-94954737D01*
X187507023Y-94788664D01*
X187525276Y-94615000D01*
X187507023Y-94441336D01*
X187453063Y-94275263D01*
X187365752Y-94124037D01*
X187363113Y-94121106D01*
X187349347Y-94105816D01*
X187319120Y-94042823D01*
X187317500Y-94022847D01*
X187317500Y-93302151D01*
X187337185Y-93235112D01*
X187349344Y-93219185D01*
X187365752Y-93200963D01*
X187453063Y-93049737D01*
X187507023Y-92883664D01*
X187525276Y-92710000D01*
X187507023Y-92536336D01*
X187463871Y-92403527D01*
X187453066Y-92370271D01*
X187453064Y-92370267D01*
X187453063Y-92370263D01*
X187365752Y-92219037D01*
X187248909Y-92089269D01*
X187248907Y-92089267D01*
X187107642Y-91986632D01*
X187107637Y-91986629D01*
X186948119Y-91915606D01*
X186948113Y-91915604D01*
X186795051Y-91883071D01*
X186777310Y-91879300D01*
X186602690Y-91879300D01*
X186584949Y-91883071D01*
X186431886Y-91915604D01*
X186431880Y-91915606D01*
X186272362Y-91986629D01*
X186272357Y-91986632D01*
X186131092Y-92089267D01*
X186131090Y-92089269D01*
X186014247Y-92219038D01*
X185926937Y-92370262D01*
X185926933Y-92370271D01*
X185872978Y-92536332D01*
X185872977Y-92536336D01*
X185854724Y-92710000D01*
X185872977Y-92883664D01*
X185872978Y-92883667D01*
X185926933Y-93049728D01*
X185926937Y-93049737D01*
X186014248Y-93200963D01*
X186030651Y-93219180D01*
X186060880Y-93282170D01*
X186062500Y-93302151D01*
X186062500Y-94022847D01*
X186042815Y-94089886D01*
X186030653Y-94105816D01*
X186014249Y-94124035D01*
X186014245Y-94124040D01*
X185926937Y-94275262D01*
X185926933Y-94275271D01*
X185872978Y-94441332D01*
X185872977Y-94441336D01*
X185854724Y-94615000D01*
X147820500Y-94615000D01*
X147820500Y-91120000D01*
X174769724Y-91120000D01*
X174787977Y-91293664D01*
X174787978Y-91293667D01*
X174841933Y-91459728D01*
X174841937Y-91459737D01*
X174929248Y-91610963D01*
X175033165Y-91726375D01*
X175046090Y-91740730D01*
X175046092Y-91740732D01*
X175187357Y-91843367D01*
X175187362Y-91843370D01*
X175346880Y-91914393D01*
X175346886Y-91914395D01*
X175517690Y-91950700D01*
X175517691Y-91950700D01*
X175692309Y-91950700D01*
X175692310Y-91950700D01*
X175863114Y-91914395D01*
X175863116Y-91914393D01*
X175863119Y-91914393D01*
X175916852Y-91890469D01*
X176022638Y-91843370D01*
X176163909Y-91740731D01*
X176280752Y-91610963D01*
X176368063Y-91459737D01*
X176413007Y-91321414D01*
X187818309Y-91321414D01*
X187836562Y-91495078D01*
X187836563Y-91495081D01*
X187890518Y-91661142D01*
X187890522Y-91661151D01*
X187977833Y-91812377D01*
X188058423Y-91901882D01*
X188094675Y-91942144D01*
X188094677Y-91942146D01*
X188235942Y-92044781D01*
X188235947Y-92044784D01*
X188395465Y-92115807D01*
X188395471Y-92115809D01*
X188566275Y-92152114D01*
X188566276Y-92152114D01*
X188740894Y-92152114D01*
X188740895Y-92152114D01*
X188911699Y-92115809D01*
X188911701Y-92115807D01*
X188911704Y-92115807D01*
X188965437Y-92091883D01*
X189071223Y-92044784D01*
X189151263Y-91986632D01*
X189170582Y-91972596D01*
X189236388Y-91949116D01*
X189243467Y-91948914D01*
X193903319Y-91948914D01*
X193918967Y-91950641D01*
X193918994Y-91950360D01*
X193926761Y-91951094D01*
X193926762Y-91951093D01*
X193926763Y-91951094D01*
X193994205Y-91948975D01*
X193998099Y-91948914D01*
X194025758Y-91948914D01*
X194025762Y-91948914D01*
X194029760Y-91948408D01*
X194041400Y-91947491D01*
X194085229Y-91946115D01*
X194104558Y-91940498D01*
X194123614Y-91936551D01*
X194143579Y-91934030D01*
X194184341Y-91917890D01*
X194195378Y-91914112D01*
X194237477Y-91901882D01*
X194254801Y-91891635D01*
X194272269Y-91883077D01*
X194290989Y-91875667D01*
X194326463Y-91849892D01*
X194336201Y-91843495D01*
X194373942Y-91821177D01*
X194388183Y-91806934D01*
X194402964Y-91794311D01*
X194419253Y-91782477D01*
X194447190Y-91748704D01*
X194455042Y-91740075D01*
X196911300Y-89283819D01*
X196972623Y-89250334D01*
X196998981Y-89247500D01*
X204515118Y-89247500D01*
X204582157Y-89267185D01*
X204588003Y-89271182D01*
X204687357Y-89343367D01*
X204687362Y-89343370D01*
X204846880Y-89414393D01*
X204846886Y-89414395D01*
X205017690Y-89450700D01*
X205017691Y-89450700D01*
X205192309Y-89450700D01*
X205192310Y-89450700D01*
X205363114Y-89414395D01*
X205363116Y-89414393D01*
X205363119Y-89414393D01*
X205416852Y-89390469D01*
X205522638Y-89343370D01*
X205663909Y-89240731D01*
X205780752Y-89110963D01*
X205868063Y-88959737D01*
X205868064Y-88959731D01*
X205868068Y-88959725D01*
X205900157Y-88860961D01*
X205922023Y-88793664D01*
X205940276Y-88620000D01*
X205922023Y-88446336D01*
X205868063Y-88280263D01*
X205811329Y-88181998D01*
X205794857Y-88114100D01*
X205811330Y-88058000D01*
X205868063Y-87959737D01*
X205922023Y-87793664D01*
X205940276Y-87620000D01*
X205922023Y-87446336D01*
X205873470Y-87296904D01*
X205868066Y-87280271D01*
X205868064Y-87280267D01*
X205868063Y-87280263D01*
X205811329Y-87181998D01*
X205794857Y-87114100D01*
X205811330Y-87058000D01*
X205822722Y-87038269D01*
X205868063Y-86959737D01*
X205922023Y-86793664D01*
X205940276Y-86620000D01*
X205922023Y-86446336D01*
X205872381Y-86293551D01*
X205868066Y-86280271D01*
X205868064Y-86280267D01*
X205868063Y-86280263D01*
X205780752Y-86129037D01*
X205663909Y-85999269D01*
X205663907Y-85999267D01*
X205522642Y-85896632D01*
X205522637Y-85896629D01*
X205363119Y-85825606D01*
X205363113Y-85825604D01*
X205212841Y-85793664D01*
X205192310Y-85789300D01*
X205017690Y-85789300D01*
X204997159Y-85793664D01*
X204846886Y-85825604D01*
X204846880Y-85825606D01*
X204687362Y-85896629D01*
X204687357Y-85896632D01*
X204588003Y-85968818D01*
X204522197Y-85992298D01*
X204515118Y-85992500D01*
X197271379Y-85992500D01*
X197255730Y-85990772D01*
X197255704Y-85991054D01*
X197247936Y-85990319D01*
X197180494Y-85992439D01*
X197176600Y-85992500D01*
X197148935Y-85992500D01*
X197144926Y-85993006D01*
X197133296Y-85993921D01*
X197089472Y-85995298D01*
X197089466Y-85995299D01*
X197070131Y-86000916D01*
X197051092Y-86004859D01*
X197031127Y-86007382D01*
X197031113Y-86007385D01*
X196990362Y-86023519D01*
X196979317Y-86027301D01*
X196937219Y-86039532D01*
X196919896Y-86049777D01*
X196902427Y-86058335D01*
X196883712Y-86065745D01*
X196848250Y-86091509D01*
X196838489Y-86097920D01*
X196800759Y-86120233D01*
X196786518Y-86134474D01*
X196771732Y-86147102D01*
X196755445Y-86158936D01*
X196727502Y-86192712D01*
X196719641Y-86201350D01*
X193961268Y-88959725D01*
X193899945Y-88993210D01*
X193873587Y-88996044D01*
X193064276Y-88996044D01*
X192997237Y-88976359D01*
X192951482Y-88923555D01*
X192941231Y-88876433D01*
X192940955Y-88876463D01*
X192940691Y-88873951D01*
X192940276Y-88872044D01*
X192940276Y-88870002D01*
X192933974Y-88810044D01*
X192922023Y-88696336D01*
X192879789Y-88566351D01*
X192868066Y-88530271D01*
X192868064Y-88530267D01*
X192868063Y-88530263D01*
X192780752Y-88379037D01*
X192663909Y-88249269D01*
X192561711Y-88175018D01*
X192519046Y-88119688D01*
X192513067Y-88050075D01*
X192545673Y-87988280D01*
X192606512Y-87953922D01*
X192634597Y-87950700D01*
X192692309Y-87950700D01*
X192692310Y-87950700D01*
X192863114Y-87914395D01*
X192863116Y-87914393D01*
X192863119Y-87914393D01*
X192942529Y-87879037D01*
X193022638Y-87843370D01*
X193163909Y-87740731D01*
X193280752Y-87610963D01*
X193368063Y-87459737D01*
X193422023Y-87293664D01*
X193440276Y-87120000D01*
X193422023Y-86946336D01*
X193387700Y-86840702D01*
X193368066Y-86780271D01*
X193368064Y-86780267D01*
X193368063Y-86780263D01*
X193319671Y-86696447D01*
X193303199Y-86628548D01*
X193326052Y-86562521D01*
X193354171Y-86534133D01*
X193413909Y-86490731D01*
X193530752Y-86360963D01*
X193618063Y-86209737D01*
X193672023Y-86043664D01*
X193690276Y-85870000D01*
X193672023Y-85696336D01*
X193629067Y-85564129D01*
X193618066Y-85530271D01*
X193618064Y-85530267D01*
X193618063Y-85530263D01*
X193530752Y-85379037D01*
X193413909Y-85249269D01*
X193413907Y-85249267D01*
X193272642Y-85146632D01*
X193272637Y-85146629D01*
X193113119Y-85075606D01*
X193113113Y-85075604D01*
X192978614Y-85047016D01*
X192942310Y-85039300D01*
X192767690Y-85039300D01*
X192737749Y-85045663D01*
X192596886Y-85075604D01*
X192596880Y-85075606D01*
X192437362Y-85146629D01*
X192437357Y-85146632D01*
X192296092Y-85249267D01*
X192296090Y-85249269D01*
X192179247Y-85379038D01*
X192091937Y-85530262D01*
X192091933Y-85530271D01*
X192038956Y-85693322D01*
X192037977Y-85696336D01*
X192019724Y-85870000D01*
X192037977Y-86043664D01*
X192037978Y-86043667D01*
X192091933Y-86209728D01*
X192091937Y-86209737D01*
X192140327Y-86293551D01*
X192156800Y-86361452D01*
X192133947Y-86427478D01*
X192105826Y-86455869D01*
X192046089Y-86499270D01*
X191929247Y-86629038D01*
X191841937Y-86780262D01*
X191841933Y-86780271D01*
X191787978Y-86946332D01*
X191787977Y-86946336D01*
X191769724Y-87120000D01*
X191787977Y-87293664D01*
X191787978Y-87293667D01*
X191841933Y-87459728D01*
X191841937Y-87459737D01*
X191929248Y-87610963D01*
X192046091Y-87740731D01*
X192134058Y-87804642D01*
X192148289Y-87814982D01*
X192190954Y-87870312D01*
X192196933Y-87939925D01*
X192164327Y-88001720D01*
X192103488Y-88036078D01*
X192075403Y-88039300D01*
X192017690Y-88039300D01*
X191997178Y-88043660D01*
X191846886Y-88075604D01*
X191846880Y-88075606D01*
X191785660Y-88102863D01*
X191716410Y-88112147D01*
X191653134Y-88082518D01*
X191622285Y-88035500D01*
X191620708Y-88036203D01*
X191618064Y-88030266D01*
X191618063Y-88030265D01*
X191618063Y-88030263D01*
X191530752Y-87879037D01*
X191413909Y-87749269D01*
X191413907Y-87749267D01*
X191272642Y-87646632D01*
X191272637Y-87646629D01*
X191113119Y-87575606D01*
X191113113Y-87575604D01*
X190978614Y-87547016D01*
X190942310Y-87539300D01*
X190767690Y-87539300D01*
X190737749Y-87545663D01*
X190596886Y-87575604D01*
X190596880Y-87575606D01*
X190437362Y-87646629D01*
X190437357Y-87646632D01*
X190296092Y-87749267D01*
X190296090Y-87749269D01*
X190179247Y-87879038D01*
X190091937Y-88030262D01*
X190091933Y-88030271D01*
X190042635Y-88182000D01*
X190037977Y-88196336D01*
X190019724Y-88370000D01*
X190037977Y-88543664D01*
X190037978Y-88543667D01*
X190091933Y-88709728D01*
X190091937Y-88709737D01*
X190140394Y-88793667D01*
X190149850Y-88810044D01*
X190166323Y-88877944D01*
X190143471Y-88943971D01*
X190088549Y-88987161D01*
X190042463Y-88996044D01*
X189825358Y-88996044D01*
X189758319Y-88976359D01*
X189752473Y-88972362D01*
X189653118Y-88900176D01*
X189653113Y-88900173D01*
X189493595Y-88829150D01*
X189493589Y-88829148D01*
X189359090Y-88800560D01*
X189322786Y-88792844D01*
X189148166Y-88792844D01*
X189118225Y-88799207D01*
X188977362Y-88829148D01*
X188977356Y-88829150D01*
X188817838Y-88900173D01*
X188817833Y-88900176D01*
X188676568Y-89002811D01*
X188676566Y-89002813D01*
X188559723Y-89132582D01*
X188472413Y-89283806D01*
X188472409Y-89283815D01*
X188422447Y-89437587D01*
X188418453Y-89449880D01*
X188401522Y-89610963D01*
X188400200Y-89623544D01*
X188418453Y-89797209D01*
X188472412Y-89963279D01*
X188509059Y-90026753D01*
X188525532Y-90094653D01*
X188509060Y-90150752D01*
X188462748Y-90230967D01*
X188408789Y-90397037D01*
X188408789Y-90397038D01*
X188408788Y-90397042D01*
X188402593Y-90455982D01*
X188376007Y-90520596D01*
X188329709Y-90556297D01*
X188235944Y-90598044D01*
X188094677Y-90700681D01*
X188094675Y-90700683D01*
X187977832Y-90830452D01*
X187890522Y-90981676D01*
X187890518Y-90981685D01*
X187845578Y-91120000D01*
X187836562Y-91147750D01*
X187818309Y-91321414D01*
X176413007Y-91321414D01*
X176422023Y-91293664D01*
X176440276Y-91120000D01*
X176424220Y-90967244D01*
X176436789Y-90898518D01*
X176484521Y-90847494D01*
X176552261Y-90830376D01*
X176597977Y-90841007D01*
X176756289Y-90911493D01*
X176756295Y-90911495D01*
X176927099Y-90947800D01*
X176927100Y-90947800D01*
X177101718Y-90947800D01*
X177101719Y-90947800D01*
X177207527Y-90925309D01*
X177233308Y-90922600D01*
X177698657Y-90922600D01*
X177698658Y-90922600D01*
X177736255Y-90914018D01*
X177749946Y-90911692D01*
X177788275Y-90907374D01*
X177824686Y-90894632D01*
X177838030Y-90890788D01*
X177875623Y-90882209D01*
X177910364Y-90865477D01*
X177923189Y-90860165D01*
X177959605Y-90847423D01*
X177992260Y-90826903D01*
X178004411Y-90820187D01*
X178039164Y-90803452D01*
X178069318Y-90779404D01*
X178080633Y-90771374D01*
X178113299Y-90750850D01*
X178241650Y-90622499D01*
X178310404Y-90553743D01*
X178325949Y-90541880D01*
X178325333Y-90541032D01*
X178442394Y-90455982D01*
X178471864Y-90434571D01*
X178588707Y-90304803D01*
X178620656Y-90249464D01*
X178640355Y-90223792D01*
X179008940Y-89855207D01*
X179023725Y-89842580D01*
X179163909Y-89740731D01*
X179280752Y-89610963D01*
X179310249Y-89559871D01*
X179329948Y-89534199D01*
X181620144Y-87244003D01*
X183407905Y-87244003D01*
X183448339Y-87414607D01*
X183527020Y-87571274D01*
X183527025Y-87571281D01*
X183592227Y-87651323D01*
X183592241Y-87651338D01*
X183786674Y-87845771D01*
X184378877Y-87253570D01*
X183689448Y-86564141D01*
X183592235Y-86661355D01*
X183592225Y-86661366D01*
X183527029Y-86741397D01*
X183527020Y-86741410D01*
X183448339Y-86898078D01*
X183407905Y-87068682D01*
X183407905Y-87244003D01*
X181620144Y-87244003D01*
X183161836Y-85702311D01*
X183171896Y-85693322D01*
X183172183Y-85693035D01*
X183181168Y-85682979D01*
X183206563Y-85657586D01*
X183238750Y-85625399D01*
X183981495Y-84882654D01*
X184042818Y-84849169D01*
X184112510Y-84854153D01*
X184156857Y-84882654D01*
X184838332Y-85564129D01*
X184871817Y-85625452D01*
X184874651Y-85651810D01*
X184874651Y-85776814D01*
X184874652Y-85776823D01*
X184875549Y-85780609D01*
X184875407Y-85783284D01*
X184875490Y-85783993D01*
X184875368Y-85784007D01*
X184871852Y-85850381D01*
X184831021Y-85907078D01*
X184766019Y-85932700D01*
X184726295Y-85929858D01*
X184722865Y-85929045D01*
X184547543Y-85929045D01*
X184376938Y-85969479D01*
X184220262Y-86048164D01*
X184140224Y-86113365D01*
X184140206Y-86113381D01*
X184043001Y-86210587D01*
X184732430Y-86900017D01*
X184998302Y-87165889D01*
X185031787Y-87227212D01*
X185026803Y-87296904D01*
X184998302Y-87341251D01*
X184140229Y-88199324D01*
X184334660Y-88393755D01*
X184334669Y-88393763D01*
X184364087Y-88417728D01*
X184403630Y-88475331D01*
X184405754Y-88545168D01*
X184373453Y-88601546D01*
X184355000Y-88619999D01*
X184355000Y-88620000D01*
X185604999Y-89870000D01*
X185604999Y-89869999D01*
X185605000Y-89870000D01*
X187355000Y-88120000D01*
X187102882Y-87867882D01*
X187069397Y-87806559D01*
X187074381Y-87736867D01*
X187116253Y-87680934D01*
X187181717Y-87656517D01*
X187240999Y-87666922D01*
X187302737Y-87694410D01*
X187302743Y-87694412D01*
X187473547Y-87730717D01*
X187473548Y-87730717D01*
X187648166Y-87730717D01*
X187648167Y-87730717D01*
X187818971Y-87694412D01*
X187818973Y-87694410D01*
X187818976Y-87694410D01*
X187926286Y-87646632D01*
X187978495Y-87623387D01*
X188119766Y-87520748D01*
X188236609Y-87390980D01*
X188323920Y-87239754D01*
X188377880Y-87073681D01*
X188396133Y-86900017D01*
X188377880Y-86726353D01*
X188325175Y-86564141D01*
X188323923Y-86560288D01*
X188323921Y-86560284D01*
X188323920Y-86560280D01*
X188236609Y-86409054D01*
X188119766Y-86279286D01*
X188119764Y-86279284D01*
X187978499Y-86176649D01*
X187978494Y-86176646D01*
X187818976Y-86105623D01*
X187818970Y-86105621D01*
X187648165Y-86069316D01*
X187641699Y-86068637D01*
X187641839Y-86067302D01*
X187581662Y-86049632D01*
X187535907Y-85996828D01*
X187524701Y-85945317D01*
X187524701Y-85795833D01*
X187524701Y-85795830D01*
X187484240Y-85625118D01*
X187484240Y-85625117D01*
X187433955Y-85524991D01*
X187421458Y-85456248D01*
X187448111Y-85391662D01*
X187505450Y-85351737D01*
X187575272Y-85349151D01*
X187600416Y-85358530D01*
X187700339Y-85408713D01*
X187870944Y-85449148D01*
X188046264Y-85449148D01*
X188216862Y-85408715D01*
X188216865Y-85408714D01*
X188254570Y-85389777D01*
X188323313Y-85377279D01*
X188387900Y-85403930D01*
X188397905Y-85412905D01*
X189355000Y-86370000D01*
X190605000Y-85120000D01*
X189808551Y-84323551D01*
X189775066Y-84262228D01*
X189780050Y-84192536D01*
X189821922Y-84136603D01*
X189887386Y-84112186D01*
X189955659Y-84127038D01*
X189971720Y-84137495D01*
X190007249Y-84164758D01*
X190013170Y-84169301D01*
X190116986Y-84212303D01*
X190159249Y-84229809D01*
X190316010Y-84250448D01*
X190316011Y-84250448D01*
X190316012Y-84250448D01*
X190347319Y-84246326D01*
X190363505Y-84245265D01*
X190736558Y-84245265D01*
X190803597Y-84264950D01*
X190809443Y-84268947D01*
X190945959Y-84368132D01*
X190945964Y-84368135D01*
X191105482Y-84439158D01*
X191105488Y-84439160D01*
X191276292Y-84475465D01*
X191276293Y-84475465D01*
X191450911Y-84475465D01*
X191450912Y-84475465D01*
X191621716Y-84439160D01*
X191621718Y-84439158D01*
X191621721Y-84439158D01*
X191685793Y-84410631D01*
X191781240Y-84368135D01*
X191922511Y-84265496D01*
X192039354Y-84135728D01*
X192126665Y-83984502D01*
X192180625Y-83818429D01*
X192187086Y-83756952D01*
X192213669Y-83692342D01*
X192270966Y-83652356D01*
X192340785Y-83649696D01*
X192398087Y-83682236D01*
X192813437Y-84097586D01*
X193295250Y-84579399D01*
X193361607Y-84645756D01*
X193423602Y-84707751D01*
X193456242Y-84728260D01*
X193467584Y-84736307D01*
X193497736Y-84760353D01*
X193532481Y-84777084D01*
X193544648Y-84783809D01*
X193577295Y-84804323D01*
X193607852Y-84815015D01*
X193613688Y-84817057D01*
X193626538Y-84822380D01*
X193661273Y-84839108D01*
X193661276Y-84839108D01*
X193661277Y-84839109D01*
X193698872Y-84847689D01*
X193712213Y-84851532D01*
X193748625Y-84864274D01*
X193786952Y-84868592D01*
X193800650Y-84870920D01*
X193823706Y-84876182D01*
X193838242Y-84879500D01*
X193883762Y-84879500D01*
X198282101Y-84879500D01*
X198307881Y-84882209D01*
X198413690Y-84904700D01*
X198413691Y-84904700D01*
X198588309Y-84904700D01*
X198588310Y-84904700D01*
X198759114Y-84868395D01*
X198759116Y-84868393D01*
X198759119Y-84868393D01*
X198855221Y-84825605D01*
X198918638Y-84797370D01*
X199059909Y-84694731D01*
X199176752Y-84564963D01*
X199264063Y-84413737D01*
X199318023Y-84247664D01*
X199336276Y-84074000D01*
X199318023Y-83900336D01*
X199275392Y-83769131D01*
X199264066Y-83734271D01*
X199264064Y-83734267D01*
X199264063Y-83734263D01*
X199176752Y-83583037D01*
X199059909Y-83453269D01*
X199059907Y-83453267D01*
X198918642Y-83350632D01*
X198918637Y-83350629D01*
X198759119Y-83279606D01*
X198759113Y-83279604D01*
X198614256Y-83248815D01*
X198588310Y-83243300D01*
X198413690Y-83243300D01*
X198307882Y-83265790D01*
X198282101Y-83268500D01*
X195312384Y-83268500D01*
X195245345Y-83248815D01*
X195199590Y-83196011D01*
X195189063Y-83131538D01*
X195190276Y-83120000D01*
X195172023Y-82946336D01*
X195125776Y-82804000D01*
X195118066Y-82780271D01*
X195118064Y-82780267D01*
X195118063Y-82780263D01*
X195030752Y-82629037D01*
X194913909Y-82499269D01*
X194913907Y-82499267D01*
X194772642Y-82396632D01*
X194772637Y-82396629D01*
X194613119Y-82325606D01*
X194613113Y-82325604D01*
X194478614Y-82297016D01*
X194442310Y-82289300D01*
X194267690Y-82289300D01*
X194237749Y-82295663D01*
X194096886Y-82325604D01*
X194096880Y-82325606D01*
X193937362Y-82396629D01*
X193937357Y-82396632D01*
X193867661Y-82447270D01*
X193810206Y-82469988D01*
X193809592Y-82470065D01*
X193798059Y-82470968D01*
X193752435Y-82472402D01*
X193752425Y-82472404D01*
X193732049Y-82478323D01*
X193713008Y-82482266D01*
X193691953Y-82484926D01*
X193691937Y-82484930D01*
X193649486Y-82501737D01*
X193638438Y-82505519D01*
X193601330Y-82516300D01*
X193531461Y-82516101D01*
X193479054Y-82484905D01*
X192522124Y-81527975D01*
X192488639Y-81466652D01*
X192493623Y-81396960D01*
X192535495Y-81341027D01*
X192600959Y-81316610D01*
X192669232Y-81331462D01*
X192682691Y-81339977D01*
X192687356Y-81343366D01*
X192687362Y-81343370D01*
X192846880Y-81414393D01*
X192846886Y-81414395D01*
X193017690Y-81450700D01*
X193017691Y-81450700D01*
X193192309Y-81450700D01*
X193192310Y-81450700D01*
X193363114Y-81414395D01*
X193363116Y-81414393D01*
X193363119Y-81414393D01*
X193462826Y-81370000D01*
X193522638Y-81343370D01*
X193663909Y-81240731D01*
X193780752Y-81110963D01*
X193868063Y-80959737D01*
X193922023Y-80793664D01*
X193925496Y-80760620D01*
X193952079Y-80696008D01*
X194009377Y-80656023D01*
X194074596Y-80652294D01*
X194155296Y-80669447D01*
X194155297Y-80669447D01*
X194329915Y-80669447D01*
X194329916Y-80669447D01*
X194500720Y-80633142D01*
X194500722Y-80633140D01*
X194500725Y-80633140D01*
X194564175Y-80604890D01*
X194660244Y-80562117D01*
X194801515Y-80459478D01*
X194918358Y-80329710D01*
X195005669Y-80178484D01*
X195059629Y-80012411D01*
X195077882Y-79838747D01*
X195059629Y-79665083D01*
X195005669Y-79499010D01*
X194918358Y-79347784D01*
X194801515Y-79218016D01*
X194801513Y-79218014D01*
X194660248Y-79115379D01*
X194660243Y-79115376D01*
X194500725Y-79044353D01*
X194500719Y-79044351D01*
X194366220Y-79015763D01*
X194329916Y-79008047D01*
X194155296Y-79008047D01*
X194024179Y-79035916D01*
X193954512Y-79030600D01*
X193898779Y-78988463D01*
X193880469Y-78952946D01*
X193868063Y-78914763D01*
X193780752Y-78763537D01*
X193663909Y-78633769D01*
X193663907Y-78633767D01*
X193522642Y-78531132D01*
X193522637Y-78531129D01*
X193363119Y-78460106D01*
X193363113Y-78460104D01*
X193228614Y-78431516D01*
X193192310Y-78423800D01*
X193017690Y-78423800D01*
X192987749Y-78430163D01*
X192846886Y-78460104D01*
X192846880Y-78460106D01*
X192687362Y-78531129D01*
X192687357Y-78531132D01*
X192546092Y-78633767D01*
X192546090Y-78633769D01*
X192429247Y-78763538D01*
X192341937Y-78914762D01*
X192341933Y-78914771D01*
X192287978Y-79080832D01*
X192287977Y-79080836D01*
X192269724Y-79254500D01*
X192287977Y-79428164D01*
X192287978Y-79428167D01*
X192341933Y-79594228D01*
X192341937Y-79594237D01*
X192426516Y-79740732D01*
X192429248Y-79745463D01*
X192527225Y-79854278D01*
X192557454Y-79917270D01*
X192548828Y-79986605D01*
X192527225Y-80020221D01*
X192429248Y-80129037D01*
X192429246Y-80129038D01*
X192429245Y-80129041D01*
X192341937Y-80280262D01*
X192341933Y-80280271D01*
X192301506Y-80404697D01*
X192287977Y-80446336D01*
X192269724Y-80620000D01*
X192287977Y-80793664D01*
X192287978Y-80793667D01*
X192341933Y-80959728D01*
X192341937Y-80959737D01*
X192401089Y-81062191D01*
X192417562Y-81130091D01*
X192394709Y-81196118D01*
X192339788Y-81239309D01*
X192270235Y-81245950D01*
X192208132Y-81213934D01*
X192206021Y-81211872D01*
X191730397Y-80736248D01*
X191730395Y-80736247D01*
X191697750Y-80715734D01*
X191686410Y-80707688D01*
X191656265Y-80683648D01*
X191656263Y-80683647D01*
X191621525Y-80666918D01*
X191609355Y-80660192D01*
X191576707Y-80639678D01*
X191576708Y-80639678D01*
X191570447Y-80637487D01*
X191540304Y-80626939D01*
X191527465Y-80621621D01*
X191492723Y-80604891D01*
X191492722Y-80604890D01*
X191455133Y-80596310D01*
X191441778Y-80592463D01*
X191407901Y-80580610D01*
X191405375Y-80579726D01*
X191367057Y-80575408D01*
X191353355Y-80573080D01*
X191315761Y-80564500D01*
X191315758Y-80564500D01*
X191270238Y-80564500D01*
X186445758Y-80564500D01*
X186264242Y-80564500D01*
X186264240Y-80564500D01*
X186264233Y-80564501D01*
X186226644Y-80573079D01*
X186212946Y-80575407D01*
X186174623Y-80579726D01*
X186138225Y-80592462D01*
X186124871Y-80596309D01*
X186094159Y-80603320D01*
X186087277Y-80604891D01*
X186072027Y-80612234D01*
X186052532Y-80621622D01*
X186039694Y-80626939D01*
X186003295Y-80639676D01*
X185970645Y-80660192D01*
X185958476Y-80666917D01*
X185923740Y-80683644D01*
X185923731Y-80683649D01*
X185893580Y-80707694D01*
X185882244Y-80715738D01*
X185852648Y-80734335D01*
X185785411Y-80753336D01*
X185718576Y-80732969D01*
X185698993Y-80717023D01*
X185386667Y-80404697D01*
X185353182Y-80343374D01*
X185350348Y-80317016D01*
X185350348Y-80192012D01*
X185350347Y-80192006D01*
X185349451Y-80188225D01*
X185349592Y-80185549D01*
X185349509Y-80184834D01*
X185349631Y-80184819D01*
X185353143Y-80118453D01*
X185393971Y-80061753D01*
X185458971Y-80036127D01*
X185498711Y-80038970D01*
X185502136Y-80039782D01*
X185677456Y-80039782D01*
X185848060Y-79999347D01*
X186004736Y-79920662D01*
X186084780Y-79855456D01*
X186084786Y-79855451D01*
X186181997Y-79758238D01*
X185226697Y-78802938D01*
X185193212Y-78741615D01*
X185195097Y-78715257D01*
X185846122Y-78715257D01*
X186535549Y-79404685D01*
X186535550Y-79404685D01*
X186632759Y-79307476D01*
X186632768Y-79307466D01*
X186697969Y-79227429D01*
X186697978Y-79227416D01*
X186776659Y-79070748D01*
X186817094Y-78900144D01*
X186817094Y-78724823D01*
X186776659Y-78554219D01*
X186697978Y-78397552D01*
X186697973Y-78397545D01*
X186632771Y-78317503D01*
X186632757Y-78317488D01*
X186438323Y-78123055D01*
X186438322Y-78123055D01*
X185846122Y-78715256D01*
X185846122Y-78715257D01*
X185195097Y-78715257D01*
X185198196Y-78671923D01*
X185226697Y-78627576D01*
X185492569Y-78361704D01*
X186084769Y-77769502D01*
X186084769Y-77769501D01*
X185890338Y-77575071D01*
X185890317Y-77575052D01*
X185810286Y-77509856D01*
X185810273Y-77509847D01*
X185696720Y-77452819D01*
X185664690Y-77429690D01*
X184762781Y-76527781D01*
X184729296Y-76466458D01*
X184734280Y-76396766D01*
X184776152Y-76340833D01*
X184777577Y-76339782D01*
X184862827Y-76277844D01*
X184913909Y-76240731D01*
X185027555Y-76114513D01*
X185087040Y-76077866D01*
X185156897Y-76079195D01*
X185180991Y-76091395D01*
X185181729Y-76090118D01*
X185187362Y-76093370D01*
X185346880Y-76164393D01*
X185346886Y-76164395D01*
X185517690Y-76200700D01*
X185517691Y-76200700D01*
X185692309Y-76200700D01*
X185692310Y-76200700D01*
X185863114Y-76164395D01*
X185863116Y-76164393D01*
X185863119Y-76164393D01*
X185916852Y-76140469D01*
X186022638Y-76093370D01*
X186163909Y-75990731D01*
X186280752Y-75860963D01*
X186338093Y-75761647D01*
X187960728Y-75761647D01*
X187978981Y-75935311D01*
X187978982Y-75935314D01*
X188032937Y-76101375D01*
X188032941Y-76101384D01*
X188120252Y-76252610D01*
X188177033Y-76315672D01*
X188237094Y-76382377D01*
X188237096Y-76382379D01*
X188378361Y-76485014D01*
X188378362Y-76485014D01*
X188378366Y-76485017D01*
X188474415Y-76527781D01*
X188537889Y-76556042D01*
X188537893Y-76556043D01*
X188539859Y-76556461D01*
X188540887Y-76557016D01*
X188544075Y-76558052D01*
X188543885Y-76558634D01*
X188601342Y-76589651D01*
X188632014Y-76639434D01*
X188671081Y-76759671D01*
X188671084Y-76759678D01*
X188758395Y-76910904D01*
X188862312Y-77026316D01*
X188875237Y-77040671D01*
X188875239Y-77040673D01*
X189016504Y-77143308D01*
X189016509Y-77143311D01*
X189176027Y-77214334D01*
X189176033Y-77214336D01*
X189346837Y-77250641D01*
X189346838Y-77250641D01*
X189521456Y-77250641D01*
X189521457Y-77250641D01*
X189692261Y-77214336D01*
X189692263Y-77214334D01*
X189692266Y-77214334D01*
X189745999Y-77190410D01*
X189851785Y-77143311D01*
X189870903Y-77129420D01*
X189951144Y-77071123D01*
X190016950Y-77047643D01*
X190024029Y-77047441D01*
X190065936Y-77047441D01*
X190132975Y-77067126D01*
X190153617Y-77083760D01*
X190284192Y-77214334D01*
X190327065Y-77257207D01*
X190327071Y-77257212D01*
X190327078Y-77257218D01*
X190407164Y-77322459D01*
X190407168Y-77322461D01*
X190407172Y-77322465D01*
X190407174Y-77322466D01*
X190407177Y-77322468D01*
X190563952Y-77401203D01*
X190674331Y-77427364D01*
X190734666Y-77441664D01*
X190734669Y-77441664D01*
X190910105Y-77441664D01*
X190910108Y-77441664D01*
X191080820Y-77401203D01*
X191237601Y-77322465D01*
X191317709Y-77257209D01*
X192060182Y-76514734D01*
X192125440Y-76434626D01*
X192204178Y-76277845D01*
X192244639Y-76107133D01*
X192244639Y-75931691D01*
X192204178Y-75760978D01*
X192204178Y-75760977D01*
X192125442Y-75604201D01*
X192125440Y-75604197D01*
X192060184Y-75524090D01*
X192018819Y-75482725D01*
X191985334Y-75421402D01*
X191982500Y-75395044D01*
X191982500Y-74962151D01*
X192002185Y-74895112D01*
X192014344Y-74879185D01*
X192030752Y-74860963D01*
X192118063Y-74709737D01*
X192172023Y-74543664D01*
X192190276Y-74370000D01*
X192172023Y-74196336D01*
X192128544Y-74062521D01*
X192118066Y-74030271D01*
X192118064Y-74030267D01*
X192118063Y-74030263D01*
X192030752Y-73879037D01*
X191913909Y-73749269D01*
X191913907Y-73749267D01*
X191772642Y-73646632D01*
X191772637Y-73646629D01*
X191613119Y-73575606D01*
X191613113Y-73575604D01*
X191519675Y-73555744D01*
X191458193Y-73522552D01*
X191424417Y-73461389D01*
X191422137Y-73447422D01*
X191422023Y-73446336D01*
X191382394Y-73324369D01*
X191368066Y-73280271D01*
X191368064Y-73280267D01*
X191368063Y-73280263D01*
X191280752Y-73129037D01*
X191163909Y-72999269D01*
X191163907Y-72999267D01*
X191022642Y-72896632D01*
X191022637Y-72896629D01*
X190863119Y-72825606D01*
X190863113Y-72825604D01*
X190728614Y-72797016D01*
X190692310Y-72789300D01*
X190517690Y-72789300D01*
X190487749Y-72795663D01*
X190346886Y-72825604D01*
X190346880Y-72825606D01*
X190187362Y-72896629D01*
X190187357Y-72896632D01*
X190046092Y-72999267D01*
X190046090Y-72999269D01*
X189929248Y-73129036D01*
X189841065Y-73281772D01*
X189790497Y-73329987D01*
X189721890Y-73343209D01*
X189705082Y-73340429D01*
X189637317Y-73324368D01*
X189637316Y-73324368D01*
X189461874Y-73324368D01*
X189461872Y-73324368D01*
X189461866Y-73324369D01*
X189291162Y-73364828D01*
X189291161Y-73364828D01*
X189134382Y-73443565D01*
X189134381Y-73443566D01*
X189054276Y-73508819D01*
X189054260Y-73508834D01*
X188311807Y-74251290D01*
X188311799Y-74251299D01*
X188246543Y-74331403D01*
X188246538Y-74331411D01*
X188167803Y-74488186D01*
X188167803Y-74488187D01*
X188127344Y-74658891D01*
X188127343Y-74658902D01*
X188127343Y-74834337D01*
X188127344Y-74834348D01*
X188167802Y-75005051D01*
X188182019Y-75033358D01*
X188194515Y-75102101D01*
X188190285Y-75123602D01*
X188188629Y-75129300D01*
X188181797Y-75172434D01*
X188151866Y-75235568D01*
X188151476Y-75236003D01*
X188120257Y-75270676D01*
X188120249Y-75270687D01*
X188032941Y-75421909D01*
X188032937Y-75421918D01*
X187978982Y-75587979D01*
X187978981Y-75587983D01*
X187960728Y-75761647D01*
X186338093Y-75761647D01*
X186368063Y-75709737D01*
X186402354Y-75604201D01*
X186424031Y-75537484D01*
X186426624Y-75538326D01*
X186454097Y-75487439D01*
X186515259Y-75453661D01*
X186542196Y-75450700D01*
X186692309Y-75450700D01*
X186692310Y-75450700D01*
X186863114Y-75414395D01*
X186863116Y-75414393D01*
X186863119Y-75414393D01*
X186916852Y-75390469D01*
X187022638Y-75343370D01*
X187163909Y-75240731D01*
X187280752Y-75110963D01*
X187368063Y-74959737D01*
X187422023Y-74793664D01*
X187440276Y-74620000D01*
X187422023Y-74446336D01*
X187384679Y-74331403D01*
X187368066Y-74280271D01*
X187368064Y-74280267D01*
X187368063Y-74280263D01*
X187319671Y-74196447D01*
X187303199Y-74128548D01*
X187326052Y-74062521D01*
X187354171Y-74034133D01*
X187413909Y-73990731D01*
X187530752Y-73860963D01*
X187618063Y-73709737D01*
X187672023Y-73543664D01*
X187690276Y-73370000D01*
X187672023Y-73196336D01*
X187618063Y-73030263D01*
X187530752Y-72879037D01*
X187413909Y-72749269D01*
X187413907Y-72749267D01*
X187272642Y-72646632D01*
X187272637Y-72646629D01*
X187113119Y-72575606D01*
X187113113Y-72575604D01*
X186962841Y-72543664D01*
X186942310Y-72539300D01*
X186942309Y-72539300D01*
X186889081Y-72539300D01*
X186822042Y-72519615D01*
X186801400Y-72502981D01*
X183105201Y-68806782D01*
X183071716Y-68745459D01*
X183069561Y-68732061D01*
X183068276Y-68719830D01*
X183062023Y-68660336D01*
X183010422Y-68501522D01*
X183008066Y-68494271D01*
X183008064Y-68494267D01*
X183008063Y-68494263D01*
X182920752Y-68343037D01*
X182803909Y-68213269D01*
X182803907Y-68213267D01*
X182662642Y-68110632D01*
X182662637Y-68110629D01*
X182503119Y-68039606D01*
X182503113Y-68039604D01*
X182368614Y-68011016D01*
X182332310Y-68003300D01*
X182157690Y-68003300D01*
X182127749Y-68009663D01*
X181986886Y-68039604D01*
X181986880Y-68039606D01*
X181827362Y-68110629D01*
X181827357Y-68110632D01*
X181686092Y-68213267D01*
X181686090Y-68213269D01*
X181569247Y-68343038D01*
X181481937Y-68494262D01*
X181481933Y-68494271D01*
X181428143Y-68659825D01*
X181427977Y-68660336D01*
X181409724Y-68834000D01*
X181427977Y-69007664D01*
X181427978Y-69007667D01*
X181481933Y-69173728D01*
X181481937Y-69173737D01*
X181569248Y-69324963D01*
X181666207Y-69432647D01*
X181686090Y-69454730D01*
X181686092Y-69454732D01*
X181827357Y-69557367D01*
X181827362Y-69557370D01*
X181986880Y-69628393D01*
X181986883Y-69628393D01*
X181986886Y-69628395D01*
X182157690Y-69664700D01*
X182157692Y-69664700D01*
X182160609Y-69665320D01*
X182222091Y-69698512D01*
X182222510Y-69698929D01*
X183851200Y-71327619D01*
X183884685Y-71388942D01*
X183879701Y-71458634D01*
X183837829Y-71514567D01*
X183774127Y-71538326D01*
X183774158Y-71538620D01*
X183773020Y-71538739D01*
X183772365Y-71538984D01*
X183769836Y-71539074D01*
X183767691Y-71539299D01*
X183596886Y-71575604D01*
X183596880Y-71575606D01*
X183437362Y-71646629D01*
X183437357Y-71646632D01*
X183338003Y-71718818D01*
X183272197Y-71742298D01*
X183265118Y-71742500D01*
X181916281Y-71742500D01*
X181849242Y-71722815D01*
X181828600Y-71706181D01*
X181162988Y-71040569D01*
X181129503Y-70979246D01*
X181132737Y-70914571D01*
X181172023Y-70793664D01*
X181190276Y-70620000D01*
X181172023Y-70446336D01*
X181118063Y-70280263D01*
X181030752Y-70129037D01*
X180913909Y-69999269D01*
X180913907Y-69999267D01*
X180772642Y-69896632D01*
X180772637Y-69896629D01*
X180613119Y-69825606D01*
X180613113Y-69825604D01*
X180478614Y-69797016D01*
X180442310Y-69789300D01*
X180267690Y-69789300D01*
X180237749Y-69795663D01*
X180096886Y-69825604D01*
X180096880Y-69825606D01*
X179937362Y-69896629D01*
X179937357Y-69896632D01*
X179796092Y-69999267D01*
X179796090Y-69999269D01*
X179679247Y-70129038D01*
X179591937Y-70280262D01*
X179591933Y-70280271D01*
X179537978Y-70446332D01*
X179537977Y-70446336D01*
X179519724Y-70620000D01*
X179537977Y-70793664D01*
X179537978Y-70793667D01*
X179591933Y-70959728D01*
X179591937Y-70959737D01*
X179679245Y-71110959D01*
X179679249Y-71110964D01*
X179698266Y-71132085D01*
X179728495Y-71195076D01*
X179730054Y-71211158D01*
X179730298Y-71218942D01*
X179735916Y-71238275D01*
X179739862Y-71257329D01*
X179742383Y-71277287D01*
X179742386Y-71277299D01*
X179758519Y-71318048D01*
X179762302Y-71329098D01*
X179774530Y-71371187D01*
X179774530Y-71371188D01*
X179784777Y-71388515D01*
X179793335Y-71405985D01*
X179800745Y-71424701D01*
X179826511Y-71460164D01*
X179832925Y-71469929D01*
X179855234Y-71507652D01*
X179855240Y-71507660D01*
X179869469Y-71521888D01*
X179882106Y-71536684D01*
X179893937Y-71552967D01*
X179927717Y-71580912D01*
X179936346Y-71588765D01*
X181102624Y-72755043D01*
X181112471Y-72767333D01*
X181112689Y-72767154D01*
X181117657Y-72773159D01*
X181166846Y-72819351D01*
X181169643Y-72822062D01*
X181189207Y-72841626D01*
X181192385Y-72844090D01*
X181201281Y-72851687D01*
X181233235Y-72881695D01*
X181233237Y-72881696D01*
X181250867Y-72891387D01*
X181267135Y-72902072D01*
X181283038Y-72914408D01*
X181323262Y-72931814D01*
X181333754Y-72936954D01*
X181372158Y-72958068D01*
X181372160Y-72958069D01*
X181372166Y-72958072D01*
X181391240Y-72962969D01*
X181391660Y-72963077D01*
X181410064Y-72969377D01*
X181428542Y-72977374D01*
X181471851Y-72984233D01*
X181483258Y-72986595D01*
X181525728Y-72997500D01*
X181545858Y-72997500D01*
X181565257Y-72999027D01*
X181585133Y-73002175D01*
X181624928Y-72998413D01*
X181628770Y-72998050D01*
X181640439Y-72997500D01*
X183265118Y-72997500D01*
X183332157Y-73017185D01*
X183338003Y-73021182D01*
X183437357Y-73093367D01*
X183437362Y-73093370D01*
X183596880Y-73164393D01*
X183596883Y-73164393D01*
X183596886Y-73164395D01*
X183726614Y-73191969D01*
X183788096Y-73225161D01*
X183821873Y-73286324D01*
X183818765Y-73351576D01*
X183787978Y-73446332D01*
X183787977Y-73446336D01*
X183769724Y-73620000D01*
X183784400Y-73759636D01*
X183771832Y-73828364D01*
X183724100Y-73879388D01*
X183711517Y-73885875D01*
X183687359Y-73896630D01*
X183546092Y-73999267D01*
X183546090Y-73999269D01*
X183429247Y-74129038D01*
X183341937Y-74280262D01*
X183341933Y-74280271D01*
X183287978Y-74446332D01*
X183287977Y-74446336D01*
X183269724Y-74620000D01*
X183287977Y-74793664D01*
X183287978Y-74793667D01*
X183341933Y-74959728D01*
X183341937Y-74959737D01*
X183429248Y-75110963D01*
X183541315Y-75235427D01*
X183571545Y-75298417D01*
X183567096Y-75356715D01*
X183537978Y-75446332D01*
X183537977Y-75446336D01*
X183519724Y-75620000D01*
X183537977Y-75793664D01*
X183537978Y-75793667D01*
X183591933Y-75959728D01*
X183591937Y-75959737D01*
X183679248Y-76110963D01*
X183760047Y-76200700D01*
X183796090Y-76240730D01*
X183796092Y-76240732D01*
X183937357Y-76343367D01*
X183937362Y-76343370D01*
X184096886Y-76414395D01*
X184255932Y-76448200D01*
X184317409Y-76481391D01*
X184351186Y-76542553D01*
X184346534Y-76612268D01*
X184317828Y-76657170D01*
X183105000Y-77869999D01*
X183105000Y-77870001D01*
X183538738Y-78303739D01*
X183572223Y-78365062D01*
X183567239Y-78434754D01*
X183525367Y-78490687D01*
X183459903Y-78515104D01*
X183405935Y-78505632D01*
X183405740Y-78506234D01*
X183401480Y-78504850D01*
X183400620Y-78504699D01*
X183399553Y-78504224D01*
X183399551Y-78504223D01*
X183399552Y-78504223D01*
X183265053Y-78475635D01*
X183228749Y-78467919D01*
X183054129Y-78467919D01*
X183024188Y-78474282D01*
X182883325Y-78504223D01*
X182883319Y-78504225D01*
X182723801Y-78575248D01*
X182723796Y-78575251D01*
X182582531Y-78677886D01*
X182582529Y-78677888D01*
X182465686Y-78807657D01*
X182378376Y-78958881D01*
X182378372Y-78958890D01*
X182334518Y-79093863D01*
X182324416Y-79124955D01*
X182306163Y-79298619D01*
X182324416Y-79472283D01*
X182324417Y-79472286D01*
X182378372Y-79638347D01*
X182378376Y-79638356D01*
X182465687Y-79789582D01*
X182542805Y-79875231D01*
X182578068Y-79914395D01*
X182582530Y-79919350D01*
X182625680Y-79950700D01*
X182649183Y-79967776D01*
X182691849Y-80023105D01*
X182700298Y-80068094D01*
X182700298Y-80172993D01*
X182700299Y-80173004D01*
X182740758Y-80343708D01*
X182740758Y-80343709D01*
X182819495Y-80500488D01*
X182819496Y-80500489D01*
X182884749Y-80580594D01*
X182884764Y-80580610D01*
X183516029Y-81211872D01*
X183627228Y-81323071D01*
X183679080Y-81365311D01*
X183707333Y-81388327D01*
X183707341Y-81388332D01*
X183831527Y-81450700D01*
X183864117Y-81467067D01*
X184034829Y-81507528D01*
X184034832Y-81507528D01*
X184159836Y-81507528D01*
X184226875Y-81527213D01*
X184247517Y-81543847D01*
X184557079Y-81853409D01*
X184590564Y-81914732D01*
X184585580Y-81984424D01*
X184557079Y-82028771D01*
X183724601Y-82861250D01*
X182689611Y-83896240D01*
X182628288Y-83929725D01*
X182558596Y-83924741D01*
X182514249Y-83896240D01*
X182204687Y-83586678D01*
X182171202Y-83525355D01*
X182168368Y-83498997D01*
X182168368Y-83373992D01*
X182168367Y-83373986D01*
X182167471Y-83370205D01*
X182167612Y-83367529D01*
X182167529Y-83366814D01*
X182167651Y-83366799D01*
X182171163Y-83300433D01*
X182211991Y-83243733D01*
X182276991Y-83218107D01*
X182316731Y-83220950D01*
X182320156Y-83221762D01*
X182495476Y-83221762D01*
X182666080Y-83181327D01*
X182822756Y-83102642D01*
X182902794Y-83037441D01*
X182902812Y-83037425D01*
X183450774Y-82489461D01*
X183450793Y-82489440D01*
X183515989Y-82409409D01*
X183515998Y-82409396D01*
X183594679Y-82252728D01*
X183635114Y-82082124D01*
X183635114Y-81906803D01*
X183594679Y-81736199D01*
X183515998Y-81579532D01*
X183515993Y-81579525D01*
X183450791Y-81499483D01*
X183450777Y-81499468D01*
X182708358Y-80757051D01*
X182708337Y-80757032D01*
X182628306Y-80691836D01*
X182628293Y-80691827D01*
X182471626Y-80613146D01*
X182301022Y-80572712D01*
X182125700Y-80572712D01*
X182124451Y-80572858D01*
X182123597Y-80572712D01*
X182118478Y-80572712D01*
X182118478Y-80571837D01*
X182055580Y-80561088D01*
X182022377Y-80537377D01*
X181355000Y-79870000D01*
X179855000Y-81370000D01*
X180417673Y-81932673D01*
X180451158Y-81993996D01*
X180446174Y-82063688D01*
X180404302Y-82119621D01*
X180385643Y-82131164D01*
X180330906Y-82158654D01*
X180330899Y-82158658D01*
X180250802Y-82223905D01*
X180250787Y-82223919D01*
X179963849Y-82510857D01*
X179902526Y-82544342D01*
X179832834Y-82539358D01*
X179803283Y-82523494D01*
X179716755Y-82460628D01*
X179716750Y-82460625D01*
X179557232Y-82389602D01*
X179557226Y-82389600D01*
X179422727Y-82361012D01*
X179386423Y-82353296D01*
X179211803Y-82353296D01*
X179181862Y-82359659D01*
X179040999Y-82389600D01*
X179040993Y-82389602D01*
X178881475Y-82460625D01*
X178881470Y-82460628D01*
X178740205Y-82563263D01*
X178740203Y-82563265D01*
X178623360Y-82693034D01*
X178536050Y-82844258D01*
X178536046Y-82844267D01*
X178482091Y-83010328D01*
X178482090Y-83010332D01*
X178463837Y-83183996D01*
X178482090Y-83357660D01*
X178482091Y-83357663D01*
X178536046Y-83523724D01*
X178536050Y-83523733D01*
X178623361Y-83674959D01*
X178727278Y-83790371D01*
X178740203Y-83804726D01*
X178740205Y-83804728D01*
X178881470Y-83907363D01*
X178881475Y-83907366D01*
X179040993Y-83978389D01*
X179040999Y-83978391D01*
X179211803Y-84014696D01*
X179211804Y-84014696D01*
X179386422Y-84014696D01*
X179386423Y-84014696D01*
X179557227Y-83978391D01*
X179561482Y-83976496D01*
X179563265Y-83975703D01*
X179613699Y-83964983D01*
X179853817Y-83964983D01*
X179920856Y-83984668D01*
X179941498Y-84001302D01*
X180202425Y-84262228D01*
X180445248Y-84505051D01*
X180488645Y-84540403D01*
X180525353Y-84570307D01*
X180525361Y-84570312D01*
X180621004Y-84618345D01*
X180682137Y-84649047D01*
X180852849Y-84689508D01*
X180852852Y-84689508D01*
X180977857Y-84689508D01*
X181044896Y-84709193D01*
X181065538Y-84725827D01*
X181375099Y-85035388D01*
X181408584Y-85096711D01*
X181403600Y-85166403D01*
X181375099Y-85210750D01*
X178201059Y-88384790D01*
X178186264Y-88397427D01*
X178046089Y-88499270D01*
X177929250Y-88629034D01*
X177929246Y-88629039D01*
X177899753Y-88680122D01*
X177880048Y-88705801D01*
X177502448Y-89083401D01*
X177487653Y-89096038D01*
X177354046Y-89193108D01*
X177290910Y-89263229D01*
X177231423Y-89299877D01*
X177172980Y-89301546D01*
X177101719Y-89286400D01*
X176927099Y-89286400D01*
X176908986Y-89290250D01*
X176756295Y-89322704D01*
X176756289Y-89322706D01*
X176596771Y-89393729D01*
X176596766Y-89393732D01*
X176455501Y-89496367D01*
X176455499Y-89496369D01*
X176338656Y-89626138D01*
X176251346Y-89777362D01*
X176251342Y-89777371D01*
X176197387Y-89943432D01*
X176197386Y-89943436D01*
X176188629Y-90026753D01*
X176179133Y-90117100D01*
X176195188Y-90269852D01*
X176182618Y-90338581D01*
X176134886Y-90389605D01*
X176067146Y-90406723D01*
X176021432Y-90396093D01*
X175863114Y-90325605D01*
X175863112Y-90325604D01*
X175863113Y-90325604D01*
X175728614Y-90297016D01*
X175692310Y-90289300D01*
X175517690Y-90289300D01*
X175487749Y-90295663D01*
X175346886Y-90325604D01*
X175346880Y-90325606D01*
X175187362Y-90396629D01*
X175187357Y-90396632D01*
X175046092Y-90499267D01*
X175046090Y-90499269D01*
X174929247Y-90629038D01*
X174841937Y-90780262D01*
X174841933Y-90780271D01*
X174787978Y-90946332D01*
X174787977Y-90946336D01*
X174769724Y-91120000D01*
X147820500Y-91120000D01*
X147820500Y-89408000D01*
X154485724Y-89408000D01*
X154503977Y-89581664D01*
X154503978Y-89581667D01*
X154557933Y-89747728D01*
X154557937Y-89747737D01*
X154645248Y-89898963D01*
X154703158Y-89963279D01*
X154762090Y-90028730D01*
X154762092Y-90028732D01*
X154903357Y-90131367D01*
X154903362Y-90131370D01*
X155062880Y-90202393D01*
X155062886Y-90202395D01*
X155233690Y-90238700D01*
X155233691Y-90238700D01*
X155408309Y-90238700D01*
X155408310Y-90238700D01*
X155514118Y-90216209D01*
X155539899Y-90213500D01*
X159729757Y-90213500D01*
X159729758Y-90213500D01*
X159767355Y-90204918D01*
X159781046Y-90202592D01*
X159819375Y-90198274D01*
X159855786Y-90185532D01*
X159869130Y-90181688D01*
X159906723Y-90173109D01*
X159941464Y-90156377D01*
X159954289Y-90151065D01*
X159990705Y-90138323D01*
X160023360Y-90117803D01*
X160035511Y-90111087D01*
X160070264Y-90094352D01*
X160100418Y-90070304D01*
X160111733Y-90062274D01*
X160144399Y-90041750D01*
X160272750Y-89913399D01*
X160748562Y-89437587D01*
X160780750Y-89405399D01*
X160801266Y-89372745D01*
X160809309Y-89361412D01*
X160833351Y-89331265D01*
X160833350Y-89331265D01*
X160833352Y-89331264D01*
X160850090Y-89296505D01*
X160856795Y-89284373D01*
X160877323Y-89251705D01*
X160890063Y-89215292D01*
X160895382Y-89202456D01*
X160896228Y-89200700D01*
X160912109Y-89167724D01*
X160920690Y-89130125D01*
X160924539Y-89116769D01*
X160931793Y-89096038D01*
X160937274Y-89080375D01*
X160941592Y-89042046D01*
X160943918Y-89028355D01*
X160952500Y-88990758D01*
X160952500Y-88809242D01*
X160952500Y-88370000D01*
X173769724Y-88370000D01*
X173787977Y-88543664D01*
X173787978Y-88543667D01*
X173841933Y-88709728D01*
X173841937Y-88709737D01*
X173929248Y-88860963D01*
X174018173Y-88959725D01*
X174046090Y-88990730D01*
X174046092Y-88990732D01*
X174187357Y-89093367D01*
X174187362Y-89093370D01*
X174346880Y-89164393D01*
X174346886Y-89164395D01*
X174517690Y-89200700D01*
X174517691Y-89200700D01*
X174692309Y-89200700D01*
X174692310Y-89200700D01*
X174863114Y-89164395D01*
X174863116Y-89164393D01*
X174863119Y-89164393D01*
X174970083Y-89116769D01*
X175022638Y-89093370D01*
X175163909Y-88990731D01*
X175280752Y-88860963D01*
X175319606Y-88793667D01*
X175344020Y-88751381D01*
X175394587Y-88703165D01*
X175463194Y-88689943D01*
X175477187Y-88692090D01*
X175517690Y-88700700D01*
X175692309Y-88700700D01*
X175692310Y-88700700D01*
X175863114Y-88664395D01*
X175863116Y-88664393D01*
X175863119Y-88664393D01*
X175942529Y-88629037D01*
X176022638Y-88593370D01*
X176163909Y-88490731D01*
X176280752Y-88360963D01*
X176368063Y-88209737D01*
X176422023Y-88043664D01*
X176431685Y-87951733D01*
X176458269Y-87887118D01*
X176504572Y-87851414D01*
X176517245Y-87845771D01*
X176522638Y-87843370D01*
X176663909Y-87740731D01*
X176780752Y-87610963D01*
X176868063Y-87459737D01*
X176922023Y-87293664D01*
X176931685Y-87201733D01*
X176958269Y-87137118D01*
X177004572Y-87101414D01*
X177015790Y-87096418D01*
X177022638Y-87093370D01*
X177163909Y-86990731D01*
X177280752Y-86860963D01*
X177368063Y-86709737D01*
X177422023Y-86543664D01*
X177431685Y-86451733D01*
X177458269Y-86387118D01*
X177504572Y-86351414D01*
X177515790Y-86346418D01*
X177522638Y-86343370D01*
X177663909Y-86240731D01*
X177780752Y-86110963D01*
X177868063Y-85959737D01*
X177922023Y-85793664D01*
X177940276Y-85620000D01*
X177922023Y-85446336D01*
X177868063Y-85280263D01*
X177780752Y-85129037D01*
X177663909Y-84999269D01*
X177663907Y-84999267D01*
X177522642Y-84896632D01*
X177522637Y-84896629D01*
X177363119Y-84825606D01*
X177363113Y-84825604D01*
X177228614Y-84797016D01*
X177192310Y-84789300D01*
X177017690Y-84789300D01*
X176991000Y-84794973D01*
X176846886Y-84825604D01*
X176846880Y-84825606D01*
X176687362Y-84896629D01*
X176687357Y-84896632D01*
X176546092Y-84999267D01*
X176546090Y-84999269D01*
X176429247Y-85129038D01*
X176341937Y-85280262D01*
X176341933Y-85280271D01*
X176287978Y-85446332D01*
X176287977Y-85446336D01*
X176286792Y-85457612D01*
X176278314Y-85538269D01*
X176251728Y-85602883D01*
X176205431Y-85638584D01*
X176187362Y-85646629D01*
X176046092Y-85749267D01*
X176046090Y-85749269D01*
X175929247Y-85879038D01*
X175841937Y-86030262D01*
X175841933Y-86030271D01*
X175787978Y-86196332D01*
X175787977Y-86196336D01*
X175783311Y-86240730D01*
X175778314Y-86288269D01*
X175751728Y-86352883D01*
X175705431Y-86388584D01*
X175687362Y-86396629D01*
X175546092Y-86499267D01*
X175546090Y-86499269D01*
X175429247Y-86629038D01*
X175341937Y-86780262D01*
X175341933Y-86780271D01*
X175287978Y-86946332D01*
X175287977Y-86946336D01*
X175283311Y-86990730D01*
X175278314Y-87038269D01*
X175251728Y-87102883D01*
X175205431Y-87138584D01*
X175187362Y-87146629D01*
X175046092Y-87249267D01*
X175046090Y-87249269D01*
X174929248Y-87379036D01*
X174865980Y-87488619D01*
X174815412Y-87536834D01*
X174746805Y-87550056D01*
X174732815Y-87547909D01*
X174713531Y-87543810D01*
X174692310Y-87539300D01*
X174517690Y-87539300D01*
X174487749Y-87545663D01*
X174346886Y-87575604D01*
X174346880Y-87575606D01*
X174187362Y-87646629D01*
X174187357Y-87646632D01*
X174046092Y-87749267D01*
X174046090Y-87749269D01*
X173929247Y-87879038D01*
X173841937Y-88030262D01*
X173841933Y-88030271D01*
X173792635Y-88182000D01*
X173787977Y-88196336D01*
X173769724Y-88370000D01*
X160952500Y-88370000D01*
X160952500Y-85490838D01*
X160969112Y-85428838D01*
X161002448Y-85371101D01*
X161056408Y-85205028D01*
X161074661Y-85031364D01*
X161056408Y-84857700D01*
X161013560Y-84725827D01*
X161002451Y-84691635D01*
X161002449Y-84691631D01*
X161002448Y-84691627D01*
X160915137Y-84540401D01*
X160798294Y-84410633D01*
X160798292Y-84410631D01*
X160657027Y-84307996D01*
X160657022Y-84307993D01*
X160497504Y-84236970D01*
X160497498Y-84236968D01*
X160362999Y-84208380D01*
X160326695Y-84200664D01*
X160152075Y-84200664D01*
X160122134Y-84207027D01*
X159981271Y-84236968D01*
X159981265Y-84236970D01*
X159821747Y-84307993D01*
X159821742Y-84307996D01*
X159680477Y-84410631D01*
X159680475Y-84410633D01*
X159563635Y-84540398D01*
X159563631Y-84540403D01*
X159534137Y-84591487D01*
X159514447Y-84617152D01*
X159513254Y-84618345D01*
X159513251Y-84618349D01*
X159492733Y-84651001D01*
X159484690Y-84662335D01*
X159460649Y-84692483D01*
X159443919Y-84727220D01*
X159437198Y-84739381D01*
X159416679Y-84772039D01*
X159416674Y-84772049D01*
X159403937Y-84808448D01*
X159398619Y-84821286D01*
X159381891Y-84856023D01*
X159373309Y-84893620D01*
X159369462Y-84906974D01*
X159356726Y-84943372D01*
X159352407Y-84981695D01*
X159350079Y-84995393D01*
X159341501Y-85032982D01*
X159341500Y-85032993D01*
X159341500Y-88478500D01*
X159321815Y-88545539D01*
X159269011Y-88591294D01*
X159217500Y-88602500D01*
X155539899Y-88602500D01*
X155514118Y-88599790D01*
X155474147Y-88591294D01*
X155408310Y-88577300D01*
X155233690Y-88577300D01*
X155203749Y-88583663D01*
X155062886Y-88613604D01*
X155062880Y-88613606D01*
X154903362Y-88684629D01*
X154903357Y-88684632D01*
X154762092Y-88787267D01*
X154762090Y-88787269D01*
X154645247Y-88917038D01*
X154557937Y-89068262D01*
X154557933Y-89068271D01*
X154510159Y-89215309D01*
X154503977Y-89234336D01*
X154485724Y-89408000D01*
X147820500Y-89408000D01*
X147820500Y-82552468D01*
X155477001Y-82552468D01*
X155495254Y-82726132D01*
X155495255Y-82726135D01*
X155549210Y-82892196D01*
X155549214Y-82892205D01*
X155636525Y-83043431D01*
X155740442Y-83158843D01*
X155753367Y-83173198D01*
X155753369Y-83173200D01*
X155894634Y-83275835D01*
X155894639Y-83275838D01*
X156054157Y-83346861D01*
X156054163Y-83346863D01*
X156224967Y-83383168D01*
X156224968Y-83383168D01*
X156399587Y-83383168D01*
X156500450Y-83361729D01*
X156517008Y-83358210D01*
X156542788Y-83355500D01*
X162518547Y-83355500D01*
X162585586Y-83375185D01*
X162610697Y-83396528D01*
X162636091Y-83424731D01*
X162777357Y-83527367D01*
X162777362Y-83527370D01*
X162936880Y-83598393D01*
X162936886Y-83598395D01*
X163107690Y-83634700D01*
X163107691Y-83634700D01*
X163282309Y-83634700D01*
X163282310Y-83634700D01*
X163453114Y-83598395D01*
X163453116Y-83598393D01*
X163453119Y-83598393D01*
X163521061Y-83568143D01*
X163612638Y-83527370D01*
X163753909Y-83424731D01*
X163870752Y-83294963D01*
X163958063Y-83143737D01*
X164012023Y-82977664D01*
X164030276Y-82804000D01*
X164012023Y-82630336D01*
X163969437Y-82499269D01*
X163958066Y-82464271D01*
X163958064Y-82464267D01*
X163958063Y-82464263D01*
X163870752Y-82313037D01*
X163753909Y-82183269D01*
X163613731Y-82081424D01*
X163598936Y-82068787D01*
X163446397Y-81916248D01*
X163446395Y-81916247D01*
X163413750Y-81895734D01*
X163402410Y-81887688D01*
X163372265Y-81863648D01*
X163372263Y-81863647D01*
X163337525Y-81846918D01*
X163325355Y-81840192D01*
X163292707Y-81819678D01*
X163292708Y-81819678D01*
X163286447Y-81817487D01*
X163256304Y-81806939D01*
X163243465Y-81801621D01*
X163208723Y-81784891D01*
X163208722Y-81784890D01*
X163171133Y-81776310D01*
X163157778Y-81772463D01*
X163131414Y-81763238D01*
X163121375Y-81759726D01*
X163083057Y-81755408D01*
X163069355Y-81753080D01*
X163031761Y-81744500D01*
X163031758Y-81744500D01*
X162986238Y-81744500D01*
X156519565Y-81744500D01*
X156493784Y-81741790D01*
X156467480Y-81736199D01*
X156399587Y-81721768D01*
X156224967Y-81721768D01*
X156195026Y-81728131D01*
X156054163Y-81758072D01*
X156054157Y-81758074D01*
X155894639Y-81829097D01*
X155894634Y-81829100D01*
X155753369Y-81931735D01*
X155753367Y-81931737D01*
X155636524Y-82061506D01*
X155549214Y-82212730D01*
X155549210Y-82212739D01*
X155503542Y-82353296D01*
X155495254Y-82378804D01*
X155477001Y-82552468D01*
X147820500Y-82552468D01*
X147820500Y-79120000D01*
X178251624Y-79120000D01*
X178269877Y-79293664D01*
X178269878Y-79293667D01*
X178323833Y-79459728D01*
X178323837Y-79459737D01*
X178411148Y-79610963D01*
X178435805Y-79638347D01*
X178527990Y-79740730D01*
X178527992Y-79740732D01*
X178669257Y-79843367D01*
X178669262Y-79843370D01*
X178828780Y-79914393D01*
X178828786Y-79914395D01*
X178999590Y-79950700D01*
X178999591Y-79950700D01*
X179174209Y-79950700D01*
X179174210Y-79950700D01*
X179345014Y-79914395D01*
X179345016Y-79914393D01*
X179345019Y-79914393D01*
X179444726Y-79870000D01*
X179504538Y-79843370D01*
X179645809Y-79740731D01*
X179762652Y-79610963D01*
X179849963Y-79459737D01*
X179903923Y-79293664D01*
X179912642Y-79210699D01*
X179939227Y-79146088D01*
X179985529Y-79110384D01*
X179994759Y-79106274D01*
X180022638Y-79093862D01*
X180163909Y-78991223D01*
X180280752Y-78861455D01*
X180368063Y-78710229D01*
X180422023Y-78544156D01*
X180423255Y-78532433D01*
X180449838Y-78467821D01*
X180496135Y-78432119D01*
X180623322Y-78375492D01*
X180764593Y-78272853D01*
X180881436Y-78143085D01*
X180968747Y-77991859D01*
X181022104Y-77827639D01*
X181061539Y-77769966D01*
X181114249Y-77744670D01*
X181179517Y-77730798D01*
X181179521Y-77730796D01*
X181179522Y-77730796D01*
X181233255Y-77706872D01*
X181339041Y-77659773D01*
X181480312Y-77557134D01*
X181597155Y-77427366D01*
X181684466Y-77276140D01*
X181738426Y-77110067D01*
X181756679Y-76936403D01*
X181738426Y-76762739D01*
X181698362Y-76639434D01*
X181684469Y-76596674D01*
X181684467Y-76596670D01*
X181684466Y-76596666D01*
X181597155Y-76445440D01*
X181480312Y-76315672D01*
X181480310Y-76315670D01*
X181339045Y-76213035D01*
X181339040Y-76213032D01*
X181179522Y-76142009D01*
X181179516Y-76142007D01*
X181045017Y-76113419D01*
X181008713Y-76105703D01*
X180834093Y-76105703D01*
X180809356Y-76110961D01*
X180663289Y-76142007D01*
X180663283Y-76142009D01*
X180503765Y-76213032D01*
X180503760Y-76213035D01*
X180362495Y-76315670D01*
X180362493Y-76315672D01*
X180245650Y-76445441D01*
X180158340Y-76596665D01*
X180158337Y-76596671D01*
X180104983Y-76760882D01*
X180065546Y-76818557D01*
X180012834Y-76843854D01*
X179947569Y-76857727D01*
X179947565Y-76857728D01*
X179788046Y-76928751D01*
X179788041Y-76928754D01*
X179646776Y-77031389D01*
X179646774Y-77031391D01*
X179529931Y-77161160D01*
X179442621Y-77312384D01*
X179442618Y-77312390D01*
X179388662Y-77478453D01*
X179388660Y-77478462D01*
X179387428Y-77490184D01*
X179360841Y-77554797D01*
X179314544Y-77590496D01*
X179187362Y-77647121D01*
X179187357Y-77647124D01*
X179046092Y-77749759D01*
X179046090Y-77749761D01*
X178929247Y-77879530D01*
X178841937Y-78030754D01*
X178841934Y-78030760D01*
X178787978Y-78196823D01*
X178787977Y-78196825D01*
X178779257Y-78279790D01*
X178752671Y-78344404D01*
X178706374Y-78380105D01*
X178669262Y-78396629D01*
X178527992Y-78499267D01*
X178527990Y-78499269D01*
X178411147Y-78629038D01*
X178323837Y-78780262D01*
X178323833Y-78780271D01*
X178280133Y-78914771D01*
X178269877Y-78946336D01*
X178251624Y-79120000D01*
X147820500Y-79120000D01*
X147820500Y-67383846D01*
X168214077Y-67383846D01*
X168232330Y-67557510D01*
X168232331Y-67557513D01*
X168286286Y-67723574D01*
X168286290Y-67723583D01*
X168373601Y-67874809D01*
X168446211Y-67955451D01*
X168490443Y-68004576D01*
X168490445Y-68004578D01*
X168631710Y-68107213D01*
X168631715Y-68107216D01*
X168791233Y-68178239D01*
X168791239Y-68178241D01*
X168962043Y-68214546D01*
X168962044Y-68214546D01*
X169136662Y-68214546D01*
X169136663Y-68214546D01*
X169307467Y-68178241D01*
X169307469Y-68178239D01*
X169307472Y-68178239D01*
X169400172Y-68136966D01*
X169450608Y-68126245D01*
X170162652Y-68126245D01*
X170213088Y-68136966D01*
X170287592Y-68170138D01*
X170287598Y-68170140D01*
X170458402Y-68206445D01*
X170458403Y-68206445D01*
X170633021Y-68206445D01*
X170633022Y-68206445D01*
X170803826Y-68170140D01*
X170907550Y-68123958D01*
X170957985Y-68113239D01*
X171671428Y-68113239D01*
X171721864Y-68123960D01*
X171796368Y-68157132D01*
X171796374Y-68157134D01*
X171967178Y-68193439D01*
X171967179Y-68193439D01*
X172141797Y-68193439D01*
X172141798Y-68193439D01*
X172312602Y-68157134D01*
X172312604Y-68157132D01*
X172312607Y-68157132D01*
X172387112Y-68123960D01*
X172437548Y-68113239D01*
X177651926Y-68113239D01*
X177669896Y-68114548D01*
X177693654Y-68118028D01*
X177743000Y-68113710D01*
X177753807Y-68113239D01*
X177759335Y-68113239D01*
X177759340Y-68113239D01*
X177790187Y-68109632D01*
X177793661Y-68109278D01*
X177868428Y-68102738D01*
X177868436Y-68102735D01*
X177875497Y-68101278D01*
X177875509Y-68101337D01*
X177882874Y-68099704D01*
X177882860Y-68099645D01*
X177889880Y-68097980D01*
X177889886Y-68097980D01*
X177960410Y-68072311D01*
X177963748Y-68071151D01*
X178034965Y-68047553D01*
X178034973Y-68047547D01*
X178041513Y-68044499D01*
X178041539Y-68044555D01*
X178048321Y-68041271D01*
X178048294Y-68041217D01*
X178054744Y-68037977D01*
X178054748Y-68037976D01*
X178117468Y-67996723D01*
X178120363Y-67994879D01*
X178184287Y-67955451D01*
X178184293Y-67955444D01*
X178189956Y-67950968D01*
X178189994Y-67951016D01*
X178195826Y-67946265D01*
X178195787Y-67946218D01*
X178201317Y-67941575D01*
X178201327Y-67941569D01*
X178252801Y-67887008D01*
X178255247Y-67884488D01*
X178482919Y-67656816D01*
X178544241Y-67623334D01*
X178570599Y-67620500D01*
X192285572Y-67620500D01*
X192352611Y-67640185D01*
X192373247Y-67656812D01*
X192380175Y-67663739D01*
X192413664Y-67725060D01*
X192416500Y-67751427D01*
X192416500Y-69963688D01*
X192405782Y-70014118D01*
X192403937Y-70018260D01*
X192349977Y-70184334D01*
X192339894Y-70280271D01*
X192331724Y-70358000D01*
X192349977Y-70531664D01*
X192349978Y-70531667D01*
X192403933Y-70697728D01*
X192403937Y-70697737D01*
X192491248Y-70848963D01*
X192590981Y-70959728D01*
X192608090Y-70978730D01*
X192608092Y-70978732D01*
X192749357Y-71081367D01*
X192749362Y-71081370D01*
X192908880Y-71152393D01*
X192908886Y-71152395D01*
X193079690Y-71188700D01*
X193079691Y-71188700D01*
X193254309Y-71188700D01*
X193254310Y-71188700D01*
X193425114Y-71152395D01*
X193425116Y-71152393D01*
X193425119Y-71152393D01*
X193518180Y-71110959D01*
X193584638Y-71081370D01*
X193725909Y-70978731D01*
X193842752Y-70848963D01*
X193930063Y-70697737D01*
X193984023Y-70531664D01*
X194002276Y-70358000D01*
X193984023Y-70184336D01*
X193930063Y-70018263D01*
X193930062Y-70018262D01*
X193930062Y-70018260D01*
X193928218Y-70014118D01*
X193917500Y-69963688D01*
X193917500Y-67452902D01*
X193918809Y-67434932D01*
X193919223Y-67432102D01*
X193922289Y-67411174D01*
X193917971Y-67361829D01*
X193917500Y-67351023D01*
X193917500Y-67345493D01*
X193917500Y-67345488D01*
X193913898Y-67314675D01*
X193913534Y-67311112D01*
X193906998Y-67236403D01*
X193906998Y-67236399D01*
X193906995Y-67236392D01*
X193905538Y-67229330D01*
X193905597Y-67229317D01*
X193903967Y-67221961D01*
X193903908Y-67221976D01*
X193902241Y-67214944D01*
X193902241Y-67214942D01*
X193876563Y-67144393D01*
X193875424Y-67141115D01*
X193851814Y-67069862D01*
X193851813Y-67069860D01*
X193848763Y-67063318D01*
X193848817Y-67063292D01*
X193845533Y-67056509D01*
X193845480Y-67056537D01*
X193842238Y-67050082D01*
X193838315Y-67044117D01*
X193800994Y-66987373D01*
X193799118Y-66984429D01*
X193759711Y-66920541D01*
X193759708Y-66920538D01*
X193755233Y-66914878D01*
X193755280Y-66914840D01*
X193750519Y-66908996D01*
X193750474Y-66909035D01*
X193745831Y-66903502D01*
X193691274Y-66852030D01*
X193688687Y-66849517D01*
X193223532Y-66384361D01*
X193211752Y-66370730D01*
X193197413Y-66351470D01*
X193159454Y-66319619D01*
X193151489Y-66312318D01*
X193147583Y-66308411D01*
X193123246Y-66289168D01*
X193120450Y-66286890D01*
X193063017Y-66238698D01*
X193056983Y-66234729D01*
X193057015Y-66234680D01*
X193050656Y-66230628D01*
X193050625Y-66230679D01*
X193044483Y-66226891D01*
X193044481Y-66226890D01*
X193044480Y-66226889D01*
X192976491Y-66195184D01*
X192973250Y-66193615D01*
X192942333Y-66178088D01*
X192906236Y-66159960D01*
X192906234Y-66159959D01*
X192906233Y-66159959D01*
X192899448Y-66157489D01*
X192899468Y-66157433D01*
X192892352Y-66154959D01*
X192892334Y-66155015D01*
X192885477Y-66152743D01*
X192812013Y-66137573D01*
X192808496Y-66136793D01*
X192735521Y-66119499D01*
X192728350Y-66118661D01*
X192728356Y-66118601D01*
X192720858Y-66117835D01*
X192720853Y-66117895D01*
X192713663Y-66117265D01*
X192638673Y-66119448D01*
X192635066Y-66119500D01*
X179042281Y-66119500D01*
X178975242Y-66099815D01*
X178929487Y-66047011D01*
X178919543Y-65977853D01*
X178948568Y-65914297D01*
X178954600Y-65907819D01*
X179215790Y-65646629D01*
X180240043Y-64622374D01*
X180252325Y-64612537D01*
X180252144Y-64612318D01*
X180258157Y-64607342D01*
X180258162Y-64607340D01*
X180304383Y-64558117D01*
X180307032Y-64555385D01*
X180326624Y-64535795D01*
X180329101Y-64532600D01*
X180336679Y-64523727D01*
X180366693Y-64491767D01*
X180376388Y-64474130D01*
X180387072Y-64457863D01*
X180399408Y-64441962D01*
X180416811Y-64401742D01*
X180421951Y-64391251D01*
X180443071Y-64352835D01*
X180443072Y-64352834D01*
X180448078Y-64333334D01*
X180454376Y-64314936D01*
X180462374Y-64296458D01*
X180469232Y-64253151D01*
X180471596Y-64241736D01*
X180482500Y-64199272D01*
X180482500Y-64179141D01*
X180484027Y-64159741D01*
X180487175Y-64139867D01*
X180483050Y-64096230D01*
X180482500Y-64084561D01*
X180482500Y-56006936D01*
X180502185Y-55939897D01*
X180518819Y-55919255D01*
X180904255Y-55533819D01*
X180965578Y-55500334D01*
X180991936Y-55497500D01*
X183870973Y-55497500D01*
X183886621Y-55499227D01*
X183886648Y-55498946D01*
X183894415Y-55499680D01*
X183894416Y-55499679D01*
X183894417Y-55499680D01*
X183961859Y-55497561D01*
X183965753Y-55497500D01*
X183993412Y-55497500D01*
X183993416Y-55497500D01*
X183997414Y-55496994D01*
X184009054Y-55496077D01*
X184052883Y-55494701D01*
X184072212Y-55489084D01*
X184091268Y-55485137D01*
X184111233Y-55482616D01*
X184151995Y-55466476D01*
X184163032Y-55462698D01*
X184205131Y-55450468D01*
X184222455Y-55440221D01*
X184239923Y-55431663D01*
X184258643Y-55424253D01*
X184294117Y-55398478D01*
X184303855Y-55392081D01*
X184341596Y-55369763D01*
X184355837Y-55355520D01*
X184370618Y-55342897D01*
X184386907Y-55331063D01*
X184414844Y-55297290D01*
X184422696Y-55288661D01*
X185192936Y-54518423D01*
X186640649Y-53070708D01*
X186652931Y-53060871D01*
X186652750Y-53060652D01*
X186658763Y-53055676D01*
X186658768Y-53055674D01*
X186704990Y-53006450D01*
X186707639Y-53003718D01*
X186727229Y-52984130D01*
X186729702Y-52980940D01*
X186737288Y-52972056D01*
X186767299Y-52940101D01*
X186776995Y-52922462D01*
X186787679Y-52906195D01*
X186800014Y-52890296D01*
X186817425Y-52850059D01*
X186822548Y-52839599D01*
X186843678Y-52801168D01*
X186848684Y-52781668D01*
X186854982Y-52763270D01*
X186862980Y-52744792D01*
X186869838Y-52701485D01*
X186872202Y-52690070D01*
X186883106Y-52647606D01*
X186883106Y-52627475D01*
X186884633Y-52608075D01*
X186887781Y-52588201D01*
X186883656Y-52544564D01*
X186883106Y-52532895D01*
X186883106Y-52227653D01*
X186902791Y-52160614D01*
X186955595Y-52114859D01*
X186993851Y-52104363D01*
X187048089Y-52098533D01*
X187182937Y-52048238D01*
X187298152Y-51961988D01*
X187384402Y-51846773D01*
X187434697Y-51711925D01*
X187441106Y-51652315D01*
X187441106Y-51054000D01*
X199342421Y-51054000D01*
X199362692Y-51272763D01*
X199362692Y-51272765D01*
X199362693Y-51272768D01*
X199392836Y-51378710D01*
X199422819Y-51484090D01*
X199520749Y-51680759D01*
X199653153Y-51856090D01*
X199769316Y-51961986D01*
X199815516Y-52004103D01*
X200002313Y-52119763D01*
X200207183Y-52199129D01*
X200423147Y-52239500D01*
X200423149Y-52239500D01*
X200642851Y-52239500D01*
X200642853Y-52239500D01*
X200858817Y-52199129D01*
X201063687Y-52119763D01*
X201250484Y-52004103D01*
X201390162Y-51876768D01*
X201412846Y-51856090D01*
X201419882Y-51846773D01*
X201545251Y-51680759D01*
X201643182Y-51484087D01*
X201683734Y-51341560D01*
X201721012Y-51282468D01*
X201784322Y-51252910D01*
X201853561Y-51262272D01*
X201906748Y-51307581D01*
X201922265Y-51341558D01*
X201932836Y-51378710D01*
X201962818Y-51484089D01*
X202060749Y-51680759D01*
X202193153Y-51856090D01*
X202309316Y-51961986D01*
X202355516Y-52004103D01*
X202542313Y-52119763D01*
X202747183Y-52199129D01*
X202963147Y-52239500D01*
X202963149Y-52239500D01*
X203182851Y-52239500D01*
X203182853Y-52239500D01*
X203398817Y-52199129D01*
X203603687Y-52119763D01*
X203790484Y-52004103D01*
X203930162Y-51876768D01*
X203952846Y-51856090D01*
X203959882Y-51846773D01*
X204085251Y-51680759D01*
X204183182Y-51484087D01*
X204184231Y-51480398D01*
X204185215Y-51478837D01*
X204185253Y-51478742D01*
X204185271Y-51478749D01*
X204221503Y-51421304D01*
X204284810Y-51391740D01*
X204354050Y-51401095D01*
X204407242Y-51446399D01*
X204427496Y-51513268D01*
X204427500Y-51514323D01*
X204427500Y-51786869D01*
X204427501Y-51786876D01*
X204433908Y-51846483D01*
X204484202Y-51981328D01*
X204484206Y-51981335D01*
X204570452Y-52096544D01*
X204570455Y-52096547D01*
X204685664Y-52182793D01*
X204685671Y-52182797D01*
X204820517Y-52233091D01*
X204820516Y-52233091D01*
X204827444Y-52233835D01*
X204880127Y-52239500D01*
X206345872Y-52239499D01*
X206405483Y-52233091D01*
X206540331Y-52182796D01*
X206655546Y-52096546D01*
X206741796Y-51981331D01*
X206792091Y-51846483D01*
X206798500Y-51786873D01*
X206798499Y-50900119D01*
X214425155Y-50900119D01*
X214455075Y-51299369D01*
X214455077Y-51299383D01*
X214524600Y-51693670D01*
X214633034Y-52079063D01*
X214633038Y-52079077D01*
X214779303Y-52451754D01*
X214779308Y-52451766D01*
X214961957Y-52808037D01*
X214961968Y-52808056D01*
X214985639Y-52844705D01*
X215179182Y-53144368D01*
X215428810Y-53457391D01*
X215428819Y-53457402D01*
X215708356Y-53743996D01*
X215708374Y-53744013D01*
X216015071Y-54001361D01*
X216015073Y-54001362D01*
X216345860Y-54226891D01*
X216401853Y-54257383D01*
X216697483Y-54418374D01*
X217066416Y-54573892D01*
X217066427Y-54573895D01*
X217066437Y-54573899D01*
X217241837Y-54628002D01*
X217449000Y-54691904D01*
X217841433Y-54771236D01*
X218182902Y-54805405D01*
X218239813Y-54811100D01*
X218239814Y-54811100D01*
X218540007Y-54811100D01*
X218540024Y-54811100D01*
X218839874Y-54796135D01*
X219235773Y-54736463D01*
X219623764Y-54637668D01*
X219999990Y-54500733D01*
X220360712Y-54327019D01*
X220702345Y-54118251D01*
X221021494Y-53876505D01*
X221314987Y-53604183D01*
X221579907Y-53303992D01*
X221813621Y-52978916D01*
X222013807Y-52632184D01*
X222178475Y-52267243D01*
X222305988Y-51887720D01*
X222395079Y-51497387D01*
X222444862Y-51100123D01*
X222454432Y-50716412D01*
X222454844Y-50699891D01*
X222454844Y-50699876D01*
X222439344Y-50493048D01*
X222424924Y-50300624D01*
X222361624Y-49941634D01*
X222355399Y-49906329D01*
X222246965Y-49520936D01*
X222246961Y-49520922D01*
X222100696Y-49148245D01*
X222100691Y-49148233D01*
X221918042Y-48791962D01*
X221918038Y-48791954D01*
X221700818Y-48455632D01*
X221451190Y-48142609D01*
X221451187Y-48142606D01*
X221451180Y-48142597D01*
X221171643Y-47856003D01*
X221171625Y-47855986D01*
X220864928Y-47598638D01*
X220864926Y-47598637D01*
X220534139Y-47373108D01*
X220350271Y-47272980D01*
X220182517Y-47181626D01*
X220182509Y-47181622D01*
X220182506Y-47181621D01*
X219813584Y-47026108D01*
X219813562Y-47026100D01*
X219430997Y-46908095D01*
X219430984Y-46908092D01*
X219038581Y-46828766D01*
X219038560Y-46828763D01*
X218640187Y-46788900D01*
X218640186Y-46788900D01*
X218339976Y-46788900D01*
X218339961Y-46788900D01*
X218040126Y-46803864D01*
X217644227Y-46863536D01*
X217320634Y-46945934D01*
X217256236Y-46962332D01*
X217256234Y-46962332D01*
X217256225Y-46962335D01*
X216880001Y-47099270D01*
X216519288Y-47272980D01*
X216519284Y-47272982D01*
X216177659Y-47481745D01*
X216177648Y-47481753D01*
X215858505Y-47723495D01*
X215858502Y-47723497D01*
X215565007Y-47995822D01*
X215300089Y-48296012D01*
X215066384Y-48621077D01*
X215066371Y-48621097D01*
X214866194Y-48967813D01*
X214701524Y-49332757D01*
X214574012Y-49712277D01*
X214484921Y-50102610D01*
X214435137Y-50499882D01*
X214425155Y-50900108D01*
X214425155Y-50900119D01*
X206798499Y-50900119D01*
X206798499Y-50321128D01*
X206792091Y-50261517D01*
X206788507Y-50251909D01*
X206741797Y-50126671D01*
X206741793Y-50126664D01*
X206655547Y-50011455D01*
X206655544Y-50011452D01*
X206540335Y-49925206D01*
X206540328Y-49925202D01*
X206405482Y-49874908D01*
X206405483Y-49874908D01*
X206345883Y-49868501D01*
X206345881Y-49868500D01*
X206345873Y-49868500D01*
X206345864Y-49868500D01*
X204880129Y-49868500D01*
X204880123Y-49868501D01*
X204820516Y-49874908D01*
X204685671Y-49925202D01*
X204685664Y-49925206D01*
X204570455Y-50011452D01*
X204570452Y-50011455D01*
X204484206Y-50126664D01*
X204484202Y-50126671D01*
X204433908Y-50261517D01*
X204427501Y-50321116D01*
X204427501Y-50321123D01*
X204427500Y-50321135D01*
X204427500Y-50593674D01*
X204407815Y-50660713D01*
X204355011Y-50706468D01*
X204285853Y-50716412D01*
X204222297Y-50687387D01*
X204184523Y-50628609D01*
X204184233Y-50627606D01*
X204183182Y-50623912D01*
X204183181Y-50623911D01*
X204162239Y-50581854D01*
X204085251Y-50427241D01*
X203983636Y-50292682D01*
X203952846Y-50251909D01*
X203790485Y-50103898D01*
X203790484Y-50103897D01*
X203603687Y-49988237D01*
X203603685Y-49988236D01*
X203440978Y-49925204D01*
X203398817Y-49908871D01*
X203182853Y-49868500D01*
X202963147Y-49868500D01*
X202747183Y-49908871D01*
X202747180Y-49908871D01*
X202747180Y-49908872D01*
X202542314Y-49988236D01*
X202542312Y-49988237D01*
X202355514Y-50103898D01*
X202193153Y-50251909D01*
X202060749Y-50427240D01*
X201962819Y-50623909D01*
X201962818Y-50623912D01*
X201962818Y-50623913D01*
X201922265Y-50766439D01*
X201884987Y-50825531D01*
X201821678Y-50855089D01*
X201752438Y-50845727D01*
X201699252Y-50800418D01*
X201683734Y-50766441D01*
X201643182Y-50623913D01*
X201545251Y-50427241D01*
X201443636Y-50292682D01*
X201412846Y-50251909D01*
X201250485Y-50103898D01*
X201250484Y-50103897D01*
X201063687Y-49988237D01*
X201063685Y-49988236D01*
X200900978Y-49925204D01*
X200858817Y-49908871D01*
X200642853Y-49868500D01*
X200423147Y-49868500D01*
X200207183Y-49908871D01*
X200207180Y-49908871D01*
X200207180Y-49908872D01*
X200002314Y-49988236D01*
X200002312Y-49988237D01*
X199815514Y-50103898D01*
X199653153Y-50251909D01*
X199520749Y-50427240D01*
X199422819Y-50623909D01*
X199362692Y-50835236D01*
X199342421Y-51053999D01*
X199342421Y-51054000D01*
X187441106Y-51054000D01*
X187441105Y-50186570D01*
X187434697Y-50126959D01*
X187431113Y-50117351D01*
X187384403Y-49992113D01*
X187384399Y-49992106D01*
X187298153Y-49876897D01*
X187298150Y-49876894D01*
X187182941Y-49790648D01*
X187182934Y-49790644D01*
X187048088Y-49740350D01*
X187048089Y-49740350D01*
X186988489Y-49733943D01*
X186988487Y-49733942D01*
X186988479Y-49733942D01*
X186988470Y-49733942D01*
X185522735Y-49733942D01*
X185522729Y-49733943D01*
X185463122Y-49740350D01*
X185328277Y-49790644D01*
X185328270Y-49790648D01*
X185213061Y-49876894D01*
X185213058Y-49876897D01*
X185126812Y-49992106D01*
X185126808Y-49992113D01*
X185076514Y-50126959D01*
X185070107Y-50186558D01*
X185070107Y-50186565D01*
X185070106Y-50186577D01*
X185070106Y-50459116D01*
X185050421Y-50526155D01*
X184997617Y-50571910D01*
X184928459Y-50581854D01*
X184864903Y-50552829D01*
X184827129Y-50494051D01*
X184826839Y-50493048D01*
X184825788Y-50489354D01*
X184825787Y-50489353D01*
X184742021Y-50321129D01*
X184727857Y-50292683D01*
X184647715Y-50186558D01*
X184595452Y-50117351D01*
X184433091Y-49969340D01*
X184433090Y-49969339D01*
X184246293Y-49853679D01*
X184246291Y-49853678D01*
X184083584Y-49790646D01*
X184041423Y-49774313D01*
X183825459Y-49733942D01*
X183605753Y-49733942D01*
X183389789Y-49774313D01*
X183389786Y-49774313D01*
X183389786Y-49774314D01*
X183184920Y-49853678D01*
X183184918Y-49853679D01*
X182998120Y-49969340D01*
X182835759Y-50117351D01*
X182703355Y-50292682D01*
X182605425Y-50489351D01*
X182605424Y-50489354D01*
X182605424Y-50489355D01*
X182564871Y-50631881D01*
X182527593Y-50690973D01*
X182464284Y-50720531D01*
X182395044Y-50711169D01*
X182341858Y-50665860D01*
X182326340Y-50631883D01*
X182285788Y-50489355D01*
X182187857Y-50292683D01*
X182107715Y-50186558D01*
X182055452Y-50117351D01*
X181893091Y-49969340D01*
X181893090Y-49969339D01*
X181706293Y-49853679D01*
X181706291Y-49853678D01*
X181543584Y-49790646D01*
X181501423Y-49774313D01*
X181285459Y-49733942D01*
X181065753Y-49733942D01*
X180849789Y-49774313D01*
X180849786Y-49774313D01*
X180849786Y-49774314D01*
X180644920Y-49853678D01*
X180644918Y-49853679D01*
X180458120Y-49969340D01*
X180295759Y-50117351D01*
X180163355Y-50292682D01*
X180065425Y-50489351D01*
X180047364Y-50552829D01*
X180009080Y-50687387D01*
X180005298Y-50700678D01*
X179985027Y-50919441D01*
X179985027Y-50919442D01*
X180005298Y-51138205D01*
X180005298Y-51138207D01*
X180005299Y-51138210D01*
X180053489Y-51307581D01*
X180065425Y-51349532D01*
X180163355Y-51546201D01*
X180295759Y-51721532D01*
X180432823Y-51846482D01*
X180458122Y-51869545D01*
X180644919Y-51985205D01*
X180849789Y-52064571D01*
X181065753Y-52104942D01*
X181065755Y-52104942D01*
X181285457Y-52104942D01*
X181285459Y-52104942D01*
X181501423Y-52064571D01*
X181706293Y-51985205D01*
X181893090Y-51869545D01*
X182055454Y-51721530D01*
X182187857Y-51546201D01*
X182285788Y-51349529D01*
X182326340Y-51207002D01*
X182363618Y-51147910D01*
X182426928Y-51118352D01*
X182496167Y-51127714D01*
X182549354Y-51173023D01*
X182564871Y-51207000D01*
X182581811Y-51266537D01*
X182605424Y-51349531D01*
X182703355Y-51546201D01*
X182835759Y-51721532D01*
X182972823Y-51846482D01*
X182998122Y-51869545D01*
X183184919Y-51985205D01*
X183389789Y-52064571D01*
X183605753Y-52104942D01*
X183605755Y-52104942D01*
X183825457Y-52104942D01*
X183825459Y-52104942D01*
X184041423Y-52064571D01*
X184246293Y-51985205D01*
X184433090Y-51869545D01*
X184595454Y-51721530D01*
X184727857Y-51546201D01*
X184825788Y-51349529D01*
X184826837Y-51345840D01*
X184827821Y-51344279D01*
X184827859Y-51344184D01*
X184827877Y-51344191D01*
X184864109Y-51286746D01*
X184927416Y-51257182D01*
X184996656Y-51266537D01*
X185049848Y-51311841D01*
X185070102Y-51378710D01*
X185070106Y-51379765D01*
X185070106Y-51652311D01*
X185070107Y-51652318D01*
X185076514Y-51711925D01*
X185126808Y-51846770D01*
X185126812Y-51846777D01*
X185213058Y-51961986D01*
X185213061Y-51961989D01*
X185328270Y-52048235D01*
X185328277Y-52048239D01*
X185463123Y-52098533D01*
X185463121Y-52098533D01*
X185517362Y-52104365D01*
X185581913Y-52131103D01*
X185621761Y-52188496D01*
X185628106Y-52227654D01*
X185628106Y-52257053D01*
X185608421Y-52324092D01*
X185591787Y-52344734D01*
X183730340Y-54206181D01*
X183669017Y-54239666D01*
X183642659Y-54242500D01*
X180763620Y-54242500D01*
X180747969Y-54240772D01*
X180747943Y-54241054D01*
X180740180Y-54240319D01*
X180672750Y-54242439D01*
X180668855Y-54242500D01*
X180641174Y-54242500D01*
X180637156Y-54243007D01*
X180625529Y-54243922D01*
X180581713Y-54245299D01*
X180581709Y-54245300D01*
X180562377Y-54250916D01*
X180543337Y-54254859D01*
X180523367Y-54257382D01*
X180523363Y-54257383D01*
X180482608Y-54273519D01*
X180471560Y-54277301D01*
X180429467Y-54289530D01*
X180429460Y-54289533D01*
X180412135Y-54299779D01*
X180394665Y-54308337D01*
X180375953Y-54315745D01*
X180340481Y-54341516D01*
X180330721Y-54347927D01*
X180293001Y-54370234D01*
X180278761Y-54384474D01*
X180263975Y-54397102D01*
X180247688Y-54408936D01*
X180219745Y-54442712D01*
X180211884Y-54451350D01*
X179447106Y-55216128D01*
X179429130Y-55231000D01*
X179422319Y-55235630D01*
X179385503Y-55277387D01*
X179380188Y-55283047D01*
X179368970Y-55294264D01*
X179368961Y-55294275D01*
X179359230Y-55306818D01*
X179354277Y-55312805D01*
X179317469Y-55354557D01*
X179313724Y-55361906D01*
X179301234Y-55381588D01*
X179296182Y-55388102D01*
X179274077Y-55439180D01*
X179270763Y-55446222D01*
X179245496Y-55495814D01*
X179245494Y-55495820D01*
X179243696Y-55503861D01*
X179236492Y-55526035D01*
X179233216Y-55533605D01*
X179233214Y-55533612D01*
X179224509Y-55588577D01*
X179223050Y-55596227D01*
X179210909Y-55650543D01*
X179210909Y-55650544D01*
X179211168Y-55658779D01*
X179209704Y-55682057D01*
X179208415Y-55690198D01*
X179208415Y-55690199D01*
X179213651Y-55745596D01*
X179214140Y-55753368D01*
X179215888Y-55809007D01*
X179215889Y-55809009D01*
X179218189Y-55816926D01*
X179222561Y-55839845D01*
X179223335Y-55848033D01*
X179224514Y-55853307D01*
X179227500Y-55880357D01*
X179227500Y-63808719D01*
X179207815Y-63875758D01*
X179191181Y-63896400D01*
X177582510Y-65505070D01*
X177521187Y-65538555D01*
X177520610Y-65538679D01*
X177346886Y-65575604D01*
X177346880Y-65575606D01*
X177187362Y-65646629D01*
X177187357Y-65646632D01*
X177046092Y-65749267D01*
X177046090Y-65749269D01*
X176929247Y-65879038D01*
X176841937Y-66030262D01*
X176841933Y-66030271D01*
X176787978Y-66196332D01*
X176787977Y-66196336D01*
X176769724Y-66370000D01*
X176780789Y-66475279D01*
X176768221Y-66544007D01*
X176720489Y-66595031D01*
X176657469Y-66612239D01*
X172437548Y-66612239D01*
X172387112Y-66601518D01*
X172312607Y-66568345D01*
X172312601Y-66568343D01*
X172178102Y-66539755D01*
X172141798Y-66532039D01*
X171967178Y-66532039D01*
X171937237Y-66538402D01*
X171796374Y-66568343D01*
X171796368Y-66568345D01*
X171721864Y-66601518D01*
X171671428Y-66612239D01*
X170899560Y-66612239D01*
X170849124Y-66601518D01*
X170833474Y-66594550D01*
X170803827Y-66581350D01*
X170803825Y-66581349D01*
X170669326Y-66552761D01*
X170633022Y-66545045D01*
X170458402Y-66545045D01*
X170428461Y-66551408D01*
X170287598Y-66581349D01*
X170287592Y-66581351D01*
X170213088Y-66614524D01*
X170162652Y-66625245D01*
X169414218Y-66625245D01*
X169363782Y-66614524D01*
X169307472Y-66589452D01*
X169307466Y-66589450D01*
X169172967Y-66560862D01*
X169136663Y-66553146D01*
X168962043Y-66553146D01*
X168932102Y-66559509D01*
X168791239Y-66589450D01*
X168791233Y-66589452D01*
X168631715Y-66660475D01*
X168631710Y-66660478D01*
X168490445Y-66763113D01*
X168490443Y-66763115D01*
X168373600Y-66892884D01*
X168286290Y-67044108D01*
X168286286Y-67044117D01*
X168238249Y-67191964D01*
X168232330Y-67210182D01*
X168214077Y-67383846D01*
X147820500Y-67383846D01*
X147820500Y-50900119D01*
X148385155Y-50900119D01*
X148415075Y-51299369D01*
X148415077Y-51299383D01*
X148484600Y-51693670D01*
X148593034Y-52079063D01*
X148593038Y-52079077D01*
X148739303Y-52451754D01*
X148739308Y-52451766D01*
X148921957Y-52808037D01*
X148921968Y-52808056D01*
X148945639Y-52844705D01*
X149139182Y-53144368D01*
X149388810Y-53457391D01*
X149388819Y-53457402D01*
X149668356Y-53743996D01*
X149668374Y-53744013D01*
X149975071Y-54001361D01*
X149975073Y-54001362D01*
X150305860Y-54226891D01*
X150361853Y-54257383D01*
X150657483Y-54418374D01*
X151026416Y-54573892D01*
X151026427Y-54573895D01*
X151026437Y-54573899D01*
X151201837Y-54628002D01*
X151409000Y-54691904D01*
X151801433Y-54771236D01*
X152142902Y-54805405D01*
X152199813Y-54811100D01*
X152199814Y-54811100D01*
X152500007Y-54811100D01*
X152500024Y-54811100D01*
X152799874Y-54796135D01*
X153195773Y-54736463D01*
X153583764Y-54637668D01*
X153959990Y-54500733D01*
X154320712Y-54327019D01*
X154662345Y-54118251D01*
X154981494Y-53876505D01*
X155274987Y-53604183D01*
X155539907Y-53303992D01*
X155773621Y-52978916D01*
X155973807Y-52632184D01*
X156138475Y-52267243D01*
X156265988Y-51887720D01*
X156355079Y-51497387D01*
X156404862Y-51100123D01*
X156406012Y-51054000D01*
X161242421Y-51054000D01*
X161262692Y-51272763D01*
X161262692Y-51272765D01*
X161262693Y-51272768D01*
X161292836Y-51378710D01*
X161322819Y-51484090D01*
X161420749Y-51680759D01*
X161553153Y-51856090D01*
X161669316Y-51961986D01*
X161715516Y-52004103D01*
X161902313Y-52119763D01*
X162107183Y-52199129D01*
X162323147Y-52239500D01*
X162323149Y-52239500D01*
X162542851Y-52239500D01*
X162542853Y-52239500D01*
X162758817Y-52199129D01*
X162963687Y-52119763D01*
X163150484Y-52004103D01*
X163290162Y-51876768D01*
X163312846Y-51856090D01*
X163319882Y-51846773D01*
X163445251Y-51680759D01*
X163543182Y-51484087D01*
X163583734Y-51341560D01*
X163621012Y-51282468D01*
X163684322Y-51252910D01*
X163753561Y-51262272D01*
X163806748Y-51307581D01*
X163822265Y-51341558D01*
X163832836Y-51378710D01*
X163862818Y-51484089D01*
X163960749Y-51680759D01*
X164093153Y-51856090D01*
X164209316Y-51961986D01*
X164255516Y-52004103D01*
X164442313Y-52119763D01*
X164647183Y-52199129D01*
X164863147Y-52239500D01*
X164863149Y-52239500D01*
X165082851Y-52239500D01*
X165082853Y-52239500D01*
X165298817Y-52199129D01*
X165503687Y-52119763D01*
X165690484Y-52004103D01*
X165830162Y-51876768D01*
X165852846Y-51856090D01*
X165859882Y-51846773D01*
X165985251Y-51680759D01*
X166083182Y-51484087D01*
X166084231Y-51480398D01*
X166085215Y-51478837D01*
X166085253Y-51478742D01*
X166085271Y-51478749D01*
X166121503Y-51421304D01*
X166184810Y-51391740D01*
X166254050Y-51401095D01*
X166307242Y-51446399D01*
X166327496Y-51513268D01*
X166327500Y-51514323D01*
X166327500Y-51786869D01*
X166327501Y-51786876D01*
X166333908Y-51846483D01*
X166384202Y-51981328D01*
X166384206Y-51981335D01*
X166470452Y-52096544D01*
X166470455Y-52096547D01*
X166585664Y-52182793D01*
X166585671Y-52182797D01*
X166720517Y-52233091D01*
X166720516Y-52233091D01*
X166727444Y-52233835D01*
X166780127Y-52239500D01*
X168245872Y-52239499D01*
X168305483Y-52233091D01*
X168440331Y-52182796D01*
X168555546Y-52096546D01*
X168641796Y-51981331D01*
X168692091Y-51846483D01*
X168698500Y-51786873D01*
X168698499Y-50321128D01*
X168692091Y-50261517D01*
X168688507Y-50251909D01*
X168641797Y-50126671D01*
X168641793Y-50126664D01*
X168555547Y-50011455D01*
X168555544Y-50011452D01*
X168440335Y-49925206D01*
X168440328Y-49925202D01*
X168305482Y-49874908D01*
X168305483Y-49874908D01*
X168245883Y-49868501D01*
X168245881Y-49868500D01*
X168245873Y-49868500D01*
X168245864Y-49868500D01*
X166780129Y-49868500D01*
X166780123Y-49868501D01*
X166720516Y-49874908D01*
X166585671Y-49925202D01*
X166585664Y-49925206D01*
X166470455Y-50011452D01*
X166470452Y-50011455D01*
X166384206Y-50126664D01*
X166384202Y-50126671D01*
X166333908Y-50261517D01*
X166327501Y-50321116D01*
X166327501Y-50321123D01*
X166327500Y-50321135D01*
X166327500Y-50593674D01*
X166307815Y-50660713D01*
X166255011Y-50706468D01*
X166185853Y-50716412D01*
X166122297Y-50687387D01*
X166084523Y-50628609D01*
X166084233Y-50627606D01*
X166083182Y-50623912D01*
X166083181Y-50623911D01*
X166062239Y-50581854D01*
X165985251Y-50427241D01*
X165883636Y-50292682D01*
X165852846Y-50251909D01*
X165690485Y-50103898D01*
X165690484Y-50103897D01*
X165503687Y-49988237D01*
X165503685Y-49988236D01*
X165340978Y-49925204D01*
X165298817Y-49908871D01*
X165082853Y-49868500D01*
X164863147Y-49868500D01*
X164647183Y-49908871D01*
X164647180Y-49908871D01*
X164647180Y-49908872D01*
X164442314Y-49988236D01*
X164442312Y-49988237D01*
X164255514Y-50103898D01*
X164093153Y-50251909D01*
X163960749Y-50427240D01*
X163862819Y-50623909D01*
X163862818Y-50623912D01*
X163862818Y-50623913D01*
X163822265Y-50766439D01*
X163784987Y-50825531D01*
X163721678Y-50855089D01*
X163652438Y-50845727D01*
X163599252Y-50800418D01*
X163583734Y-50766441D01*
X163543182Y-50623913D01*
X163445251Y-50427241D01*
X163343636Y-50292682D01*
X163312846Y-50251909D01*
X163150485Y-50103898D01*
X163150484Y-50103897D01*
X162963687Y-49988237D01*
X162963685Y-49988236D01*
X162800978Y-49925204D01*
X162758817Y-49908871D01*
X162542853Y-49868500D01*
X162323147Y-49868500D01*
X162107183Y-49908871D01*
X162107180Y-49908871D01*
X162107180Y-49908872D01*
X161902314Y-49988236D01*
X161902312Y-49988237D01*
X161715514Y-50103898D01*
X161553153Y-50251909D01*
X161420749Y-50427240D01*
X161322819Y-50623909D01*
X161262692Y-50835236D01*
X161242421Y-51053999D01*
X161242421Y-51054000D01*
X156406012Y-51054000D01*
X156414432Y-50716412D01*
X156414844Y-50699891D01*
X156414844Y-50699876D01*
X156399344Y-50493048D01*
X156384924Y-50300624D01*
X156321624Y-49941634D01*
X156315399Y-49906329D01*
X156206965Y-49520936D01*
X156206961Y-49520922D01*
X156060696Y-49148245D01*
X156060691Y-49148233D01*
X155878042Y-48791962D01*
X155878038Y-48791954D01*
X155660818Y-48455632D01*
X155411190Y-48142609D01*
X155411187Y-48142606D01*
X155411180Y-48142597D01*
X155131643Y-47856003D01*
X155131625Y-47855986D01*
X154824928Y-47598638D01*
X154824926Y-47598637D01*
X154494139Y-47373108D01*
X154310271Y-47272980D01*
X154142517Y-47181626D01*
X154142509Y-47181622D01*
X154142506Y-47181621D01*
X153773584Y-47026108D01*
X153773562Y-47026100D01*
X153390997Y-46908095D01*
X153390984Y-46908092D01*
X152998581Y-46828766D01*
X152998560Y-46828763D01*
X152600187Y-46788900D01*
X152600186Y-46788900D01*
X152299976Y-46788900D01*
X152299961Y-46788900D01*
X152000126Y-46803864D01*
X151604227Y-46863536D01*
X151280634Y-46945934D01*
X151216236Y-46962332D01*
X151216234Y-46962332D01*
X151216225Y-46962335D01*
X150840001Y-47099270D01*
X150479288Y-47272980D01*
X150479284Y-47272982D01*
X150137659Y-47481745D01*
X150137648Y-47481753D01*
X149818505Y-47723495D01*
X149818502Y-47723497D01*
X149525007Y-47995822D01*
X149260089Y-48296012D01*
X149026384Y-48621077D01*
X149026371Y-48621097D01*
X148826194Y-48967813D01*
X148661524Y-49332757D01*
X148534012Y-49712277D01*
X148444921Y-50102610D01*
X148395137Y-50499882D01*
X148385155Y-50900108D01*
X148385155Y-50900119D01*
X147820500Y-50900119D01*
X147820500Y-46344500D01*
X147840185Y-46277461D01*
X147892989Y-46231706D01*
X147944500Y-46220500D01*
X222895500Y-46220500D01*
X222962539Y-46240185D01*
G37*
%TD.AperFunction*%
%TD*%
M02*
