%TF.GenerationSoftware,KiCad,Pcbnew,7.0.10*%
%TF.CreationDate,2024-03-08T11:24:00-05:00*%
%TF.ProjectId,TrumpetMelody,5472756d-7065-4744-9d65-6c6f64792e6b,rev?*%
%TF.SameCoordinates,Original*%
%TF.FileFunction,Legend,Top*%
%TF.FilePolarity,Positive*%
%FSLAX46Y46*%
G04 Gerber Fmt 4.6, Leading zero omitted, Abs format (unit mm)*
G04 Created by KiCad (PCBNEW 7.0.10) date 2024-03-08 11:24:00*
%MOMM*%
%LPD*%
G01*
G04 APERTURE LIST*
%ADD10C,0.152400*%
%ADD11C,0.127000*%
%ADD12C,0.200000*%
%ADD13C,0.120000*%
G04 APERTURE END LIST*
D10*
X186226783Y-98230494D02*
X186483361Y-98487073D01*
X185636651Y-99077204D02*
X186355072Y-98358783D01*
X185914612Y-99355164D02*
X186633033Y-98636744D01*
X186633033Y-98636744D02*
X186269546Y-99299572D01*
X186269546Y-99299572D02*
X186932374Y-98936086D01*
X186932374Y-98936086D02*
X186213954Y-99654506D01*
X186440598Y-99812730D02*
X186470533Y-99911085D01*
X186470533Y-99911085D02*
X186577440Y-100017993D01*
X186577440Y-100017993D02*
X186654414Y-100026545D01*
X186654414Y-100026545D02*
X186710006Y-100013716D01*
X186710006Y-100013716D02*
X186799809Y-99966677D01*
X186799809Y-99966677D02*
X186868230Y-99898256D01*
X186868230Y-99898256D02*
X186915269Y-99808453D01*
X186915269Y-99808453D02*
X186928098Y-99752861D01*
X186928098Y-99752861D02*
X186919545Y-99675888D01*
X186919545Y-99675888D02*
X186868230Y-99556151D01*
X186868230Y-99556151D02*
X186859677Y-99479177D01*
X186859677Y-99479177D02*
X186872506Y-99423585D01*
X186872506Y-99423585D02*
X186919545Y-99333783D01*
X186919545Y-99333783D02*
X186987966Y-99265362D01*
X186987966Y-99265362D02*
X187077769Y-99218322D01*
X187077769Y-99218322D02*
X187133361Y-99205493D01*
X187133361Y-99205493D02*
X187210335Y-99214046D01*
X187210335Y-99214046D02*
X187317242Y-99320954D01*
X187317242Y-99320954D02*
X187347177Y-99419309D01*
X187695761Y-96532379D02*
X187952339Y-96788958D01*
X187105629Y-97379089D02*
X187824050Y-96660668D01*
X187708590Y-97845207D02*
X187652998Y-97858036D01*
X187652998Y-97858036D02*
X187554643Y-97828102D01*
X187554643Y-97828102D02*
X187511879Y-97785339D01*
X187511879Y-97785339D02*
X187481945Y-97686984D01*
X187481945Y-97686984D02*
X187507603Y-97575800D01*
X187507603Y-97575800D02*
X187554643Y-97485997D01*
X187554643Y-97485997D02*
X187670103Y-97327773D01*
X187670103Y-97327773D02*
X187772735Y-97225142D01*
X187772735Y-97225142D02*
X187930958Y-97109681D01*
X187930958Y-97109681D02*
X188020761Y-97062642D01*
X188020761Y-97062642D02*
X188131945Y-97036984D01*
X188131945Y-97036984D02*
X188230300Y-97066918D01*
X188230300Y-97066918D02*
X188273063Y-97109681D01*
X188273063Y-97109681D02*
X188302997Y-97208037D01*
X188302997Y-97208037D02*
X188290168Y-97263629D01*
X187832603Y-98106062D02*
X188551023Y-97387642D01*
X188089182Y-98362641D02*
X188307274Y-97759681D01*
X188807602Y-97644221D02*
X188140497Y-97798168D01*
X191512755Y-90613203D02*
X192231175Y-89894783D01*
X192231175Y-89894783D02*
X191769334Y-90869782D01*
X191769334Y-90869782D02*
X192487754Y-90151361D01*
X192829859Y-90493466D02*
X192316701Y-91006624D01*
X192316701Y-91006624D02*
X192192688Y-91087874D01*
X192192688Y-91087874D02*
X192081504Y-91113532D01*
X192081504Y-91113532D02*
X191983149Y-91083597D01*
X191983149Y-91083597D02*
X191940386Y-91040834D01*
X192979530Y-90643138D02*
X193236109Y-90899716D01*
X192389399Y-91489847D02*
X193107820Y-90771427D01*
X192923938Y-92024387D02*
X193116373Y-91532611D01*
X192667360Y-91767808D02*
X193385780Y-91049388D01*
X193385780Y-91049388D02*
X193556833Y-91220440D01*
X193556833Y-91220440D02*
X193565385Y-91297414D01*
X193565385Y-91297414D02*
X193552556Y-91353006D01*
X193552556Y-91353006D02*
X193505517Y-91442808D01*
X193505517Y-91442808D02*
X193402885Y-91545440D01*
X193402885Y-91545440D02*
X193313083Y-91592479D01*
X193313083Y-91592479D02*
X193257491Y-91605308D01*
X193257491Y-91605308D02*
X193180517Y-91596756D01*
X193180517Y-91596756D02*
X193009465Y-91425703D01*
X193129201Y-92161229D02*
X193159136Y-92259584D01*
X193159136Y-92259584D02*
X193266043Y-92366492D01*
X193266043Y-92366492D02*
X193343017Y-92375044D01*
X193343017Y-92375044D02*
X193398609Y-92362216D01*
X193398609Y-92362216D02*
X193488412Y-92315176D01*
X193488412Y-92315176D02*
X193556833Y-92246755D01*
X193556833Y-92246755D02*
X193603872Y-92156953D01*
X193603872Y-92156953D02*
X193616701Y-92101360D01*
X193616701Y-92101360D02*
X193608148Y-92024387D01*
X193608148Y-92024387D02*
X193556833Y-91904650D01*
X193556833Y-91904650D02*
X193548280Y-91827676D01*
X193548280Y-91827676D02*
X193561109Y-91772084D01*
X193561109Y-91772084D02*
X193608148Y-91682282D01*
X193608148Y-91682282D02*
X193676569Y-91613861D01*
X193676569Y-91613861D02*
X193766372Y-91566821D01*
X193766372Y-91566821D02*
X193821964Y-91553992D01*
X193821964Y-91553992D02*
X193898938Y-91562545D01*
X193898938Y-91562545D02*
X194005846Y-91669453D01*
X194005846Y-91669453D02*
X194035780Y-91767808D01*
X194198280Y-91861887D02*
X194454858Y-92118466D01*
X193608149Y-92708597D02*
X194326569Y-91990176D01*
X158693358Y-111319785D02*
X159026691Y-111319785D01*
X159169548Y-111851975D02*
X158693358Y-111851975D01*
X158693358Y-111851975D02*
X158693358Y-110835975D01*
X158693358Y-110835975D02*
X159169548Y-110835975D01*
X160169548Y-111755214D02*
X160121929Y-111803595D01*
X160121929Y-111803595D02*
X159979072Y-111851975D01*
X159979072Y-111851975D02*
X159883834Y-111851975D01*
X159883834Y-111851975D02*
X159740977Y-111803595D01*
X159740977Y-111803595D02*
X159645739Y-111706833D01*
X159645739Y-111706833D02*
X159598120Y-111610071D01*
X159598120Y-111610071D02*
X159550501Y-111416547D01*
X159550501Y-111416547D02*
X159550501Y-111271404D01*
X159550501Y-111271404D02*
X159598120Y-111077880D01*
X159598120Y-111077880D02*
X159645739Y-110981118D01*
X159645739Y-110981118D02*
X159740977Y-110884356D01*
X159740977Y-110884356D02*
X159883834Y-110835975D01*
X159883834Y-110835975D02*
X159979072Y-110835975D01*
X159979072Y-110835975D02*
X160121929Y-110884356D01*
X160121929Y-110884356D02*
X160169548Y-110932737D01*
X160598120Y-111319785D02*
X160931453Y-111319785D01*
X161074310Y-111851975D02*
X160598120Y-111851975D01*
X160598120Y-111851975D02*
X160598120Y-110835975D01*
X160598120Y-110835975D02*
X161074310Y-110835975D01*
X161931453Y-111174642D02*
X161931453Y-111851975D01*
X161693358Y-110787595D02*
X161455263Y-111513309D01*
X161455263Y-111513309D02*
X162074310Y-111513309D01*
X162360025Y-110835975D02*
X163026691Y-110835975D01*
X163026691Y-110835975D02*
X162598120Y-111851975D01*
X163312406Y-110835975D02*
X163979072Y-110835975D01*
X163979072Y-110835975D02*
X163550501Y-111851975D01*
X164979073Y-110835975D02*
X165550501Y-110835975D01*
X165264787Y-111851975D02*
X165264787Y-110835975D01*
X166264787Y-111803595D02*
X166169549Y-111851975D01*
X166169549Y-111851975D02*
X165979073Y-111851975D01*
X165979073Y-111851975D02*
X165883835Y-111803595D01*
X165883835Y-111803595D02*
X165836216Y-111706833D01*
X165836216Y-111706833D02*
X165836216Y-111319785D01*
X165836216Y-111319785D02*
X165883835Y-111223023D01*
X165883835Y-111223023D02*
X165979073Y-111174642D01*
X165979073Y-111174642D02*
X166169549Y-111174642D01*
X166169549Y-111174642D02*
X166264787Y-111223023D01*
X166264787Y-111223023D02*
X166312406Y-111319785D01*
X166312406Y-111319785D02*
X166312406Y-111416547D01*
X166312406Y-111416547D02*
X165836216Y-111513309D01*
X167169549Y-111851975D02*
X167169549Y-111319785D01*
X167169549Y-111319785D02*
X167121930Y-111223023D01*
X167121930Y-111223023D02*
X167026692Y-111174642D01*
X167026692Y-111174642D02*
X166836216Y-111174642D01*
X166836216Y-111174642D02*
X166740978Y-111223023D01*
X167169549Y-111803595D02*
X167074311Y-111851975D01*
X167074311Y-111851975D02*
X166836216Y-111851975D01*
X166836216Y-111851975D02*
X166740978Y-111803595D01*
X166740978Y-111803595D02*
X166693359Y-111706833D01*
X166693359Y-111706833D02*
X166693359Y-111610071D01*
X166693359Y-111610071D02*
X166740978Y-111513309D01*
X166740978Y-111513309D02*
X166836216Y-111464928D01*
X166836216Y-111464928D02*
X167074311Y-111464928D01*
X167074311Y-111464928D02*
X167169549Y-111416547D01*
X167645740Y-111851975D02*
X167645740Y-111174642D01*
X167645740Y-111271404D02*
X167693359Y-111223023D01*
X167693359Y-111223023D02*
X167788597Y-111174642D01*
X167788597Y-111174642D02*
X167931454Y-111174642D01*
X167931454Y-111174642D02*
X168026692Y-111223023D01*
X168026692Y-111223023D02*
X168074311Y-111319785D01*
X168074311Y-111319785D02*
X168074311Y-111851975D01*
X168074311Y-111319785D02*
X168121930Y-111223023D01*
X168121930Y-111223023D02*
X168217168Y-111174642D01*
X168217168Y-111174642D02*
X168360025Y-111174642D01*
X168360025Y-111174642D02*
X168455264Y-111223023D01*
X168455264Y-111223023D02*
X168502883Y-111319785D01*
X168502883Y-111319785D02*
X168502883Y-111851975D01*
X170264787Y-111851975D02*
X169693359Y-111851975D01*
X169979073Y-111851975D02*
X169979073Y-110835975D01*
X169979073Y-110835975D02*
X169883835Y-110981118D01*
X169883835Y-110981118D02*
X169788597Y-111077880D01*
X169788597Y-111077880D02*
X169693359Y-111126261D01*
X171169549Y-110835975D02*
X170693359Y-110835975D01*
X170693359Y-110835975D02*
X170645740Y-111319785D01*
X170645740Y-111319785D02*
X170693359Y-111271404D01*
X170693359Y-111271404D02*
X170788597Y-111223023D01*
X170788597Y-111223023D02*
X171026692Y-111223023D01*
X171026692Y-111223023D02*
X171121930Y-111271404D01*
X171121930Y-111271404D02*
X171169549Y-111319785D01*
X171169549Y-111319785D02*
X171217168Y-111416547D01*
X171217168Y-111416547D02*
X171217168Y-111658452D01*
X171217168Y-111658452D02*
X171169549Y-111755214D01*
X171169549Y-111755214D02*
X171121930Y-111803595D01*
X171121930Y-111803595D02*
X171026692Y-111851975D01*
X171026692Y-111851975D02*
X170788597Y-111851975D01*
X170788597Y-111851975D02*
X170693359Y-111803595D01*
X170693359Y-111803595D02*
X170645740Y-111755214D01*
X172264788Y-110835975D02*
X172836216Y-110835975D01*
X172550502Y-111851975D02*
X172550502Y-110835975D01*
X173169550Y-111851975D02*
X173169550Y-111174642D01*
X173169550Y-111368166D02*
X173217169Y-111271404D01*
X173217169Y-111271404D02*
X173264788Y-111223023D01*
X173264788Y-111223023D02*
X173360026Y-111174642D01*
X173360026Y-111174642D02*
X173455264Y-111174642D01*
X174217169Y-111174642D02*
X174217169Y-111851975D01*
X173788598Y-111174642D02*
X173788598Y-111706833D01*
X173788598Y-111706833D02*
X173836217Y-111803595D01*
X173836217Y-111803595D02*
X173931455Y-111851975D01*
X173931455Y-111851975D02*
X174074312Y-111851975D01*
X174074312Y-111851975D02*
X174169550Y-111803595D01*
X174169550Y-111803595D02*
X174217169Y-111755214D01*
X174693360Y-111851975D02*
X174693360Y-111174642D01*
X174693360Y-111271404D02*
X174740979Y-111223023D01*
X174740979Y-111223023D02*
X174836217Y-111174642D01*
X174836217Y-111174642D02*
X174979074Y-111174642D01*
X174979074Y-111174642D02*
X175074312Y-111223023D01*
X175074312Y-111223023D02*
X175121931Y-111319785D01*
X175121931Y-111319785D02*
X175121931Y-111851975D01*
X175121931Y-111319785D02*
X175169550Y-111223023D01*
X175169550Y-111223023D02*
X175264788Y-111174642D01*
X175264788Y-111174642D02*
X175407645Y-111174642D01*
X175407645Y-111174642D02*
X175502884Y-111223023D01*
X175502884Y-111223023D02*
X175550503Y-111319785D01*
X175550503Y-111319785D02*
X175550503Y-111851975D01*
X176026693Y-111174642D02*
X176026693Y-112190642D01*
X176026693Y-111223023D02*
X176121931Y-111174642D01*
X176121931Y-111174642D02*
X176312407Y-111174642D01*
X176312407Y-111174642D02*
X176407645Y-111223023D01*
X176407645Y-111223023D02*
X176455264Y-111271404D01*
X176455264Y-111271404D02*
X176502883Y-111368166D01*
X176502883Y-111368166D02*
X176502883Y-111658452D01*
X176502883Y-111658452D02*
X176455264Y-111755214D01*
X176455264Y-111755214D02*
X176407645Y-111803595D01*
X176407645Y-111803595D02*
X176312407Y-111851975D01*
X176312407Y-111851975D02*
X176121931Y-111851975D01*
X176121931Y-111851975D02*
X176026693Y-111803595D01*
X177312407Y-111803595D02*
X177217169Y-111851975D01*
X177217169Y-111851975D02*
X177026693Y-111851975D01*
X177026693Y-111851975D02*
X176931455Y-111803595D01*
X176931455Y-111803595D02*
X176883836Y-111706833D01*
X176883836Y-111706833D02*
X176883836Y-111319785D01*
X176883836Y-111319785D02*
X176931455Y-111223023D01*
X176931455Y-111223023D02*
X177026693Y-111174642D01*
X177026693Y-111174642D02*
X177217169Y-111174642D01*
X177217169Y-111174642D02*
X177312407Y-111223023D01*
X177312407Y-111223023D02*
X177360026Y-111319785D01*
X177360026Y-111319785D02*
X177360026Y-111416547D01*
X177360026Y-111416547D02*
X176883836Y-111513309D01*
X177645741Y-111174642D02*
X178026693Y-111174642D01*
X177788598Y-110835975D02*
X177788598Y-111706833D01*
X177788598Y-111706833D02*
X177836217Y-111803595D01*
X177836217Y-111803595D02*
X177931455Y-111851975D01*
X177931455Y-111851975D02*
X178026693Y-111851975D01*
X179121932Y-111851975D02*
X179121932Y-110835975D01*
X179121932Y-110835975D02*
X179455265Y-111561690D01*
X179455265Y-111561690D02*
X179788598Y-110835975D01*
X179788598Y-110835975D02*
X179788598Y-111851975D01*
X180645741Y-111803595D02*
X180550503Y-111851975D01*
X180550503Y-111851975D02*
X180360027Y-111851975D01*
X180360027Y-111851975D02*
X180264789Y-111803595D01*
X180264789Y-111803595D02*
X180217170Y-111706833D01*
X180217170Y-111706833D02*
X180217170Y-111319785D01*
X180217170Y-111319785D02*
X180264789Y-111223023D01*
X180264789Y-111223023D02*
X180360027Y-111174642D01*
X180360027Y-111174642D02*
X180550503Y-111174642D01*
X180550503Y-111174642D02*
X180645741Y-111223023D01*
X180645741Y-111223023D02*
X180693360Y-111319785D01*
X180693360Y-111319785D02*
X180693360Y-111416547D01*
X180693360Y-111416547D02*
X180217170Y-111513309D01*
X181264789Y-111851975D02*
X181169551Y-111803595D01*
X181169551Y-111803595D02*
X181121932Y-111706833D01*
X181121932Y-111706833D02*
X181121932Y-110835975D01*
X181788599Y-111851975D02*
X181693361Y-111803595D01*
X181693361Y-111803595D02*
X181645742Y-111755214D01*
X181645742Y-111755214D02*
X181598123Y-111658452D01*
X181598123Y-111658452D02*
X181598123Y-111368166D01*
X181598123Y-111368166D02*
X181645742Y-111271404D01*
X181645742Y-111271404D02*
X181693361Y-111223023D01*
X181693361Y-111223023D02*
X181788599Y-111174642D01*
X181788599Y-111174642D02*
X181931456Y-111174642D01*
X181931456Y-111174642D02*
X182026694Y-111223023D01*
X182026694Y-111223023D02*
X182074313Y-111271404D01*
X182074313Y-111271404D02*
X182121932Y-111368166D01*
X182121932Y-111368166D02*
X182121932Y-111658452D01*
X182121932Y-111658452D02*
X182074313Y-111755214D01*
X182074313Y-111755214D02*
X182026694Y-111803595D01*
X182026694Y-111803595D02*
X181931456Y-111851975D01*
X181931456Y-111851975D02*
X181788599Y-111851975D01*
X182979075Y-111851975D02*
X182979075Y-110835975D01*
X182979075Y-111803595D02*
X182883837Y-111851975D01*
X182883837Y-111851975D02*
X182693361Y-111851975D01*
X182693361Y-111851975D02*
X182598123Y-111803595D01*
X182598123Y-111803595D02*
X182550504Y-111755214D01*
X182550504Y-111755214D02*
X182502885Y-111658452D01*
X182502885Y-111658452D02*
X182502885Y-111368166D01*
X182502885Y-111368166D02*
X182550504Y-111271404D01*
X182550504Y-111271404D02*
X182598123Y-111223023D01*
X182598123Y-111223023D02*
X182693361Y-111174642D01*
X182693361Y-111174642D02*
X182883837Y-111174642D01*
X182883837Y-111174642D02*
X182979075Y-111223023D01*
X183360028Y-111174642D02*
X183598123Y-111851975D01*
X183836218Y-111174642D02*
X183598123Y-111851975D01*
X183598123Y-111851975D02*
X183502885Y-112093880D01*
X183502885Y-112093880D02*
X183455266Y-112142261D01*
X183455266Y-112142261D02*
X183360028Y-112190642D01*
X159264786Y-113390974D02*
X159217167Y-113439355D01*
X159217167Y-113439355D02*
X159074310Y-113487735D01*
X159074310Y-113487735D02*
X158979072Y-113487735D01*
X158979072Y-113487735D02*
X158836215Y-113439355D01*
X158836215Y-113439355D02*
X158740977Y-113342593D01*
X158740977Y-113342593D02*
X158693358Y-113245831D01*
X158693358Y-113245831D02*
X158645739Y-113052307D01*
X158645739Y-113052307D02*
X158645739Y-112907164D01*
X158645739Y-112907164D02*
X158693358Y-112713640D01*
X158693358Y-112713640D02*
X158740977Y-112616878D01*
X158740977Y-112616878D02*
X158836215Y-112520116D01*
X158836215Y-112520116D02*
X158979072Y-112471735D01*
X158979072Y-112471735D02*
X159074310Y-112471735D01*
X159074310Y-112471735D02*
X159217167Y-112520116D01*
X159217167Y-112520116D02*
X159264786Y-112568497D01*
X159598120Y-112471735D02*
X159836215Y-113487735D01*
X159836215Y-113487735D02*
X160026691Y-112762021D01*
X160026691Y-112762021D02*
X160217167Y-113487735D01*
X160217167Y-113487735D02*
X160455263Y-112471735D01*
X162169548Y-113390974D02*
X162121929Y-113439355D01*
X162121929Y-113439355D02*
X161979072Y-113487735D01*
X161979072Y-113487735D02*
X161883834Y-113487735D01*
X161883834Y-113487735D02*
X161740977Y-113439355D01*
X161740977Y-113439355D02*
X161645739Y-113342593D01*
X161645739Y-113342593D02*
X161598120Y-113245831D01*
X161598120Y-113245831D02*
X161550501Y-113052307D01*
X161550501Y-113052307D02*
X161550501Y-112907164D01*
X161550501Y-112907164D02*
X161598120Y-112713640D01*
X161598120Y-112713640D02*
X161645739Y-112616878D01*
X161645739Y-112616878D02*
X161740977Y-112520116D01*
X161740977Y-112520116D02*
X161883834Y-112471735D01*
X161883834Y-112471735D02*
X161979072Y-112471735D01*
X161979072Y-112471735D02*
X162121929Y-112520116D01*
X162121929Y-112520116D02*
X162169548Y-112568497D01*
X163121929Y-112520116D02*
X163026691Y-112471735D01*
X163026691Y-112471735D02*
X162883834Y-112471735D01*
X162883834Y-112471735D02*
X162740977Y-112520116D01*
X162740977Y-112520116D02*
X162645739Y-112616878D01*
X162645739Y-112616878D02*
X162598120Y-112713640D01*
X162598120Y-112713640D02*
X162550501Y-112907164D01*
X162550501Y-112907164D02*
X162550501Y-113052307D01*
X162550501Y-113052307D02*
X162598120Y-113245831D01*
X162598120Y-113245831D02*
X162645739Y-113342593D01*
X162645739Y-113342593D02*
X162740977Y-113439355D01*
X162740977Y-113439355D02*
X162883834Y-113487735D01*
X162883834Y-113487735D02*
X162979072Y-113487735D01*
X162979072Y-113487735D02*
X163121929Y-113439355D01*
X163121929Y-113439355D02*
X163169548Y-113390974D01*
X163169548Y-113390974D02*
X163169548Y-113052307D01*
X163169548Y-113052307D02*
X162979072Y-113052307D01*
X164312406Y-113439355D02*
X164455263Y-113487735D01*
X164455263Y-113487735D02*
X164693358Y-113487735D01*
X164693358Y-113487735D02*
X164788596Y-113439355D01*
X164788596Y-113439355D02*
X164836215Y-113390974D01*
X164836215Y-113390974D02*
X164883834Y-113294212D01*
X164883834Y-113294212D02*
X164883834Y-113197450D01*
X164883834Y-113197450D02*
X164836215Y-113100688D01*
X164836215Y-113100688D02*
X164788596Y-113052307D01*
X164788596Y-113052307D02*
X164693358Y-113003926D01*
X164693358Y-113003926D02*
X164502882Y-112955545D01*
X164502882Y-112955545D02*
X164407644Y-112907164D01*
X164407644Y-112907164D02*
X164360025Y-112858783D01*
X164360025Y-112858783D02*
X164312406Y-112762021D01*
X164312406Y-112762021D02*
X164312406Y-112665259D01*
X164312406Y-112665259D02*
X164360025Y-112568497D01*
X164360025Y-112568497D02*
X164407644Y-112520116D01*
X164407644Y-112520116D02*
X164502882Y-112471735D01*
X164502882Y-112471735D02*
X164740977Y-112471735D01*
X164740977Y-112471735D02*
X164883834Y-112520116D01*
X165312406Y-112955545D02*
X165645739Y-112955545D01*
X165788596Y-113487735D02*
X165312406Y-113487735D01*
X165312406Y-113487735D02*
X165312406Y-112471735D01*
X165312406Y-112471735D02*
X165788596Y-112471735D01*
X166979073Y-113487735D02*
X166979073Y-112471735D01*
X167550501Y-113487735D02*
X167121930Y-112907164D01*
X167550501Y-112471735D02*
X166979073Y-113052307D01*
X168550501Y-113390974D02*
X168502882Y-113439355D01*
X168502882Y-113439355D02*
X168360025Y-113487735D01*
X168360025Y-113487735D02*
X168264787Y-113487735D01*
X168264787Y-113487735D02*
X168121930Y-113439355D01*
X168121930Y-113439355D02*
X168026692Y-113342593D01*
X168026692Y-113342593D02*
X167979073Y-113245831D01*
X167979073Y-113245831D02*
X167931454Y-113052307D01*
X167931454Y-113052307D02*
X167931454Y-112907164D01*
X167931454Y-112907164D02*
X167979073Y-112713640D01*
X167979073Y-112713640D02*
X168026692Y-112616878D01*
X168026692Y-112616878D02*
X168121930Y-112520116D01*
X168121930Y-112520116D02*
X168264787Y-112471735D01*
X168264787Y-112471735D02*
X168360025Y-112471735D01*
X168360025Y-112471735D02*
X168502882Y-112520116D01*
X168502882Y-112520116D02*
X168550501Y-112568497D01*
X169740978Y-113100688D02*
X170502883Y-113100688D01*
X172312406Y-113487735D02*
X171979073Y-113003926D01*
X171740978Y-113487735D02*
X171740978Y-112471735D01*
X171740978Y-112471735D02*
X172121930Y-112471735D01*
X172121930Y-112471735D02*
X172217168Y-112520116D01*
X172217168Y-112520116D02*
X172264787Y-112568497D01*
X172264787Y-112568497D02*
X172312406Y-112665259D01*
X172312406Y-112665259D02*
X172312406Y-112810402D01*
X172312406Y-112810402D02*
X172264787Y-112907164D01*
X172264787Y-112907164D02*
X172217168Y-112955545D01*
X172217168Y-112955545D02*
X172121930Y-113003926D01*
X172121930Y-113003926D02*
X171740978Y-113003926D01*
X173121930Y-113439355D02*
X173026692Y-113487735D01*
X173026692Y-113487735D02*
X172836216Y-113487735D01*
X172836216Y-113487735D02*
X172740978Y-113439355D01*
X172740978Y-113439355D02*
X172693359Y-113342593D01*
X172693359Y-113342593D02*
X172693359Y-112955545D01*
X172693359Y-112955545D02*
X172740978Y-112858783D01*
X172740978Y-112858783D02*
X172836216Y-112810402D01*
X172836216Y-112810402D02*
X173026692Y-112810402D01*
X173026692Y-112810402D02*
X173121930Y-112858783D01*
X173121930Y-112858783D02*
X173169549Y-112955545D01*
X173169549Y-112955545D02*
X173169549Y-113052307D01*
X173169549Y-113052307D02*
X172693359Y-113149069D01*
X173502883Y-112810402D02*
X173740978Y-113487735D01*
X173740978Y-113487735D02*
X173979073Y-112810402D01*
X174360026Y-113390974D02*
X174407645Y-113439355D01*
X174407645Y-113439355D02*
X174360026Y-113487735D01*
X174360026Y-113487735D02*
X174312407Y-113439355D01*
X174312407Y-113439355D02*
X174360026Y-113390974D01*
X174360026Y-113390974D02*
X174360026Y-113487735D01*
X176121930Y-113487735D02*
X175550502Y-113487735D01*
X175836216Y-113487735D02*
X175836216Y-112471735D01*
X175836216Y-112471735D02*
X175740978Y-112616878D01*
X175740978Y-112616878D02*
X175645740Y-112713640D01*
X175645740Y-112713640D02*
X175550502Y-112762021D01*
X176550502Y-113390974D02*
X176598121Y-113439355D01*
X176598121Y-113439355D02*
X176550502Y-113487735D01*
X176550502Y-113487735D02*
X176502883Y-113439355D01*
X176502883Y-113439355D02*
X176550502Y-113390974D01*
X176550502Y-113390974D02*
X176550502Y-113487735D01*
X177550501Y-113487735D02*
X176979073Y-113487735D01*
X177264787Y-113487735D02*
X177264787Y-112471735D01*
X177264787Y-112471735D02*
X177169549Y-112616878D01*
X177169549Y-112616878D02*
X177074311Y-112713640D01*
X177074311Y-112713640D02*
X176979073Y-112762021D01*
X177836216Y-112810402D02*
X178217168Y-112810402D01*
X177979073Y-113487735D02*
X177979073Y-112616878D01*
X177979073Y-112616878D02*
X178026692Y-112520116D01*
X178026692Y-112520116D02*
X178121930Y-112471735D01*
X178121930Y-112471735D02*
X178217168Y-112471735D01*
X189774333Y-96267522D02*
X189804267Y-96365877D01*
X189804267Y-96365877D02*
X189911175Y-96472785D01*
X189911175Y-96472785D02*
X189988148Y-96481338D01*
X189988148Y-96481338D02*
X190043740Y-96468509D01*
X190043740Y-96468509D02*
X190133543Y-96421469D01*
X190133543Y-96421469D02*
X190201964Y-96353048D01*
X190201964Y-96353048D02*
X190249003Y-96263246D01*
X190249003Y-96263246D02*
X190261832Y-96207654D01*
X190261832Y-96207654D02*
X190253280Y-96130680D01*
X190253280Y-96130680D02*
X190201964Y-96010943D01*
X190201964Y-96010943D02*
X190193411Y-95933970D01*
X190193411Y-95933970D02*
X190206240Y-95878378D01*
X190206240Y-95878378D02*
X190253280Y-95788575D01*
X190253280Y-95788575D02*
X190321701Y-95720154D01*
X190321701Y-95720154D02*
X190411503Y-95673115D01*
X190411503Y-95673115D02*
X190467095Y-95660286D01*
X190467095Y-95660286D02*
X190544069Y-95668838D01*
X190544069Y-95668838D02*
X190650977Y-95775746D01*
X190650977Y-95775746D02*
X190680911Y-95874101D01*
X191729275Y-92732130D02*
X191216117Y-93245288D01*
X191216117Y-93245288D02*
X191092104Y-93326537D01*
X191092104Y-93326537D02*
X190980920Y-93352195D01*
X190980920Y-93352195D02*
X190882565Y-93322261D01*
X190882565Y-93322261D02*
X190839802Y-93279498D01*
X191224670Y-93664366D02*
X191943091Y-92945946D01*
X191943091Y-92945946D02*
X192049998Y-93052854D01*
X192049998Y-93052854D02*
X192079933Y-93151209D01*
X192079933Y-93151209D02*
X192054275Y-93262393D01*
X192054275Y-93262393D02*
X192007235Y-93352196D01*
X192007235Y-93352196D02*
X191891775Y-93510419D01*
X191891775Y-93510419D02*
X191789143Y-93613051D01*
X191789143Y-93613051D02*
X191630920Y-93728511D01*
X191630920Y-93728511D02*
X191541117Y-93775551D01*
X191541117Y-93775551D02*
X191429933Y-93801208D01*
X191429933Y-93801208D02*
X191331578Y-93771274D01*
X191331578Y-93771274D02*
X191224670Y-93664366D01*
X192327959Y-93330814D02*
X192584537Y-93587393D01*
X191737828Y-94177524D02*
X192456248Y-93459103D01*
X192015788Y-94455485D02*
X192734209Y-93737064D01*
X148005110Y-71511879D02*
X148005110Y-70892832D01*
X148005110Y-70892832D02*
X148392158Y-71226165D01*
X148392158Y-71226165D02*
X148392158Y-71083308D01*
X148392158Y-71083308D02*
X148440539Y-70988070D01*
X148440539Y-70988070D02*
X148488920Y-70940451D01*
X148488920Y-70940451D02*
X148585682Y-70892832D01*
X148585682Y-70892832D02*
X148827587Y-70892832D01*
X148827587Y-70892832D02*
X148924349Y-70940451D01*
X148924349Y-70940451D02*
X148972730Y-70988070D01*
X148972730Y-70988070D02*
X149021110Y-71083308D01*
X149021110Y-71083308D02*
X149021110Y-71369022D01*
X149021110Y-71369022D02*
X148972730Y-71464260D01*
X148972730Y-71464260D02*
X148924349Y-71511879D01*
X148005110Y-70607117D02*
X149021110Y-70273784D01*
X149021110Y-70273784D02*
X148005110Y-69940451D01*
X149021110Y-68845212D02*
X148005110Y-68845212D01*
X148005110Y-68845212D02*
X148005110Y-68464260D01*
X148005110Y-68464260D02*
X148053491Y-68369022D01*
X148053491Y-68369022D02*
X148101872Y-68321403D01*
X148101872Y-68321403D02*
X148198634Y-68273784D01*
X148198634Y-68273784D02*
X148343777Y-68273784D01*
X148343777Y-68273784D02*
X148440539Y-68321403D01*
X148440539Y-68321403D02*
X148488920Y-68369022D01*
X148488920Y-68369022D02*
X148537301Y-68464260D01*
X148537301Y-68464260D02*
X148537301Y-68845212D01*
X148005110Y-67654736D02*
X148005110Y-67464260D01*
X148005110Y-67464260D02*
X148053491Y-67369022D01*
X148053491Y-67369022D02*
X148150253Y-67273784D01*
X148150253Y-67273784D02*
X148343777Y-67226165D01*
X148343777Y-67226165D02*
X148682444Y-67226165D01*
X148682444Y-67226165D02*
X148875968Y-67273784D01*
X148875968Y-67273784D02*
X148972730Y-67369022D01*
X148972730Y-67369022D02*
X149021110Y-67464260D01*
X149021110Y-67464260D02*
X149021110Y-67654736D01*
X149021110Y-67654736D02*
X148972730Y-67749974D01*
X148972730Y-67749974D02*
X148875968Y-67845212D01*
X148875968Y-67845212D02*
X148682444Y-67892831D01*
X148682444Y-67892831D02*
X148343777Y-67892831D01*
X148343777Y-67892831D02*
X148150253Y-67845212D01*
X148150253Y-67845212D02*
X148053491Y-67749974D01*
X148053491Y-67749974D02*
X148005110Y-67654736D01*
X148005110Y-66892831D02*
X149021110Y-66654736D01*
X149021110Y-66654736D02*
X148295396Y-66464260D01*
X148295396Y-66464260D02*
X149021110Y-66273784D01*
X149021110Y-66273784D02*
X148005110Y-66035689D01*
X148488920Y-65654736D02*
X148488920Y-65321403D01*
X149021110Y-65178546D02*
X149021110Y-65654736D01*
X149021110Y-65654736D02*
X148005110Y-65654736D01*
X148005110Y-65654736D02*
X148005110Y-65178546D01*
X149021110Y-64178546D02*
X148537301Y-64511879D01*
X149021110Y-64749974D02*
X148005110Y-64749974D01*
X148005110Y-64749974D02*
X148005110Y-64369022D01*
X148005110Y-64369022D02*
X148053491Y-64273784D01*
X148053491Y-64273784D02*
X148101872Y-64226165D01*
X148101872Y-64226165D02*
X148198634Y-64178546D01*
X148198634Y-64178546D02*
X148343777Y-64178546D01*
X148343777Y-64178546D02*
X148440539Y-64226165D01*
X148440539Y-64226165D02*
X148488920Y-64273784D01*
X148488920Y-64273784D02*
X148537301Y-64369022D01*
X148537301Y-64369022D02*
X148537301Y-64749974D01*
X204184666Y-110302505D02*
X203851333Y-110302505D01*
X203851333Y-110834695D02*
X203851333Y-109818695D01*
X203851333Y-109818695D02*
X204327523Y-109818695D01*
X205041809Y-110302505D02*
X205184666Y-110350886D01*
X205184666Y-110350886D02*
X205232285Y-110399267D01*
X205232285Y-110399267D02*
X205279904Y-110496029D01*
X205279904Y-110496029D02*
X205279904Y-110641172D01*
X205279904Y-110641172D02*
X205232285Y-110737934D01*
X205232285Y-110737934D02*
X205184666Y-110786315D01*
X205184666Y-110786315D02*
X205089428Y-110834695D01*
X205089428Y-110834695D02*
X204708476Y-110834695D01*
X204708476Y-110834695D02*
X204708476Y-109818695D01*
X204708476Y-109818695D02*
X205041809Y-109818695D01*
X205041809Y-109818695D02*
X205137047Y-109867076D01*
X205137047Y-109867076D02*
X205184666Y-109915457D01*
X205184666Y-109915457D02*
X205232285Y-110012219D01*
X205232285Y-110012219D02*
X205232285Y-110108981D01*
X205232285Y-110108981D02*
X205184666Y-110205743D01*
X205184666Y-110205743D02*
X205137047Y-110254124D01*
X205137047Y-110254124D02*
X205041809Y-110302505D01*
X205041809Y-110302505D02*
X204708476Y-110302505D01*
X206184666Y-109818695D02*
X205708476Y-109818695D01*
X205708476Y-109818695D02*
X205660857Y-110302505D01*
X205660857Y-110302505D02*
X205708476Y-110254124D01*
X205708476Y-110254124D02*
X205803714Y-110205743D01*
X205803714Y-110205743D02*
X206041809Y-110205743D01*
X206041809Y-110205743D02*
X206137047Y-110254124D01*
X206137047Y-110254124D02*
X206184666Y-110302505D01*
X206184666Y-110302505D02*
X206232285Y-110399267D01*
X206232285Y-110399267D02*
X206232285Y-110641172D01*
X206232285Y-110641172D02*
X206184666Y-110737934D01*
X206184666Y-110737934D02*
X206137047Y-110786315D01*
X206137047Y-110786315D02*
X206041809Y-110834695D01*
X206041809Y-110834695D02*
X205803714Y-110834695D01*
X205803714Y-110834695D02*
X205708476Y-110786315D01*
X205708476Y-110786315D02*
X205660857Y-110737934D01*
X197434195Y-46580470D02*
X197434195Y-47306185D01*
X197434195Y-47306185D02*
X197386576Y-47451328D01*
X197386576Y-47451328D02*
X197291338Y-47548090D01*
X197291338Y-47548090D02*
X197148481Y-47596470D01*
X197148481Y-47596470D02*
X197053243Y-47596470D01*
X197815148Y-46580470D02*
X198434195Y-46580470D01*
X198434195Y-46580470D02*
X198100862Y-46967518D01*
X198100862Y-46967518D02*
X198243719Y-46967518D01*
X198243719Y-46967518D02*
X198338957Y-47015899D01*
X198338957Y-47015899D02*
X198386576Y-47064280D01*
X198386576Y-47064280D02*
X198434195Y-47161042D01*
X198434195Y-47161042D02*
X198434195Y-47402947D01*
X198434195Y-47402947D02*
X198386576Y-47499709D01*
X198386576Y-47499709D02*
X198338957Y-47548090D01*
X198338957Y-47548090D02*
X198243719Y-47596470D01*
X198243719Y-47596470D02*
X197958005Y-47596470D01*
X197958005Y-47596470D02*
X197862767Y-47548090D01*
X197862767Y-47548090D02*
X197815148Y-47499709D01*
X216903278Y-73585322D02*
X216419469Y-73918655D01*
X216903278Y-74156750D02*
X215887278Y-74156750D01*
X215887278Y-74156750D02*
X215887278Y-73775798D01*
X215887278Y-73775798D02*
X215935659Y-73680560D01*
X215935659Y-73680560D02*
X215984040Y-73632941D01*
X215984040Y-73632941D02*
X216080802Y-73585322D01*
X216080802Y-73585322D02*
X216225945Y-73585322D01*
X216225945Y-73585322D02*
X216322707Y-73632941D01*
X216322707Y-73632941D02*
X216371088Y-73680560D01*
X216371088Y-73680560D02*
X216419469Y-73775798D01*
X216419469Y-73775798D02*
X216419469Y-74156750D01*
X216903278Y-72632941D02*
X216903278Y-73204369D01*
X216903278Y-72918655D02*
X215887278Y-72918655D01*
X215887278Y-72918655D02*
X216032421Y-73013893D01*
X216032421Y-73013893D02*
X216129183Y-73109131D01*
X216129183Y-73109131D02*
X216177564Y-73204369D01*
X215887278Y-71728179D02*
X215887278Y-72204369D01*
X215887278Y-72204369D02*
X216371088Y-72251988D01*
X216371088Y-72251988D02*
X216322707Y-72204369D01*
X216322707Y-72204369D02*
X216274326Y-72109131D01*
X216274326Y-72109131D02*
X216274326Y-71871036D01*
X216274326Y-71871036D02*
X216322707Y-71775798D01*
X216322707Y-71775798D02*
X216371088Y-71728179D01*
X216371088Y-71728179D02*
X216467850Y-71680560D01*
X216467850Y-71680560D02*
X216709755Y-71680560D01*
X216709755Y-71680560D02*
X216806517Y-71728179D01*
X216806517Y-71728179D02*
X216854898Y-71775798D01*
X216854898Y-71775798D02*
X216903278Y-71871036D01*
X216903278Y-71871036D02*
X216903278Y-72109131D01*
X216903278Y-72109131D02*
X216854898Y-72204369D01*
X216854898Y-72204369D02*
X216806517Y-72251988D01*
X174935307Y-54277971D02*
X174601974Y-53794162D01*
X174363879Y-54277971D02*
X174363879Y-53261971D01*
X174363879Y-53261971D02*
X174744831Y-53261971D01*
X174744831Y-53261971D02*
X174840069Y-53310352D01*
X174840069Y-53310352D02*
X174887688Y-53358733D01*
X174887688Y-53358733D02*
X174935307Y-53455495D01*
X174935307Y-53455495D02*
X174935307Y-53600638D01*
X174935307Y-53600638D02*
X174887688Y-53697400D01*
X174887688Y-53697400D02*
X174840069Y-53745781D01*
X174840069Y-53745781D02*
X174744831Y-53794162D01*
X174744831Y-53794162D02*
X174363879Y-53794162D01*
X175792450Y-53600638D02*
X175792450Y-54277971D01*
X175554355Y-53213591D02*
X175316260Y-53939305D01*
X175316260Y-53939305D02*
X175935307Y-53939305D01*
X182282885Y-95442163D02*
X181705078Y-95335761D01*
X181878824Y-95846224D02*
X181160403Y-95127804D01*
X181160403Y-95127804D02*
X181429778Y-94858430D01*
X181429778Y-94858430D02*
X181531332Y-94825297D01*
X181531332Y-94825297D02*
X181599214Y-94825836D01*
X181599214Y-94825836D02*
X181701307Y-94860585D01*
X181701307Y-94860585D02*
X181803938Y-94963216D01*
X181803938Y-94963216D02*
X181838687Y-95065309D01*
X181838687Y-95065309D02*
X181839226Y-95133191D01*
X181839226Y-95133191D02*
X181806093Y-95234745D01*
X181806093Y-95234745D02*
X181536719Y-95504119D01*
X181902260Y-94522790D02*
X181901721Y-94454908D01*
X181901721Y-94454908D02*
X181934854Y-94353354D01*
X181934854Y-94353354D02*
X182103213Y-94184995D01*
X182103213Y-94184995D02*
X182204767Y-94151862D01*
X182204767Y-94151862D02*
X182272649Y-94152401D01*
X182272649Y-94152401D02*
X182374742Y-94187150D01*
X182374742Y-94187150D02*
X182443163Y-94255571D01*
X182443163Y-94255571D02*
X182512122Y-94391874D01*
X182512122Y-94391874D02*
X182518587Y-95206461D01*
X182518587Y-95206461D02*
X182956320Y-94768728D01*
X182473602Y-93814606D02*
X182911335Y-93376873D01*
X182911335Y-93376873D02*
X182949316Y-93886259D01*
X182949316Y-93886259D02*
X183050332Y-93785244D01*
X183050332Y-93785244D02*
X183151886Y-93752111D01*
X183151886Y-93752111D02*
X183219768Y-93752650D01*
X183219768Y-93752650D02*
X183321861Y-93787399D01*
X183321861Y-93787399D02*
X183492913Y-93958451D01*
X183492913Y-93958451D02*
X183527662Y-94060544D01*
X183527662Y-94060544D02*
X183528201Y-94128426D01*
X183528201Y-94128426D02*
X183495068Y-94229980D01*
X183495068Y-94229980D02*
X183293038Y-94432011D01*
X183293038Y-94432011D02*
X183191484Y-94465144D01*
X183191484Y-94465144D02*
X183123601Y-94464605D01*
X175080418Y-60336338D02*
X174502611Y-60229936D01*
X174676357Y-60740399D02*
X173957936Y-60021979D01*
X173957936Y-60021979D02*
X174227310Y-59752605D01*
X174227310Y-59752605D02*
X174328864Y-59719472D01*
X174328864Y-59719472D02*
X174396747Y-59720011D01*
X174396747Y-59720011D02*
X174498839Y-59754760D01*
X174498839Y-59754760D02*
X174601471Y-59857391D01*
X174601471Y-59857391D02*
X174636220Y-59959484D01*
X174636220Y-59959484D02*
X174636759Y-60027366D01*
X174636759Y-60027366D02*
X174603626Y-60128920D01*
X174603626Y-60128920D02*
X174334252Y-60398294D01*
X174597700Y-59382216D02*
X175035432Y-58944483D01*
X175035432Y-58944483D02*
X175073414Y-59453869D01*
X175073414Y-59453869D02*
X175174429Y-59352854D01*
X175174429Y-59352854D02*
X175275983Y-59319721D01*
X175275983Y-59319721D02*
X175343866Y-59320260D01*
X175343866Y-59320260D02*
X175445958Y-59355009D01*
X175445958Y-59355009D02*
X175617011Y-59526061D01*
X175617011Y-59526061D02*
X175651760Y-59628154D01*
X175651760Y-59628154D02*
X175652299Y-59696036D01*
X175652299Y-59696036D02*
X175619166Y-59797590D01*
X175619166Y-59797590D02*
X175417135Y-59999621D01*
X175417135Y-59999621D02*
X175315581Y-60032754D01*
X175315581Y-60032754D02*
X175247699Y-60032215D01*
X192452563Y-101777486D02*
X191874756Y-101671084D01*
X192048502Y-102181547D02*
X191330081Y-101463127D01*
X191330081Y-101463127D02*
X191599456Y-101193753D01*
X191599456Y-101193753D02*
X191701010Y-101160620D01*
X191701010Y-101160620D02*
X191768892Y-101161159D01*
X191768892Y-101161159D02*
X191870985Y-101195908D01*
X191870985Y-101195908D02*
X191973616Y-101298539D01*
X191973616Y-101298539D02*
X192008365Y-101400632D01*
X192008365Y-101400632D02*
X192008904Y-101468514D01*
X192008904Y-101468514D02*
X191975771Y-101570068D01*
X191975771Y-101570068D02*
X191706397Y-101839442D01*
X193125998Y-101104051D02*
X192721937Y-101508112D01*
X192923968Y-101306082D02*
X192205547Y-100587661D01*
X192205547Y-100587661D02*
X192240835Y-100757636D01*
X192240835Y-100757636D02*
X192241913Y-100893401D01*
X192241913Y-100893401D02*
X192208780Y-100994955D01*
X193799433Y-100430616D02*
X193395372Y-100834677D01*
X193597403Y-100632647D02*
X192878982Y-99914226D01*
X192878982Y-99914226D02*
X192914270Y-100084201D01*
X192914270Y-100084201D02*
X192915348Y-100219966D01*
X192915348Y-100219966D02*
X192882215Y-100321520D01*
X186720488Y-60672978D02*
X186387155Y-60189169D01*
X186149060Y-60672978D02*
X186149060Y-59656978D01*
X186149060Y-59656978D02*
X186530012Y-59656978D01*
X186530012Y-59656978D02*
X186625250Y-59705359D01*
X186625250Y-59705359D02*
X186672869Y-59753740D01*
X186672869Y-59753740D02*
X186720488Y-59850502D01*
X186720488Y-59850502D02*
X186720488Y-59995645D01*
X186720488Y-59995645D02*
X186672869Y-60092407D01*
X186672869Y-60092407D02*
X186625250Y-60140788D01*
X186625250Y-60140788D02*
X186530012Y-60189169D01*
X186530012Y-60189169D02*
X186149060Y-60189169D01*
X187101441Y-59753740D02*
X187149060Y-59705359D01*
X187149060Y-59705359D02*
X187244298Y-59656978D01*
X187244298Y-59656978D02*
X187482393Y-59656978D01*
X187482393Y-59656978D02*
X187577631Y-59705359D01*
X187577631Y-59705359D02*
X187625250Y-59753740D01*
X187625250Y-59753740D02*
X187672869Y-59850502D01*
X187672869Y-59850502D02*
X187672869Y-59947264D01*
X187672869Y-59947264D02*
X187625250Y-60092407D01*
X187625250Y-60092407D02*
X187053822Y-60672978D01*
X187053822Y-60672978D02*
X187672869Y-60672978D01*
X188291917Y-59656978D02*
X188387155Y-59656978D01*
X188387155Y-59656978D02*
X188482393Y-59705359D01*
X188482393Y-59705359D02*
X188530012Y-59753740D01*
X188530012Y-59753740D02*
X188577631Y-59850502D01*
X188577631Y-59850502D02*
X188625250Y-60044026D01*
X188625250Y-60044026D02*
X188625250Y-60285931D01*
X188625250Y-60285931D02*
X188577631Y-60479455D01*
X188577631Y-60479455D02*
X188530012Y-60576217D01*
X188530012Y-60576217D02*
X188482393Y-60624598D01*
X188482393Y-60624598D02*
X188387155Y-60672978D01*
X188387155Y-60672978D02*
X188291917Y-60672978D01*
X188291917Y-60672978D02*
X188196679Y-60624598D01*
X188196679Y-60624598D02*
X188149060Y-60576217D01*
X188149060Y-60576217D02*
X188101441Y-60479455D01*
X188101441Y-60479455D02*
X188053822Y-60285931D01*
X188053822Y-60285931D02*
X188053822Y-60044026D01*
X188053822Y-60044026D02*
X188101441Y-59850502D01*
X188101441Y-59850502D02*
X188149060Y-59753740D01*
X188149060Y-59753740D02*
X188196679Y-59705359D01*
X188196679Y-59705359D02*
X188291917Y-59656978D01*
X216094155Y-58572205D02*
X216094694Y-58640088D01*
X216094694Y-58640088D02*
X216027889Y-58775313D01*
X216027889Y-58775313D02*
X215960545Y-58842657D01*
X215960545Y-58842657D02*
X215825320Y-58909462D01*
X215825320Y-58909462D02*
X215689555Y-58908384D01*
X215689555Y-58908384D02*
X215587462Y-58873635D01*
X215587462Y-58873635D02*
X215416949Y-58770465D01*
X215416949Y-58770465D02*
X215314317Y-58667833D01*
X215314317Y-58667833D02*
X215211147Y-58497319D01*
X215211147Y-58497319D02*
X215176398Y-58395227D01*
X215176398Y-58395227D02*
X215175320Y-58259462D01*
X215175320Y-58259462D02*
X215242125Y-58124236D01*
X215242125Y-58124236D02*
X215309469Y-58056893D01*
X215309469Y-58056893D02*
X215444694Y-57990088D01*
X215444694Y-57990088D02*
X215512577Y-57990627D01*
X216836011Y-57967191D02*
X216431950Y-58371252D01*
X216633981Y-58169222D02*
X215915560Y-57450801D01*
X215915560Y-57450801D02*
X215950848Y-57620776D01*
X215950848Y-57620776D02*
X215951926Y-57756541D01*
X215951926Y-57756541D02*
X215918793Y-57858095D01*
X216353293Y-57013069D02*
X216824697Y-56541664D01*
X216824697Y-56541664D02*
X217240072Y-57563130D01*
X184970334Y-58762857D02*
X185018715Y-58810476D01*
X185018715Y-58810476D02*
X185067095Y-58953333D01*
X185067095Y-58953333D02*
X185067095Y-59048571D01*
X185067095Y-59048571D02*
X185018715Y-59191428D01*
X185018715Y-59191428D02*
X184921953Y-59286666D01*
X184921953Y-59286666D02*
X184825191Y-59334285D01*
X184825191Y-59334285D02*
X184631667Y-59381904D01*
X184631667Y-59381904D02*
X184486524Y-59381904D01*
X184486524Y-59381904D02*
X184293000Y-59334285D01*
X184293000Y-59334285D02*
X184196238Y-59286666D01*
X184196238Y-59286666D02*
X184099476Y-59191428D01*
X184099476Y-59191428D02*
X184051095Y-59048571D01*
X184051095Y-59048571D02*
X184051095Y-58953333D01*
X184051095Y-58953333D02*
X184099476Y-58810476D01*
X184099476Y-58810476D02*
X184147857Y-58762857D01*
X185067095Y-57810476D02*
X185067095Y-58381904D01*
X185067095Y-58096190D02*
X184051095Y-58096190D01*
X184051095Y-58096190D02*
X184196238Y-58191428D01*
X184196238Y-58191428D02*
X184293000Y-58286666D01*
X184293000Y-58286666D02*
X184341381Y-58381904D01*
X185067095Y-57334285D02*
X185067095Y-57143809D01*
X185067095Y-57143809D02*
X185018715Y-57048571D01*
X185018715Y-57048571D02*
X184970334Y-57000952D01*
X184970334Y-57000952D02*
X184825191Y-56905714D01*
X184825191Y-56905714D02*
X184631667Y-56858095D01*
X184631667Y-56858095D02*
X184244619Y-56858095D01*
X184244619Y-56858095D02*
X184147857Y-56905714D01*
X184147857Y-56905714D02*
X184099476Y-56953333D01*
X184099476Y-56953333D02*
X184051095Y-57048571D01*
X184051095Y-57048571D02*
X184051095Y-57239047D01*
X184051095Y-57239047D02*
X184099476Y-57334285D01*
X184099476Y-57334285D02*
X184147857Y-57381904D01*
X184147857Y-57381904D02*
X184244619Y-57429523D01*
X184244619Y-57429523D02*
X184486524Y-57429523D01*
X184486524Y-57429523D02*
X184583286Y-57381904D01*
X184583286Y-57381904D02*
X184631667Y-57334285D01*
X184631667Y-57334285D02*
X184680048Y-57239047D01*
X184680048Y-57239047D02*
X184680048Y-57048571D01*
X184680048Y-57048571D02*
X184631667Y-56953333D01*
X184631667Y-56953333D02*
X184583286Y-56905714D01*
X184583286Y-56905714D02*
X184486524Y-56858095D01*
X217634521Y-106298232D02*
X217634521Y-105282232D01*
X217634521Y-105766042D02*
X218205949Y-105766042D01*
X218205949Y-106298232D02*
X218205949Y-105282232D01*
X218586902Y-105282232D02*
X219205949Y-105282232D01*
X219205949Y-105282232D02*
X218872616Y-105669280D01*
X218872616Y-105669280D02*
X219015473Y-105669280D01*
X219015473Y-105669280D02*
X219110711Y-105717661D01*
X219110711Y-105717661D02*
X219158330Y-105766042D01*
X219158330Y-105766042D02*
X219205949Y-105862804D01*
X219205949Y-105862804D02*
X219205949Y-106104709D01*
X219205949Y-106104709D02*
X219158330Y-106201471D01*
X219158330Y-106201471D02*
X219110711Y-106249852D01*
X219110711Y-106249852D02*
X219015473Y-106298232D01*
X219015473Y-106298232D02*
X218729759Y-106298232D01*
X218729759Y-106298232D02*
X218634521Y-106249852D01*
X218634521Y-106249852D02*
X218586902Y-106201471D01*
X171937310Y-52318176D02*
X172655730Y-51599755D01*
X172655730Y-51599755D02*
X172824089Y-51768114D01*
X172824089Y-51768114D02*
X172890894Y-51903340D01*
X172890894Y-51903340D02*
X172889816Y-52039104D01*
X172889816Y-52039104D02*
X172855067Y-52141197D01*
X172855067Y-52141197D02*
X172751897Y-52311711D01*
X172751897Y-52311711D02*
X172649265Y-52414342D01*
X172649265Y-52414342D02*
X172478751Y-52517513D01*
X172478751Y-52517513D02*
X172376659Y-52552262D01*
X172376659Y-52552262D02*
X172240894Y-52553339D01*
X172240894Y-52553339D02*
X172105668Y-52486535D01*
X172105668Y-52486535D02*
X171937310Y-52318176D01*
X173014806Y-53395672D02*
X172610745Y-52991611D01*
X172812775Y-53193641D02*
X173531196Y-52475221D01*
X173531196Y-52475221D02*
X173361221Y-52510509D01*
X173361221Y-52510509D02*
X173225456Y-52511586D01*
X173225456Y-52511586D02*
X173123902Y-52478453D01*
X210271666Y-94799905D02*
X209938333Y-94799905D01*
X209938333Y-95332095D02*
X209938333Y-94316095D01*
X209938333Y-94316095D02*
X210414523Y-94316095D01*
X211128809Y-94799905D02*
X211271666Y-94848286D01*
X211271666Y-94848286D02*
X211319285Y-94896667D01*
X211319285Y-94896667D02*
X211366904Y-94993429D01*
X211366904Y-94993429D02*
X211366904Y-95138572D01*
X211366904Y-95138572D02*
X211319285Y-95235334D01*
X211319285Y-95235334D02*
X211271666Y-95283715D01*
X211271666Y-95283715D02*
X211176428Y-95332095D01*
X211176428Y-95332095D02*
X210795476Y-95332095D01*
X210795476Y-95332095D02*
X210795476Y-94316095D01*
X210795476Y-94316095D02*
X211128809Y-94316095D01*
X211128809Y-94316095D02*
X211224047Y-94364476D01*
X211224047Y-94364476D02*
X211271666Y-94412857D01*
X211271666Y-94412857D02*
X211319285Y-94509619D01*
X211319285Y-94509619D02*
X211319285Y-94606381D01*
X211319285Y-94606381D02*
X211271666Y-94703143D01*
X211271666Y-94703143D02*
X211224047Y-94751524D01*
X211224047Y-94751524D02*
X211128809Y-94799905D01*
X211128809Y-94799905D02*
X210795476Y-94799905D01*
X211747857Y-94412857D02*
X211795476Y-94364476D01*
X211795476Y-94364476D02*
X211890714Y-94316095D01*
X211890714Y-94316095D02*
X212128809Y-94316095D01*
X212128809Y-94316095D02*
X212224047Y-94364476D01*
X212224047Y-94364476D02*
X212271666Y-94412857D01*
X212271666Y-94412857D02*
X212319285Y-94509619D01*
X212319285Y-94509619D02*
X212319285Y-94606381D01*
X212319285Y-94606381D02*
X212271666Y-94751524D01*
X212271666Y-94751524D02*
X211700238Y-95332095D01*
X211700238Y-95332095D02*
X212319285Y-95332095D01*
X207745566Y-61314683D02*
X207412233Y-60830874D01*
X207174138Y-61314683D02*
X207174138Y-60298683D01*
X207174138Y-60298683D02*
X207555090Y-60298683D01*
X207555090Y-60298683D02*
X207650328Y-60347064D01*
X207650328Y-60347064D02*
X207697947Y-60395445D01*
X207697947Y-60395445D02*
X207745566Y-60492207D01*
X207745566Y-60492207D02*
X207745566Y-60637350D01*
X207745566Y-60637350D02*
X207697947Y-60734112D01*
X207697947Y-60734112D02*
X207650328Y-60782493D01*
X207650328Y-60782493D02*
X207555090Y-60830874D01*
X207555090Y-60830874D02*
X207174138Y-60830874D01*
X208221757Y-61314683D02*
X208412233Y-61314683D01*
X208412233Y-61314683D02*
X208507471Y-61266303D01*
X208507471Y-61266303D02*
X208555090Y-61217922D01*
X208555090Y-61217922D02*
X208650328Y-61072779D01*
X208650328Y-61072779D02*
X208697947Y-60879255D01*
X208697947Y-60879255D02*
X208697947Y-60492207D01*
X208697947Y-60492207D02*
X208650328Y-60395445D01*
X208650328Y-60395445D02*
X208602709Y-60347064D01*
X208602709Y-60347064D02*
X208507471Y-60298683D01*
X208507471Y-60298683D02*
X208316995Y-60298683D01*
X208316995Y-60298683D02*
X208221757Y-60347064D01*
X208221757Y-60347064D02*
X208174138Y-60395445D01*
X208174138Y-60395445D02*
X208126519Y-60492207D01*
X208126519Y-60492207D02*
X208126519Y-60734112D01*
X208126519Y-60734112D02*
X208174138Y-60830874D01*
X208174138Y-60830874D02*
X208221757Y-60879255D01*
X208221757Y-60879255D02*
X208316995Y-60927636D01*
X208316995Y-60927636D02*
X208507471Y-60927636D01*
X208507471Y-60927636D02*
X208602709Y-60879255D01*
X208602709Y-60879255D02*
X208650328Y-60830874D01*
X208650328Y-60830874D02*
X208697947Y-60734112D01*
X210685118Y-55342482D02*
X209669118Y-55342482D01*
X209669118Y-55342482D02*
X209669118Y-55104387D01*
X209669118Y-55104387D02*
X209717499Y-54961530D01*
X209717499Y-54961530D02*
X209814261Y-54866292D01*
X209814261Y-54866292D02*
X209911023Y-54818673D01*
X209911023Y-54818673D02*
X210104547Y-54771054D01*
X210104547Y-54771054D02*
X210249690Y-54771054D01*
X210249690Y-54771054D02*
X210443214Y-54818673D01*
X210443214Y-54818673D02*
X210539976Y-54866292D01*
X210539976Y-54866292D02*
X210636738Y-54961530D01*
X210636738Y-54961530D02*
X210685118Y-55104387D01*
X210685118Y-55104387D02*
X210685118Y-55342482D01*
X209765880Y-54390101D02*
X209717499Y-54342482D01*
X209717499Y-54342482D02*
X209669118Y-54247244D01*
X209669118Y-54247244D02*
X209669118Y-54009149D01*
X209669118Y-54009149D02*
X209717499Y-53913911D01*
X209717499Y-53913911D02*
X209765880Y-53866292D01*
X209765880Y-53866292D02*
X209862642Y-53818673D01*
X209862642Y-53818673D02*
X209959404Y-53818673D01*
X209959404Y-53818673D02*
X210104547Y-53866292D01*
X210104547Y-53866292D02*
X210685118Y-54437720D01*
X210685118Y-54437720D02*
X210685118Y-53818673D01*
X159520362Y-46443955D02*
X159520362Y-47169670D01*
X159520362Y-47169670D02*
X159472743Y-47314813D01*
X159472743Y-47314813D02*
X159377505Y-47411575D01*
X159377505Y-47411575D02*
X159234648Y-47459955D01*
X159234648Y-47459955D02*
X159139410Y-47459955D01*
X160425124Y-46782622D02*
X160425124Y-47459955D01*
X160187029Y-46395575D02*
X159948934Y-47121289D01*
X159948934Y-47121289D02*
X160567981Y-47121289D01*
X200338299Y-97693349D02*
X200444701Y-97115542D01*
X199934238Y-97289288D02*
X200652658Y-96570867D01*
X200652658Y-96570867D02*
X200922032Y-96840242D01*
X200922032Y-96840242D02*
X200955165Y-96941796D01*
X200955165Y-96941796D02*
X200954626Y-97009678D01*
X200954626Y-97009678D02*
X200919877Y-97111771D01*
X200919877Y-97111771D02*
X200817246Y-97214402D01*
X200817246Y-97214402D02*
X200715153Y-97249151D01*
X200715153Y-97249151D02*
X200647271Y-97249690D01*
X200647271Y-97249690D02*
X200545717Y-97216557D01*
X200545717Y-97216557D02*
X200276343Y-96947183D01*
X201257672Y-97312724D02*
X201325554Y-97312185D01*
X201325554Y-97312185D02*
X201427108Y-97345318D01*
X201427108Y-97345318D02*
X201595467Y-97513677D01*
X201595467Y-97513677D02*
X201628600Y-97615231D01*
X201628600Y-97615231D02*
X201628061Y-97683113D01*
X201628061Y-97683113D02*
X201593312Y-97785206D01*
X201593312Y-97785206D02*
X201524891Y-97853627D01*
X201524891Y-97853627D02*
X201388588Y-97922586D01*
X201388588Y-97922586D02*
X200574001Y-97929051D01*
X200574001Y-97929051D02*
X201011734Y-98366784D01*
X202336246Y-98254455D02*
X202201559Y-98119768D01*
X202201559Y-98119768D02*
X202100005Y-98086635D01*
X202100005Y-98086635D02*
X202032122Y-98087174D01*
X202032122Y-98087174D02*
X201862147Y-98122462D01*
X201862147Y-98122462D02*
X201691634Y-98225632D01*
X201691634Y-98225632D02*
X201417950Y-98499316D01*
X201417950Y-98499316D02*
X201383200Y-98601409D01*
X201383200Y-98601409D02*
X201382662Y-98669291D01*
X201382662Y-98669291D02*
X201415795Y-98770845D01*
X201415795Y-98770845D02*
X201550482Y-98905532D01*
X201550482Y-98905532D02*
X201652036Y-98938665D01*
X201652036Y-98938665D02*
X201719918Y-98938126D01*
X201719918Y-98938126D02*
X201822011Y-98903377D01*
X201822011Y-98903377D02*
X201993063Y-98732325D01*
X201993063Y-98732325D02*
X202027812Y-98630232D01*
X202027812Y-98630232D02*
X202028351Y-98562350D01*
X202028351Y-98562350D02*
X201995218Y-98460796D01*
X201995218Y-98460796D02*
X201860531Y-98326109D01*
X201860531Y-98326109D02*
X201758977Y-98292976D01*
X201758977Y-98292976D02*
X201691095Y-98293514D01*
X201691095Y-98293514D02*
X201589002Y-98328264D01*
X156299025Y-99910961D02*
X157024740Y-99910961D01*
X157024740Y-99910961D02*
X157169883Y-99958580D01*
X157169883Y-99958580D02*
X157266645Y-100053818D01*
X157266645Y-100053818D02*
X157315025Y-100196675D01*
X157315025Y-100196675D02*
X157315025Y-100291913D01*
X157315025Y-98910961D02*
X157315025Y-99482389D01*
X157315025Y-99196675D02*
X156299025Y-99196675D01*
X156299025Y-99196675D02*
X156444168Y-99291913D01*
X156444168Y-99291913D02*
X156540930Y-99387151D01*
X156540930Y-99387151D02*
X156589311Y-99482389D01*
X193815334Y-108825357D02*
X193863715Y-108872976D01*
X193863715Y-108872976D02*
X193912095Y-109015833D01*
X193912095Y-109015833D02*
X193912095Y-109111071D01*
X193912095Y-109111071D02*
X193863715Y-109253928D01*
X193863715Y-109253928D02*
X193766953Y-109349166D01*
X193766953Y-109349166D02*
X193670191Y-109396785D01*
X193670191Y-109396785D02*
X193476667Y-109444404D01*
X193476667Y-109444404D02*
X193331524Y-109444404D01*
X193331524Y-109444404D02*
X193138000Y-109396785D01*
X193138000Y-109396785D02*
X193041238Y-109349166D01*
X193041238Y-109349166D02*
X192944476Y-109253928D01*
X192944476Y-109253928D02*
X192896095Y-109111071D01*
X192896095Y-109111071D02*
X192896095Y-109015833D01*
X192896095Y-109015833D02*
X192944476Y-108872976D01*
X192944476Y-108872976D02*
X192992857Y-108825357D01*
X193912095Y-107872976D02*
X193912095Y-108444404D01*
X193912095Y-108158690D02*
X192896095Y-108158690D01*
X192896095Y-108158690D02*
X193041238Y-108253928D01*
X193041238Y-108253928D02*
X193138000Y-108349166D01*
X193138000Y-108349166D02*
X193186381Y-108444404D01*
X192896095Y-107539642D02*
X192896095Y-106920595D01*
X192896095Y-106920595D02*
X193283143Y-107253928D01*
X193283143Y-107253928D02*
X193283143Y-107111071D01*
X193283143Y-107111071D02*
X193331524Y-107015833D01*
X193331524Y-107015833D02*
X193379905Y-106968214D01*
X193379905Y-106968214D02*
X193476667Y-106920595D01*
X193476667Y-106920595D02*
X193718572Y-106920595D01*
X193718572Y-106920595D02*
X193815334Y-106968214D01*
X193815334Y-106968214D02*
X193863715Y-107015833D01*
X193863715Y-107015833D02*
X193912095Y-107111071D01*
X193912095Y-107111071D02*
X193912095Y-107396785D01*
X193912095Y-107396785D02*
X193863715Y-107492023D01*
X193863715Y-107492023D02*
X193815334Y-107539642D01*
X176738438Y-101573414D02*
X176405105Y-101089605D01*
X176167010Y-101573414D02*
X176167010Y-100557414D01*
X176167010Y-100557414D02*
X176547962Y-100557414D01*
X176547962Y-100557414D02*
X176643200Y-100605795D01*
X176643200Y-100605795D02*
X176690819Y-100654176D01*
X176690819Y-100654176D02*
X176738438Y-100750938D01*
X176738438Y-100750938D02*
X176738438Y-100896081D01*
X176738438Y-100896081D02*
X176690819Y-100992843D01*
X176690819Y-100992843D02*
X176643200Y-101041224D01*
X176643200Y-101041224D02*
X176547962Y-101089605D01*
X176547962Y-101089605D02*
X176167010Y-101089605D01*
X177119391Y-100654176D02*
X177167010Y-100605795D01*
X177167010Y-100605795D02*
X177262248Y-100557414D01*
X177262248Y-100557414D02*
X177500343Y-100557414D01*
X177500343Y-100557414D02*
X177595581Y-100605795D01*
X177595581Y-100605795D02*
X177643200Y-100654176D01*
X177643200Y-100654176D02*
X177690819Y-100750938D01*
X177690819Y-100750938D02*
X177690819Y-100847700D01*
X177690819Y-100847700D02*
X177643200Y-100992843D01*
X177643200Y-100992843D02*
X177071772Y-101573414D01*
X177071772Y-101573414D02*
X177690819Y-101573414D01*
X178643200Y-101573414D02*
X178071772Y-101573414D01*
X178357486Y-101573414D02*
X178357486Y-100557414D01*
X178357486Y-100557414D02*
X178262248Y-100702557D01*
X178262248Y-100702557D02*
X178167010Y-100799319D01*
X178167010Y-100799319D02*
X178071772Y-100847700D01*
X219140470Y-59275491D02*
X218656661Y-59608824D01*
X219140470Y-59846919D02*
X218124470Y-59846919D01*
X218124470Y-59846919D02*
X218124470Y-59465967D01*
X218124470Y-59465967D02*
X218172851Y-59370729D01*
X218172851Y-59370729D02*
X218221232Y-59323110D01*
X218221232Y-59323110D02*
X218317994Y-59275491D01*
X218317994Y-59275491D02*
X218463137Y-59275491D01*
X218463137Y-59275491D02*
X218559899Y-59323110D01*
X218559899Y-59323110D02*
X218608280Y-59370729D01*
X218608280Y-59370729D02*
X218656661Y-59465967D01*
X218656661Y-59465967D02*
X218656661Y-59846919D01*
X219140470Y-58323110D02*
X219140470Y-58894538D01*
X219140470Y-58608824D02*
X218124470Y-58608824D01*
X218124470Y-58608824D02*
X218269613Y-58704062D01*
X218269613Y-58704062D02*
X218366375Y-58799300D01*
X218366375Y-58799300D02*
X218414756Y-58894538D01*
X218559899Y-57751681D02*
X218511518Y-57846919D01*
X218511518Y-57846919D02*
X218463137Y-57894538D01*
X218463137Y-57894538D02*
X218366375Y-57942157D01*
X218366375Y-57942157D02*
X218317994Y-57942157D01*
X218317994Y-57942157D02*
X218221232Y-57894538D01*
X218221232Y-57894538D02*
X218172851Y-57846919D01*
X218172851Y-57846919D02*
X218124470Y-57751681D01*
X218124470Y-57751681D02*
X218124470Y-57561205D01*
X218124470Y-57561205D02*
X218172851Y-57465967D01*
X218172851Y-57465967D02*
X218221232Y-57418348D01*
X218221232Y-57418348D02*
X218317994Y-57370729D01*
X218317994Y-57370729D02*
X218366375Y-57370729D01*
X218366375Y-57370729D02*
X218463137Y-57418348D01*
X218463137Y-57418348D02*
X218511518Y-57465967D01*
X218511518Y-57465967D02*
X218559899Y-57561205D01*
X218559899Y-57561205D02*
X218559899Y-57751681D01*
X218559899Y-57751681D02*
X218608280Y-57846919D01*
X218608280Y-57846919D02*
X218656661Y-57894538D01*
X218656661Y-57894538D02*
X218753423Y-57942157D01*
X218753423Y-57942157D02*
X218946947Y-57942157D01*
X218946947Y-57942157D02*
X219043709Y-57894538D01*
X219043709Y-57894538D02*
X219092090Y-57846919D01*
X219092090Y-57846919D02*
X219140470Y-57751681D01*
X219140470Y-57751681D02*
X219140470Y-57561205D01*
X219140470Y-57561205D02*
X219092090Y-57465967D01*
X219092090Y-57465967D02*
X219043709Y-57418348D01*
X219043709Y-57418348D02*
X218946947Y-57370729D01*
X218946947Y-57370729D02*
X218753423Y-57370729D01*
X218753423Y-57370729D02*
X218656661Y-57418348D01*
X218656661Y-57418348D02*
X218608280Y-57465967D01*
X218608280Y-57465967D02*
X218559899Y-57561205D01*
X210271666Y-98549905D02*
X209938333Y-98549905D01*
X209938333Y-99082095D02*
X209938333Y-98066095D01*
X209938333Y-98066095D02*
X210414523Y-98066095D01*
X211128809Y-98549905D02*
X211271666Y-98598286D01*
X211271666Y-98598286D02*
X211319285Y-98646667D01*
X211319285Y-98646667D02*
X211366904Y-98743429D01*
X211366904Y-98743429D02*
X211366904Y-98888572D01*
X211366904Y-98888572D02*
X211319285Y-98985334D01*
X211319285Y-98985334D02*
X211271666Y-99033715D01*
X211271666Y-99033715D02*
X211176428Y-99082095D01*
X211176428Y-99082095D02*
X210795476Y-99082095D01*
X210795476Y-99082095D02*
X210795476Y-98066095D01*
X210795476Y-98066095D02*
X211128809Y-98066095D01*
X211128809Y-98066095D02*
X211224047Y-98114476D01*
X211224047Y-98114476D02*
X211271666Y-98162857D01*
X211271666Y-98162857D02*
X211319285Y-98259619D01*
X211319285Y-98259619D02*
X211319285Y-98356381D01*
X211319285Y-98356381D02*
X211271666Y-98453143D01*
X211271666Y-98453143D02*
X211224047Y-98501524D01*
X211224047Y-98501524D02*
X211128809Y-98549905D01*
X211128809Y-98549905D02*
X210795476Y-98549905D01*
X211700238Y-98066095D02*
X212319285Y-98066095D01*
X212319285Y-98066095D02*
X211985952Y-98453143D01*
X211985952Y-98453143D02*
X212128809Y-98453143D01*
X212128809Y-98453143D02*
X212224047Y-98501524D01*
X212224047Y-98501524D02*
X212271666Y-98549905D01*
X212271666Y-98549905D02*
X212319285Y-98646667D01*
X212319285Y-98646667D02*
X212319285Y-98888572D01*
X212319285Y-98888572D02*
X212271666Y-98985334D01*
X212271666Y-98985334D02*
X212224047Y-99033715D01*
X212224047Y-99033715D02*
X212128809Y-99082095D01*
X212128809Y-99082095D02*
X211843095Y-99082095D01*
X211843095Y-99082095D02*
X211747857Y-99033715D01*
X211747857Y-99033715D02*
X211700238Y-98985334D01*
X196563900Y-88564601D02*
X195986093Y-88458199D01*
X196159839Y-88968662D02*
X195441418Y-88250242D01*
X195441418Y-88250242D02*
X195710792Y-87980868D01*
X195710792Y-87980868D02*
X195812346Y-87947735D01*
X195812346Y-87947735D02*
X195880229Y-87948274D01*
X195880229Y-87948274D02*
X195982321Y-87983023D01*
X195982321Y-87983023D02*
X196084953Y-88085654D01*
X196084953Y-88085654D02*
X196119702Y-88187747D01*
X196119702Y-88187747D02*
X196120241Y-88255629D01*
X196120241Y-88255629D02*
X196087108Y-88357183D01*
X196087108Y-88357183D02*
X195817734Y-88626557D01*
X196183274Y-87645228D02*
X196182736Y-87577346D01*
X196182736Y-87577346D02*
X196215869Y-87475792D01*
X196215869Y-87475792D02*
X196384227Y-87307433D01*
X196384227Y-87307433D02*
X196485781Y-87274300D01*
X196485781Y-87274300D02*
X196553664Y-87274839D01*
X196553664Y-87274839D02*
X196655756Y-87309588D01*
X196655756Y-87309588D02*
X196724177Y-87378009D01*
X196724177Y-87378009D02*
X196793137Y-87514312D01*
X196793137Y-87514312D02*
X196799602Y-88328899D01*
X196799602Y-88328899D02*
X197237335Y-87891166D01*
X220478001Y-79817005D02*
X219462001Y-79817005D01*
X219462001Y-79817005D02*
X219462001Y-79578910D01*
X219462001Y-79578910D02*
X219510382Y-79436053D01*
X219510382Y-79436053D02*
X219607144Y-79340815D01*
X219607144Y-79340815D02*
X219703906Y-79293196D01*
X219703906Y-79293196D02*
X219897430Y-79245577D01*
X219897430Y-79245577D02*
X220042573Y-79245577D01*
X220042573Y-79245577D02*
X220236097Y-79293196D01*
X220236097Y-79293196D02*
X220332859Y-79340815D01*
X220332859Y-79340815D02*
X220429621Y-79436053D01*
X220429621Y-79436053D02*
X220478001Y-79578910D01*
X220478001Y-79578910D02*
X220478001Y-79817005D01*
X220478001Y-78293196D02*
X220478001Y-78864624D01*
X220478001Y-78578910D02*
X219462001Y-78578910D01*
X219462001Y-78578910D02*
X219607144Y-78674148D01*
X219607144Y-78674148D02*
X219703906Y-78769386D01*
X219703906Y-78769386D02*
X219752287Y-78864624D01*
X219462001Y-77959862D02*
X219462001Y-77340815D01*
X219462001Y-77340815D02*
X219849049Y-77674148D01*
X219849049Y-77674148D02*
X219849049Y-77531291D01*
X219849049Y-77531291D02*
X219897430Y-77436053D01*
X219897430Y-77436053D02*
X219945811Y-77388434D01*
X219945811Y-77388434D02*
X220042573Y-77340815D01*
X220042573Y-77340815D02*
X220284478Y-77340815D01*
X220284478Y-77340815D02*
X220381240Y-77388434D01*
X220381240Y-77388434D02*
X220429621Y-77436053D01*
X220429621Y-77436053D02*
X220478001Y-77531291D01*
X220478001Y-77531291D02*
X220478001Y-77817005D01*
X220478001Y-77817005D02*
X220429621Y-77912243D01*
X220429621Y-77912243D02*
X220381240Y-77959862D01*
X202908904Y-104608095D02*
X202086427Y-104608095D01*
X202086427Y-104608095D02*
X201989665Y-104655714D01*
X201989665Y-104655714D02*
X201941285Y-104703333D01*
X201941285Y-104703333D02*
X201892904Y-104798571D01*
X201892904Y-104798571D02*
X201892904Y-104989047D01*
X201892904Y-104989047D02*
X201941285Y-105084285D01*
X201941285Y-105084285D02*
X201989665Y-105131904D01*
X201989665Y-105131904D02*
X202086427Y-105179523D01*
X202086427Y-105179523D02*
X202908904Y-105179523D01*
X202908904Y-105560476D02*
X202908904Y-106179523D01*
X202908904Y-106179523D02*
X202521856Y-105846190D01*
X202521856Y-105846190D02*
X202521856Y-105989047D01*
X202521856Y-105989047D02*
X202473475Y-106084285D01*
X202473475Y-106084285D02*
X202425094Y-106131904D01*
X202425094Y-106131904D02*
X202328332Y-106179523D01*
X202328332Y-106179523D02*
X202086427Y-106179523D01*
X202086427Y-106179523D02*
X201989665Y-106131904D01*
X201989665Y-106131904D02*
X201941285Y-106084285D01*
X201941285Y-106084285D02*
X201892904Y-105989047D01*
X201892904Y-105989047D02*
X201892904Y-105703333D01*
X201892904Y-105703333D02*
X201941285Y-105608095D01*
X201941285Y-105608095D02*
X201989665Y-105560476D01*
X200658904Y-102184200D02*
X200416999Y-102184200D01*
X200513761Y-101946105D02*
X200416999Y-102184200D01*
X200416999Y-102184200D02*
X200513761Y-102422295D01*
X200223475Y-102041343D02*
X200416999Y-102184200D01*
X200416999Y-102184200D02*
X200223475Y-102327057D01*
X152795934Y-68895399D02*
X151779934Y-68895399D01*
X151779934Y-68895399D02*
X151779934Y-68657304D01*
X151779934Y-68657304D02*
X151828315Y-68514447D01*
X151828315Y-68514447D02*
X151925077Y-68419209D01*
X151925077Y-68419209D02*
X152021839Y-68371590D01*
X152021839Y-68371590D02*
X152215363Y-68323971D01*
X152215363Y-68323971D02*
X152360506Y-68323971D01*
X152360506Y-68323971D02*
X152554030Y-68371590D01*
X152554030Y-68371590D02*
X152650792Y-68419209D01*
X152650792Y-68419209D02*
X152747554Y-68514447D01*
X152747554Y-68514447D02*
X152795934Y-68657304D01*
X152795934Y-68657304D02*
X152795934Y-68895399D01*
X152795934Y-67371590D02*
X152795934Y-67943018D01*
X152795934Y-67657304D02*
X151779934Y-67657304D01*
X151779934Y-67657304D02*
X151925077Y-67752542D01*
X151925077Y-67752542D02*
X152021839Y-67847780D01*
X152021839Y-67847780D02*
X152070220Y-67943018D01*
X151779934Y-66752542D02*
X151779934Y-66657304D01*
X151779934Y-66657304D02*
X151828315Y-66562066D01*
X151828315Y-66562066D02*
X151876696Y-66514447D01*
X151876696Y-66514447D02*
X151973458Y-66466828D01*
X151973458Y-66466828D02*
X152166982Y-66419209D01*
X152166982Y-66419209D02*
X152408887Y-66419209D01*
X152408887Y-66419209D02*
X152602411Y-66466828D01*
X152602411Y-66466828D02*
X152699173Y-66514447D01*
X152699173Y-66514447D02*
X152747554Y-66562066D01*
X152747554Y-66562066D02*
X152795934Y-66657304D01*
X152795934Y-66657304D02*
X152795934Y-66752542D01*
X152795934Y-66752542D02*
X152747554Y-66847780D01*
X152747554Y-66847780D02*
X152699173Y-66895399D01*
X152699173Y-66895399D02*
X152602411Y-66943018D01*
X152602411Y-66943018D02*
X152408887Y-66990637D01*
X152408887Y-66990637D02*
X152166982Y-66990637D01*
X152166982Y-66990637D02*
X151973458Y-66943018D01*
X151973458Y-66943018D02*
X151876696Y-66895399D01*
X151876696Y-66895399D02*
X151828315Y-66847780D01*
X151828315Y-66847780D02*
X151779934Y-66752542D01*
X160461095Y-87121904D02*
X161283572Y-87121904D01*
X161283572Y-87121904D02*
X161380334Y-87074285D01*
X161380334Y-87074285D02*
X161428715Y-87026666D01*
X161428715Y-87026666D02*
X161477095Y-86931428D01*
X161477095Y-86931428D02*
X161477095Y-86740952D01*
X161477095Y-86740952D02*
X161428715Y-86645714D01*
X161428715Y-86645714D02*
X161380334Y-86598095D01*
X161380334Y-86598095D02*
X161283572Y-86550476D01*
X161283572Y-86550476D02*
X160461095Y-86550476D01*
X160557857Y-86121904D02*
X160509476Y-86074285D01*
X160509476Y-86074285D02*
X160461095Y-85979047D01*
X160461095Y-85979047D02*
X160461095Y-85740952D01*
X160461095Y-85740952D02*
X160509476Y-85645714D01*
X160509476Y-85645714D02*
X160557857Y-85598095D01*
X160557857Y-85598095D02*
X160654619Y-85550476D01*
X160654619Y-85550476D02*
X160751381Y-85550476D01*
X160751381Y-85550476D02*
X160896524Y-85598095D01*
X160896524Y-85598095D02*
X161477095Y-86169523D01*
X161477095Y-86169523D02*
X161477095Y-85550476D01*
X149304785Y-84960913D02*
X149304785Y-85388723D01*
X149304785Y-85388723D02*
X148288785Y-85388723D01*
X149401547Y-84062513D02*
X149353166Y-84148075D01*
X149353166Y-84148075D02*
X149256405Y-84233637D01*
X149256405Y-84233637D02*
X149111262Y-84361980D01*
X149111262Y-84361980D02*
X149062881Y-84447542D01*
X149062881Y-84447542D02*
X149062881Y-84533104D01*
X149304785Y-84490323D02*
X149256405Y-84575885D01*
X149256405Y-84575885D02*
X149159643Y-84661447D01*
X149159643Y-84661447D02*
X148966119Y-84704228D01*
X148966119Y-84704228D02*
X148627452Y-84704228D01*
X148627452Y-84704228D02*
X148433928Y-84661447D01*
X148433928Y-84661447D02*
X148337166Y-84575885D01*
X148337166Y-84575885D02*
X148288785Y-84490323D01*
X148288785Y-84490323D02*
X148288785Y-84319199D01*
X148288785Y-84319199D02*
X148337166Y-84233637D01*
X148337166Y-84233637D02*
X148433928Y-84148075D01*
X148433928Y-84148075D02*
X148627452Y-84105294D01*
X148627452Y-84105294D02*
X148966119Y-84105294D01*
X148966119Y-84105294D02*
X149159643Y-84148075D01*
X149159643Y-84148075D02*
X149256405Y-84233637D01*
X149256405Y-84233637D02*
X149304785Y-84319199D01*
X149304785Y-84319199D02*
X149304785Y-84490323D01*
X149304785Y-83720266D02*
X148288785Y-83720266D01*
X148772595Y-83720266D02*
X148772595Y-83206894D01*
X149304785Y-83206894D02*
X148288785Y-83206894D01*
X149304785Y-82308494D02*
X149304785Y-82821866D01*
X149304785Y-82565180D02*
X148288785Y-82565180D01*
X148288785Y-82565180D02*
X148433928Y-82650742D01*
X148433928Y-82650742D02*
X148530690Y-82736304D01*
X148530690Y-82736304D02*
X148579071Y-82821866D01*
X185067095Y-56108094D02*
X184051095Y-56108094D01*
X184051095Y-56108094D02*
X184051095Y-55869999D01*
X184051095Y-55869999D02*
X184099476Y-55727142D01*
X184099476Y-55727142D02*
X184196238Y-55631904D01*
X184196238Y-55631904D02*
X184293000Y-55584285D01*
X184293000Y-55584285D02*
X184486524Y-55536666D01*
X184486524Y-55536666D02*
X184631667Y-55536666D01*
X184631667Y-55536666D02*
X184825191Y-55584285D01*
X184825191Y-55584285D02*
X184921953Y-55631904D01*
X184921953Y-55631904D02*
X185018715Y-55727142D01*
X185018715Y-55727142D02*
X185067095Y-55869999D01*
X185067095Y-55869999D02*
X185067095Y-56108094D01*
X184051095Y-55203332D02*
X184051095Y-54584285D01*
X184051095Y-54584285D02*
X184438143Y-54917618D01*
X184438143Y-54917618D02*
X184438143Y-54774761D01*
X184438143Y-54774761D02*
X184486524Y-54679523D01*
X184486524Y-54679523D02*
X184534905Y-54631904D01*
X184534905Y-54631904D02*
X184631667Y-54584285D01*
X184631667Y-54584285D02*
X184873572Y-54584285D01*
X184873572Y-54584285D02*
X184970334Y-54631904D01*
X184970334Y-54631904D02*
X185018715Y-54679523D01*
X185018715Y-54679523D02*
X185067095Y-54774761D01*
X185067095Y-54774761D02*
X185067095Y-55060475D01*
X185067095Y-55060475D02*
X185018715Y-55155713D01*
X185018715Y-55155713D02*
X184970334Y-55203332D01*
X214877001Y-109258801D02*
X214925382Y-109306420D01*
X214925382Y-109306420D02*
X214973762Y-109449277D01*
X214973762Y-109449277D02*
X214973762Y-109544515D01*
X214973762Y-109544515D02*
X214925382Y-109687372D01*
X214925382Y-109687372D02*
X214828620Y-109782610D01*
X214828620Y-109782610D02*
X214731858Y-109830229D01*
X214731858Y-109830229D02*
X214538334Y-109877848D01*
X214538334Y-109877848D02*
X214393191Y-109877848D01*
X214393191Y-109877848D02*
X214199667Y-109830229D01*
X214199667Y-109830229D02*
X214102905Y-109782610D01*
X214102905Y-109782610D02*
X214006143Y-109687372D01*
X214006143Y-109687372D02*
X213957762Y-109544515D01*
X213957762Y-109544515D02*
X213957762Y-109449277D01*
X213957762Y-109449277D02*
X214006143Y-109306420D01*
X214006143Y-109306420D02*
X214054524Y-109258801D01*
X214973762Y-108306420D02*
X214973762Y-108877848D01*
X214973762Y-108592134D02*
X213957762Y-108592134D01*
X213957762Y-108592134D02*
X214102905Y-108687372D01*
X214102905Y-108687372D02*
X214199667Y-108782610D01*
X214199667Y-108782610D02*
X214248048Y-108877848D01*
X214054524Y-107925467D02*
X214006143Y-107877848D01*
X214006143Y-107877848D02*
X213957762Y-107782610D01*
X213957762Y-107782610D02*
X213957762Y-107544515D01*
X213957762Y-107544515D02*
X214006143Y-107449277D01*
X214006143Y-107449277D02*
X214054524Y-107401658D01*
X214054524Y-107401658D02*
X214151286Y-107354039D01*
X214151286Y-107354039D02*
X214248048Y-107354039D01*
X214248048Y-107354039D02*
X214393191Y-107401658D01*
X214393191Y-107401658D02*
X214973762Y-107973086D01*
X214973762Y-107973086D02*
X214973762Y-107354039D01*
X188735334Y-108825357D02*
X188783715Y-108872976D01*
X188783715Y-108872976D02*
X188832095Y-109015833D01*
X188832095Y-109015833D02*
X188832095Y-109111071D01*
X188832095Y-109111071D02*
X188783715Y-109253928D01*
X188783715Y-109253928D02*
X188686953Y-109349166D01*
X188686953Y-109349166D02*
X188590191Y-109396785D01*
X188590191Y-109396785D02*
X188396667Y-109444404D01*
X188396667Y-109444404D02*
X188251524Y-109444404D01*
X188251524Y-109444404D02*
X188058000Y-109396785D01*
X188058000Y-109396785D02*
X187961238Y-109349166D01*
X187961238Y-109349166D02*
X187864476Y-109253928D01*
X187864476Y-109253928D02*
X187816095Y-109111071D01*
X187816095Y-109111071D02*
X187816095Y-109015833D01*
X187816095Y-109015833D02*
X187864476Y-108872976D01*
X187864476Y-108872976D02*
X187912857Y-108825357D01*
X188832095Y-107872976D02*
X188832095Y-108444404D01*
X188832095Y-108158690D02*
X187816095Y-108158690D01*
X187816095Y-108158690D02*
X187961238Y-108253928D01*
X187961238Y-108253928D02*
X188058000Y-108349166D01*
X188058000Y-108349166D02*
X188106381Y-108444404D01*
X187816095Y-107253928D02*
X187816095Y-107158690D01*
X187816095Y-107158690D02*
X187864476Y-107063452D01*
X187864476Y-107063452D02*
X187912857Y-107015833D01*
X187912857Y-107015833D02*
X188009619Y-106968214D01*
X188009619Y-106968214D02*
X188203143Y-106920595D01*
X188203143Y-106920595D02*
X188445048Y-106920595D01*
X188445048Y-106920595D02*
X188638572Y-106968214D01*
X188638572Y-106968214D02*
X188735334Y-107015833D01*
X188735334Y-107015833D02*
X188783715Y-107063452D01*
X188783715Y-107063452D02*
X188832095Y-107158690D01*
X188832095Y-107158690D02*
X188832095Y-107253928D01*
X188832095Y-107253928D02*
X188783715Y-107349166D01*
X188783715Y-107349166D02*
X188735334Y-107396785D01*
X188735334Y-107396785D02*
X188638572Y-107444404D01*
X188638572Y-107444404D02*
X188445048Y-107492023D01*
X188445048Y-107492023D02*
X188203143Y-107492023D01*
X188203143Y-107492023D02*
X188009619Y-107444404D01*
X188009619Y-107444404D02*
X187912857Y-107396785D01*
X187912857Y-107396785D02*
X187864476Y-107349166D01*
X187864476Y-107349166D02*
X187816095Y-107253928D01*
X187106070Y-63955571D02*
X186772737Y-63471762D01*
X186534642Y-63955571D02*
X186534642Y-62939571D01*
X186534642Y-62939571D02*
X186915594Y-62939571D01*
X186915594Y-62939571D02*
X187010832Y-62987952D01*
X187010832Y-62987952D02*
X187058451Y-63036333D01*
X187058451Y-63036333D02*
X187106070Y-63133095D01*
X187106070Y-63133095D02*
X187106070Y-63278238D01*
X187106070Y-63278238D02*
X187058451Y-63375000D01*
X187058451Y-63375000D02*
X187010832Y-63423381D01*
X187010832Y-63423381D02*
X186915594Y-63471762D01*
X186915594Y-63471762D02*
X186534642Y-63471762D01*
X187963213Y-62939571D02*
X187772737Y-62939571D01*
X187772737Y-62939571D02*
X187677499Y-62987952D01*
X187677499Y-62987952D02*
X187629880Y-63036333D01*
X187629880Y-63036333D02*
X187534642Y-63181476D01*
X187534642Y-63181476D02*
X187487023Y-63375000D01*
X187487023Y-63375000D02*
X187487023Y-63762048D01*
X187487023Y-63762048D02*
X187534642Y-63858810D01*
X187534642Y-63858810D02*
X187582261Y-63907191D01*
X187582261Y-63907191D02*
X187677499Y-63955571D01*
X187677499Y-63955571D02*
X187867975Y-63955571D01*
X187867975Y-63955571D02*
X187963213Y-63907191D01*
X187963213Y-63907191D02*
X188010832Y-63858810D01*
X188010832Y-63858810D02*
X188058451Y-63762048D01*
X188058451Y-63762048D02*
X188058451Y-63520143D01*
X188058451Y-63520143D02*
X188010832Y-63423381D01*
X188010832Y-63423381D02*
X187963213Y-63375000D01*
X187963213Y-63375000D02*
X187867975Y-63326619D01*
X187867975Y-63326619D02*
X187677499Y-63326619D01*
X187677499Y-63326619D02*
X187582261Y-63375000D01*
X187582261Y-63375000D02*
X187534642Y-63423381D01*
X187534642Y-63423381D02*
X187487023Y-63520143D01*
X177480322Y-47548227D02*
X177146989Y-47064418D01*
X176908894Y-47548227D02*
X176908894Y-46532227D01*
X176908894Y-46532227D02*
X177289846Y-46532227D01*
X177289846Y-46532227D02*
X177385084Y-46580608D01*
X177385084Y-46580608D02*
X177432703Y-46628989D01*
X177432703Y-46628989D02*
X177480322Y-46725751D01*
X177480322Y-46725751D02*
X177480322Y-46870894D01*
X177480322Y-46870894D02*
X177432703Y-46967656D01*
X177432703Y-46967656D02*
X177385084Y-47016037D01*
X177385084Y-47016037D02*
X177289846Y-47064418D01*
X177289846Y-47064418D02*
X176908894Y-47064418D01*
X177766037Y-46532227D02*
X178099370Y-47548227D01*
X178099370Y-47548227D02*
X178432703Y-46532227D01*
X179289846Y-47548227D02*
X178718418Y-47548227D01*
X179004132Y-47548227D02*
X179004132Y-46532227D01*
X179004132Y-46532227D02*
X178908894Y-46677370D01*
X178908894Y-46677370D02*
X178813656Y-46774132D01*
X178813656Y-46774132D02*
X178718418Y-46822513D01*
X208058715Y-81603332D02*
X208107095Y-81460475D01*
X208107095Y-81460475D02*
X208107095Y-81222380D01*
X208107095Y-81222380D02*
X208058715Y-81127142D01*
X208058715Y-81127142D02*
X208010334Y-81079523D01*
X208010334Y-81079523D02*
X207913572Y-81031904D01*
X207913572Y-81031904D02*
X207816810Y-81031904D01*
X207816810Y-81031904D02*
X207720048Y-81079523D01*
X207720048Y-81079523D02*
X207671667Y-81127142D01*
X207671667Y-81127142D02*
X207623286Y-81222380D01*
X207623286Y-81222380D02*
X207574905Y-81412856D01*
X207574905Y-81412856D02*
X207526524Y-81508094D01*
X207526524Y-81508094D02*
X207478143Y-81555713D01*
X207478143Y-81555713D02*
X207381381Y-81603332D01*
X207381381Y-81603332D02*
X207284619Y-81603332D01*
X207284619Y-81603332D02*
X207187857Y-81555713D01*
X207187857Y-81555713D02*
X207139476Y-81508094D01*
X207139476Y-81508094D02*
X207091095Y-81412856D01*
X207091095Y-81412856D02*
X207091095Y-81174761D01*
X207091095Y-81174761D02*
X207139476Y-81031904D01*
X207091095Y-80698570D02*
X208107095Y-80460475D01*
X208107095Y-80460475D02*
X207381381Y-80269999D01*
X207381381Y-80269999D02*
X208107095Y-80079523D01*
X208107095Y-80079523D02*
X207091095Y-79841428D01*
X208107095Y-78936666D02*
X208107095Y-79508094D01*
X208107095Y-79222380D02*
X207091095Y-79222380D01*
X207091095Y-79222380D02*
X207236238Y-79317618D01*
X207236238Y-79317618D02*
X207333000Y-79412856D01*
X207333000Y-79412856D02*
X207381381Y-79508094D01*
X180697142Y-99777095D02*
X180363809Y-99293286D01*
X180125714Y-99777095D02*
X180125714Y-98761095D01*
X180125714Y-98761095D02*
X180506666Y-98761095D01*
X180506666Y-98761095D02*
X180601904Y-98809476D01*
X180601904Y-98809476D02*
X180649523Y-98857857D01*
X180649523Y-98857857D02*
X180697142Y-98954619D01*
X180697142Y-98954619D02*
X180697142Y-99099762D01*
X180697142Y-99099762D02*
X180649523Y-99196524D01*
X180649523Y-99196524D02*
X180601904Y-99244905D01*
X180601904Y-99244905D02*
X180506666Y-99293286D01*
X180506666Y-99293286D02*
X180125714Y-99293286D01*
X181078095Y-98857857D02*
X181125714Y-98809476D01*
X181125714Y-98809476D02*
X181220952Y-98761095D01*
X181220952Y-98761095D02*
X181459047Y-98761095D01*
X181459047Y-98761095D02*
X181554285Y-98809476D01*
X181554285Y-98809476D02*
X181601904Y-98857857D01*
X181601904Y-98857857D02*
X181649523Y-98954619D01*
X181649523Y-98954619D02*
X181649523Y-99051381D01*
X181649523Y-99051381D02*
X181601904Y-99196524D01*
X181601904Y-99196524D02*
X181030476Y-99777095D01*
X181030476Y-99777095D02*
X181649523Y-99777095D01*
X182030476Y-98857857D02*
X182078095Y-98809476D01*
X182078095Y-98809476D02*
X182173333Y-98761095D01*
X182173333Y-98761095D02*
X182411428Y-98761095D01*
X182411428Y-98761095D02*
X182506666Y-98809476D01*
X182506666Y-98809476D02*
X182554285Y-98857857D01*
X182554285Y-98857857D02*
X182601904Y-98954619D01*
X182601904Y-98954619D02*
X182601904Y-99051381D01*
X182601904Y-99051381D02*
X182554285Y-99196524D01*
X182554285Y-99196524D02*
X181982857Y-99777095D01*
X181982857Y-99777095D02*
X182601904Y-99777095D01*
X152795934Y-72803572D02*
X152312125Y-73136905D01*
X152795934Y-73375000D02*
X151779934Y-73375000D01*
X151779934Y-73375000D02*
X151779934Y-72994048D01*
X151779934Y-72994048D02*
X151828315Y-72898810D01*
X151828315Y-72898810D02*
X151876696Y-72851191D01*
X151876696Y-72851191D02*
X151973458Y-72803572D01*
X151973458Y-72803572D02*
X152118601Y-72803572D01*
X152118601Y-72803572D02*
X152215363Y-72851191D01*
X152215363Y-72851191D02*
X152263744Y-72898810D01*
X152263744Y-72898810D02*
X152312125Y-72994048D01*
X152312125Y-72994048D02*
X152312125Y-73375000D01*
X152795934Y-71851191D02*
X152795934Y-72422619D01*
X152795934Y-72136905D02*
X151779934Y-72136905D01*
X151779934Y-72136905D02*
X151925077Y-72232143D01*
X151925077Y-72232143D02*
X152021839Y-72327381D01*
X152021839Y-72327381D02*
X152070220Y-72422619D01*
X151779934Y-71517857D02*
X151779934Y-70851191D01*
X151779934Y-70851191D02*
X152795934Y-71279762D01*
X214799071Y-63617553D02*
X214465738Y-63133744D01*
X214227643Y-63617553D02*
X214227643Y-62601553D01*
X214227643Y-62601553D02*
X214608595Y-62601553D01*
X214608595Y-62601553D02*
X214703833Y-62649934D01*
X214703833Y-62649934D02*
X214751452Y-62698315D01*
X214751452Y-62698315D02*
X214799071Y-62795077D01*
X214799071Y-62795077D02*
X214799071Y-62940220D01*
X214799071Y-62940220D02*
X214751452Y-63036982D01*
X214751452Y-63036982D02*
X214703833Y-63085363D01*
X214703833Y-63085363D02*
X214608595Y-63133744D01*
X214608595Y-63133744D02*
X214227643Y-63133744D01*
X215370500Y-63036982D02*
X215275262Y-62988601D01*
X215275262Y-62988601D02*
X215227643Y-62940220D01*
X215227643Y-62940220D02*
X215180024Y-62843458D01*
X215180024Y-62843458D02*
X215180024Y-62795077D01*
X215180024Y-62795077D02*
X215227643Y-62698315D01*
X215227643Y-62698315D02*
X215275262Y-62649934D01*
X215275262Y-62649934D02*
X215370500Y-62601553D01*
X215370500Y-62601553D02*
X215560976Y-62601553D01*
X215560976Y-62601553D02*
X215656214Y-62649934D01*
X215656214Y-62649934D02*
X215703833Y-62698315D01*
X215703833Y-62698315D02*
X215751452Y-62795077D01*
X215751452Y-62795077D02*
X215751452Y-62843458D01*
X215751452Y-62843458D02*
X215703833Y-62940220D01*
X215703833Y-62940220D02*
X215656214Y-62988601D01*
X215656214Y-62988601D02*
X215560976Y-63036982D01*
X215560976Y-63036982D02*
X215370500Y-63036982D01*
X215370500Y-63036982D02*
X215275262Y-63085363D01*
X215275262Y-63085363D02*
X215227643Y-63133744D01*
X215227643Y-63133744D02*
X215180024Y-63230506D01*
X215180024Y-63230506D02*
X215180024Y-63424030D01*
X215180024Y-63424030D02*
X215227643Y-63520792D01*
X215227643Y-63520792D02*
X215275262Y-63569173D01*
X215275262Y-63569173D02*
X215370500Y-63617553D01*
X215370500Y-63617553D02*
X215560976Y-63617553D01*
X215560976Y-63617553D02*
X215656214Y-63569173D01*
X215656214Y-63569173D02*
X215703833Y-63520792D01*
X215703833Y-63520792D02*
X215751452Y-63424030D01*
X215751452Y-63424030D02*
X215751452Y-63230506D01*
X215751452Y-63230506D02*
X215703833Y-63133744D01*
X215703833Y-63133744D02*
X215656214Y-63085363D01*
X215656214Y-63085363D02*
X215560976Y-63036982D01*
X196169036Y-58609875D02*
X196169036Y-57593875D01*
X196169036Y-57593875D02*
X196407131Y-57593875D01*
X196407131Y-57593875D02*
X196549988Y-57642256D01*
X196549988Y-57642256D02*
X196645226Y-57739018D01*
X196645226Y-57739018D02*
X196692845Y-57835780D01*
X196692845Y-57835780D02*
X196740464Y-58029304D01*
X196740464Y-58029304D02*
X196740464Y-58174447D01*
X196740464Y-58174447D02*
X196692845Y-58367971D01*
X196692845Y-58367971D02*
X196645226Y-58464733D01*
X196645226Y-58464733D02*
X196549988Y-58561495D01*
X196549988Y-58561495D02*
X196407131Y-58609875D01*
X196407131Y-58609875D02*
X196169036Y-58609875D01*
X197073798Y-57593875D02*
X197740464Y-57593875D01*
X197740464Y-57593875D02*
X197311893Y-58609875D01*
X216782143Y-79798848D02*
X215766143Y-79798848D01*
X215766143Y-79798848D02*
X215766143Y-79560753D01*
X215766143Y-79560753D02*
X215814524Y-79417896D01*
X215814524Y-79417896D02*
X215911286Y-79322658D01*
X215911286Y-79322658D02*
X216008048Y-79275039D01*
X216008048Y-79275039D02*
X216201572Y-79227420D01*
X216201572Y-79227420D02*
X216346715Y-79227420D01*
X216346715Y-79227420D02*
X216540239Y-79275039D01*
X216540239Y-79275039D02*
X216637001Y-79322658D01*
X216637001Y-79322658D02*
X216733763Y-79417896D01*
X216733763Y-79417896D02*
X216782143Y-79560753D01*
X216782143Y-79560753D02*
X216782143Y-79798848D01*
X216782143Y-78275039D02*
X216782143Y-78846467D01*
X216782143Y-78560753D02*
X215766143Y-78560753D01*
X215766143Y-78560753D02*
X215911286Y-78655991D01*
X215911286Y-78655991D02*
X216008048Y-78751229D01*
X216008048Y-78751229D02*
X216056429Y-78846467D01*
X215862905Y-77894086D02*
X215814524Y-77846467D01*
X215814524Y-77846467D02*
X215766143Y-77751229D01*
X215766143Y-77751229D02*
X215766143Y-77513134D01*
X215766143Y-77513134D02*
X215814524Y-77417896D01*
X215814524Y-77417896D02*
X215862905Y-77370277D01*
X215862905Y-77370277D02*
X215959667Y-77322658D01*
X215959667Y-77322658D02*
X216056429Y-77322658D01*
X216056429Y-77322658D02*
X216201572Y-77370277D01*
X216201572Y-77370277D02*
X216782143Y-77941705D01*
X216782143Y-77941705D02*
X216782143Y-77322658D01*
X218313180Y-87281455D02*
X218217942Y-87233074D01*
X218217942Y-87233074D02*
X218075085Y-87233074D01*
X218075085Y-87233074D02*
X217932228Y-87281455D01*
X217932228Y-87281455D02*
X217836990Y-87378217D01*
X217836990Y-87378217D02*
X217789371Y-87474979D01*
X217789371Y-87474979D02*
X217741752Y-87668503D01*
X217741752Y-87668503D02*
X217741752Y-87813646D01*
X217741752Y-87813646D02*
X217789371Y-88007170D01*
X217789371Y-88007170D02*
X217836990Y-88103932D01*
X217836990Y-88103932D02*
X217932228Y-88200694D01*
X217932228Y-88200694D02*
X218075085Y-88249074D01*
X218075085Y-88249074D02*
X218170323Y-88249074D01*
X218170323Y-88249074D02*
X218313180Y-88200694D01*
X218313180Y-88200694D02*
X218360799Y-88152313D01*
X218360799Y-88152313D02*
X218360799Y-87813646D01*
X218360799Y-87813646D02*
X218170323Y-87813646D01*
X218789371Y-88249074D02*
X218789371Y-87233074D01*
X218789371Y-87233074D02*
X219360799Y-88249074D01*
X219360799Y-88249074D02*
X219360799Y-87233074D01*
X219836990Y-88249074D02*
X219836990Y-87233074D01*
X219836990Y-87233074D02*
X220075085Y-87233074D01*
X220075085Y-87233074D02*
X220217942Y-87281455D01*
X220217942Y-87281455D02*
X220313180Y-87378217D01*
X220313180Y-87378217D02*
X220360799Y-87474979D01*
X220360799Y-87474979D02*
X220408418Y-87668503D01*
X220408418Y-87668503D02*
X220408418Y-87813646D01*
X220408418Y-87813646D02*
X220360799Y-88007170D01*
X220360799Y-88007170D02*
X220313180Y-88103932D01*
X220313180Y-88103932D02*
X220217942Y-88200694D01*
X220217942Y-88200694D02*
X220075085Y-88249074D01*
X220075085Y-88249074D02*
X219836990Y-88249074D01*
X221456038Y-87233074D02*
X222027466Y-87233074D01*
X221741752Y-88249074D02*
X221741752Y-87233074D01*
X222360800Y-88249074D02*
X222360800Y-87233074D01*
X222360800Y-87233074D02*
X222741752Y-87233074D01*
X222741752Y-87233074D02*
X222836990Y-87281455D01*
X222836990Y-87281455D02*
X222884609Y-87329836D01*
X222884609Y-87329836D02*
X222932228Y-87426598D01*
X222932228Y-87426598D02*
X222932228Y-87571741D01*
X222932228Y-87571741D02*
X222884609Y-87668503D01*
X222884609Y-87668503D02*
X222836990Y-87716884D01*
X222836990Y-87716884D02*
X222741752Y-87765265D01*
X222741752Y-87765265D02*
X222360800Y-87765265D01*
X201547844Y-72599334D02*
X201500225Y-72647715D01*
X201500225Y-72647715D02*
X201357368Y-72696095D01*
X201357368Y-72696095D02*
X201262130Y-72696095D01*
X201262130Y-72696095D02*
X201119273Y-72647715D01*
X201119273Y-72647715D02*
X201024035Y-72550953D01*
X201024035Y-72550953D02*
X200976416Y-72454191D01*
X200976416Y-72454191D02*
X200928797Y-72260667D01*
X200928797Y-72260667D02*
X200928797Y-72115524D01*
X200928797Y-72115524D02*
X200976416Y-71922000D01*
X200976416Y-71922000D02*
X201024035Y-71825238D01*
X201024035Y-71825238D02*
X201119273Y-71728476D01*
X201119273Y-71728476D02*
X201262130Y-71680095D01*
X201262130Y-71680095D02*
X201357368Y-71680095D01*
X201357368Y-71680095D02*
X201500225Y-71728476D01*
X201500225Y-71728476D02*
X201547844Y-71776857D01*
X202404987Y-71680095D02*
X202214511Y-71680095D01*
X202214511Y-71680095D02*
X202119273Y-71728476D01*
X202119273Y-71728476D02*
X202071654Y-71776857D01*
X202071654Y-71776857D02*
X201976416Y-71922000D01*
X201976416Y-71922000D02*
X201928797Y-72115524D01*
X201928797Y-72115524D02*
X201928797Y-72502572D01*
X201928797Y-72502572D02*
X201976416Y-72599334D01*
X201976416Y-72599334D02*
X202024035Y-72647715D01*
X202024035Y-72647715D02*
X202119273Y-72696095D01*
X202119273Y-72696095D02*
X202309749Y-72696095D01*
X202309749Y-72696095D02*
X202404987Y-72647715D01*
X202404987Y-72647715D02*
X202452606Y-72599334D01*
X202452606Y-72599334D02*
X202500225Y-72502572D01*
X202500225Y-72502572D02*
X202500225Y-72260667D01*
X202500225Y-72260667D02*
X202452606Y-72163905D01*
X202452606Y-72163905D02*
X202404987Y-72115524D01*
X202404987Y-72115524D02*
X202309749Y-72067143D01*
X202309749Y-72067143D02*
X202119273Y-72067143D01*
X202119273Y-72067143D02*
X202024035Y-72115524D01*
X202024035Y-72115524D02*
X201976416Y-72163905D01*
X201976416Y-72163905D02*
X201928797Y-72260667D01*
X195688333Y-83485334D02*
X195640714Y-83533715D01*
X195640714Y-83533715D02*
X195497857Y-83582095D01*
X195497857Y-83582095D02*
X195402619Y-83582095D01*
X195402619Y-83582095D02*
X195259762Y-83533715D01*
X195259762Y-83533715D02*
X195164524Y-83436953D01*
X195164524Y-83436953D02*
X195116905Y-83340191D01*
X195116905Y-83340191D02*
X195069286Y-83146667D01*
X195069286Y-83146667D02*
X195069286Y-83001524D01*
X195069286Y-83001524D02*
X195116905Y-82808000D01*
X195116905Y-82808000D02*
X195164524Y-82711238D01*
X195164524Y-82711238D02*
X195259762Y-82614476D01*
X195259762Y-82614476D02*
X195402619Y-82566095D01*
X195402619Y-82566095D02*
X195497857Y-82566095D01*
X195497857Y-82566095D02*
X195640714Y-82614476D01*
X195640714Y-82614476D02*
X195688333Y-82662857D01*
X196164524Y-83582095D02*
X196355000Y-83582095D01*
X196355000Y-83582095D02*
X196450238Y-83533715D01*
X196450238Y-83533715D02*
X196497857Y-83485334D01*
X196497857Y-83485334D02*
X196593095Y-83340191D01*
X196593095Y-83340191D02*
X196640714Y-83146667D01*
X196640714Y-83146667D02*
X196640714Y-82759619D01*
X196640714Y-82759619D02*
X196593095Y-82662857D01*
X196593095Y-82662857D02*
X196545476Y-82614476D01*
X196545476Y-82614476D02*
X196450238Y-82566095D01*
X196450238Y-82566095D02*
X196259762Y-82566095D01*
X196259762Y-82566095D02*
X196164524Y-82614476D01*
X196164524Y-82614476D02*
X196116905Y-82662857D01*
X196116905Y-82662857D02*
X196069286Y-82759619D01*
X196069286Y-82759619D02*
X196069286Y-83001524D01*
X196069286Y-83001524D02*
X196116905Y-83098286D01*
X196116905Y-83098286D02*
X196164524Y-83146667D01*
X196164524Y-83146667D02*
X196259762Y-83195048D01*
X196259762Y-83195048D02*
X196450238Y-83195048D01*
X196450238Y-83195048D02*
X196545476Y-83146667D01*
X196545476Y-83146667D02*
X196593095Y-83098286D01*
X196593095Y-83098286D02*
X196640714Y-83001524D01*
X201591088Y-58635185D02*
X201257755Y-58151376D01*
X201019660Y-58635185D02*
X201019660Y-57619185D01*
X201019660Y-57619185D02*
X201400612Y-57619185D01*
X201400612Y-57619185D02*
X201495850Y-57667566D01*
X201495850Y-57667566D02*
X201543469Y-57715947D01*
X201543469Y-57715947D02*
X201591088Y-57812709D01*
X201591088Y-57812709D02*
X201591088Y-57957852D01*
X201591088Y-57957852D02*
X201543469Y-58054614D01*
X201543469Y-58054614D02*
X201495850Y-58102995D01*
X201495850Y-58102995D02*
X201400612Y-58151376D01*
X201400612Y-58151376D02*
X201019660Y-58151376D01*
X202543469Y-58635185D02*
X201972041Y-58635185D01*
X202257755Y-58635185D02*
X202257755Y-57619185D01*
X202257755Y-57619185D02*
X202162517Y-57764328D01*
X202162517Y-57764328D02*
X202067279Y-57861090D01*
X202067279Y-57861090D02*
X201972041Y-57909471D01*
X203019660Y-58635185D02*
X203210136Y-58635185D01*
X203210136Y-58635185D02*
X203305374Y-58586805D01*
X203305374Y-58586805D02*
X203352993Y-58538424D01*
X203352993Y-58538424D02*
X203448231Y-58393281D01*
X203448231Y-58393281D02*
X203495850Y-58199757D01*
X203495850Y-58199757D02*
X203495850Y-57812709D01*
X203495850Y-57812709D02*
X203448231Y-57715947D01*
X203448231Y-57715947D02*
X203400612Y-57667566D01*
X203400612Y-57667566D02*
X203305374Y-57619185D01*
X203305374Y-57619185D02*
X203114898Y-57619185D01*
X203114898Y-57619185D02*
X203019660Y-57667566D01*
X203019660Y-57667566D02*
X202972041Y-57715947D01*
X202972041Y-57715947D02*
X202924422Y-57812709D01*
X202924422Y-57812709D02*
X202924422Y-58054614D01*
X202924422Y-58054614D02*
X202972041Y-58151376D01*
X202972041Y-58151376D02*
X203019660Y-58199757D01*
X203019660Y-58199757D02*
X203114898Y-58248138D01*
X203114898Y-58248138D02*
X203305374Y-58248138D01*
X203305374Y-58248138D02*
X203400612Y-58199757D01*
X203400612Y-58199757D02*
X203448231Y-58151376D01*
X203448231Y-58151376D02*
X203495850Y-58054614D01*
X175689923Y-64692614D02*
X175690462Y-64760497D01*
X175690462Y-64760497D02*
X175623657Y-64895722D01*
X175623657Y-64895722D02*
X175556313Y-64963066D01*
X175556313Y-64963066D02*
X175421088Y-65029871D01*
X175421088Y-65029871D02*
X175285323Y-65028793D01*
X175285323Y-65028793D02*
X175183230Y-64994044D01*
X175183230Y-64994044D02*
X175012717Y-64890874D01*
X175012717Y-64890874D02*
X174910085Y-64788242D01*
X174910085Y-64788242D02*
X174806915Y-64617728D01*
X174806915Y-64617728D02*
X174772166Y-64515636D01*
X174772166Y-64515636D02*
X174771088Y-64379871D01*
X174771088Y-64379871D02*
X174837893Y-64244645D01*
X174837893Y-64244645D02*
X174905237Y-64177302D01*
X174905237Y-64177302D02*
X175040462Y-64110497D01*
X175040462Y-64110497D02*
X175108345Y-64111036D01*
X176431779Y-64087600D02*
X176027718Y-64491661D01*
X176229749Y-64289631D02*
X175511328Y-63571210D01*
X175511328Y-63571210D02*
X175546616Y-63741185D01*
X175546616Y-63741185D02*
X175547694Y-63876950D01*
X175547694Y-63876950D02*
X175514561Y-63978504D01*
X177105214Y-63414165D02*
X176701153Y-63818226D01*
X176903184Y-63616196D02*
X176184763Y-62897775D01*
X176184763Y-62897775D02*
X176220051Y-63067750D01*
X176220051Y-63067750D02*
X176221129Y-63203515D01*
X176221129Y-63203515D02*
X176187996Y-63305069D01*
X210760295Y-59152358D02*
X210712676Y-59200739D01*
X210712676Y-59200739D02*
X210569819Y-59249119D01*
X210569819Y-59249119D02*
X210474581Y-59249119D01*
X210474581Y-59249119D02*
X210331724Y-59200739D01*
X210331724Y-59200739D02*
X210236486Y-59103977D01*
X210236486Y-59103977D02*
X210188867Y-59007215D01*
X210188867Y-59007215D02*
X210141248Y-58813691D01*
X210141248Y-58813691D02*
X210141248Y-58668548D01*
X210141248Y-58668548D02*
X210188867Y-58475024D01*
X210188867Y-58475024D02*
X210236486Y-58378262D01*
X210236486Y-58378262D02*
X210331724Y-58281500D01*
X210331724Y-58281500D02*
X210474581Y-58233119D01*
X210474581Y-58233119D02*
X210569819Y-58233119D01*
X210569819Y-58233119D02*
X210712676Y-58281500D01*
X210712676Y-58281500D02*
X210760295Y-58329881D01*
X211712676Y-59249119D02*
X211141248Y-59249119D01*
X211426962Y-59249119D02*
X211426962Y-58233119D01*
X211426962Y-58233119D02*
X211331724Y-58378262D01*
X211331724Y-58378262D02*
X211236486Y-58475024D01*
X211236486Y-58475024D02*
X211141248Y-58523405D01*
X212284105Y-58668548D02*
X212188867Y-58620167D01*
X212188867Y-58620167D02*
X212141248Y-58571786D01*
X212141248Y-58571786D02*
X212093629Y-58475024D01*
X212093629Y-58475024D02*
X212093629Y-58426643D01*
X212093629Y-58426643D02*
X212141248Y-58329881D01*
X212141248Y-58329881D02*
X212188867Y-58281500D01*
X212188867Y-58281500D02*
X212284105Y-58233119D01*
X212284105Y-58233119D02*
X212474581Y-58233119D01*
X212474581Y-58233119D02*
X212569819Y-58281500D01*
X212569819Y-58281500D02*
X212617438Y-58329881D01*
X212617438Y-58329881D02*
X212665057Y-58426643D01*
X212665057Y-58426643D02*
X212665057Y-58475024D01*
X212665057Y-58475024D02*
X212617438Y-58571786D01*
X212617438Y-58571786D02*
X212569819Y-58620167D01*
X212569819Y-58620167D02*
X212474581Y-58668548D01*
X212474581Y-58668548D02*
X212284105Y-58668548D01*
X212284105Y-58668548D02*
X212188867Y-58716929D01*
X212188867Y-58716929D02*
X212141248Y-58765310D01*
X212141248Y-58765310D02*
X212093629Y-58862072D01*
X212093629Y-58862072D02*
X212093629Y-59055596D01*
X212093629Y-59055596D02*
X212141248Y-59152358D01*
X212141248Y-59152358D02*
X212188867Y-59200739D01*
X212188867Y-59200739D02*
X212284105Y-59249119D01*
X212284105Y-59249119D02*
X212474581Y-59249119D01*
X212474581Y-59249119D02*
X212569819Y-59200739D01*
X212569819Y-59200739D02*
X212617438Y-59152358D01*
X212617438Y-59152358D02*
X212665057Y-59055596D01*
X212665057Y-59055596D02*
X212665057Y-58862072D01*
X212665057Y-58862072D02*
X212617438Y-58765310D01*
X212617438Y-58765310D02*
X212569819Y-58716929D01*
X212569819Y-58716929D02*
X212474581Y-58668548D01*
X197204373Y-75914106D02*
X196720564Y-76247439D01*
X197204373Y-76485534D02*
X196188373Y-76485534D01*
X196188373Y-76485534D02*
X196188373Y-76104582D01*
X196188373Y-76104582D02*
X196236754Y-76009344D01*
X196236754Y-76009344D02*
X196285135Y-75961725D01*
X196285135Y-75961725D02*
X196381897Y-75914106D01*
X196381897Y-75914106D02*
X196527040Y-75914106D01*
X196527040Y-75914106D02*
X196623802Y-75961725D01*
X196623802Y-75961725D02*
X196672183Y-76009344D01*
X196672183Y-76009344D02*
X196720564Y-76104582D01*
X196720564Y-76104582D02*
X196720564Y-76485534D01*
X197204373Y-74961725D02*
X197204373Y-75533153D01*
X197204373Y-75247439D02*
X196188373Y-75247439D01*
X196188373Y-75247439D02*
X196333516Y-75342677D01*
X196333516Y-75342677D02*
X196430278Y-75437915D01*
X196430278Y-75437915D02*
X196478659Y-75533153D01*
X151594340Y-106441433D02*
X151594340Y-105425433D01*
X151594340Y-105909243D02*
X152165768Y-105909243D01*
X152165768Y-106441433D02*
X152165768Y-105425433D01*
X153070530Y-105764100D02*
X153070530Y-106441433D01*
X152832435Y-105377053D02*
X152594340Y-106102767D01*
X152594340Y-106102767D02*
X153213387Y-106102767D01*
X217626408Y-48093301D02*
X217626408Y-47077301D01*
X217626408Y-47561111D02*
X218197836Y-47561111D01*
X218197836Y-48093301D02*
X218197836Y-47077301D01*
X218626408Y-47174063D02*
X218674027Y-47125682D01*
X218674027Y-47125682D02*
X218769265Y-47077301D01*
X218769265Y-47077301D02*
X219007360Y-47077301D01*
X219007360Y-47077301D02*
X219102598Y-47125682D01*
X219102598Y-47125682D02*
X219150217Y-47174063D01*
X219150217Y-47174063D02*
X219197836Y-47270825D01*
X219197836Y-47270825D02*
X219197836Y-47367587D01*
X219197836Y-47367587D02*
X219150217Y-47512730D01*
X219150217Y-47512730D02*
X218578789Y-48093301D01*
X218578789Y-48093301D02*
X219197836Y-48093301D01*
X191065308Y-68731179D02*
X190829606Y-68495477D01*
X190453290Y-68871793D02*
X191171711Y-68153372D01*
X191171711Y-68153372D02*
X191508428Y-68490090D01*
X191671400Y-69337271D02*
X191738204Y-69472497D01*
X191738204Y-69472497D02*
X191737666Y-69540379D01*
X191737666Y-69540379D02*
X191702916Y-69642472D01*
X191702916Y-69642472D02*
X191600285Y-69745103D01*
X191600285Y-69745103D02*
X191498192Y-69779853D01*
X191498192Y-69779853D02*
X191430310Y-69780391D01*
X191430310Y-69780391D02*
X191328756Y-69747258D01*
X191328756Y-69747258D02*
X191059382Y-69477884D01*
X191059382Y-69477884D02*
X191777802Y-68759464D01*
X191777802Y-68759464D02*
X192013505Y-68995166D01*
X192013505Y-68995166D02*
X192046638Y-69096720D01*
X192046638Y-69096720D02*
X192046099Y-69164602D01*
X192046099Y-69164602D02*
X192011350Y-69266695D01*
X192011350Y-69266695D02*
X191942929Y-69335116D01*
X191942929Y-69335116D02*
X191840836Y-69369865D01*
X191840836Y-69369865D02*
X191772954Y-69370404D01*
X191772954Y-69370404D02*
X191671400Y-69337271D01*
X191671400Y-69337271D02*
X191435697Y-69101569D01*
X192548482Y-70009090D02*
X192069535Y-70488037D01*
X192653807Y-69567047D02*
X191972290Y-69911846D01*
X191972290Y-69911846D02*
X192410023Y-70349579D01*
X194847434Y-53861886D02*
X194363625Y-54195219D01*
X194847434Y-54433314D02*
X193831434Y-54433314D01*
X193831434Y-54433314D02*
X193831434Y-54052362D01*
X193831434Y-54052362D02*
X193879815Y-53957124D01*
X193879815Y-53957124D02*
X193928196Y-53909505D01*
X193928196Y-53909505D02*
X194024958Y-53861886D01*
X194024958Y-53861886D02*
X194170101Y-53861886D01*
X194170101Y-53861886D02*
X194266863Y-53909505D01*
X194266863Y-53909505D02*
X194315244Y-53957124D01*
X194315244Y-53957124D02*
X194363625Y-54052362D01*
X194363625Y-54052362D02*
X194363625Y-54433314D01*
X193831434Y-53528552D02*
X193831434Y-52861886D01*
X193831434Y-52861886D02*
X194847434Y-53290457D01*
X151633530Y-47927687D02*
X151633530Y-46911687D01*
X151633530Y-47395497D02*
X152204958Y-47395497D01*
X152204958Y-47927687D02*
X152204958Y-46911687D01*
X153204958Y-47927687D02*
X152633530Y-47927687D01*
X152919244Y-47927687D02*
X152919244Y-46911687D01*
X152919244Y-46911687D02*
X152824006Y-47056830D01*
X152824006Y-47056830D02*
X152728768Y-47153592D01*
X152728768Y-47153592D02*
X152633530Y-47201973D01*
X198423195Y-90721252D02*
X198529597Y-90143445D01*
X198019134Y-90317191D02*
X198737554Y-89598770D01*
X198737554Y-89598770D02*
X199006928Y-89868145D01*
X199006928Y-89868145D02*
X199040061Y-89969699D01*
X199040061Y-89969699D02*
X199039522Y-90037581D01*
X199039522Y-90037581D02*
X199004773Y-90139674D01*
X199004773Y-90139674D02*
X198902142Y-90242305D01*
X198902142Y-90242305D02*
X198800049Y-90277054D01*
X198800049Y-90277054D02*
X198732167Y-90277593D01*
X198732167Y-90277593D02*
X198630613Y-90244460D01*
X198630613Y-90244460D02*
X198361239Y-89975086D01*
X199342568Y-90340627D02*
X199410450Y-90340088D01*
X199410450Y-90340088D02*
X199512004Y-90373221D01*
X199512004Y-90373221D02*
X199680363Y-90541580D01*
X199680363Y-90541580D02*
X199713496Y-90643134D01*
X199713496Y-90643134D02*
X199712957Y-90711016D01*
X199712957Y-90711016D02*
X199678208Y-90813109D01*
X199678208Y-90813109D02*
X199609787Y-90881530D01*
X199609787Y-90881530D02*
X199473484Y-90950489D01*
X199473484Y-90950489D02*
X198658897Y-90956954D01*
X198658897Y-90956954D02*
X199096630Y-91394687D01*
X200454813Y-91316030D02*
X200118096Y-90979312D01*
X200118096Y-90979312D02*
X199742319Y-91287746D01*
X199742319Y-91287746D02*
X199810201Y-91287207D01*
X199810201Y-91287207D02*
X199911755Y-91320340D01*
X199911755Y-91320340D02*
X200080114Y-91488699D01*
X200080114Y-91488699D02*
X200113247Y-91590253D01*
X200113247Y-91590253D02*
X200112708Y-91658135D01*
X200112708Y-91658135D02*
X200077959Y-91760228D01*
X200077959Y-91760228D02*
X199906907Y-91931280D01*
X199906907Y-91931280D02*
X199804814Y-91966029D01*
X199804814Y-91966029D02*
X199736932Y-91966568D01*
X199736932Y-91966568D02*
X199635378Y-91933435D01*
X199635378Y-91933435D02*
X199467019Y-91765076D01*
X199467019Y-91765076D02*
X199433886Y-91663522D01*
X199433886Y-91663522D02*
X199434425Y-91595640D01*
X213187095Y-79763168D02*
X212171095Y-79763168D01*
X212171095Y-79763168D02*
X212171095Y-79525073D01*
X212171095Y-79525073D02*
X212219476Y-79382216D01*
X212219476Y-79382216D02*
X212316238Y-79286978D01*
X212316238Y-79286978D02*
X212413000Y-79239359D01*
X212413000Y-79239359D02*
X212606524Y-79191740D01*
X212606524Y-79191740D02*
X212751667Y-79191740D01*
X212751667Y-79191740D02*
X212945191Y-79239359D01*
X212945191Y-79239359D02*
X213041953Y-79286978D01*
X213041953Y-79286978D02*
X213138715Y-79382216D01*
X213138715Y-79382216D02*
X213187095Y-79525073D01*
X213187095Y-79525073D02*
X213187095Y-79763168D01*
X213187095Y-78239359D02*
X213187095Y-78810787D01*
X213187095Y-78525073D02*
X212171095Y-78525073D01*
X212171095Y-78525073D02*
X212316238Y-78620311D01*
X212316238Y-78620311D02*
X212413000Y-78715549D01*
X212413000Y-78715549D02*
X212461381Y-78810787D01*
X213187095Y-77286978D02*
X213187095Y-77858406D01*
X213187095Y-77572692D02*
X212171095Y-77572692D01*
X212171095Y-77572692D02*
X212316238Y-77667930D01*
X212316238Y-77667930D02*
X212413000Y-77763168D01*
X212413000Y-77763168D02*
X212461381Y-77858406D01*
X181764611Y-60502894D02*
X181764611Y-59486894D01*
X181764611Y-59486894D02*
X182002706Y-59486894D01*
X182002706Y-59486894D02*
X182145563Y-59535275D01*
X182145563Y-59535275D02*
X182240801Y-59632037D01*
X182240801Y-59632037D02*
X182288420Y-59728799D01*
X182288420Y-59728799D02*
X182336039Y-59922323D01*
X182336039Y-59922323D02*
X182336039Y-60067466D01*
X182336039Y-60067466D02*
X182288420Y-60260990D01*
X182288420Y-60260990D02*
X182240801Y-60357752D01*
X182240801Y-60357752D02*
X182145563Y-60454514D01*
X182145563Y-60454514D02*
X182002706Y-60502894D01*
X182002706Y-60502894D02*
X181764611Y-60502894D01*
X182812230Y-60502894D02*
X183002706Y-60502894D01*
X183002706Y-60502894D02*
X183097944Y-60454514D01*
X183097944Y-60454514D02*
X183145563Y-60406133D01*
X183145563Y-60406133D02*
X183240801Y-60260990D01*
X183240801Y-60260990D02*
X183288420Y-60067466D01*
X183288420Y-60067466D02*
X183288420Y-59680418D01*
X183288420Y-59680418D02*
X183240801Y-59583656D01*
X183240801Y-59583656D02*
X183193182Y-59535275D01*
X183193182Y-59535275D02*
X183097944Y-59486894D01*
X183097944Y-59486894D02*
X182907468Y-59486894D01*
X182907468Y-59486894D02*
X182812230Y-59535275D01*
X182812230Y-59535275D02*
X182764611Y-59583656D01*
X182764611Y-59583656D02*
X182716992Y-59680418D01*
X182716992Y-59680418D02*
X182716992Y-59922323D01*
X182716992Y-59922323D02*
X182764611Y-60019085D01*
X182764611Y-60019085D02*
X182812230Y-60067466D01*
X182812230Y-60067466D02*
X182907468Y-60115847D01*
X182907468Y-60115847D02*
X183097944Y-60115847D01*
X183097944Y-60115847D02*
X183193182Y-60067466D01*
X183193182Y-60067466D02*
X183240801Y-60019085D01*
X183240801Y-60019085D02*
X183288420Y-59922323D01*
X156013897Y-77548208D02*
X155928335Y-77499827D01*
X155928335Y-77499827D02*
X155799992Y-77499827D01*
X155799992Y-77499827D02*
X155671649Y-77548208D01*
X155671649Y-77548208D02*
X155586087Y-77644970D01*
X155586087Y-77644970D02*
X155543306Y-77741732D01*
X155543306Y-77741732D02*
X155500525Y-77935256D01*
X155500525Y-77935256D02*
X155500525Y-78080399D01*
X155500525Y-78080399D02*
X155543306Y-78273923D01*
X155543306Y-78273923D02*
X155586087Y-78370685D01*
X155586087Y-78370685D02*
X155671649Y-78467447D01*
X155671649Y-78467447D02*
X155799992Y-78515827D01*
X155799992Y-78515827D02*
X155885554Y-78515827D01*
X155885554Y-78515827D02*
X156013897Y-78467447D01*
X156013897Y-78467447D02*
X156056678Y-78419066D01*
X156056678Y-78419066D02*
X156056678Y-78080399D01*
X156056678Y-78080399D02*
X155885554Y-78080399D01*
X156955078Y-78515827D02*
X156655611Y-78032018D01*
X156441706Y-78515827D02*
X156441706Y-77499827D01*
X156441706Y-77499827D02*
X156783954Y-77499827D01*
X156783954Y-77499827D02*
X156869516Y-77548208D01*
X156869516Y-77548208D02*
X156912297Y-77596589D01*
X156912297Y-77596589D02*
X156955078Y-77693351D01*
X156955078Y-77693351D02*
X156955078Y-77838494D01*
X156955078Y-77838494D02*
X156912297Y-77935256D01*
X156912297Y-77935256D02*
X156869516Y-77983637D01*
X156869516Y-77983637D02*
X156783954Y-78032018D01*
X156783954Y-78032018D02*
X156441706Y-78032018D01*
X157340106Y-78515827D02*
X157340106Y-77499827D01*
X157340106Y-77499827D02*
X157639573Y-78225542D01*
X157639573Y-78225542D02*
X157939040Y-77499827D01*
X157939040Y-77499827D02*
X157939040Y-78515827D01*
X158324068Y-77596589D02*
X158366849Y-77548208D01*
X158366849Y-77548208D02*
X158452411Y-77499827D01*
X158452411Y-77499827D02*
X158666316Y-77499827D01*
X158666316Y-77499827D02*
X158751878Y-77548208D01*
X158751878Y-77548208D02*
X158794659Y-77596589D01*
X158794659Y-77596589D02*
X158837440Y-77693351D01*
X158837440Y-77693351D02*
X158837440Y-77790113D01*
X158837440Y-77790113D02*
X158794659Y-77935256D01*
X158794659Y-77935256D02*
X158281287Y-78515827D01*
X158281287Y-78515827D02*
X158837440Y-78515827D01*
X159693059Y-78515827D02*
X159179687Y-78515827D01*
X159436373Y-78515827D02*
X159436373Y-77499827D01*
X159436373Y-77499827D02*
X159350811Y-77644970D01*
X159350811Y-77644970D02*
X159265249Y-77741732D01*
X159265249Y-77741732D02*
X159179687Y-77790113D01*
X211087672Y-109258801D02*
X211136053Y-109306420D01*
X211136053Y-109306420D02*
X211184433Y-109449277D01*
X211184433Y-109449277D02*
X211184433Y-109544515D01*
X211184433Y-109544515D02*
X211136053Y-109687372D01*
X211136053Y-109687372D02*
X211039291Y-109782610D01*
X211039291Y-109782610D02*
X210942529Y-109830229D01*
X210942529Y-109830229D02*
X210749005Y-109877848D01*
X210749005Y-109877848D02*
X210603862Y-109877848D01*
X210603862Y-109877848D02*
X210410338Y-109830229D01*
X210410338Y-109830229D02*
X210313576Y-109782610D01*
X210313576Y-109782610D02*
X210216814Y-109687372D01*
X210216814Y-109687372D02*
X210168433Y-109544515D01*
X210168433Y-109544515D02*
X210168433Y-109449277D01*
X210168433Y-109449277D02*
X210216814Y-109306420D01*
X210216814Y-109306420D02*
X210265195Y-109258801D01*
X211184433Y-108306420D02*
X211184433Y-108877848D01*
X211184433Y-108592134D02*
X210168433Y-108592134D01*
X210168433Y-108592134D02*
X210313576Y-108687372D01*
X210313576Y-108687372D02*
X210410338Y-108782610D01*
X210410338Y-108782610D02*
X210458719Y-108877848D01*
X210507100Y-107449277D02*
X211184433Y-107449277D01*
X210120053Y-107687372D02*
X210845767Y-107925467D01*
X210845767Y-107925467D02*
X210845767Y-107306420D01*
X186468407Y-101985187D02*
X185955250Y-102498344D01*
X185955250Y-102498344D02*
X185818947Y-102567304D01*
X185818947Y-102567304D02*
X185683182Y-102568382D01*
X185683182Y-102568382D02*
X185547956Y-102501577D01*
X185547956Y-102501577D02*
X185480613Y-102434233D01*
X186703032Y-102356654D02*
X186770915Y-102356115D01*
X186770915Y-102356115D02*
X186872469Y-102389248D01*
X186872469Y-102389248D02*
X187040827Y-102557607D01*
X187040827Y-102557607D02*
X187073960Y-102659161D01*
X187073960Y-102659161D02*
X187073422Y-102727043D01*
X187073422Y-102727043D02*
X187038672Y-102829136D01*
X187038672Y-102829136D02*
X186970251Y-102897557D01*
X186970251Y-102897557D02*
X186833948Y-102966517D01*
X186833948Y-102966517D02*
X186019361Y-102972982D01*
X186019361Y-102972982D02*
X186457094Y-103410714D01*
X156099095Y-93474476D02*
X156003857Y-93426095D01*
X156003857Y-93426095D02*
X155861000Y-93426095D01*
X155861000Y-93426095D02*
X155718143Y-93474476D01*
X155718143Y-93474476D02*
X155622905Y-93571238D01*
X155622905Y-93571238D02*
X155575286Y-93668000D01*
X155575286Y-93668000D02*
X155527667Y-93861524D01*
X155527667Y-93861524D02*
X155527667Y-94006667D01*
X155527667Y-94006667D02*
X155575286Y-94200191D01*
X155575286Y-94200191D02*
X155622905Y-94296953D01*
X155622905Y-94296953D02*
X155718143Y-94393715D01*
X155718143Y-94393715D02*
X155861000Y-94442095D01*
X155861000Y-94442095D02*
X155956238Y-94442095D01*
X155956238Y-94442095D02*
X156099095Y-94393715D01*
X156099095Y-94393715D02*
X156146714Y-94345334D01*
X156146714Y-94345334D02*
X156146714Y-94006667D01*
X156146714Y-94006667D02*
X155956238Y-94006667D01*
X157146714Y-94442095D02*
X156813381Y-93958286D01*
X156575286Y-94442095D02*
X156575286Y-93426095D01*
X156575286Y-93426095D02*
X156956238Y-93426095D01*
X156956238Y-93426095D02*
X157051476Y-93474476D01*
X157051476Y-93474476D02*
X157099095Y-93522857D01*
X157099095Y-93522857D02*
X157146714Y-93619619D01*
X157146714Y-93619619D02*
X157146714Y-93764762D01*
X157146714Y-93764762D02*
X157099095Y-93861524D01*
X157099095Y-93861524D02*
X157051476Y-93909905D01*
X157051476Y-93909905D02*
X156956238Y-93958286D01*
X156956238Y-93958286D02*
X156575286Y-93958286D01*
X157575286Y-94442095D02*
X157575286Y-93426095D01*
X157575286Y-93426095D02*
X157908619Y-94151810D01*
X157908619Y-94151810D02*
X158241952Y-93426095D01*
X158241952Y-93426095D02*
X158241952Y-94442095D01*
X158622905Y-93426095D02*
X159241952Y-93426095D01*
X159241952Y-93426095D02*
X158908619Y-93813143D01*
X158908619Y-93813143D02*
X159051476Y-93813143D01*
X159051476Y-93813143D02*
X159146714Y-93861524D01*
X159146714Y-93861524D02*
X159194333Y-93909905D01*
X159194333Y-93909905D02*
X159241952Y-94006667D01*
X159241952Y-94006667D02*
X159241952Y-94248572D01*
X159241952Y-94248572D02*
X159194333Y-94345334D01*
X159194333Y-94345334D02*
X159146714Y-94393715D01*
X159146714Y-94393715D02*
X159051476Y-94442095D01*
X159051476Y-94442095D02*
X158765762Y-94442095D01*
X158765762Y-94442095D02*
X158670524Y-94393715D01*
X158670524Y-94393715D02*
X158622905Y-94345334D01*
X160194333Y-94442095D02*
X159622905Y-94442095D01*
X159908619Y-94442095D02*
X159908619Y-93426095D01*
X159908619Y-93426095D02*
X159813381Y-93571238D01*
X159813381Y-93571238D02*
X159718143Y-93668000D01*
X159718143Y-93668000D02*
X159622905Y-93716381D01*
X175911666Y-68908505D02*
X175578333Y-68908505D01*
X175578333Y-69440695D02*
X175578333Y-68424695D01*
X175578333Y-68424695D02*
X176054523Y-68424695D01*
X176768809Y-68908505D02*
X176911666Y-68956886D01*
X176911666Y-68956886D02*
X176959285Y-69005267D01*
X176959285Y-69005267D02*
X177006904Y-69102029D01*
X177006904Y-69102029D02*
X177006904Y-69247172D01*
X177006904Y-69247172D02*
X176959285Y-69343934D01*
X176959285Y-69343934D02*
X176911666Y-69392315D01*
X176911666Y-69392315D02*
X176816428Y-69440695D01*
X176816428Y-69440695D02*
X176435476Y-69440695D01*
X176435476Y-69440695D02*
X176435476Y-68424695D01*
X176435476Y-68424695D02*
X176768809Y-68424695D01*
X176768809Y-68424695D02*
X176864047Y-68473076D01*
X176864047Y-68473076D02*
X176911666Y-68521457D01*
X176911666Y-68521457D02*
X176959285Y-68618219D01*
X176959285Y-68618219D02*
X176959285Y-68714981D01*
X176959285Y-68714981D02*
X176911666Y-68811743D01*
X176911666Y-68811743D02*
X176864047Y-68860124D01*
X176864047Y-68860124D02*
X176768809Y-68908505D01*
X176768809Y-68908505D02*
X176435476Y-68908505D01*
X177959285Y-69440695D02*
X177387857Y-69440695D01*
X177673571Y-69440695D02*
X177673571Y-68424695D01*
X177673571Y-68424695D02*
X177578333Y-68569838D01*
X177578333Y-68569838D02*
X177483095Y-68666600D01*
X177483095Y-68666600D02*
X177387857Y-68714981D01*
X187863349Y-94301700D02*
X187285542Y-94195298D01*
X187459288Y-94705761D02*
X186740867Y-93987341D01*
X186740867Y-93987341D02*
X187010242Y-93717967D01*
X187010242Y-93717967D02*
X187111796Y-93684834D01*
X187111796Y-93684834D02*
X187179678Y-93685373D01*
X187179678Y-93685373D02*
X187281771Y-93720122D01*
X187281771Y-93720122D02*
X187384402Y-93822753D01*
X187384402Y-93822753D02*
X187419151Y-93924846D01*
X187419151Y-93924846D02*
X187419690Y-93992728D01*
X187419690Y-93992728D02*
X187386557Y-94094282D01*
X187386557Y-94094282D02*
X187117183Y-94363656D01*
X187482724Y-93382327D02*
X187482185Y-93314445D01*
X187482185Y-93314445D02*
X187515318Y-93212891D01*
X187515318Y-93212891D02*
X187683677Y-93044532D01*
X187683677Y-93044532D02*
X187785231Y-93011399D01*
X187785231Y-93011399D02*
X187853113Y-93011938D01*
X187853113Y-93011938D02*
X187955206Y-93046687D01*
X187955206Y-93046687D02*
X188023627Y-93115108D01*
X188023627Y-93115108D02*
X188092586Y-93251411D01*
X188092586Y-93251411D02*
X188099051Y-94065998D01*
X188099051Y-94065998D02*
X188536784Y-93628265D01*
X188663929Y-92543227D02*
X189142876Y-93022174D01*
X188221886Y-92437902D02*
X188566685Y-93119418D01*
X188566685Y-93119418D02*
X189004417Y-92681685D01*
X184674582Y-74267078D02*
X185256161Y-74848657D01*
X185256161Y-74848657D02*
X185358253Y-74883406D01*
X185358253Y-74883406D02*
X185426136Y-74883945D01*
X185426136Y-74883945D02*
X185527690Y-74850812D01*
X185527690Y-74850812D02*
X185662377Y-74716125D01*
X185662377Y-74716125D02*
X185695510Y-74614571D01*
X185695510Y-74614571D02*
X185694971Y-74546688D01*
X185694971Y-74546688D02*
X185660222Y-74444596D01*
X185660222Y-74444596D02*
X185078643Y-73863017D01*
X186504170Y-73874331D02*
X186100109Y-74278392D01*
X186302140Y-74076361D02*
X185583719Y-73357941D01*
X185583719Y-73357941D02*
X185619007Y-73527916D01*
X185619007Y-73527916D02*
X185620085Y-73663680D01*
X185620085Y-73663680D02*
X185586952Y-73765234D01*
X213295050Y-73535046D02*
X212811241Y-73868379D01*
X213295050Y-74106474D02*
X212279050Y-74106474D01*
X212279050Y-74106474D02*
X212279050Y-73725522D01*
X212279050Y-73725522D02*
X212327431Y-73630284D01*
X212327431Y-73630284D02*
X212375812Y-73582665D01*
X212375812Y-73582665D02*
X212472574Y-73535046D01*
X212472574Y-73535046D02*
X212617717Y-73535046D01*
X212617717Y-73535046D02*
X212714479Y-73582665D01*
X212714479Y-73582665D02*
X212762860Y-73630284D01*
X212762860Y-73630284D02*
X212811241Y-73725522D01*
X212811241Y-73725522D02*
X212811241Y-74106474D01*
X213295050Y-72582665D02*
X213295050Y-73154093D01*
X213295050Y-72868379D02*
X212279050Y-72868379D01*
X212279050Y-72868379D02*
X212424193Y-72963617D01*
X212424193Y-72963617D02*
X212520955Y-73058855D01*
X212520955Y-73058855D02*
X212569336Y-73154093D01*
X212617717Y-71725522D02*
X213295050Y-71725522D01*
X212230670Y-71963617D02*
X212956384Y-72201712D01*
X212956384Y-72201712D02*
X212956384Y-71582665D01*
X207314647Y-54595159D02*
X207314647Y-53579159D01*
X207314647Y-53579159D02*
X207552742Y-53579159D01*
X207552742Y-53579159D02*
X207695599Y-53627540D01*
X207695599Y-53627540D02*
X207790837Y-53724302D01*
X207790837Y-53724302D02*
X207838456Y-53821064D01*
X207838456Y-53821064D02*
X207886075Y-54014588D01*
X207886075Y-54014588D02*
X207886075Y-54159731D01*
X207886075Y-54159731D02*
X207838456Y-54353255D01*
X207838456Y-54353255D02*
X207790837Y-54450017D01*
X207790837Y-54450017D02*
X207695599Y-54546779D01*
X207695599Y-54546779D02*
X207552742Y-54595159D01*
X207552742Y-54595159D02*
X207314647Y-54595159D01*
X208743218Y-53917826D02*
X208743218Y-54595159D01*
X208505123Y-53530779D02*
X208267028Y-54256493D01*
X208267028Y-54256493D02*
X208886075Y-54256493D01*
X220567281Y-73563940D02*
X220083472Y-73897273D01*
X220567281Y-74135368D02*
X219551281Y-74135368D01*
X219551281Y-74135368D02*
X219551281Y-73754416D01*
X219551281Y-73754416D02*
X219599662Y-73659178D01*
X219599662Y-73659178D02*
X219648043Y-73611559D01*
X219648043Y-73611559D02*
X219744805Y-73563940D01*
X219744805Y-73563940D02*
X219889948Y-73563940D01*
X219889948Y-73563940D02*
X219986710Y-73611559D01*
X219986710Y-73611559D02*
X220035091Y-73659178D01*
X220035091Y-73659178D02*
X220083472Y-73754416D01*
X220083472Y-73754416D02*
X220083472Y-74135368D01*
X220567281Y-72611559D02*
X220567281Y-73182987D01*
X220567281Y-72897273D02*
X219551281Y-72897273D01*
X219551281Y-72897273D02*
X219696424Y-72992511D01*
X219696424Y-72992511D02*
X219793186Y-73087749D01*
X219793186Y-73087749D02*
X219841567Y-73182987D01*
X219551281Y-71754416D02*
X219551281Y-71944892D01*
X219551281Y-71944892D02*
X219599662Y-72040130D01*
X219599662Y-72040130D02*
X219648043Y-72087749D01*
X219648043Y-72087749D02*
X219793186Y-72182987D01*
X219793186Y-72182987D02*
X219986710Y-72230606D01*
X219986710Y-72230606D02*
X220373758Y-72230606D01*
X220373758Y-72230606D02*
X220470520Y-72182987D01*
X220470520Y-72182987D02*
X220518901Y-72135368D01*
X220518901Y-72135368D02*
X220567281Y-72040130D01*
X220567281Y-72040130D02*
X220567281Y-71849654D01*
X220567281Y-71849654D02*
X220518901Y-71754416D01*
X220518901Y-71754416D02*
X220470520Y-71706797D01*
X220470520Y-71706797D02*
X220373758Y-71659178D01*
X220373758Y-71659178D02*
X220131853Y-71659178D01*
X220131853Y-71659178D02*
X220035091Y-71706797D01*
X220035091Y-71706797D02*
X219986710Y-71754416D01*
X219986710Y-71754416D02*
X219938329Y-71849654D01*
X219938329Y-71849654D02*
X219938329Y-72040130D01*
X219938329Y-72040130D02*
X219986710Y-72135368D01*
X219986710Y-72135368D02*
X220035091Y-72182987D01*
X220035091Y-72182987D02*
X220131853Y-72230606D01*
X210470881Y-49734521D02*
X210137548Y-49250712D01*
X209899453Y-49734521D02*
X209899453Y-48718521D01*
X209899453Y-48718521D02*
X210280405Y-48718521D01*
X210280405Y-48718521D02*
X210375643Y-48766902D01*
X210375643Y-48766902D02*
X210423262Y-48815283D01*
X210423262Y-48815283D02*
X210470881Y-48912045D01*
X210470881Y-48912045D02*
X210470881Y-49057188D01*
X210470881Y-49057188D02*
X210423262Y-49153950D01*
X210423262Y-49153950D02*
X210375643Y-49202331D01*
X210375643Y-49202331D02*
X210280405Y-49250712D01*
X210280405Y-49250712D02*
X209899453Y-49250712D01*
X211375643Y-48718521D02*
X210899453Y-48718521D01*
X210899453Y-48718521D02*
X210851834Y-49202331D01*
X210851834Y-49202331D02*
X210899453Y-49153950D01*
X210899453Y-49153950D02*
X210994691Y-49105569D01*
X210994691Y-49105569D02*
X211232786Y-49105569D01*
X211232786Y-49105569D02*
X211328024Y-49153950D01*
X211328024Y-49153950D02*
X211375643Y-49202331D01*
X211375643Y-49202331D02*
X211423262Y-49299093D01*
X211423262Y-49299093D02*
X211423262Y-49540998D01*
X211423262Y-49540998D02*
X211375643Y-49637760D01*
X211375643Y-49637760D02*
X211328024Y-49686141D01*
X211328024Y-49686141D02*
X211232786Y-49734521D01*
X211232786Y-49734521D02*
X210994691Y-49734521D01*
X210994691Y-49734521D02*
X210899453Y-49686141D01*
X210899453Y-49686141D02*
X210851834Y-49637760D01*
X192359095Y-78739904D02*
X193181572Y-78739904D01*
X193181572Y-78739904D02*
X193278334Y-78692285D01*
X193278334Y-78692285D02*
X193326715Y-78644666D01*
X193326715Y-78644666D02*
X193375095Y-78549428D01*
X193375095Y-78549428D02*
X193375095Y-78358952D01*
X193375095Y-78358952D02*
X193326715Y-78263714D01*
X193326715Y-78263714D02*
X193278334Y-78216095D01*
X193278334Y-78216095D02*
X193181572Y-78168476D01*
X193181572Y-78168476D02*
X192359095Y-78168476D01*
X192697762Y-77263714D02*
X193375095Y-77263714D01*
X192310715Y-77501809D02*
X193036429Y-77739904D01*
X193036429Y-77739904D02*
X193036429Y-77120857D01*
X164791822Y-86904330D02*
X164791822Y-86570997D01*
X165324012Y-86428140D02*
X165324012Y-86904330D01*
X165324012Y-86904330D02*
X164308012Y-86904330D01*
X164308012Y-86904330D02*
X164308012Y-86428140D01*
X165324012Y-85428140D02*
X164840203Y-85761473D01*
X165324012Y-85999568D02*
X164308012Y-85999568D01*
X164308012Y-85999568D02*
X164308012Y-85618616D01*
X164308012Y-85618616D02*
X164356393Y-85523378D01*
X164356393Y-85523378D02*
X164404774Y-85475759D01*
X164404774Y-85475759D02*
X164501536Y-85428140D01*
X164501536Y-85428140D02*
X164646679Y-85428140D01*
X164646679Y-85428140D02*
X164743441Y-85475759D01*
X164743441Y-85475759D02*
X164791822Y-85523378D01*
X164791822Y-85523378D02*
X164840203Y-85618616D01*
X164840203Y-85618616D02*
X164840203Y-85999568D01*
X164308012Y-84713854D02*
X165033727Y-84713854D01*
X165033727Y-84713854D02*
X165178870Y-84761473D01*
X165178870Y-84761473D02*
X165275632Y-84856711D01*
X165275632Y-84856711D02*
X165324012Y-84999568D01*
X165324012Y-84999568D02*
X165324012Y-85094806D01*
X165324012Y-83713854D02*
X165324012Y-84285282D01*
X165324012Y-83999568D02*
X164308012Y-83999568D01*
X164308012Y-83999568D02*
X164453155Y-84094806D01*
X164453155Y-84094806D02*
X164549917Y-84190044D01*
X164549917Y-84190044D02*
X164598298Y-84285282D01*
X164851904Y-103892955D02*
X164851904Y-104783432D01*
X164851904Y-104783432D02*
X164904285Y-104888194D01*
X164904285Y-104888194D02*
X164956666Y-104940575D01*
X164956666Y-104940575D02*
X165061428Y-104992955D01*
X165061428Y-104992955D02*
X165270952Y-104992955D01*
X165270952Y-104992955D02*
X165375714Y-104940575D01*
X165375714Y-104940575D02*
X165428095Y-104888194D01*
X165428095Y-104888194D02*
X165480476Y-104783432D01*
X165480476Y-104783432D02*
X165480476Y-103892955D01*
X166528095Y-103892955D02*
X166004285Y-103892955D01*
X166004285Y-103892955D02*
X165951904Y-104416765D01*
X165951904Y-104416765D02*
X166004285Y-104364384D01*
X166004285Y-104364384D02*
X166109047Y-104312003D01*
X166109047Y-104312003D02*
X166370952Y-104312003D01*
X166370952Y-104312003D02*
X166475714Y-104364384D01*
X166475714Y-104364384D02*
X166528095Y-104416765D01*
X166528095Y-104416765D02*
X166580476Y-104521527D01*
X166580476Y-104521527D02*
X166580476Y-104783432D01*
X166580476Y-104783432D02*
X166528095Y-104888194D01*
X166528095Y-104888194D02*
X166475714Y-104940575D01*
X166475714Y-104940575D02*
X166370952Y-104992955D01*
X166370952Y-104992955D02*
X166109047Y-104992955D01*
X166109047Y-104992955D02*
X166004285Y-104940575D01*
X166004285Y-104940575D02*
X165951904Y-104888194D01*
X198182698Y-56348009D02*
X197849365Y-55864200D01*
X197611270Y-56348009D02*
X197611270Y-55332009D01*
X197611270Y-55332009D02*
X197992222Y-55332009D01*
X197992222Y-55332009D02*
X198087460Y-55380390D01*
X198087460Y-55380390D02*
X198135079Y-55428771D01*
X198135079Y-55428771D02*
X198182698Y-55525533D01*
X198182698Y-55525533D02*
X198182698Y-55670676D01*
X198182698Y-55670676D02*
X198135079Y-55767438D01*
X198135079Y-55767438D02*
X198087460Y-55815819D01*
X198087460Y-55815819D02*
X197992222Y-55864200D01*
X197992222Y-55864200D02*
X197611270Y-55864200D01*
X199135079Y-56348009D02*
X198563651Y-56348009D01*
X198849365Y-56348009D02*
X198849365Y-55332009D01*
X198849365Y-55332009D02*
X198754127Y-55477152D01*
X198754127Y-55477152D02*
X198658889Y-55573914D01*
X198658889Y-55573914D02*
X198563651Y-55622295D01*
X199754127Y-55332009D02*
X199849365Y-55332009D01*
X199849365Y-55332009D02*
X199944603Y-55380390D01*
X199944603Y-55380390D02*
X199992222Y-55428771D01*
X199992222Y-55428771D02*
X200039841Y-55525533D01*
X200039841Y-55525533D02*
X200087460Y-55719057D01*
X200087460Y-55719057D02*
X200087460Y-55960962D01*
X200087460Y-55960962D02*
X200039841Y-56154486D01*
X200039841Y-56154486D02*
X199992222Y-56251248D01*
X199992222Y-56251248D02*
X199944603Y-56299629D01*
X199944603Y-56299629D02*
X199849365Y-56348009D01*
X199849365Y-56348009D02*
X199754127Y-56348009D01*
X199754127Y-56348009D02*
X199658889Y-56299629D01*
X199658889Y-56299629D02*
X199611270Y-56251248D01*
X199611270Y-56251248D02*
X199563651Y-56154486D01*
X199563651Y-56154486D02*
X199516032Y-55960962D01*
X199516032Y-55960962D02*
X199516032Y-55719057D01*
X199516032Y-55719057D02*
X199563651Y-55525533D01*
X199563651Y-55525533D02*
X199611270Y-55428771D01*
X199611270Y-55428771D02*
X199658889Y-55380390D01*
X199658889Y-55380390D02*
X199754127Y-55332009D01*
X215892142Y-94442095D02*
X215415952Y-94442095D01*
X215415952Y-94442095D02*
X215415952Y-93426095D01*
X216177857Y-94393715D02*
X216320714Y-94442095D01*
X216320714Y-94442095D02*
X216558809Y-94442095D01*
X216558809Y-94442095D02*
X216654047Y-94393715D01*
X216654047Y-94393715D02*
X216701666Y-94345334D01*
X216701666Y-94345334D02*
X216749285Y-94248572D01*
X216749285Y-94248572D02*
X216749285Y-94151810D01*
X216749285Y-94151810D02*
X216701666Y-94055048D01*
X216701666Y-94055048D02*
X216654047Y-94006667D01*
X216654047Y-94006667D02*
X216558809Y-93958286D01*
X216558809Y-93958286D02*
X216368333Y-93909905D01*
X216368333Y-93909905D02*
X216273095Y-93861524D01*
X216273095Y-93861524D02*
X216225476Y-93813143D01*
X216225476Y-93813143D02*
X216177857Y-93716381D01*
X216177857Y-93716381D02*
X216177857Y-93619619D01*
X216177857Y-93619619D02*
X216225476Y-93522857D01*
X216225476Y-93522857D02*
X216273095Y-93474476D01*
X216273095Y-93474476D02*
X216368333Y-93426095D01*
X216368333Y-93426095D02*
X216606428Y-93426095D01*
X216606428Y-93426095D02*
X216749285Y-93474476D01*
X217701666Y-94442095D02*
X217130238Y-94442095D01*
X217415952Y-94442095D02*
X217415952Y-93426095D01*
X217415952Y-93426095D02*
X217320714Y-93571238D01*
X217320714Y-93571238D02*
X217225476Y-93668000D01*
X217225476Y-93668000D02*
X217130238Y-93716381D01*
X178425399Y-74680582D02*
X178425938Y-74748465D01*
X178425938Y-74748465D02*
X178359133Y-74883690D01*
X178359133Y-74883690D02*
X178291789Y-74951034D01*
X178291789Y-74951034D02*
X178156564Y-75017839D01*
X178156564Y-75017839D02*
X178020799Y-75016761D01*
X178020799Y-75016761D02*
X177918706Y-74982012D01*
X177918706Y-74982012D02*
X177748193Y-74878842D01*
X177748193Y-74878842D02*
X177645561Y-74776210D01*
X177645561Y-74776210D02*
X177542391Y-74605696D01*
X177542391Y-74605696D02*
X177507642Y-74503604D01*
X177507642Y-74503604D02*
X177506564Y-74367839D01*
X177506564Y-74367839D02*
X177573369Y-74232613D01*
X177573369Y-74232613D02*
X177640713Y-74165270D01*
X177640713Y-74165270D02*
X177775938Y-74098465D01*
X177775938Y-74098465D02*
X177843821Y-74099004D01*
X179167255Y-74075568D02*
X178763194Y-74479629D01*
X178965225Y-74277599D02*
X178246804Y-73559178D01*
X178246804Y-73559178D02*
X178282092Y-73729153D01*
X178282092Y-73729153D02*
X178283170Y-73864918D01*
X178283170Y-73864918D02*
X178250037Y-73966472D01*
X179054926Y-72751056D02*
X178920239Y-72885743D01*
X178920239Y-72885743D02*
X178887106Y-72987297D01*
X178887106Y-72987297D02*
X178887645Y-73055180D01*
X178887645Y-73055180D02*
X178922933Y-73225155D01*
X178922933Y-73225155D02*
X179026103Y-73395668D01*
X179026103Y-73395668D02*
X179299787Y-73669352D01*
X179299787Y-73669352D02*
X179401880Y-73704102D01*
X179401880Y-73704102D02*
X179469762Y-73704640D01*
X179469762Y-73704640D02*
X179571316Y-73671507D01*
X179571316Y-73671507D02*
X179706003Y-73536820D01*
X179706003Y-73536820D02*
X179739136Y-73435266D01*
X179739136Y-73435266D02*
X179738597Y-73367384D01*
X179738597Y-73367384D02*
X179703848Y-73265291D01*
X179703848Y-73265291D02*
X179532796Y-73094239D01*
X179532796Y-73094239D02*
X179430703Y-73059490D01*
X179430703Y-73059490D02*
X179362821Y-73058951D01*
X179362821Y-73058951D02*
X179261267Y-73092084D01*
X179261267Y-73092084D02*
X179126580Y-73226771D01*
X179126580Y-73226771D02*
X179093447Y-73328325D01*
X179093447Y-73328325D02*
X179093985Y-73396207D01*
X179093985Y-73396207D02*
X179128735Y-73498300D01*
X170817095Y-88215238D02*
X170333286Y-88548571D01*
X170817095Y-88786666D02*
X169801095Y-88786666D01*
X169801095Y-88786666D02*
X169801095Y-88405714D01*
X169801095Y-88405714D02*
X169849476Y-88310476D01*
X169849476Y-88310476D02*
X169897857Y-88262857D01*
X169897857Y-88262857D02*
X169994619Y-88215238D01*
X169994619Y-88215238D02*
X170139762Y-88215238D01*
X170139762Y-88215238D02*
X170236524Y-88262857D01*
X170236524Y-88262857D02*
X170284905Y-88310476D01*
X170284905Y-88310476D02*
X170333286Y-88405714D01*
X170333286Y-88405714D02*
X170333286Y-88786666D01*
X170720334Y-87215238D02*
X170768715Y-87262857D01*
X170768715Y-87262857D02*
X170817095Y-87405714D01*
X170817095Y-87405714D02*
X170817095Y-87500952D01*
X170817095Y-87500952D02*
X170768715Y-87643809D01*
X170768715Y-87643809D02*
X170671953Y-87739047D01*
X170671953Y-87739047D02*
X170575191Y-87786666D01*
X170575191Y-87786666D02*
X170381667Y-87834285D01*
X170381667Y-87834285D02*
X170236524Y-87834285D01*
X170236524Y-87834285D02*
X170043000Y-87786666D01*
X170043000Y-87786666D02*
X169946238Y-87739047D01*
X169946238Y-87739047D02*
X169849476Y-87643809D01*
X169849476Y-87643809D02*
X169801095Y-87500952D01*
X169801095Y-87500952D02*
X169801095Y-87405714D01*
X169801095Y-87405714D02*
X169849476Y-87262857D01*
X169849476Y-87262857D02*
X169897857Y-87215238D01*
X170817095Y-86262857D02*
X170817095Y-86834285D01*
X170817095Y-86548571D02*
X169801095Y-86548571D01*
X169801095Y-86548571D02*
X169946238Y-86643809D01*
X169946238Y-86643809D02*
X170043000Y-86739047D01*
X170043000Y-86739047D02*
X170091381Y-86834285D01*
X169897857Y-85881904D02*
X169849476Y-85834285D01*
X169849476Y-85834285D02*
X169801095Y-85739047D01*
X169801095Y-85739047D02*
X169801095Y-85500952D01*
X169801095Y-85500952D02*
X169849476Y-85405714D01*
X169849476Y-85405714D02*
X169897857Y-85358095D01*
X169897857Y-85358095D02*
X169994619Y-85310476D01*
X169994619Y-85310476D02*
X170091381Y-85310476D01*
X170091381Y-85310476D02*
X170236524Y-85358095D01*
X170236524Y-85358095D02*
X170817095Y-85929523D01*
X170817095Y-85929523D02*
X170817095Y-85310476D01*
X169801095Y-84691428D02*
X169801095Y-84596190D01*
X169801095Y-84596190D02*
X169849476Y-84500952D01*
X169849476Y-84500952D02*
X169897857Y-84453333D01*
X169897857Y-84453333D02*
X169994619Y-84405714D01*
X169994619Y-84405714D02*
X170188143Y-84358095D01*
X170188143Y-84358095D02*
X170430048Y-84358095D01*
X170430048Y-84358095D02*
X170623572Y-84405714D01*
X170623572Y-84405714D02*
X170720334Y-84453333D01*
X170720334Y-84453333D02*
X170768715Y-84500952D01*
X170768715Y-84500952D02*
X170817095Y-84596190D01*
X170817095Y-84596190D02*
X170817095Y-84691428D01*
X170817095Y-84691428D02*
X170768715Y-84786666D01*
X170768715Y-84786666D02*
X170720334Y-84834285D01*
X170720334Y-84834285D02*
X170623572Y-84881904D01*
X170623572Y-84881904D02*
X170430048Y-84929523D01*
X170430048Y-84929523D02*
X170188143Y-84929523D01*
X170188143Y-84929523D02*
X169994619Y-84881904D01*
X169994619Y-84881904D02*
X169897857Y-84834285D01*
X169897857Y-84834285D02*
X169849476Y-84786666D01*
X169849476Y-84786666D02*
X169801095Y-84691428D01*
X169801095Y-83500952D02*
X169801095Y-83691428D01*
X169801095Y-83691428D02*
X169849476Y-83786666D01*
X169849476Y-83786666D02*
X169897857Y-83834285D01*
X169897857Y-83834285D02*
X170043000Y-83929523D01*
X170043000Y-83929523D02*
X170236524Y-83977142D01*
X170236524Y-83977142D02*
X170623572Y-83977142D01*
X170623572Y-83977142D02*
X170720334Y-83929523D01*
X170720334Y-83929523D02*
X170768715Y-83881904D01*
X170768715Y-83881904D02*
X170817095Y-83786666D01*
X170817095Y-83786666D02*
X170817095Y-83596190D01*
X170817095Y-83596190D02*
X170768715Y-83500952D01*
X170768715Y-83500952D02*
X170720334Y-83453333D01*
X170720334Y-83453333D02*
X170623572Y-83405714D01*
X170623572Y-83405714D02*
X170381667Y-83405714D01*
X170381667Y-83405714D02*
X170284905Y-83453333D01*
X170284905Y-83453333D02*
X170236524Y-83500952D01*
X170236524Y-83500952D02*
X170188143Y-83596190D01*
X170188143Y-83596190D02*
X170188143Y-83786666D01*
X170188143Y-83786666D02*
X170236524Y-83881904D01*
X170236524Y-83881904D02*
X170284905Y-83929523D01*
X170284905Y-83929523D02*
X170381667Y-83977142D01*
X219032770Y-64206537D02*
X218016770Y-64206537D01*
X218016770Y-64206537D02*
X218016770Y-63968442D01*
X218016770Y-63968442D02*
X218065151Y-63825585D01*
X218065151Y-63825585D02*
X218161913Y-63730347D01*
X218161913Y-63730347D02*
X218258675Y-63682728D01*
X218258675Y-63682728D02*
X218452199Y-63635109D01*
X218452199Y-63635109D02*
X218597342Y-63635109D01*
X218597342Y-63635109D02*
X218790866Y-63682728D01*
X218790866Y-63682728D02*
X218887628Y-63730347D01*
X218887628Y-63730347D02*
X218984390Y-63825585D01*
X218984390Y-63825585D02*
X219032770Y-63968442D01*
X219032770Y-63968442D02*
X219032770Y-64206537D01*
X218452199Y-63063680D02*
X218403818Y-63158918D01*
X218403818Y-63158918D02*
X218355437Y-63206537D01*
X218355437Y-63206537D02*
X218258675Y-63254156D01*
X218258675Y-63254156D02*
X218210294Y-63254156D01*
X218210294Y-63254156D02*
X218113532Y-63206537D01*
X218113532Y-63206537D02*
X218065151Y-63158918D01*
X218065151Y-63158918D02*
X218016770Y-63063680D01*
X218016770Y-63063680D02*
X218016770Y-62873204D01*
X218016770Y-62873204D02*
X218065151Y-62777966D01*
X218065151Y-62777966D02*
X218113532Y-62730347D01*
X218113532Y-62730347D02*
X218210294Y-62682728D01*
X218210294Y-62682728D02*
X218258675Y-62682728D01*
X218258675Y-62682728D02*
X218355437Y-62730347D01*
X218355437Y-62730347D02*
X218403818Y-62777966D01*
X218403818Y-62777966D02*
X218452199Y-62873204D01*
X218452199Y-62873204D02*
X218452199Y-63063680D01*
X218452199Y-63063680D02*
X218500580Y-63158918D01*
X218500580Y-63158918D02*
X218548961Y-63206537D01*
X218548961Y-63206537D02*
X218645723Y-63254156D01*
X218645723Y-63254156D02*
X218839247Y-63254156D01*
X218839247Y-63254156D02*
X218936009Y-63206537D01*
X218936009Y-63206537D02*
X218984390Y-63158918D01*
X218984390Y-63158918D02*
X219032770Y-63063680D01*
X219032770Y-63063680D02*
X219032770Y-62873204D01*
X219032770Y-62873204D02*
X218984390Y-62777966D01*
X218984390Y-62777966D02*
X218936009Y-62730347D01*
X218936009Y-62730347D02*
X218839247Y-62682728D01*
X218839247Y-62682728D02*
X218645723Y-62682728D01*
X218645723Y-62682728D02*
X218548961Y-62730347D01*
X218548961Y-62730347D02*
X218500580Y-62777966D01*
X218500580Y-62777966D02*
X218452199Y-62873204D01*
D11*
%TO.C,J3*%
X199263000Y-53594000D02*
X199263000Y-47874000D01*
X206883000Y-47874000D02*
X199263000Y-47874000D01*
X206883000Y-47874000D02*
X206883000Y-53594000D01*
X206883000Y-53594000D02*
X199263000Y-53594000D01*
D12*
X207633000Y-51054000D02*
G75*
G03*
X207433000Y-51054000I-100000J0D01*
G01*
X207433000Y-51054000D02*
G75*
G03*
X207633000Y-51054000I100000J0D01*
G01*
D13*
%TO.C,R15*%
X218832000Y-72638936D02*
X218832000Y-73093064D01*
X217362000Y-72638936D02*
X217362000Y-73093064D01*
%TO.C,R4*%
X174905936Y-54891000D02*
X175360064Y-54891000D01*
X174905936Y-56361000D02*
X175360064Y-56361000D01*
%TO.C,R23*%
X184267389Y-96172058D02*
X183946272Y-96493175D01*
X183227942Y-95132611D02*
X182906825Y-95453728D01*
%TO.C,R3*%
X172928718Y-58314835D02*
X173249835Y-57993718D01*
X173968165Y-59354282D02*
X174289282Y-59033165D01*
%TO.C,R11*%
X193066825Y-101803728D02*
X193387942Y-101482611D01*
X194106272Y-102843175D02*
X194427389Y-102522058D01*
%TO.C,R20*%
X187090977Y-61035219D02*
X187545105Y-61035219D01*
X187090977Y-62505219D02*
X187545105Y-62505219D01*
%TO.C,C17*%
X215806912Y-57006358D02*
X215437445Y-57375825D01*
X214767465Y-55966911D02*
X214397998Y-56336378D01*
%TO.C,C19*%
X187565812Y-59036493D02*
X187043308Y-59036493D01*
X187565812Y-57566493D02*
X187043308Y-57566493D01*
%TO.C,D1*%
X171064348Y-51977703D02*
X169706703Y-53335348D01*
X169706703Y-53335348D02*
X171605284Y-55233929D01*
X172962929Y-53876284D02*
X171064348Y-51977703D01*
%TO.C,R9*%
X208131467Y-63129663D02*
X207677339Y-63129663D01*
X208131467Y-61659663D02*
X207677339Y-61659663D01*
%TO.C,D2*%
X211003000Y-56295000D02*
X212923000Y-56295000D01*
X212923000Y-56295000D02*
X212923000Y-53610000D01*
X211003000Y-53610000D02*
X211003000Y-56295000D01*
D11*
%TO.C,J4*%
X161163000Y-53594000D02*
X161163000Y-47874000D01*
X168783000Y-47874000D02*
X161163000Y-47874000D01*
X168783000Y-47874000D02*
X168783000Y-53594000D01*
X168783000Y-53594000D02*
X161163000Y-53594000D01*
D12*
X169533000Y-51054000D02*
G75*
G03*
X169333000Y-51054000I-100000J0D01*
G01*
X169333000Y-51054000D02*
G75*
G03*
X169533000Y-51054000I100000J0D01*
G01*
D13*
%TO.C,R26*%
X200312058Y-98307611D02*
X200633175Y-98628728D01*
X199272611Y-99347058D02*
X199593728Y-99668175D01*
D11*
%TO.C,J1*%
X155086352Y-95124978D02*
X150764352Y-95124978D01*
X155086352Y-95124978D02*
X155086352Y-96950978D01*
X155086352Y-103824978D02*
X155086352Y-101998978D01*
X150764352Y-103824978D02*
X155086352Y-103824978D01*
D12*
X155990352Y-97874978D02*
G75*
G03*
X155790352Y-97874978I-100000J0D01*
G01*
X155790352Y-97874978D02*
G75*
G03*
X155990352Y-97874978I100000J0D01*
G01*
D13*
%TO.C,C13*%
X192505000Y-107921248D02*
X192505000Y-108443752D01*
X191035000Y-107921248D02*
X191035000Y-108443752D01*
%TO.C,R21*%
X177154232Y-102026319D02*
X177608360Y-102026319D01*
X177154232Y-103496319D02*
X177608360Y-103496319D01*
%TO.C,R18*%
X219593375Y-58859698D02*
X219593375Y-58405570D01*
X221063375Y-58859698D02*
X221063375Y-58405570D01*
%TO.C,R2*%
X195242389Y-88022058D02*
X194921272Y-88343175D01*
X194202942Y-86982611D02*
X193881825Y-87303728D01*
%TO.C,D13*%
X220824857Y-80434857D02*
X222744857Y-80434857D01*
X222744857Y-80434857D02*
X222744857Y-77574857D01*
X220824857Y-77574857D02*
X220824857Y-80434857D01*
D10*
%TO.C,U3*%
X200431400Y-103098600D02*
X199964741Y-103098600D01*
X197545259Y-103098600D02*
X197078600Y-103098600D01*
X197078600Y-103098600D02*
X197078600Y-103565259D01*
X200431400Y-103565259D02*
X200431400Y-103098600D01*
X197078600Y-105984741D02*
X197078600Y-106451400D01*
X200431400Y-106451400D02*
X200431400Y-105984741D01*
X199964741Y-106451400D02*
X200431400Y-106451400D01*
X197078600Y-106451400D02*
X197545259Y-106451400D01*
D13*
%TO.C,D10*%
X151455000Y-65695000D02*
X149535000Y-65695000D01*
X149535000Y-65695000D02*
X149535000Y-68555000D01*
X151455000Y-68555000D02*
X151455000Y-65695000D01*
%TO.C,U2*%
X156505000Y-85460000D02*
X156505000Y-87260000D01*
X159725000Y-87260000D02*
X159725000Y-84810000D01*
%TO.C,LQH1*%
X150171000Y-86740000D02*
X150851000Y-86740000D01*
X150171000Y-86740000D02*
X150171000Y-80820000D01*
X154711000Y-86740000D02*
X155391000Y-86740000D01*
X155391000Y-86740000D02*
X155391000Y-80820000D01*
X150171000Y-80820000D02*
X150851000Y-80820000D01*
X154711000Y-80820000D02*
X155391000Y-80820000D01*
%TO.C,D3*%
X185386000Y-54412000D02*
X185386000Y-56332000D01*
X185386000Y-56332000D02*
X188071000Y-56332000D01*
X188071000Y-54412000D02*
X185386000Y-54412000D01*
%TO.C,C12*%
X213566667Y-108354692D02*
X213566667Y-108877196D01*
X212096667Y-108354692D02*
X212096667Y-108877196D01*
%TO.C,C10*%
X187425000Y-107921248D02*
X187425000Y-108443752D01*
X185955000Y-107921248D02*
X185955000Y-108443752D01*
%TO.C,R6*%
X187045673Y-64408476D02*
X187499801Y-64408476D01*
X187045673Y-65878476D02*
X187499801Y-65878476D01*
D11*
%TO.C,RV1*%
X179905606Y-53459442D02*
X179905606Y-47739442D01*
X187525606Y-47739442D02*
X179905606Y-47739442D01*
X187525606Y-47739442D02*
X187525606Y-53459442D01*
X187525606Y-53459442D02*
X179905606Y-53459442D01*
D12*
X188275606Y-50919442D02*
G75*
G03*
X188075606Y-50919442I-100000J0D01*
G01*
X188075606Y-50919442D02*
G75*
G03*
X188275606Y-50919442I100000J0D01*
G01*
D13*
%TO.C,SW1*%
X208305000Y-74240000D02*
X208335000Y-74240000D01*
X201875000Y-74240000D02*
X201905000Y-74240000D01*
X206335000Y-77340000D02*
X206335000Y-83800000D01*
X204405000Y-77340000D02*
X201805000Y-77340000D01*
X199875000Y-77340000D02*
X199875000Y-83800000D01*
X208335000Y-80700000D02*
X208305000Y-80700000D01*
X201875000Y-80700000D02*
X201905000Y-80700000D01*
X204405000Y-83800000D02*
X201805000Y-83800000D01*
%TO.C,R22*%
X181112936Y-100230000D02*
X181567064Y-100230000D01*
X181112936Y-101700000D02*
X181567064Y-101700000D01*
%TO.C,R17*%
X149760000Y-72252064D02*
X149760000Y-71797936D01*
X151230000Y-72252064D02*
X151230000Y-71797936D01*
%TO.C,R8*%
X214738674Y-64070458D02*
X215192802Y-64070458D01*
X214738674Y-65540458D02*
X215192802Y-65540458D01*
%TO.C,D7*%
X195117000Y-58917781D02*
X195117000Y-60837781D01*
X195117000Y-60837781D02*
X197977000Y-60837781D01*
X197977000Y-58917781D02*
X195117000Y-58917781D01*
%TO.C,D12*%
X217137000Y-80416000D02*
X219057000Y-80416000D01*
X219057000Y-80416000D02*
X219057000Y-77556000D01*
X217137000Y-77556000D02*
X217137000Y-80416000D01*
%TO.C,GND TP*%
X222605000Y-90620000D02*
G75*
G03*
X219105000Y-90620000I-1750000J0D01*
G01*
X219105000Y-90620000D02*
G75*
G03*
X222605000Y-90620000I1750000J0D01*
G01*
%TO.C,C6*%
X201453259Y-73179000D02*
X201975763Y-73179000D01*
X201453259Y-74649000D02*
X201975763Y-74649000D01*
%TO.C,C9*%
X195170248Y-80799000D02*
X195692752Y-80799000D01*
X195170248Y-82269000D02*
X195692752Y-82269000D01*
%TO.C,R19*%
X202006882Y-59088090D02*
X202461010Y-59088090D01*
X202006882Y-60558090D02*
X202461010Y-60558090D01*
%TO.C,C11*%
X175402680Y-63126767D02*
X175033213Y-63496234D01*
X174363233Y-62087320D02*
X173993766Y-62456787D01*
%TO.C,C18*%
X207650400Y-58048961D02*
X208172904Y-58048961D01*
X207650400Y-59518961D02*
X208172904Y-59518961D01*
%TO.C,R1*%
X197587970Y-76975007D02*
X197587970Y-76520879D01*
X199057970Y-76975007D02*
X199057970Y-76520879D01*
%TO.C,R7*%
X195300339Y-53922284D02*
X195300339Y-53468156D01*
X196770339Y-53922284D02*
X196770339Y-53468156D01*
%TO.C,R25*%
X197995787Y-90925895D02*
X198316904Y-91247012D01*
X196956340Y-91965342D02*
X197277457Y-92286459D01*
%TO.C,D11*%
X213508000Y-80416000D02*
X215428000Y-80416000D01*
X215428000Y-80416000D02*
X215428000Y-77556000D01*
X213508000Y-77556000D02*
X213508000Y-80416000D01*
%TO.C,D9*%
X180632602Y-60842042D02*
X180632602Y-62762042D01*
X180632602Y-62762042D02*
X183492602Y-62762042D01*
X183492602Y-60842042D02*
X180632602Y-60842042D01*
%TO.C,GRM21*%
X157345748Y-79529000D02*
X157868252Y-79529000D01*
X157345748Y-80999000D02*
X157868252Y-80999000D01*
%TO.C,C14*%
X209777338Y-108354692D02*
X209777338Y-108877196D01*
X208307338Y-108354692D02*
X208307338Y-108877196D01*
%TO.C,J2*%
X187960000Y-102845904D02*
X187019548Y-101905452D01*
X188900452Y-101905452D02*
X187960000Y-102845904D01*
X189798478Y-101007426D02*
X197025109Y-93780795D01*
X189798478Y-101007426D02*
X187917574Y-99126522D01*
X197025109Y-93780795D02*
X195144205Y-91899891D01*
X187917574Y-99126522D02*
X195144205Y-91899891D01*
%TO.C,GRM31*%
X157149748Y-90530000D02*
X158572252Y-90530000D01*
X157149748Y-92350000D02*
X158572252Y-92350000D01*
%TO.C,R24*%
X188477611Y-94327942D02*
X188798728Y-94006825D01*
X189517058Y-95367389D02*
X189838175Y-95046272D01*
%TO.C,U1*%
X192312614Y-83364483D02*
X191640863Y-82692732D01*
X191640863Y-82692732D02*
X192588386Y-81745208D01*
X185085983Y-76137852D02*
X185757734Y-76809603D01*
X191640863Y-84036234D02*
X192312614Y-83364483D01*
X184414232Y-76809603D02*
X185085983Y-76137852D01*
X185757734Y-89919363D02*
X185085983Y-90591114D01*
X178531103Y-82692732D02*
X177859352Y-83364483D01*
X185085983Y-90591114D02*
X184414232Y-89919363D01*
X177859352Y-83364483D02*
X178531103Y-84036234D01*
%TO.C,R14*%
X215203000Y-72638936D02*
X215203000Y-73093064D01*
X213733000Y-72638936D02*
X213733000Y-73093064D01*
%TO.C,D4*%
X209330000Y-56840000D02*
X209330000Y-54920000D01*
X209330000Y-54920000D02*
X206645000Y-54920000D01*
X206645000Y-56840000D02*
X209330000Y-56840000D01*
%TO.C,R16*%
X222466500Y-72667830D02*
X222466500Y-73121958D01*
X220996500Y-72667830D02*
X220996500Y-73121958D01*
%TO.C,R5*%
X210889182Y-51673708D02*
X210435054Y-51673708D01*
X210889182Y-50203708D02*
X210435054Y-50203708D01*
%TO.C,U4*%
X194773000Y-79138000D02*
X196183000Y-79138000D01*
X196183000Y-76818000D02*
X194153000Y-76818000D01*
X196183000Y-76818000D02*
X196183000Y-77478000D01*
X196183000Y-78478000D02*
X196183000Y-79138000D01*
%TO.C,ERJ1*%
X163930000Y-85370936D02*
X163930000Y-85825064D01*
X162460000Y-85370936D02*
X162460000Y-85825064D01*
D11*
%TO.C,U5*%
X165420000Y-105550000D02*
X166080000Y-105550000D01*
X166080000Y-108450000D02*
X165420000Y-108450000D01*
X166550000Y-106665000D02*
X166550000Y-107335000D01*
D12*
X163440000Y-105950000D02*
G75*
G03*
X163240000Y-105950000I-100000J0D01*
G01*
X163240000Y-105950000D02*
G75*
G03*
X163440000Y-105950000I100000J0D01*
G01*
D13*
%TO.C,R10*%
X202395064Y-56640400D02*
X201940936Y-56640400D01*
X202395064Y-55170400D02*
X201940936Y-55170400D01*
D11*
%TO.C,LS1*%
X220980000Y-102870000D02*
X215260000Y-102870000D01*
X215260000Y-95250000D02*
X215260000Y-102870000D01*
X215260000Y-95250000D02*
X220980000Y-95250000D01*
X220980000Y-95250000D02*
X220980000Y-102870000D01*
D12*
X218540000Y-94600000D02*
G75*
G03*
X218340000Y-94600000I-100000J0D01*
G01*
X218340000Y-94600000D02*
G75*
G03*
X218540000Y-94600000I100000J0D01*
G01*
D13*
%TO.C,C16*%
X179105120Y-74820633D02*
X179474587Y-74451166D01*
X180144567Y-75860080D02*
X180514034Y-75490613D01*
%TO.C,RC1206*%
X166095000Y-87087064D02*
X166095000Y-85632936D01*
X167915000Y-87087064D02*
X167915000Y-85632936D01*
%TO.C,D8*%
X219374656Y-65144273D02*
X221294656Y-65144273D01*
X221294656Y-65144273D02*
X221294656Y-62284273D01*
X219374656Y-62284273D02*
X219374656Y-65144273D01*
%TD*%
M02*
